/* XPM */
static const char * BlueParchementData[] = {
"100 100 17 1",
" 	c None",
".	c #9AACAC",
"+	c #B7CAC9",
"@	c #CBDEDD",
"#	c #A9BCBC",
"$	c #C7DAD9",
"%	c #BBCECD",
"&	c #AFC2C1",
"*	c #BED2D1",
"=	c #D9ECEB",
"-	c #A1B4B4",
";	c #C7D5D6",
">	c #BAC6C8",
",	c #D0E3E2",
"'	c #B2C6C5",
")	c #C2D6D5",
"!	c #B2BEC0",
"*))$$$))$)%%%+&#%)$@$*%+&--')*+&&*)+&'+''&+$$%'+-+*'#'**#-')%+**#--#&'%@,$+#..-##+)@@$))+'&'%)%&*>'%",
"@$)%+&&#&###&&#-'%@@)+&#--#$,@***$*&#&''++*$$%%*%)%#-&%*'#')+'*)#-#+**$,$*&--#'%*),,@*+'#&&+)$*!;%%%",
"$)%&####&&&&&##-'*@$+###-&)==)*)**&-#'''++%**+*@$@+..&%+##'*'&%%'&%@,$$,$+#-&*@,@,,,*&-#-#+*$@*-;;;%",
"+'&#&&'%@$*+''##+),)'-##+)==$'#+'#.-#+%&#&''&'%$*)+.-+*'#-'%#&%%)*)@@)%*$'-#%,,,*$,$+#---'%*$@%-%@@%",
"&&''%)$@,,)'##&&$@@%#-'*,,=,'--''#.#%)%'#''&&+*$'+&-#)$%#&*$'%,@*+%)*%'%@'-&),$+-&%%'&#''%***)+#;,;>",
"&'+*)$)$'&#---&+@@)'##%@@$*'#.#*$''*,@%#%****$@)&&#-&*$)'%=,)@=,&#&*)+%*$'#&*@+#.-'+'#+***)))+&!;@;#",
"#'*))*+'---#-&%)@$*&#&)@$+##--%,@%'@,@%&*$))@,@*##&+*%'+'*==*)@)##')@)*))&--'*&-.&%%''+)*+*$)'!&;;>.",
"-#+))%#--#'%%*$@*%'&&')@)&---&*,%##*@)%'%*))@=$&-#%@@+#--+,@''%###%@=)%%%-..&'&-#%))+&')*'+@,'!>@;!.",
")@,,@+&#-%@@@@@)*'&#')$$&&#-#*,='#-&)*%*@@@))$'-&),@)%'&#%)*#--#&+*))+&-#---&&&#+))*''*@)&&$)#-'@%>!",
",,,$%+'&%$$*%%+&'##&+)@@&&&&'),@&--'))%%*)*%*)+#'$,)''+'*),)'-&'%*$$*'-.##&'%****)*'&'*,*##%%-->*>!&",
",@%'&&&+@$)&&'&#&#&'%*)*#&#&%$@%--&%$)%'%%+&&&#-'$,*'&'%%)@)'&+)$$@$)+&-#&+%*$$@+%*''+)@%--''-#;;%%%",
"@%#...-&)%'&'++''%%**%'&.-#&*@%&-#+$@$*++'&#----'$,)##&&-&++''%$$$@$)*++#'%*%+%*&%)*%**%'--&'&+,=@@,",
")+#-.--#%'&+*)**$$@$*+#---&+$,*##')@,$)%+'''&&''%$@%#-#&-#+%++%**%*++'&&#'%*++'+#%)%%**'#--'*%;=,;;;",
"-&&'&'*)%++***%**)))%'&#&+*$,,$&#%$$$)*%+'+$@@@@)$*#.-&&+*@$)%'+%+&#----&'*$))**+)*'&%)'#-&$@$@,>!--",
"-#+*%*$,$%%**''%+%%+####%$@$$$%##*$*'+*+'&+@=,$)*%&-.&+%,,,,)%++*+&#--##%%)$@$*+%$*&&%*'-#%,=$%+!...",
"-+))'&+*)%%%'#&*+%+#-.--*$@*+&#.#*)+##'''#'$,)&#&&#--'*%@,@)*+%%*%'&'+*)$*))$*&#+$)'&*+##')==;&-!--!",
")$,@+'+)''##&+$,$)*)*+),=@%#-.##+*%--+)%#+)$*+##&&&&*))@)$)%'''*+%***),=,$))'--&%)+&%)'#&,==,&--!!>%",
"@,$*&'+)'&&#'*@,@*%*%%),@)&--#'+@@*##*)''%)*%'&#&##&+))*+''&##''%%%+++)@*+''###%*)'#%)&#+,,@%-.#;@,,",
"@)'#-#%*&'&+%)@,*'#&''*,%#--#')$,@%#'$)'+))+&'&#'!!&+%%+!##!&>++*%+'#'%*'#--##+$))&#*)'&*@)&#..!$@,,",
"%#..-&+*%%%%%*))#-.-'''*&--#%$,@%'##%,$''**+&'+'''>%;;%+>&!+;$$))*%'&'%)&####&*@$)&&)$'#%)'###!;;;;%",
"&-.-'))$)))*%+''-.-'**%*''&')@)+#-##*$%-#'*%+%+'%%;;;;;>>>>%@@,@)*%+%*@@+&'%*%*$%+##*%#-&+&#'++$,;%>",
"'##'@=,@$)**'''&&&'@,))))**))%&--#&+%%#.-#+)**%+;;;@,@%>-!!;;$;)*%%'))$@*'%))*++&###%&.-'%''$)*;@;>!",
")%*),=@*+'''''''*%$=@)+*'++%''#-'*)*+##-##'$)''%;;@@,;%!-!>%;*%%'&&'%**%&##*)%''#'+*@'-#*)*%$*'>>>!#",
"$)))$)'&####&%*)))$@)'#'--##&''%*),@%#&'&#'$)'&;;;;@,;>!-!;;;%+%###&'''##.-&%'''+$$==)&%@,)*$%--#!!!",
",@%'%'#-#-#&*)*%&*))&-..-##&&'))@)))%%)*--#*)%+%%;@;>--!->;;;@;%&#+)%*%#-%*&#&&%,)))*&#&@@*%%#->;%%;",
"@$'&*+&&'''*)))*+**+#.-#'*)@)@,=,)$)+'%'-#+$@*>;;;;%>-!!>;,%%;$'-&),)**##@,)%'%)=)+%'--#$)%+%&#*,@%;",
"))'#%*''**),,@)***%'##'*),=,$))@)**)%''#-'),@)++@;;>!!!%;,;!!;$+#&,=$%''+,=)%'%@='##'--'**%'%''@=@%%",
"))&#%*'%)),,@)%')*'&#'*@===$'#&+'&')*''#&*@,,*+%@;;!!!%;,,;!!;$+-'==*&'+')@%--')@#.#+&#**)++*'>@@%!!",
"$)&#*%'''*@@)''#)*+''')@==@+#-''%-')*''#*)@$)*%;;;>!!!;@;;>>%;;$'&@,'-#%%%'#..&@$#-*)''**)%'+&&$;%>&",
"))'&*%'&&%))+###**+'+%*$*+#-.-+))#'))'#-$)*++%;%;>>!!>;@%>>%;;$@'#+*#.#*)''-.-*=,%'$@+&+))'''!&;;%>+",
"*)'')*&&#'))'&&'*++''++%&-...'),$#&))''#)*'#&%%>>>!!>%;;>!>%;;@,+--%&#+))'''-'@==))@$'#'*)'&'#&$;%>%",
"%)'')*&&&*@)'&+***+''''++#--'$==)-#))%%'**&#&*%#!!!>>;;;!%%%+;,,&.-++'*$*#&%'*,=$))))+'%%%&#&#!@;&!!",
"%)))*)+-#++''+**'&##%))*@#.&@=@)+--)@&#%$+&+%'##-&+>%;@;!!#!*@$)&-#**''$+#'$@))*')@+###-+'#--+)$%#-&",
"@)*''+&-.''''**%##'+)))))&-'$@*&---)@'#'*++**++%'%*+>%&#---&%$*%#-')*'')+&*$*&##')@%&&##-##--'**>--&",
",$'#&''##+*+'%%'-&%)$))*%#-%@)#.--+@@*&&''*$$%*$@,,$*%&#--!%$@*'#'*,$++$*+*$'#-&*)@%&#&&.#''&%*%'#&*",
",)'#%))%)$$%'%'&-'@,)+&'###),)&-+*$)))+'&%)$*%*)$$$;*+&#!'*@,,)'&%,,@**))%*)*%)@)*%&##&'&%$*%%%+'&%$",
"@%#'%$*%@@*&#'''#%,,'#--&#+$@%#-@,$'#'%&+)@)'&'%'&'&&#--%*)@$)'##+$)*+%++'%@,,$,)'&---'%)@@*+++''&*@",
")'##''##%%#.-&%'&),)#.--)*),)#--@)'..&+'$@@+&#+%%+&&#-##)**+'&--#++&#&'##'+@=@''*##--#+$$@*&#''##&+*",
"*#-&&##'++#-#'**'*)%#-#',)))'---*%#.-)*+,,)&#+$,,)%*%'%)$*'#--#-+*+-#++&#'%@,%--'#-''+*$**&##+%'++%*",
"*&-#''+)$)%&'))*'+*'-#*,))*%#--'''-#%==$,@)##*==$%'+%*)=,$+#--&+,,)##$@%'%*))'-'##&*$*)@*%&#%@,)$$$$",
"&&-&)*%,*)%'*@@%-#-##'),))))#&**$))$,,$%%'#&+),,*#-&+'+@*#..&)@$,,+-',,+'%*''*'&-''++%%))+&%@*%''$$+",
"&&-#*%')+%'&%))'''+*+*@,''%'##%)**%)$$)%+'''%)*)'..#'&')#-.-+$@)%%&-',@#'++''%*'&''&&&'+*'&%*'##%$)&",
"''-&)*&%%'&#'*+&''**)**)##&'##%**+''%%++&'%%++++#.-+*+'*'#&+)$*'-###*,*-#'+'+**+)+'&&&&#'&#''###$$*#",
"*'&',@'*$+&#''#-##''++''-#''''+%)*&###''&+*%+''%&&+$,)*)***)$*'#.#''%*'--#*)**'&@*'&'''&&#&#''%),$'-",
"''#+@)'*$+&'+*'#-###''%+#'*)@)%%*'---'**#'*%''+)%%$,,$+++%++%'##&%))'&#--&*$)%''*'&&&++'++'#&*@,=*#.",
"''#'*'&+)'-')@**###&'))$#%*)@)+*'---'),,-&%%+'*$%*@@$'##-##&##&')@,)&&&'#&***''+'###&'++,$%&&*@,,%-.",
"))%%*&#*)'-'$$)*''#'+)@@''''**+*'--'@=,@-&******+*)*'#---&&''%*)@@)*'''*##%**&')&'''%%*)@$%&')$)*&-#",
"==,))''$,+#+))'&'&#'*)))&'#-&'')'&&)==@+-&*$$*%++*)%'#--'*$$)),,@)%'%***--+))'')'))@$$,,++&&+@$+'--+",
"=$%*'#-++'#'+#--#'&'+$*'..-%)$)*&.&,='-#.#%@,,)%)*'#--+))@,,)))$)+%))+&&.'@,@*%%#+)*+*+'-##&*@*#..-&",
"*&&''--''''**##-**''+)+#.#+))*%+#-'=,#-#&%@,,$%+)*'&#'*,===@%''++''*)'##'*,,)%'+*))%+++&-&'+%*'-#-#'",
"&##%'-#+*''**'#'@)*&'+'#-*@,%&#&#'*=)#-+*$,,)+&#*%'''+$,==)'--#''##%*'#&%)@@)%%*@,*'#&&#'%$*+&--&&&%",
"%+**'#'*$+'+**+*@)*'''&-'),)#-#&'%@,*-&$*@@)'###%%*%%*)))+&..-')+&&*)'##**%++%))*%'##&'#)$,)'#&&*%**",
"****'&+,@+'*@$*'**+'&'#-&),'--#+*)@)&#%,)@@*&##'))''''++'#..-'$=%#&*;&#!%+>&&+%*&&&+%%*),,@*'#+)$)**",
"&&&'''),)+',,$'#'+*'''#-')*#.#%))@)+#')=)$$)%%*)@*'##'+'*&--+@,,*#!;@&#>@%>!&>&&&'*@@$,,,)*%''),@$*'",
"&&#&'+)@***$@*'#+**''+'#')%--%@$*))'&*@,+++''%*)%''&'***$'#&),,*'.-;;>!%;%>>>+!#%*@@$+*,@+&'%+*$))*&",
"++'++***)*))'#'*)$)+'+*'+)%#&@,$*)+''@@$####&''+--&*$@)))&-&@,)##..%$!!;;>&>;*%#))@@'-#%)##&*%+%)$+#",
"*$@)$@@)@+--&#+),+#'''+)$+'%%)@%'+'&&%))-&))%%*#-'*@,$)*'#-'=@#--!>;;*>!>%;;;;)$@)'&##%,,+&+$$%%**'#",
"+))**$)%'#-&'%*$$'#'*)*))+%)))+#-&''+))*''$)'++#-'),)+'####*=@&-%;;;;%>!>>;;%%%))'###&*,*'#%)*+'%%&#",
"++'''**#--#%@$$@'#-*@@))*++))*'-#'***,,$%*@)'++##*@$%#--&&'),*#-@@;!!>>#+;;*>>+)'#-#'')@'#'%)+&#''##",
"%''''*'--#%@=,)*#-#),$**+&&%*%'#&'+''))**)@*''%#&*$)&--#%*),)'-#;;>-.>>!@,;%!#>*+&#'**))%''%%&##'##'",
"%%'&+*'#')@=,@%&.#'$)'''+&#')'#&.###''+&**$*''*''*)+#-'*))$@'#-!>>!.-;@;,,;>#!)=)+'))*%%@%'%+##&'&#+",
"%**'*)%&*@=@)%&#-'*$*#&+*'&*$'---'**)$*'++)*&+)''+*'#&%,@)))&-#'&>!!>,=,;;>!!%,=$)))@%%%=*&&'&''%+++",
"+%**+))'*))'&&&#'%*)+#'*)+&*)&.-),==,,*&'+)*&+*&''+''&+)%'**#-'%%%>%;=,;%!!!>;@,%+*)$*%),'##'++*))*%",
"'+**%))%'''-.#'')***+'*$$'-'*'#+===@*'-.'+)*&'%#'++'''&&&#+*&#+;;;%;@;;>%&!!>%*%#&%))*),)#.-+%**)@$%",
"#*)*+%''#'+#-''*))**+++*&#'+%'%$$$))'-.#'*,$+&+))$$**'&-&'%&##%$->%!!>>>#>;$*>+%'''%**'##-#'****@=@+",
"&**'&'''+**&&*@)*%''&'&'&&&''&'%%***#..#%)@)'&+)'*)%'+'#%***'+*@%%>#-!+>-&%%'&'+%''+*''&###+*$))@@*#",
"'+'##&''*)*'')@@'&--#'''&'''''%&'+*+#--'$$*'''+*+)$*''%'$)***%*;%+#.-&*)#'+''&+*)##'*%''*%****%'*+&-",
"%+&--'*+***'*))'--.#+***+))+%$$'&%$*'#')@*'#'+**),=)''+*@)%'+**%&#.-&$,,&'%*%*)$+#-%)%'%,@$$*%'&'&--",
"%'#-&*$)****))'####%$,*''))+*@@+&%))''*@)'#-')))+@,*#&+*)+###'%%#-#+@,,@#'*$$)**#-&)@*'*))))*%++&##'",
"*%##'@@)+)@)))'#'%)@,$'--+)'&%*&#'%'''%)*#-#+$)*-'%&-#%)+&#-&+%%&&'$=,*'-#%)$)'&--%@@*+***))+'''&#'%",
"*%##%@)+'***%%'&))@,$+#..+)'&&'&#'+''*)%'&-#*$)'.&'&#'*)###&'**)%+%$@*#--#*$@*'#&*@,)+'*'%%%'&#&''+*",
"*%'#*$*--&'##&&&*)))*#-.-*@*&#'&'%%+*@@)'&-&*)*&#+)%+*))-#'*@@@@)++)*&#-&+*,,$%'')=,*''*-#&'&&''%+%*",
"*'##'*'&-'*''')))'&'+#--*,=)'%)$))*%*%''-#'***++'$,)&&%)&&'*))%'#'++&#&+*)$,,%'+#%*+''&--###&'*))*%$",
"*%''**'&'*$*+))@'''*)%''*@$%'*@,*'''+''#''*)$,@$)@$%''%+-&%)@)+&#'%+##'%+%*)%&-&'**'#&&#-#&'+%)$=@@,",
")**)))+#+$@)**))''*@)*'*$)+&&*@@%'&''%&-'&'*$@@$$$*''**'#')@$*&-&+*+&&+$*+%*'#-#+*+&-'''-&%*))$$)*%*",
"'%)$)+'-'*)%'%)*'+)$*##+@*&-')$)&&&'+*'&###'**''))+#'*)%$@@)*&#-+*)*''),$**)'&#''*+'&%)*&%$@$)))&#&&",
"#'**+'--'**++**%''%%#--+,*-'*)*'---'*+''''+***&-%*%&&+))=,$%'&'')$$*%*$,$**)%&'****''))*%)@@$*%%&'%%",
"#&%+'#--*$$**))*###'##'@,+-'))'#.-#'''&'@,=,$*'&'%*'&%)$,)&&&%$@)))*%)))'&'''#'*$@)+'*%'*)$*%''++*))",
"'%**'#'+@,@*+*%#--#%**$=,'#'))*'-'**'#'',=,,*''&'*)'&'**+#--+)$))%''%%'&#-#''&'*))'#&'*'%%%'#&'+'*%+",
"*)$)+'*$@,$'&&#--#'*@@==@'-'))*+')=,*''*)$*'-.-#+*)'&'+'#-.#*)%&*'##'+#.--#'%'*$+'-.-+))+'&#-#'*)$*'",
"*@@+'+*)$*#---#'%,==,@$)&--')**%)*)@)''***'...')@))*%%+'%'+)==$'#++*@$''&+@=,@+&'%'--+),*##++%$)))%%",
"+)*'#'+*+'-#-#'))==@'&##..-+$)))++*)+'#''*+-.-%)@)''+%%+***@==$>'*%%$%##*$,=@)'&&''&-&%*'-#***$*%+'&",
"%**&-#***'#'''),$$*#---#--#),)**+''''##'&**'-')@)'&#+*%%$;$@=@+-+$;%*>##$@$)'#--'%%'''%'#-&@))*%###&",
"*)*+''*)@**)))@=$)'---&+++*,@*'+'#''&#-&+))'&+)$'#.!%@;%;;*;%>-.>;*+%&!%$;*&-.--*****)))--%,$%+#-#'+",
"*%*%++*),)*)@)@=,)&##'*$,@@@$+'*'&&''&&')$*'&%))#-->;@%!>>>>>!#.;;*>>!!%=@;'!#'**%%**)@@-#)=$'&--&*@",
"'&'+'''*'''+***@)'&+)$,=,)+**+%)+''''''+@$'#'**+!!&;;;!.!!>>>>%;,,%!!##%$*>!#'%)'&&'%%))#&)=%##-'%$,",
"&#&%*'&''#&''''%&--+@$;;;&#&+++%*&#'%''%)+&-+)*##!>%;%!.%%%%%%;,,,>#!!!%%!..#&+%'##%*%'%''),'-#&*))$",
"'''$)*'+)''*'##&&-#%;*&#+!--&&#&%'#''''++&--*$*--#>%;;>!@@;>!>>;@;!-!>>;;!#->%*%+'')@)'''&)$#-&+$)*%",
"&&*@$*'++*)*'**$%%;@;!!>>##>*%%*$%'),,)))'&++#--%;;,,;;;@;!-!;;;;;!-!*;;>!#!;=,,$$@)*'''),,)+&'%))%'",
"+%*@*'&'%+'&&+),;;,,;>>;%!>%;%+*)++),)*+)+*))+##!!>;;;%>@%!!>;;%;!!-!;,;>>>%@@@*%%*'&#&'+**'#-#'%%++",
"%'%*+#-&*'#-&+*@%;@@>!!;;>%;$)*%*'+)$*##'+*$)'#&-!>%>>!>;>!%;;;>%>!!>;,;>>%;@@;%-&&#--#**%'#-.-&''+%",
"'&'+'-#&)'#&+%*%>>;%!.!%;*%*%**))+***'--''*)+##>>;@;>>>%>!!;@@;>%>!>>,;%!!>;;;%'.#'&--'),)+---&+*%+%",
"'&'*+'+),+#'*%+%>>>>!-#;>>>>!%$@@)***#--%+*+'-'*,,,@>!!>!-!%@;>>>%>>;@@%!!%;%>!#-')*&#%,,*#--'),,*++",
"*%*@$)@,,%#'%%%;%%%%>!!;>+>#!%),)*+*+&&&@))*'&+@=,;>!-!!!->;;%!%>>>>;,@;!>;%>---&),@%'*,'#.-#*,=,*&'",
")%)@)%+))&#'%'+;*>>;>>>*!%%&&%))&#&+*''%,$))+&+;;;>-.-!>>>;,;>!%;;;>;@;%!>%>>#!'*@,@%'%$'#-#%@@@%##'",
"*'*)'#-##.-%)++;%!!>+!!>>;;%+**+..#+*%%*@)**+#!%;>-..!>;;;;=;#!;=,;%;;>-#!>>>&)@,,@)'&')*+'*@@*'-..&",
"%**+'-####'*$%%;;%%;*!-#+%+>'+%*.-'$@*'*@)'#&&'&>>-.-;@%;;;%!.!%@;>;>>!!->;;;@,@@@*'--'*'--),*#-.-#'",
"*%'##-&'%+*$$%>>%+%;$*%;$*%%+*))'*$,,*''%+&&+%%*;;>!!%;++>>!-.>;,;>%%!-!%@,,,,,$)+&--#'*'-#*,%&#'+;;",
")%&-#'+*$)$@@+>>+>%);)*$$*++**)*%*@=@*'''#&&%**%%;*+'>%*%>'&&!*=@;>>>>>>@==,;;*%&###&'%%+##*$'&'$$;;",
"$*%+%))$@;@,@;>+%'&+%'+*)+##'*+'''),@+&'&&&%**%'#&%+&#'%*++*;;@=;!!!>>;,;,,%!-#.--&%)@)*%#&%)'&%@;;%"};
