/* XPM */
static const char *BlueTextureData[] = {
/* columns rows colors const chars-per-pixel */
"128 128 21 1 ",
"  c #5199D4",
". c #5199D5",
"X c #5198D4",
"o c #5298D4",
"O c #5299D4",
"+ c #5399D4",
"@ c #5298D5",
"# c #5299D5",
"$ c #5399D5",
"% c #519AD5",
"& c #529AD5",
"* c #539AD5",
"= c #519AD6",
"- c #529AD6",
"; c #539AD6",
": c #539BD6",
"> c #529BD7",
", c #539CD7",
"< c #5198D3",
"1 c #5097D2",
"2 c #4D94D1",
/* pixels */
"+11++++<11+++++++++1<+<++1++++++1+1+1<1<+++1+11<+++++1111++++1+11++,+<+1++<1111<11+++<<+1++++++11+11<++11<<1<<11<11<<1111+<1<1<1",
"++11+1<+++++1<<+1++++<<+<++++++++1+111111+++111+++111+1+1+1111++++++++<++++11<111+<++1<+111+11+11++1++<<1111<1+<11111111<1111+11",
"<+<11<++1+<111<1+<11++++1+11+1++<++11<+11+++1+111+11+11+111111++++11+++++111111111++11+<1+++1++11++11+++1+11+1++1<111<<11<11+111",
":<<+++1<11<1+<<+++++1<+1++1<1++1+++++1+1++11111111+111111+1++<+1++11+11++1<1+++1<1++++11++++<1++11<1+1++1+1<111<++1111+<111<<1<1",
"<++1+++1+<++++++<1+<++++1+111++++<1++1111+1+1111+11<+1111+1++1+11+11<<+++1+++1<1<++111111+++<11<+1+++++111111111111+<11+111<1111",
"1+11<<1<1+<++1++1+++<<11++1<+1+++1<+++11111111111111<111111+11+1+111++11<<<<+121+1+11<++++1+++11++++11<+<<<+11111111+1111++11111",
"<<1<+1111+++1<++1+1+<+++++11++11+11+11<+1111+11111<+++<11+1111111+++++<1+1+<+1<1+<+1++11+++++1++1+<11<<1+1++11111111111<+1+<<++1",
"11++<11+++++<11<1+1++++<++11111+111+11111111111<1111++111+11++11<11+<<+<++1+>1111<+1+1+++++1+++111++<++<11111111<1111111++<11111",
"1+111+1+<11++1111+++++<111+<1++++1111+111111111111111<11<1<++<1111111+<+++11+<111<++11+<1111+++<1+<1+<+11+1111++11111+111+<<<11+",
"+++11+11+<111111+<+1++<<1++11+11+1++111++11+++111+11111<<1++<11<1+<1+1+11111<1111<++<11<+<11++111++11++111++<1<1<21+1111111111+<",
"+<1<1111111+11111+111+++11<1++1++++1++++++<11+1+1++1111<1+11<<+<1+<1+<1++111+111++<+<1<<++++++11<<+1<11<1++1+11111++<+11111111<<",
"++1+11+11++1+11+1111+++++1+++1++<1<+<111111++11+111+<+++1<1+<1++1<+<11111+<11<11111111+11+11+<<11<<<11<+11<111111+1+++11<111<111",
"+1<1111+1111++111+++++1+++++++11++1111+1<<1+<1+<1111+<++11<<11<<<1<1<111+111111+<1<<<<11+11+<11<111+1111111<1+11++11111111111111",
"+1111++1+111+11+++++++111+1++<111+11111<1<1<<11++1+1+<++11<1111<11<11<<<+1<1<11<1111<<1<+<++<1<111111<<<111111111+11111111111111",
"++11+1++1+1111+111++1+<+11++++<1<<11<<111+1<1+111+++<<1<<<11+<<<1<<<111+<1111111<111<11++11<+<<<11<21<11<111111111111211111+1111",
"111<111++11<++<1+1++1+1+<111<+<<1111<+111111+11+11<<<<<11<1<<<<1<<<<1111111112+1111<11<111<111<<11<+111<<<<11121111<1111111<1111",
"1+1+1++11++++1+11+11+1111111++<<+<11+11<<11111<1<<11<111<<<<11<1<<<11<111111<111<<1<1<1<11111<11<11<1<1<1+1111111111111111111121",
"++1+<111+11+++1+11++1<11++++<1<1<<1<<1<<<1111<111+<111<<<11<<<<<<1<<1<1<1<11111+<<<1<11<1111<1111<11111<1<1111111111121111111111",
"1+11++111111<+1<+<1+1111+1++<+11<1<<<1+<1111<1<<11<1<<<<11<1<1<<<1111111<11<<<1<1<<1<<11111<11<11<11<1111111<111111111112121211<",
"<1++1<11+++1<++1+1111111<1<+1<111<1<+<<<1<111111<2<<+111111<<111<<111111<<<1<111<<111<<11<<<1111<<11<11111111111<111111111112121",
"++11111++1+11111+11++11+<+<<11<11+<1<<1111<11111<1<1<<1<11<<1<<111+1<1111<<<1<<<111<1<<<111<+<1<1<<1+<1<11111<111111111111211121",
"++<1+1<<1<111111++<1+11++1<+1<<111<<<1<1111<<11<1111111111111<<<11<1<+<11<<111<1<<<<<<11111111<+1<11<<11111111<<1111111111211111",
"++1++11+111<1+<1+<11+11<<1+<<<<1<+<<<<1111111<11111111111<11<<1<<11111<1<<<<<11<<<<1<<<<111+<1<<111<1111111111111111121211112111",
"111+1111+1<1<++11111<<11+<1+<111<1<<<<11<1<1<111111<1<<<<<11<1<<1<<<11<<1<1<<<111111111111<12121111<11<1111121111111111221111211",
"++1<+1111111111<<<1<+++1<111<<1111<1<<1<1<<<1111111<111<<11<<1<<11<11<<1111<1<111<<1<111<111111<111<<111111111111111111111111111",
"111++++111<1<111+1<<11+1111<<1<1<<<11<111<111<<111<11<<11<<111<<11<11<<1111<11<11<<11111<1<<<1<<<11<111111111<1<11111<1111111111",
"+11+1+11<11<1111++<<1<11<1111111<<<11<<1<11<11<<11111<<<111<1<1111<11<1<<11111111111<1111<<11<11<<1<1111111111111<111<1221111111",
"++1111111+1111++<<<<<1<111111<1<<<11<<<11<<<1<11<11<1111<11<11<<1<<11111<<1111111111<11<1111<11+<11111111111111<111<121111111111",
"+11111111+1111<11<11<1<11<<<+<1<11<1<111<<11111111111<11<<<<<<<11<<<<<111<<1111111<111111111<111<1111<111111<1111111111211111111",
"11+1<11111111111<1+12111111<<111<<<11<21<11<11<1111<211<1<<<11<<<<<1<111<1<1<1<111<1<11111<11<1111<<1<111121121111<111211111<111",
"11111<<1111<111111<<<1111<<111111<111111<111111111<11<111<<111111<<1<1<1<1<1111111<1<11<11<111<11111<111111121111111211111111111",
"<<+<1111111<<<<<1<111<<11<11<1111<21<1<<111<111111<1<11<1111<111<111<11<<<1<<<111111<1111111111111111111<1<111111111111<11112211",
"+11++11<111<<<1111<111<11<1<<1111111111<<11<11111111111111111<<111<<1<11<11<1<<1111<<1111<211111111111111<1111111111111111112111",
"1+1111<1111111111<11<111<<1<1111121<<<11111<111<<11<<1<<1<<11<<11111111<1111111111<<1<11111111<11<<11111111111211111111111112212",
"11111111+11121111111+<1111<11112<11<111<11<1111111<1<111<<<111211<<<1<11<111111<1<<<1<<11111111111111111<11111111111111111111221",
"1111<111+1111111<11111<<11111111111<111<1<1121<1<121111<<11<1111<1<111121<11111<11<1111<111111<111111<<1111111111111121<11121111",
"111111<112111<<11<1<111<11<1<121111<<<<11111<11<111<<<111111<1<11<1112111<1<111111<11<<1111<111111211111111111111111121111121112",
"11111111<11111<1111111111111111211111<11<<<1111<11<11111111111<11<1<<111112<<<1111121<<1111<121111111111111111121111111111111122",
"111111111111111<111111111111<<11<11111111<<1<111<<<1<1111<1111<11111<121111211111<1111111<11<111111111<<111121111111111111111121",
"11+1111111111211111<111111<11<<11111<<11<<<11<111111<1111111<<121121111<1111111111111211111111<12<<12111111112111112111121211111",
"1111<111<1<112111<11111111111111111111<1<111<11<<1<1<<111211111112<<1111111111111111111111<11<<111111111111<111111111<1211112111",
"1111111111111211111<111111<11111111111<1<<1111111<<11<111<11111<111<111111111111111111<<1112111111112112111111111111221111111111",
"1111111<11<<<112111111<1111111121112111111<12<111<11<1<<1<1<<211112<111111111111111<12111111111211111112111211111121<11211111211",
"11111111111111111111<11<11211<1<1111111111<12111<11<11111<<12221111<11111211111111111111111112111111111111111211112111112<112111",
"1<1111111111111<11111<112111<1<11111111<221111<<1211111111111111111<2111112121111122<111211111<111211111111111111111111111112111",
"111111111<11<1111<1<111111111111<2111<1121111<111221<<11111112111111111111121111112111111111<21111111211111211111111111112121111",
"111111111121111<<11<11111111111<<12111211212<11211211112112121111122121112112112212111121111221111112211111<1111<111211222222111",
"<11111211111111<11111111<<111<12111122121<111112211111121121111111111222111111222111<1121111112222111211111111111212211212122111",
"<<1111111111<11<1<1112112111111111<11122111<211221<1212211112111111111211121111111111<<11111<21122111111212211111222212211122211",
"1111111111111111112111111<11121111111111111<1<1<112111<1111211<1<111211121111111221121121111121211122112221211221111111222212211",
"11111111111111211111<1<1<12111<1111111111<1111112111111<1<<111111121221211122211111111122111112111221121111122221111112221211111",
"111111111111121121111111111<111<111211111111<1<221111111111221221<22121212112111111111122111112221111121212221211221111111111222",
"1112111111111111111111111111<121<1<<11212211<11211<11<11121222122112111121112121112111<121112112111<2111222221122112211111112221",
"12111111221<11111111111111211211111111122111212211111212112111121211121111111111<1<111112122222211111112122211122112222211221112",
"11111111111111111111111<11111111111121<2<111121111211112111212211221112112112211<<221221112122122122<221122222111222212211221222",
"1111111122111111112111111211112111212111112111221121112221122111<221122121122211121111121111111122211121122112211222112111111222",
"11211111111111211111111111111211211121111111112212121111122111111222211111111221111211212211211211212112122212221122111212212212",
"11111111111111221111112212121111211111111211111121221221221111111212212212112121121121222121112211221111111222212112221112222111",
"<1121121111111221221121121111<<222111111111111122222112122<121211212212121111211121211211221212221221111111212111112211211222221",
"1112111111111222112211121121111<1222121122111211221111221221212221<2221112111221112211211211212221222111111222111212111212212211",
"11111111112111221121212211111111221122211222122212112121111112121112211<11221111212221121221111211212112122112222222211211221111",
"11111121111111112111212111122122211122211221222121122222111221221112211221222211111111111211211122111121121111221221212111121221",
"1111111221111111111111111<11212221122121221211211112222211222122221222<121122221111222222212122222221222111112212222211222212222",
"11111111122221111111211211111112111122111121112112222222211112222212111121221222121222221212211212222222221122222122222211222222",
"212111111212121<2111111111111211221121112212211121112122221212212222222221222122112211112112212112212212222222221122122112222122",
"211111211112122121111211122122112111112212212222222111112211122211222212122<2111122222112222122222122221222211221222211211222222",
"11111211111111211221221211211111<11211212221212222121212112221111212221222221111122222122222222221122212222222221222212121222212",
"<1111112111111222222222211111<22221122212222112111222222122212221211221222222122222212121122222221222212111222211211222122221222",
"12111111122212122222222<<211<22222<122212112212112211222111222222222212221222212222222222222122221112212222212222221222222212222",
"1111112111121212222222222211112212112221222112<122222111112121122112221212221221222222221222222222212122212222221211222222221222",
"11111122222111122111211112112122222211122121121222222211122212222122221121222222221122122222222121222222222222212212222222222222",
"1121122211221221121211111211122222121222121112222221211211211222222111121111122221<211122222122122212222221222221222221222222222",
"1111111122221111222122121112122111212122221222112222221111212222111<211122221222222211222221211221222112221112222122222222222122",
"12111111222222222222212212111221111221212112112111112211<122211222222111121222221221212222211<2122222222122122212222222222222222",
"21111112222212211211221221121221211222221121122111121121221122112211211122222122222212222221112222122222222222222222222222222222",
"11212222222111221111121212112211222222122112221222222122222111111112222222222222212222221222222112222122222222222222212222222222",
"<112211222212112121122121111222111222222221122222212211111111222<222221222222222222122221122222222221222222222222222222222221222",
"21121121111212112222221111112212122222222222212222111212211222222212222222222211222122222221222222222222222222222212212222221222",
"22221221121221212212121221122122222222222222222122222211222222222222222222222222122221212222212212222222122222222222212222222222",
"22122111211122221222112222221221221222221222222222122221222222222222222222222222212211222122222222222222222122222222222222222222",
"12112122222112221221212221211222221222111222221221221222222222222222222222221222212122222222212222222222222222222222222222222222",
"12222122221122212212221211111212122221221222212222122221222222222112222212222222222122222222212212222222222222222222222222222221",
"12122212222222222211222212122122221222222222212211222222122212222222222222222212222222222222122211212222122222222222222222122222",
"22222222122222122221122221222122221222222222221222221222212222222222222221222222222222222222222222222222222222222222222222222222",
"222222222222122222212122<1212122222222222212222222222222222222222121222222222222222222222222222222222222222222222222222222222222",
"12222222222222222222212212112222222122222222222222222222222212222222222222222222222222122122222222222222222222222222222222222222",
"22122122222221221222222221221222122222222212222222222212222222122222222222222222222222121222222222222222222222222222222222222222",
"12222211222222211222221222221222122222222222222212211212222122222222221222222222222222222222222222222222222222222222222222222222",
"21222212122122222222222222211211122222222222222222222212222222222222222222122212222222222222222222222222222222222222222222222222",
"22222212222122222222222222222222222222222222222222222222222222222222222222222222221222222221222222222222222222222222222222222222",
"21221122222222222222222222222222222222222222222222222222222222222222222222222222222222222222222222222222222222222222222222222222",
"22221222212222222122222221222222222222222222221222222222222222222222222222222222222222222222222222222222222222222222222222222222",
"22222222222212122222222222222222222222222222222222222222222222222222222222222222222222222222222222222222222222222222222222222222",
"22222222222222222222222222222222222222222222222222222222222222222222222222222222222222222222222222222222222222222222222222222222",
"22122222222222222221222222222222222222222222222222222222222222222222222222222222222222222222222222222222222222222222222222222222",
"12112222222221222222222222222222222222222222222222222222222222222222222222222222222222222222222222222222222222222222222222222222",
"11222222222222222222222222222222222222222222222222222222222222222222222222222222222222222222222222222222222222222222222222222222",
"22222222222222222222222222222222222222222222222222222222222122222222222222222222222222222222222222222222222222222222222222222222",
"22222222222222222222222222222222222222222222222222222222222222222222222222222222222222222222222222222222222222222222222222222222",
"22222222222222222222222222222222222222222222222222222222222222222222222222222222222222222222222222222222222222222222222222222222",
"22122222222222222222222222222222222222222222222222222222222222222222222222222222222222222222222222222222222222222222222222222222",
"21222222222222222222222222222222222222222222222222222222222222222222222222222222222222222222222222222222222222222222222222222222",
"22222222222222222222222222222222222222222222222222222222222222222222222222222222222222222222222222222222222222222222222222222222",
"12222222222222222222222222222222222222222222222222222222222222222222222222222222222222222222222222222222222222222222222222222222",
"22222222222222222222222222222222222222222222222222222222222222222222222222222222222222222222222222222222222222222222222222222222",
"22222222222222222222222222222222222222222222222222222222222222222222222222222222222222222222222222222222222222222222222222222222",
"22222222222222222222222222222222222222222222222222222222222222222222222222222222222222222222222222222222222222222222222222222222",
"22222222222222222222222222222222222222222222222222222222222222222222222222222222222222222222222222222222222222222222222222222222",
"22222222222222222222222222222222222222222222222222222222222222222222222222222222222222222222222222222222222222222222222222222222",
"22222222222222222222222222222222222222222222222222222222222222222222222222222222222222222222222222222222222222222222222222222222",
"22222222222222222222222222222222222222222222222222222222222222222222222222222222222222222222222222222222222222222222222222222222",
"22222222222222222222222222222222222222222222222222222222222222222222222222222222222222222222222222222222222222222222222222222222",
"22222222222222222222222222222222222222222222222222222222222222222222222222222222222222222222222222222222222222222222222222222222",
"22222222222222222222222222222222222222222222222222222222222222222222222222222222222222222222222222222222222222222222222222222222",
"22222222222222222222222222222222222222222222222222222222222222222222222222222222222222222222222222222222222222222222222222222222",
"22222222222222222222222222222222222222222222222222222222222222222222222222222222222222222222222222222222222222222222222222222222",
"22222222222222222222222222222222222222222222222222222222222222222222222222222222222222222222222222222222222222222222222222222222",
"22222222222222222222222222222222222222222222222222222222222222222222222222222222222222222222222222222222222222222222222222222222",
"22222222222222222222222222222222222222222222222222222222222222222222222222222222222222222222222222222222222222222222222222222222",
"22222222222222222222222222222222222222222222222222222222222222222222222222222222222222222222222222222222222222222222222222222222",
"22222222222222222222222222222222222222222222222222222222222222222222222222222222222222222222222222222222222222222222222222222222",
"22222222222222222222222222222222222222222222222222222222222222222222222222222222222222222222222222222222222222222222222222222222",
"22222222222222222222222222222222222222222222222222222222222222222222222222222222222222222222222222222222222222222222222222222222",
"22222222222222222222222222222222222222222222222222222222222222222222222222222222222222222222222222222222222222222222222222222222",
"22222222222222222222222222222222222222222222222222222222222222222222222222222222222222222222222222222222222222222222222222222222",
"22222222222222222222222222222222222222222222222222222222222222222222222222222222222222222222222222222222222222222222222222222222",
"22222222222222222222222222222222222222222222222222222222222222222222222222222222222222222222222222222222222222222222222222222222",
"22222222222222222222222222222222222222222222222222222222222222222222222222222222222222222222222222222222222222222222222222222222"
};
