/* XPM */
static const char *CarbonFiberData[] = {
/* columns rows colors const chars-per-pixel */
"128 128 5 1 ",
"  c #292A29",
". c #3F403E",
"X c #40413E",
"o c #4C4E4D",
"O c #3E4141",
/* pixels */
"   o.    ..   Oo    ..   .o    ..   .o.   ...  .oX    ..   oo    ...  .o     .    ..   ...  .oO     .   oO         Oo    .    ..",
".....       .O..       .O..       .O.        .o.         O.         Oo.        .O         .o.        .OO         ..         Oo  ",
"oo    ..    oo   ...   oo   ...   oo    ..   oo    ..   .o.   ...   oo    ..   oo    ..   oo    ..   Oo.   ..    oO   ...  .oo  ",
"Oo    ..   .o.   ...  .OX   ...   OO    ..   O.    ..   .O    ...  .O.        .oX    ..   oX     .   .O    ..   .o.   ...  .o.  ",
"         Oo.        Oo.        Oo.        .o.         oo         Oo.        OoO        .oO         oo         oo         Oo     ",
"   ...   oo    ..   oo    ..   oo    ..   Oo    ..   .oO   ...   Oo    ..   oo    ..   Oo.   ..   .o.   ...   oo    ..   oo    .",
"   ..   .OO        ..X        .O.        ...        ....        ..O        .O.      . ..X.    .. ....     .  ...       .O..     ",
"      Oo.    .   OoO        .oo    .   .oo         oo     .   Oo.    .   .oo        .oo         oo         Oo     .   Oo.       ",
"...   oo    .X   Oo.   ...  OoX   ...  .oO   ...   Oo    ..   Oo    ..   .o.   ...  .oX    ..  .oo    ..   oo    ..   Oo    ..  ",
"    ....       ....       ....       .O..       .O.        .OO         ..         .O.        .O. .       .. .      ..O.       .O",
"   Oo    ..   .oo   ...   oo    ..   oo    ..   oo    ..   Ooo   ...   oo    ..   oo    ..   oo    ..   OoO   ..   Ooo   ..   .o",
"   OX    ...  .o.   ...  .oX   ...   oO    ..   OO    ..   Oo.   ...  .o.    ..  .OO    ..   OO    ..   Oo.   ..   ooX   ...  .O",
".Oo         Oo.        OoO        .oO        .oO         oo         Oo.        .oO        .oo         Oo         Oo.        Oo. ",
"Ooo   ...   oo    ..   oo    ..   Oo.   ..   Oo.   ...  .oo   ...   oo    ..   oo    ..   Oo.   ..   .oO   ...  .oo    ..   oo  ",
"OX.    ..  ..X    ..  .OO    ..   ..     .   OX    ...  .O.     .  ..O    ..   .O     .   .X.     .  ...        ...    ..  .OX  ",
"         oo.        .o.        .oo        .oo     .   oo         Oo.        .Oo        .oo         oo         Oo         .o.    ",
"    ..   oo    ..   oo    ...  Oo.   ...  .o.   ...   oo    ..   oo    ..   OoX   ..   .oX   ...   oo   .OO   oo    ..   oo    .",
"        ...       ....       .....      ... .        ...       ....       .....        ...       ....    .  ....       ....     ",
"  .   Oo.    .   .oo   ...   oo    ..   oo    ..   oo.   ..   .oo   ..   .oo   ...   oo    ..   oo.    .   Oo.    .   Ooo    .  ",
" ..   Oo    ...  .o.   ...   o.   ...  .OO    ..   oo    ..   .o.   ...  .oo   ...  .oo   ...   oo    ..   Oo    ..   Oo.   ..  ",
"    .O..       .o.        .o.        .o.        .oo         OO.        .oO        .O.        ..O        .OO         Oo.        .",
"   .oo   ...   oo   ...   oo    ..   oo    ..   OoO   ..   .oo   ...   oo    ..   oo    ..   ooO   ..   Oo.   ...  .oo   ...   o",
".  .o.   ...  .OX    ..   oo    ..   oX    ..   OO.   ...  .oX   ...  ..X    ..  .OO    ..  .OX.   ..   .O.   ...  .O.   ...  .O",
" oo.        Oo.        .oO        .oo         oo         oo.        Oo.        .oO         oo         oo         oo         Oo  ",
".oo   ...   oo    ..   Oo    ..   Oo.   X..  .o.   ...   oo   ...   oo    ..   Oo.   ..   .o.   ...  .oo   ...   oo    ..   oo  ",
"...     .  .OX     .  ...    ..  .O..    ..  ...     . ..O.     . .O.O     .  O..     . .....       ....    .  ....    . .....  ",
"     .   ooO   ..   .oo    .    oo    .    oo     .   oo     .   .o.    .   .oo    .    oo     .   oo     .   oo.   ..   oo.   .",
"    ..   oo    ...  .o.   ...  .oO   ...  .oo   ...   oo    ..   Oo    ...  .o.   ...  .oO   ...   oo    ..   oo    ..   oo    .",
"      ....        .O.        .OO..      .O. .       .O.       ..O..      ..O.        .O.        .OO .      .OO .       .O..     ",
" ..   Oo.   ..    oo   ...   oo    ..   oo    ..   Oo.   ..   .oo   ...   oo    ..   oo   ...   oo.   ..   Oo    ..    oo   ..  ",
" ..   Oo    ..   .oX   ...  .Oo    ..   OO    ..   Oo.   ...  .oX   ...  .oO    ..  .oX    ..   oo    ..   OO    ..   .o.   ..  ",
"    Oo.        OO.        .oO        .oO        .oo         oo.        Oo.        OoO        .oO        .oo         oo.        o",
".  .oo   ...   oo    .X   oo.   ..   Oo.   ...  .oo   ...   oo   .O.   oo    ..   oo    ..   Oo.   XX.  .oO   ...   oo   ...   o",
"   .X.   ...  ..O    ... .OO     .  ...    ...  OO.   ... ...O   ...  .OO    ..  .OX    ..  ....   ... ....    ..  .OX    ..  ..",
" oo     .   Oo.    .   .oO    .    oo         oo    ..   oo.        oo.    .   Ooo        .oo         oo         oo.        Oo  ",
" oo    ..   oo    ..   Oo    ..   .oO   ...   oo   ...   oo    .X   oo    ..   Oo.   ...  .o.   ...  .oX   ...   oo    X.   oo  ",
"...       ....        ...        ....     ......       .O..        O..       ....        ....      .....       .O..        ...  ",
"     .   OoO    .   .oo    ..   oo    ..   oo    ..   oo.   ..   .oo   ..   .oo    ..   oo    ..   oo    ..   oo.   ..   OoO    ",
"    ...  oo.   ...  .oO    ..   oX   ...   oo    ..   oo    ...  .o.   ...  .oX   ...   oo   ...   oo    ..   oo    .O.  Oo.   .",
"      .OO.        .O.        .O.        .OO         oO         .O         .O.        .O.        .oO        .OO        ....      ",
" ..   OoO   ...  .oo    ..   oo    ..   oo.   ..   .o.   ..    oo   ...   oo    ..   oo    ..   Oo    ..   Oo.   ...  .oo   ... ",
" ..   Oo.   ...  .OO    ..   oX    ..   Oo    ...  .o.   ...  .o.   ...   OX    ..  .Oo    ..   OX    ..   .X.   ..   .X.   ... ",
"    Oo.        .o.        .oO        .oo         oo         oo.        .oO        .oo         oo         oo         oo         .",
".   oo   ...   oo    X.   Oo    ..   .o.   ...   oO   ...   oo   .XO   oo    ..   .o.   ..   .oO   ...  .o.   ...  .oo   ...   o",
".  .OX    ..  .OO    ...  ..      .  .O.    .. ....    ..  ..X    ..  .O.    ..  ....       .Oo.   ...  .X.    ..  ..X    ..  .O",
" oo         OoO        .oo        .oo     .   oo    ..   Oo.    .   .oO    .   .oo         oo         oo     .   Oo.    .   Oo. ",
" oo    ..   oo    ..   Oo.   ...  .oo   ...   oX    X.   Oo    .X   Oo    ...  OoO   ..   .oO   ...   oo   ...   oo    ..   oo  ",
"...     .  ...      ......    . .....      .....      .....       ....      ......      .O...      .oO..      ..O..     . ....  ",
".    .   OoO   ...   oo   ...   oo    ..   oo.   ..   OoO   ..   .oo   ...  .oo    ..   oo    ..   oo    ..   oo.   ..   .oO   .",
"    ...  Oo.   ...  .oO   ...  .oo   ...   Oo    ..   Oo.   ...  .o.   ...  .oX   ...   oO    ..  .oX    ..   Oo    ..   .o.   X",
"      .OO.        .oO        .oO        .OO        .OO         .O.        .O.        .o.        .oO        .OO         .O       ",
"....  .oo   ...   oo    ..   oo    ..   Oo.   ..   .oO   ...   oo   ...   oo    ..   oo    ..   Oo.   ..   .oO   ...  .oo   ... ",
"....  .o.    ..  .OX     .  .OO    ..   .O.   ... .Oo.    ..  .OX    ..  .oO    ..  .Oo    ..   OO    ..   .X.   ...  OoX   ..  ",
"    oo     .   OoO        .oo         oo         oo         oo.        .oO        .oo         oo         oo         oo         o",
".   oo   .XO   oo.   X..  Oo.   ...  .oO   .X.  .oX   ..X   oo    ..   Oo    ..   .o.   ...  .o.   ...  .oX   ..X   oo   ...   o",
".  ..X    ..  .OO     ..  .O.    .   ...   ...  ...     .....O     .  .O.        ....     . ....       ....     .  ..X    ..  ..",
" Oo.    .   OoO   ..    Oo     .   oo    ..   oo     .   OoO   ..   .oo    .   .oo        .oo    ..   oo    ..   Oo.    .   Oo. ",
" Oo    ..   oo    ...  .oO   .X.  .o.   ..X   oo    ..   Oo    ..   .o.   ...  .oX   ...  .oo   ...   oo    ..   oo    ..   oo  ",
"O..       ....       .O. .      ..O.       .OO.        .O..       .O.       ..O.        .O.        ..O..      ..O .       ...   ",
"O   .O   .oo   ...   oo    ..   oo    ..   Oo.   ..   .oo   ...  .oo   ...   oo    ..   oo    ..   oo.   ..   OoO   ..   .oO   .",
".   ...  .o.    ..  .oO    ..   oo    ..   .o    ..   .o.   ...  .o.   ...  .oo    ..  .oo    ..   oO    ..   Oo.   ..   OO.   .",
"       Oo         Oo.        .oO        .oo         oo         Oo.        Oo.        .oo        .oo        .oo         Oo.      ",
" ...   oo   ...   oo    ..   Oo.   ..   .oO   ...  .oO   ...   oo    .O   oo    XX   Oo.   .X   Oo.   ...  OoO   ...   oo   ... ",
" ...  .OX     .  .OO    ..  .OX    ... ....    ..  ...    ..  .X.    ... .OX    ... ...     .. .OO.   ... .O..   ...  .OX    .. ",
"    Oo.        ooo        .oo        .oo     .   oo         Oo.        .oO        .oo        .oo         oo     .   oo.        o",
".   oo    ..   oo    ...  .oX   ...  .oo   ...   oo    ..   oo    ..   Oo    ..   .o.   ...  .oO   ...   oO   ...   oo   ...   o",
". ....    .. .O..     .......    ...O...       ....       ....       .O..       .O...       O...       ....       .O..     . ..X",
" oo.   ..   OoO    ..   oo   ..    oo    ..   oo    ..   .o.   ..   .oo   ..   .oo    ..   oo   ...   oo    ..   ooO   ..   Oo. ",
" Oo    ..   oo.   ...  .oO   ...   oo    ..   oo    ..   Oo    ..   .oO   ...  .o.   ...   oO   .OO   oo    ..   oo    ..   Oo  ",
"O        ..O.        .o..       .OO        .OO..      .OO.       .OO. .      .O.        .o.        .OO        .OO         Oo.   ",
"O   ..   .oo   ...   oo   .X.   oo.   ..   OoO   ..   .oo   ...  .oo   ...   oo   ...   oo    ..   oo    ..   OoO   ..    oo   .",
".   ...  O..   ...  .OO    ..   ..    ...  Oo.   ...  .X.   ...  .XO    ..  .oX    ..   OO    ..   .O    ..   Oo.    ..  .X.   .",
"       Oo         .o.        .oO         oo         oo.        Oo.        .oO        .oO        .oo        .oo         oo.    . ",
" ..X   oo   ..X   Oo    X.   .o.   ...  .oo   ...   oo   ...   oo    ...  Oo    ..   oo.   XX   .oO   ...  .oX   ...   oo    .. ",
"  ..  ..X    ..  .OO     .  ....       ..X.    ..  ..X    ..  ...    ..  ...     ......     .. ....    ..  ...    ..  ..X    .. ",
"o   Oo.    .   Ooo    .   .oo     .   oo     .   oo     .   Oo.    .   .oo    .    oo         oo    ..   oo     .   Oo     .   O",
"o   oo    .X   oo.   .X.  Oo.   .X.   oO   ...   oo    .X.  oo    ..   Oo.   ...  .oX   ...  .oO   ...   oo   ...   oo    ..   o",
" ..O..      ..O..     ...O.       ......       ....      .OO..       .O...      .O...      .O...      .OO..      .OO..      ....",
" Oo.   ..   .oo   ...   oo    ..   oo    ..   Oo.   ..   .oO   ..   .oo   ..    oo   ...   oo    ..   oo    ..   oo.   ..   Oo. ",
" Oo    ...  .o.   ...   O.    ..   OO    ..   OO    ...  .O.   ...  .OX   ...  .oo   ...  .oX    ..   OO    ..   OX    ..   .o  ",
"o         Oo.        Oo.        .OO        .Oo         Oo         Oo.        .o.        Oo.        .oO         Oo        .oo    ",
"o   ...   oo   ...   oo    X.   oo.   ...  .oo   ...   oo   .O.   oo    X.   oo    ..   oo    ..   Oo.   ..   .oO   ...  .oo   O",
".    ..  .O.    ..   OO    ... ....   ...  OOX   ...  ..O   ...  .OX    ..  .OO     .  .OX    ...  OO.   . .  .X.    ..  .X.   .",
"       Oo     .   .oO    .   .oo         oo         oo     .   Oo.        .oO        Ooo   ..   .oo    ..   oo         Oo     . ",
" ...   oo    ..   Oo.   ..   .o.   ...   oo   ...  .oo    ..   oo    ..   Oo.   ..   Oo.   .X   .oO   ...  .oO   ...   oo    .. ",
"    .....     .. ...       ....       .....     ......      .....     .  ....      .O..     ...O. .    .......      ... .      .",
".   Oo.   ..   Ooo    .   .oo   ...   oo     .   oo    ..   OoO   ..   .oo   ...   oo   ...   oo    ..   oo    ..   oo.   ..   o",
"X   .O    ..   OoX   ...  .oX   ...  .oo    ..   oo   ...   OX.   ..   .o.   ...  .oO   ...  .oO   ...   oo   ...   OO    ..   o",
" .OO        .OO.        .O. .      .OO        ..O         .o.       .Oo.        .o.        .o.        .oO        .OO        .oo.",
" OoO   O.   .oo   ...   oo    ..   oo.   XX   OoO   ..   .oo   ..   .oo   ...   oo   ...   oo    X.   oo.   O.   Oo.   X.   OoX ",
" OO.   ...  .OX   ...  .oo    ..   Oo    ...  OX    ...  .O.   ...  OOO    ..  .OX    ..  .oO    ..  .OX    ..   OO.   ...  OO. ",
"o.       .oo     .   Oo.        .oO        .oo         oo     .   Oo.        .oO    .   .o.        .oo        .oo         oo    ",
"o   ...   oo   .XX   oo    X.   Oo.   X..  .oO   ...   oo   ..O   oo    ..   oo.   .X   Oo    ..   Oo.   ..   .o.   ...  .oO   .",
"O    ..  ...    ..  ...    ... ...    ...  .O.    ..  ...    .......     .  ...     .  ...        ....       ....       ....    ",
"   .   oo.    .   .oO    .   .oo         oo    ..   oo.    .   oo.   ..   .oo    .   .oo   ..    oo   ...   oo    ..   oo    .. ",
" .XX   oo    X.   .o.   ...  .oX   ...  .oo   ...   oo    ..   Oo    ..   .o.   ..   .o.   ...  .oO   ...  .oX   ...   oo    ...",
"     ....       .O..       ....       .O...       ....       .O        ..o.        .O.        .O.         O. .      .oO .      .",
"O   .oO   ..   .oo   ..    oo    ..   oo    ..   Oo.   ..   .oo   ..   .oo   ...  .oo   ...   oo    ..   oo    ..   oo    ..   O",
"X   Oo.   ...  Oo.   ...  .oX   ...   oo    ..   OX    ..   Oo.   ..   .oO   ...  .OO   ...  .oX    ..   oo    ..   OO    ..   O",
" .Oo         Oo.        Oo.        .OO        .OO        .Oo         Oo.        Oo.        Oo.        .OO        .oO         OO ",
" Ooo   ...  .oo   ...   oo    ..   Oo.   ..   oo.   ...  .oo   ...   oo    X.   oo    ..   oo    X.   Oo.   ..   Oo.   ...  .o. ",
" OO.   ...  .XO    ..  .OO    ..   .O    ...  OO.   ...  .O.    ..  ..X    ..  ...    .. ..OX    ..  ..X     .   ..    ... .O.. ",
"o         oo.    .   Oo.        .oO    .    oo     .   oo         oo    ..   Oo.    .   .oO    .   .oo    .   .oo    ..   oo    ",
"o   ...   oo    OO   oo    ..   ooX   ...  .oO   ...   oO    ..   oo    ..   oo    ..   Oo    ...  .o.   ...  .o.   ...   oO   .",
"X       .O..       ....       .....      .....     ..O...       .. .      .....       .o..       .O. .      .O.        .OO.     ",
"  ..   .oO   ..   .oo   ..    oo   ...   oo    ..   oo    ..   .o.   ..   .oo   ...   oo   ..    oo   ...   oo   ...   oo   ... ",
"  ..   .o    ..   Oo.   .X.  .o.   ...  .oO   ..X   oo    ..   Oo    .X.  .o.   ...  .oX   .X.  .oX   ...  .oO    ..  .oo    .. ",
"    ..O         Oo.        OoO        .o.        OoO        .Oo        .oo         oo.        Oo.        Oo.        .oO        .",
"..  .oO   ..    oo   ...   oo   ...   oo    ..   oo    ..   .oo   ...   oo   ...   oo   ...   oo    ..   oo    ..   oo    ..   O",
"..  .O.   ...  .OX    ..  .o.   . .   OX    ..   ..    ...  .O.        .O.    ... ..X    .   ...     .  ..X     .  .O.    ..  ..",
"  Oo     .   oo.        Oo.        OoO    .   .oo        .oo         oo     .   Oo     .   .o.    .   .oO        .oo    .   .oo ",
"  oo   ...   oo    X.   oo    .X   oo    ...  Oo.   ...   oO   ...   Oo    ..   Oo    ..   oo    ..   .o    ..   .o.   ...  .oX ",
"....    ..  ...    ..  ..X     . .OO.    ........    .  ....      .....      .....       .O..     ...O..      ..O...       .O.. ",
"o    .    Oo.    .   OoO   ..   .oo    .    oo    ..   oo    ..   oo.   ..   OoO   ..   OoO   ..   .oo   ..   .oo   ...   oo    ",
"o    ..   Oo    ..   Oo    ..   .o.   ...  .oO   ...  .oo    ..   oo    ..   Oo    ..   .X.   ...  .o.   ...  .oo   ...  .oo    ",
".       .O .       .O..       .O..      ..O...      .OO .      .OO        .Oo.        .O         Oo.       .OO.        ...      ",
"  ..   .oo   ...  .oo   ...   oo   ...   oo    ..   oo.   ..   .o.   ...  .oo   ...   oo   ...   oo    ..   oo    ..   oo    O. ",
". ...  Oo.   ...  .o.   ...  .o.    ..   OO    ..   oO    ..   OX.   ...  OO.   ...  .O.   ...  .oX    ..  .oO    ..  .Oo    .. ",
"    .Oo         .o         Oo.        .o.        .oo        .oo         Oo     .   oo         Oo.        oo.    .   .oO        .",
".   .oo   ...   oo   ...   oo    ..   oo    ..   Oo.   X..  .oO   ...   oX   ...  .oo   .OX   oo    ..   oo    .O   Oo.   ..   O",
".   ...    ..  ...    ..  .O.        ...    .   .O.    .....O..     . .O..    ....O..    ..  ...       ..X.    .. .....       ..",
"  oo         oo     .   ooO    .   .oo    .   .oo    .    oo         oo.   ..   oo    ..   oo.   ..   .o.    .   .oo    .    oo ",
" .oo    ..   oo    ..   oo    ..   Oo.   ...  .o.   ...  .oo   ...   oo    ..   Oo    ..   oo    ..   Oo    ...  .oO   .X.  .oO ",
"OO..      ..O..      ..O..      ..O..       .O..       .O.        .OO .      .OO        .OO.       .Oo.       .Oo.        .O... ",
"o.   ..   Oo.   ..   OoO   ..   Ooo   ...   oo   ...   oo    X.   oo.   ..   Oo.   ..   Ooo   ...  .oo   ...  .oo   ...   oo    ",
"o    ..   Oo    ...  Oo.   ...  Oo.   ...  .oO    ..   OO    ..  .Oo    ..   Oo.   ..   OO.   ...  OoO   ...  .OX   ...  .oO    ",
"       .oo         oo         Oo.        .o.        OoO        .oO        .oo        .oo         oo         oo     .   Oo.      ",
"  ..   .oO   ...   oo   ...   oo   ...   Oo   ...   Oo.   X.   Oo    .X.  Ooo   ..   .oo   ...   oo   ...   oo   .OO   oo    O. "
};
