/* XPM */
static const char *DarkSandData[] = {
/* columns rows colors const chars-per-pixel */
"128 128 6 1",
"  c #817356",
". c #7f7164",
"X c #8c7c66",
"o c #635b54",
"O c #a58e79",
"+ c #614b3e",
/* pixels */
"X  X XO XX .X ..++ .   X..X  .   .  . .  . XX X.X.. . .X X.XXX X  . XXX . . X X.X XX . XOX. . . XX.XX X.  X X X OXXO X  XXXXXXXO",
"  XXX XXXXX. .XX.  . . .   . .. + .X  XXX  XX . X  X.X. .  . OX.X X .X . XX XXXX  .X .XXOXO.XX  XX.     XX . .XX  .XOXX  XXXXXXX",
"  OXXX.XX .   . X .XX .    .     X.XX.XXXX .X.  XXX .  X.  XX . X XXXX.XXX  X.XXXXX X   XOOOX XX . .  .XX    .XXX.  .XXX .X. . .",
" .X  . OX   .   .  XXX.   o  .. +  ..X XX . XX . O .      X  X .XXO  .XXXX .  XXXXXXX . .XOXX  X.. .. X X. .. XXXOO XXX . XX .  ",
"X.  .XX. .  ..  .X   . +  +   o    . XXXX  . X.  O.X  . .XXX . XXXOXXXXXOXXX XOXXXXXX   . XX  .X. X X.. .   .X XXOOOXX .X.X X. .",
"XX .  X  .XXX  .XX. XX  .   .     .  ..  .    ...  X   o. O. . .X XXOXX .XX.. XX.X ..  X  O.  .OXXXX  .O. . . . . OXXX.X  .. X. ",
"X.XX . .XXXOO  . ..   .  ..XX X. . .   ...X.  XX . X .  . XOX.  OXXX.XX. XX .. XX .  . XX X    XXXX.  XX. .  . XX OOX  .  XX. ..",
".     X.X. XXOX   .o  .X  X X.     OX  X XXX . .  . .  ..  XXX..  .X. XOXOX . ..X     XX XX    . XX. . .  +  . X .X.   O. .  .  ",
"XX. XX.XX . oX.       X  X  X ..  . .XX .OXX  . .  .X XXX. .X.X .XXX X XXOX X.. . X .XXX  X . . .XXXO      .X  X. .X.  XX..X .O.",
".XX X.XXOOOXXXO . ..XXX.   .  .  XX.O .  .XX.  .    O. XXXOXXX .X. .  XXOX  X. .X. . X  X .  X XX XX. . o. ..X.XX  O    XXXX   .",
"  . .   XXOOXX.X  O.XX  X  X. ..XXOXXXX.X  Xo   . . X  . XOXOX  .X. .  X.   Xo XXX X . . XX  X .   X ..  .. XXX.OXXX    .XXX   .",
".. . XX O. OOOXXX XXXO XXX   X   X.XXXXXOOXO. . XXXX.   XXOX  ..  XX. .XO   X.X.X. . .X.. . XXX .  XXX.    OX..OX    . ..XXXOXX ",
"  X .X. . XOXXXXXXX  + XXX .  X.XXXXX.  XOXOXX  .XXX  XX  .X. XX. .X. . .  ..XXX   .  X . X.  X . X ..   .XXX X.XX . X  XX X.XX ",
" . . ..XXX .XX.X  . .  XXXXX .    X.X XXXOX XO X.X.+ OXX XO. +XX.XXX.. XX     XXX.   OX . .X.  .X. . .  .    .  XXO +O ..X  . . ",
"  .   ...  XX    o . .  . X O. OXX .X .  .XXXX XX    X. X X.  XXOXX  .XX  . .XXXXX   .XX   XXX XOX      o  . ..OXXXX X . X X  ..",
"   . .  XX X         ..X. .XX .X. . .   XOX  .    .X . XX     . X.X   .   . X.X . X   X . .XOOXOX . .  .. .     .XXX     XO.    ",
"o  X.. .XXXX   +    .X. X  X..   .X .XX  X.      . X.  X XXX  . XXXOXXX . X. X     .   X. X.XOOXO ..XX X  .     XXX.    . X.   .",
"XXXX.  XOX  O  .   .   . . .     X .X .X X   +    .X.X  XXX XX X.XXXX. X . XXXXX X. . .XX XX XXXXXXX XX.XX  + X. X  .X  XXXXX. X",
"XXX   .XXO   .XX   X.  . .   X.XX X ..XX X  .+   . .  .  .X X   X X. XX .  . XXXX  . . .XXXO XXX . .. .XOX.  XXX   XX XXOOOXX  X",
".X   XXX XOXXX XXXX XXXX  .  X.XXX . XXX   XXX. XX  ..  .    . .X XXXXXXX  . XXO.X XXXX O.XXXXX X      .XX  X X .   OOOXOXOXXX X",
"    XXX X.OXXXXXXXXXXXXXXX . XXX  XX  .XOX X X .X  XX .   .. XX XOXOXX.XO X. XXXXOXXXX  X X.XX X. .  ..  XXX  .    . OXXOX XXXXX",
". .  X. .XXOXOOXXXXOX OXX XXXX. + O XXXXX.XXXXXX XXXX.X  + X..XXXX.XX .XXX.X OXXXXX.X  XXX XOX X X.X X .   X.XX    . OOXOXX X   ",
" XX.  X. .XXXXXXX.XOO .XXXX. X .  O . ..XXXXX.XXOXXXXXX .  XX .XXXX.XX  XXX . .X.      OX XO.   Xo X  X XX .XXXX   .. XX O. o  .",
"  .XX . . XXOXXOX .   OXX.   o .X . X  O XXOXXX.XO. XXX X .  .XXX..XXXO .O  . X.X. ..  O X  XO .    o. .XXX .  XXX . XXX X  +   ",
"  .X  XX. X.X.XXXX .  X        XXX  X. X.XXXXOX X   XXXX .  .XXXOO+ XXXO.OX .XXX  . .. . XX.. .  .   Oo XXX XX X XXXXX X .   + X",
" . .    . .XX.XXXXXXXX  . +    oX.   X. .XXX XX     OX . XX.OXXXX.  X XOXXXXX X.. X. XX .  X  XXOX . XX OXX.XXX X .X XX XX XX   ",
".  XX  . XXXX + XX.XXXX .   .  . .  XX X.XXXXXX .X X .  XXX.XO . XXXXXXOXX  Xo X. X XXX.     ..X. X.XX.X .X .XXX XX   . XXX X   ",
".. XX.OXXXXX.X  . .XXXX.  .  X.  .X .  XXX..  .OXX.XX . XO   X    X XXXXX + .. X XX..  .X  XX.  XXX X.X   XX   XX .X  XXXX.X . .",
" . XXXXXOXX XXXOXX X  . . X. . .XXX XX.X X .  X  X. X .X .XX. X.   .. XO.  XOXXX  X.XX . XXX X .. X  . O . X . X.X.  XX.XOO.   X",
" . .XO. .   X  .OOXX .XX X.  XX  .XXXXOXXXXX. X . .. X ..XX. .   . XX  X.   X.XXX  XXOX XX . .  XXX .   X  O X   XX  XXXXOX  .XX",
"    X.X   X.  .X.XOX XXX.X XX  .. XX X X.XXO  XX X X X    XX  .   X .X     . .XXX .  .XX. X  X . XXX  + .. .X. + X  X   XXX ..X.",
" . . .X. .. X XX  XX OX X.XX  .  XXX   .XXXXXXXO XXXX X   .XX   ..  . .X.   .  O.XX   XX X.X  X. X      X .  . + X . X. X .O  X ",
"     XXX.   .oXX  XX  XX XXX X X. O X. XX  .X XX. XXXXO  .X Xo   o .  OX X. XXX XXX . .X. .. X  X X  o     X .  X      O. XX XXX",
"XXX   X X.    .XXOXXXX .   XXXX Xo  X. .XX XXX X.   .X    XX.     . . .    . . .  .X . X.X.   +    .X.X  .X X X  .    . X    XX ",
"XX XXXXX .  X . .XXX X . .X.OXX     .  . XXO  .   .XX .    . .    ..   . . ..XXX  . X.     X.   oX.XXX ..    O... . .  XX.X  X  ",
" .XXXXX.XX .XX  . XXXOX .. X XXXX.X.  X X.XX. OX  .  .X .X.   ..   .    +  . XXX    X. . .  .X .   .OX.  XX .  XX.OX O     .OX. ",
" XXX .  . .  X .  .O.XX    . XXXXX ..XX . .XXOX . .XX  .X.XX . .X.   .    XX XXX   X .   XX  XXX   XX  .X X. XXO .. . .+  X X  .",
" X XX         . OXXX  X. X .  XX   .  O .X .X  X  . . XX   .X  XX.. .   X. . . XX .     X     O XXXXX X X. X X XX    o. .. . .X ",
" XXX     . XO ..  .X.XXXXXXX o   . .  . . XXXX X  X.. .   . X.XXX  o   .  .. O. O .X   . .X  . XX.XXXX  .  XX .XXXX    .   XX X ",
"XXXX   +X   . X. .  XOX XX.        .XX.   . .XXX OX  .XXXX. . XXX   .  o +X  . .XOX   . XX . .  ..   . XX X . .XXOXX X .   X  . ",
"XXXX  . .. .X    XXXX XOXXX    . .. O  . .O XOXXXXX.   .XX o .+  . .X     XX X. .XXX .XX X X  .X X   XX X XX    XXXO    o  X.   ",
"XX  +  . X OXXX XXOOX. XOXXX.  X XX   O   .XXX XXOXXX   X.  o    .    .X .   XX XX .XX.  XXXX  XXX       . . . XX X.X   X .   . ",
" . X ...  XXXXX  .X.O XXXX    . .  XXX..  XXOX XXXXX   .      .o  .  .XXX .XXXXXX O .   OX XX  XXX  + .    XX .. X. X.X. .    X ",
" XXX     + OX.+ X  OXX OXX X.X.X  + OX   XXXXXXXXXX ..XXX. ..      +.  .O.O .X. . . .   XOXO +  X . . X .XXX . XOOX.  . X .   X.",
".XXX.   X  X    XO  XO  XX  X.   .       O  XXO XXO  XXX  .   .  .X XX.XXOO  .XX X X .  X  X  XXXX X XX X X ..   .X  .XX   . . .",
"X X X.  X.  .     . .  XXX .. .  . .  .  X X.    XX X X.  o o . +  .   XXX X .  .  O. . . .X .XXXXXXXOXO    X X .XX.  X X ..   X",
" . .X . .XXX. O.  .X . XX     o  OXX .X.  . XX XX . o X        . .   +  .X  X + XX XX    .  OX.OXOOX.X XXXXXO  + XXX.   . X. .. ",
".  .X. . ..   . XX     X .  .X  o ..X ..X       X..  o  .  . . .  .    oXX   .  .X  .  + . . OXX XX. X   O.XXXX+  XX..  X  XOX  ",
".     .  . X  .. X . .  .  . X   .. . .X.X.  .X   X  . . . XX o..   .  X. X     X   ..  X XX .XO . XX    X  .XXXXXX X .+  X .X X",
" .  .  .X. o . O. X   .XXX XX .   X    . X     .X . XX.   . X.    .. .  XX ..    .X . X   . XXXX. X.X .XX X    .XXXXXXX. X .  X.",
"   .    X.  .XX   ...XX O  XXX .. o . X .  X..XXX  XX .. X. . .  .  X . XXX.XXXX..  XO.  . XXXX.+  XX.OXX .X OX.XX XX X.. O . . ",
" .X  .  XX   XX  +X .X     .XX   XX  .XX   X X.   . X. X .  .  . .  ..   .XXX.X   X . XXXOXO. OX .XX .  . .  X OX +  .   X  XX X",
". XOX     . . OXX   X.+    .  . X .  .XO X+       . X . +   .X.X   X . X.XXOXX   X   XXOX XXX  .XXXXXXo ..XX XXX    .   .  o XX ",
".  .XXX . ... .X XOXXXX     .X X .  .. O .XXXX  . X. .    . . .XX X .  X  XOO  .X X. .XXX.  X . .XXOXX      .XXO   +  . O. . .XX",
"X XXX XX .  o   . .OX OXXXX X. X  X. . X ..XXXXOX   .X. X XX .   X +  oX  .X O .X  XX X. O . O . X..OO XX   XXX    .XX .  .  X X",
" .XOX OXX .  ..  X  XXXX XXX   .X  . X .   .XXXXXXX  .  X    X ..X      . ..X.X X  .  ..XX .. . .XX X. XXX. .X.    . O  .XX  .X ",
"  .XX. XX  .O XX X. .XXX   . + XX  X  .X .   . X. X    OXX.   X .  .    .XX   XXXXX X++ XX..  ..  X  XX  .       .. .  XXXX X.X ",
"  . XX      + XX..X  X ..  .   .X  .    . X X XXXX X .  XX XX X .   .X.  .X .  .X XXX     .       XXX.  . .     . X  . .XX     .",
".   X   . .  X.. . . OX.  .  X X .X. . .X  .O  .XX  XX . X. XX         .    X.  . X  . .XXX o  .o  o   . .+     X  . X   .  X .X",
" .  . X  X           XOX   . X X XX .   X .  .XX XX  XX . XX X  . .  .. . .  O     o .  .X       .   X..  .   . .X X . .. .  . X",
" .XXX  X. .   . X+  .X   .  XXXO XXX .X.   XXOX .X   .X X .X.X .   o X .X. . . X   .     .  .   .         X.      X.XX.   . ..  ",
"   X    .X X       . . . X.  X. XXX X XX.  X OXX  .X   .XX  O . .    . . . .   X . o . X.XX. .. .. ..    XX O .o . XX X .X.   X ",
" X   ..XXX . XXo  . .XX .X. O.XXXX X .  X. . .  . . . ..X .. . .X.   . .  X  . .    . . XXX  . .X  X. . XX . .   X X     . o    ",
" ..   .  X XOXX  XXXXO.OX  . X.XXXX.X XXX .   OXX.X  .XX    XX   . O  .   . .  .  .      X. .XX o .. XX  . XX X  .XXX.  X  o  o ",
". X    X OXXXX X . XX. XXXX X.XXX    XXXX     o.X   .. .OX .    XXX .. .  .  X.  X .. .X .. X.X  .  .  .   XXO.X  XO    o       ",
"X.XX. .X . XX.O . OOX . .X  XXXX. X. XX  X .     .   . . . .. .  ..   X X.    .  . X .XX . .X X   .  . X.. XXOXX   O  X  . .. ..",
" XX ..X  .  O.   X .X  X   XXXXX+ X.X X .   .   . .  .X   XX  X. OXXXX . X . .  . . X X. +..+  . X. .  X.  X X.  .XX  X .. o . X",
" .     X.XXX X . .X XX .XXXOX XX . X XXXX.  . X .. XXX XXX .  XXXX.XXX .  X. . X ..   .X     oX.X. X o .X  .  . X. XXXXXX     X.",
"XX   .  . O  XXX +  OXX . .XX . XXOXX    . . . . X  oXXXXX   .XXXOo. ..O.XX O  X XX.  .   .o  . .  .     . .  XXXXOXXXXXX  . . .",
".  . XX . .. XXXX   .X..  .  . . .XXXX .  . X .   X X     . .   X.   .X X . .X ..O XXX X..       ..    .    .  XOXXXO.X   XX.  .",
"XX.  X X.  X X XX XXX. XXX . O . .XXX .X.X X XX . .XX .X   ..X  XX XXX . .  X .O ..  X  .   . .    . . .  .X. . .O.X  X . X   X.",
"  X X ..  XXXXX  . .OXX.XX ..  . X X. . O. X .X XX XXX .  .  X. .  XX.X .  .  XX .X .  .      . . . X  . . X .  .X. .X . X . . X",
".X  X.. XXX .. X  XX . X.X.   . .X. XXO X.XX ..X   .XXXXX  ..+  . . .X . O  o .XX XXX   ..   . .   .o  X   . . . .  . .  ..X XXX",
".X.        . XXX . X    .. .      .X XX X XX.  X .  XXOXX X  .  .    X . X     .X X  .XX. . .  . ..    X     . . . . . X o . .XX",
" X.XX X    .  XX. XX .  X .X.  XX.  XXOX XX X . . . XXXX..  X.X  .. .  .  XX   XXX .  XX   . .X .X    .X . o   .XX . XXX    . ..",
".X  X  .. .  X.  .XX. X.XXXX X XXX X XXXXXXX X .  .   X.XX X .  .  XX  X  XXXXXXX X . X..XXXX . .. X.  X.  . o  . .  oXX .    .X",
"..X     .. .. X .X..X X .XX  ..   X ..X XXX . X.X .X.XX..       X+   X .. .XXX.XXX  X. . X.X.    . X . X . +   o+ X   ..   .  XX",
" . . .   ..   .   .   XX XXX    XXX XX .XX. .  XXXX  XX.X  o .   .    X . .  ..  . . ..o . XX   .   .X.  ..   +  + .   oo.  oX  ",
". .   ..  . . .XX    OXX XX.XXXX . .XX .  o  X. .X  .    .  .  X  . X     X.X.   . .    . + .. .X . .XX  .   o    XX..   o  .   ",
" X . . X .  o. . . . XX . XXXXXXX XX.          .   .  . . .   .XX. .  . . .   .     X.    . X... X  .       .  + X.  .X    ...  ",
" . .  .X  .  +    ..O  .  XXXXXXO   O. o      . . X    ..  . . XX XO.XXX.  . X    ..  . . o   .  .  X. . . . o  X    .   .  . X ",
" .o   .X        o  X.  XX. .X.XXXX.        oXX.. XX. XX  .  . XXXXO .  .    .. .. XX. ..+       .. . o   .  +    o. .  . XX .   ",
"o    X XX X  +  X .  o  XX XXX. XX. . .  .   X . .  .XX .. . .   XXX.   . ..X X . .X ..      .  . .    .. .   .    o  ..X. .X . ",
"X   . XXXXX X.  X    X X . XXXXX XX. XX.  .  +  ...  .O.  X.X.X. XX XX    . .   .   X   o .  .     . . .   X  . o ...   . .  X. ",
".      .XX.  X  X. XXXX  .XXXXo  XXXXX X . .       .X X. ..   .  .XO.X  X.  .  o o . .  X . . ..  . .     X           .   X.  XX",
".   . X .XXX   .X  .X XXOOXX.X .X. . O .  . .  .X   .      . .   . XOXX  . . .     X .. .OX X.  ..  .. .  XX . . .  .. .o XX o  ",
".  ..XX .X.  . .  . XXOX .O  .. XOXX. . .. .  . X. .  .X ..    . XX .XX.         .X.  .   O . . X. . . . X O .  . .X XX .XX.   .",
" .X.   .  XX  .OX . XXX. . . X X.XXXX X.  .X X  XOX  .. .. X .. .  XXX.   XX.   . . .  . . X..XX .  . XX.  . . .  .   ..  ..    ",
"XXXX  . .. X.X . XX   .XX  XX  XXXO.O X. X X . oX .  .     X XX. . XO..o XX X .    .  . XX.. .X      .   ..  X + o+ +      .. . ",
"XXXXOOXX . X.   X  . .XXX .  . .X X X.XXX .  XX .XX  XX .  X .X  O .  .   . X . ..  .. .OX  o   ...X .   X. X . .   + ..+  . .  ",
" .XXX.XXX  . XXXXX  + XXX.   . X.X .   O.XX.. X X.XX X. X. XX OX  .X O . . .X.          X   .  .  XXX  . X  . X . +  XXX.Xo   . ",
"  XX  X.X.    XXXXXX  X .X   X  XXXX..  XX X  .. XX.     .  X. . .   . . X     ..X  X.. .   . o .X  X.  .    . .  .   o  XX+ .  ",
" .X.   .. oX X   X XXXXX X .+ X  .XOOX.XXXXX .  . .X  X . X.X  XX   ..X. . XX. XX .    X ..    . . ..o . o .. o  o   .  X  . X. ",
" . XX o     .X . .  .XX.X.XX.X  .  XOOOXXOXOX. X. XXOX  XX X.. X.  X      X.   X  ..    ..X.+  +  .   . o     .    ..  . o XX.X ",
" . X .   .  .X . .X .X  X  .o XXX. O XXXOXXX O  XX.XO.X  X. . X.   X. .X . XX .X .   . .      X  o  .     .      .  .X.   ..   X",
"    .    o X  ..      . .     . X  . XOXXX  XXX .  X XX o O  .X.  .   X...X..OXX    .  .    X. ..     .  .. . + +  o... o    .. ",
"   . X.   .X      .  X.    .X    XXXX.XXXX.. XX X. XXX   .X  X... . X.X   XOX     . .X    .. .X  . . . . . . .+   .      . X X. ",
".OXXX . . . XX +  +   .    .   X X X. XXXX X X.X   o.  .  .. .XXXXXXX.  X  XXX  . XX  X. ..   X. .. .   X   XX ..   .     o  . .",
" . X . .X . o+   . XX.  . .  . XX .XX.   XXO. O ..   .. X.   X XXXXXX  XXXO .OOXXXXXXXX  .   .OX.X. . .. .. .X. .  X . o   .XX .",
".  . XXXX o       . . . ..   . .. X..  .  XXX..X   X     X X.X .X X  o XXX..XXOXXXXXXXXX   . .X    ..  . .  X X   XXX     . . . ",
"  X.. .XX   .   .o     .    X. X .X   X. . XX.XX  XX.  . XXXXXX  X  X   X. XXXX.OOXXXXX.   . X.   .     .  . .    XXXXX .   .   ",
".X  .  . . .  .     + .  . .XX .X X. .   .XXX  o  . X X  ...X.XXXX   .X.    .O XOXXXX XX. .  .   . .   .  . .   .  XX  . X    .X",
"X   X.+ . XX. o.        .   .X    . ..XXX   X..  XX  .  X O OX  X. O X.  XX. .XOXXOXX .  O .   ..X.X X .. X . . X  . O  . o   . ",
"XX   .  . X .   ... .  .+  X. X   .  . .   X X   X . .  .X.  .  X  X. ..  X. XXX.XXXX.  . . .   .  . . .  . X.  ..   .   .X  .  ",
". .. o+   .. .  .   .+ .+  ..X  .X  . XX . .  .. . .  .     . .X . .    . X X.XX...OXX.XXX .   X  . X X .  .     .X X .X . . .  ",
" X .     o  ...   o.    X .X .. .X . X  .   X.   ..X  XXX .       XX .      .XXO.   .XXXX  X . .    XO X. .  ..     . X.  X     ",
" ..  X .             . o    .X.  X  . .X.  X  .. X ..  X    .  .  .X   .X.XXO X.   .X  X X . .   .  XXXX  XX    . X X. X .X.X  .",
" .  . . ..    o   . .  X   . ..XXX. O  . ..     X XX.XXX X. .O . . O X  .X .XX . XXXXXXXX  . X. X .  XXXX .   X .X.    . .O  X. ",
"      . .  .. X  .. o      .X O.X O XX O  X. .XX .XX. XX .   O.XXX .X   XX O . XX.X.X XXX X . X . .X XX  X. .   X.  .  XXXX.XX .",
". ..  XX X.    . ..   . . ..  XXX. X  X. XX X.X . XOX  .. XX.  X.    XX XX . O    XXX  X . .    ..    XX   X ... X  X  ..XO  . .",
".   .XXOX .. .. XX  . ...  .. XX .    XXXX .X X X  XXX   X.X .XX   X X.X . XX  .. X   XXXXX .   X .. X.X . .  .X. .  XXO X.o   X",
" . .  X. .  . ..X.  . .   X.   X  . X.  X. . .  X.XXXXX X   . X. . XXXXXX .  X O XX.  X.XO . .X. X.X. O  .   .     o  .  .  + . ",
".     .  ...    .. ..X  . .XX.X  O .X ..XX . . X.XX  XX   . .oX.  XXX.OX. XXX.   X  XXX XXX  .X  .XO X     .   .. X       Xo   X",
". .. XX        .  . X.X  X .  X .  .XX. X X   . .  XX XO  .      .  XXOO . X O +X . .   O.X XX . XO. .X X.  X    .XXXX  .   ..XX",
" . .  . . ...  ..  .  .  +  .  X.  X. OXX . XX. X  X XXXXXX  . . .X  X X..  Xo +XX .XX . X.XX. X   XX  .XXX. X ..     o .X . .OX",
" X.X. +  .X  .     X  O     .. .  .XXXOO. .  .  XXX   .XXX   X  . .X O  . . X . X     XX.XXX  XXXOXXXOXX XXXX  X   +XX    o O X ",
"XX .   . o   XX    .X . .XX.  . X.  XXXX . XXX XX . .  XX  X       .X.X  X  .X       . . .   +XXX .XOOXXXXXXXXX  .          XX .",
".   ..  .    OXXX. X X    .      . X  XX. X    ..X X  . XXX  ..     X.. XX  XO .X . .. . .  .  X . XXXXXOXOOXX.XX XX. . . o XX .",
".  .XX.     XX   XX  .   o   .  . . .X XOX XX XX XXXXXX XXXXX . .. .X    X.  XXXOXXXX.   . .X. . . XXX.OOXX..X.  . .. X .  XX  .",
" . . .X  ..   .XX X         ..     .X..   XXXX XX  XXXX X XX.XXX XX .   .X . XXO. .          O   X   .O.XOXX    X     . XX . . .",
"  X.  . .  .o  X XXXX.  o X.X .  .   ..   XXXX.XX XX..  XX  . . .  X o XX . . X. Xo   . .X XX.  XXX .XXXX XX. . . . .  .  . . X.",
"XX X. . .   .  . . . .    . XX.  .X     X X       X X    XX.X  . ..  XX.  X XX .OXX   .    . . . X XXXX. .XX XXXX X . . .     o ",
"XX.  .X    X .   XX . X .    . X  .o   ..X.X. . .X.X.X  XX O .. ..  X XX X.  .X OXXX X    . X X  . XXXOo  XXX.XX .X .XXXX  XX   ",
"XX .  .XXX  .X XXXO.  X X . .  ..     X.   . OXXX   X  X.XXXX     .   . X XX   XXXXX . ..   XX.X.XOX  XX   .X X . XXX. XXX      ",
" ..  XX.XXXXXX  XXX.   . ... . X . ..XX. XXX. XX + X .    X. .  . .. X   . .  .X . X    X.X . XXXXXOX .XXXXXX XXX ..X .XXX   .. ",
".  XX X OXOOXXX ..   .X . X X .  . o  o X  X  XX   XX  X . XXX   X X . .   X.  XXXX. X  XX   XXXX .  . XXXXXXXXX. X  . .XXXXX   ",
" .XXXXOXXXXXXX XX    .XXXX . .          . X  X .X    .   .      .  . XXX XX.X . XO... X .  .X . XXX .   . .X  .X . . ..X.XO X ..",
"X. X. .XX.X      . .XXXX. .  . .. .   . .X.X X.  . .  . . .X. ..X.X.XXXX . XX.  .  . .X. . .X .X. .X.X . XX. X  . .XX . .XOXXX X"
};
