/* XPM */
static const char *GreenTextureData[] = {
/* columns rows colors const chars-per-pixel */
"128 128 18 1 ",
"  c #5A9958",
". c #599A58",
"X c #599A59",
"o c #5A9A58",
"O c #5A9A59",
"+ c #5A9B59",
"@ c #5B9B59",
"# c #5A9B5A",
"$ c #5B9B5A",
"% c #599958",
"& c #5B9C59",
"* c #5B9C5A",
"= c #5C9C5A",
"- c #5C9C5B",
"; c #5C9D5B",
": c #5D9E5C",
"> c #589857",
", c #569655",
/* pixels */
".>>....>,>.*..*....>>....,=.....>.....>*:*.>.....=...>.>>=.=...,,..=...>...,>.>.>,......>...*..>>......>,>.>..>,>>,.>,>,,.>>>,>,",
"..>>.>>........=.................>..........>.....>.>.>.....,,....>........>>.,...>..,..>>>.>,.>...>.>>.,>>>>>>.>,,>>,>>>>>,>.,>",
">.>>>..=>.>,,..>..>.......>,......*>,...>.....,,>..,.>>=,>..>,>=.>,>.....,>>>.>>>,..>,..,>..,**>,..>>...>.>,.>>.>>,>>>.,>>>,.>,,",
"=.>...,.,>>>........,..>...........=*.=...>,.>,.>>.>,.....>*:..>..>,.,,.=>>,..........,>*.*.>>.>,>.>.>>>>.>.>,>>..,>.,.>,>>.>,>,",
"...>...>..>.........=...>..>,.=........>....,,>>>>>..>>>>.>....>..>..>>>.>.>.>.>.=...,,,>...>,>>.>>,...,>>,>,>,>>>>.>>>.>>>>>,,>",
">.,,>>>.>..=.>**..*...,>..>..>=..>....>,.>>,>>.,,..>>,>,>>..>..>.>....,,>>>>..,>...,>>*.>>,.>.>>>,>.,>..>>..,>>>,,>>.>>>,.*,>>,>",
"..>>*>,,>.*.....>.>......*.>..>....*>.....,..>>>>....>,>>.>.,,,>.*=...>,>>.>...>.>.>*.>>*....>..,.>>>>>>....,,,>>>>>,>>.*,.>>..>",
">>....,...*>.>....>........>..>:,,>.>....>...>>.>.,>>>>,>.>>...>..>.>>.,..>.=,.,,>>>*>...>.,>..>....>...>>>,>>,>>>>>>,>>>.>,>>,,",
">.,>>...>,>...>,..:.....>...>.*...,.>.>,...,,..>..,,>.>>.>....,>>>,,>.,,>....>,.,>>.,>.>>>>,.......>>>.>..>>,>>.>,>>,.,,,*.>>>,.",
"...>>..>....,.>.............,*,>*...>,>..,,.*:.,>.,>,,,..>..>>>>>.>>.,>,,,,,.>>.,>>.>,>...>>.*>>>*.>,>.,,,>>>,>,>,>.,>>,..>>>>>>",
".>>...,>.>..,>>..=>>..=.,>.,.*,.................>...>>,.>.>.....>..>..,.*>,>.>>>..,..>.>....>..>>..>.,>.,>>>>,>,,>>.>.>,>>,>>,>.",
"....>>.>,..>.,>*..>>.....>...,*=.....>>>.....>,.>>>.>...>....,..>...>>>>,..,,.>>,>,>...>>.>>.>..>,.>,>>.,>>,,,>,,.>.,.,,>>>,>,,,",
".,.>>.>*>>....,,.*.........*.......>>,....>*.,..>>>,>>..>..>,>...>>,.>,,.>,.>,>.>>....,>.>>.>,>.>>,.>,,>>>>>,.,>>.>>,,,.>,>>,,,>",
".>.>,..,...>.>>.......>>.....>,..*>,>,>.>.>.>,,..,.>....>>.>>>..>>.>>>...>...>>.,>,>..,*....>,>,>>>,,>>.>..,>>>,>.>>>,,>>,>>>,>>",
"..,,>,>.>.>>,,.>,>..,..............,..,,>.>>>.>>>*..>>,....>....>...>>,..,..>.>>.>,>>,>..>,.*...>>.,,.,>>>>,,,>>>,,.>,>,>>>>>,,>",
"..>.>>,...>....>....>.>..........>....,..>.>.>,..>.....>>*.....>....,>>>>.,>>,.,,,,.,,>>,,.>>....>.*>,,.>>>,,,,,>>>>>>,>>,>>>>>,",
">.>.>..>>....>=>...>...,,..>:*..*..>=,....,,,,.,..>>.>.>>....>*>...>>.>...>,...>,.>.,.>>,,>.>..>.,>.>.,>>*>,>,>,,>.>>,>>,>>,,>,,",
"..,..>>>.>,..>..>,..>....=...,....,......,,>>.>,...>,,..>..*..*..,>.>.......,,>.,,.,..>>>,,,.>,>,..,>,,.,>>,>>,>>>,>,,,>>,,,,>>,",
">>>>..>.>>>>>.,...>.>>........>,.>...,..,,,,*,..>>...*.,,..>.>..>,,....,......,.,>>,.>>,,,>.>..>>>>,.,,>,,>>>,,>>,>.,>>,,,,>,>>>",
">>*.>.>>...>...>=>>>,.......>.,,........,.,,.>>,.,..*>,...,>.,....>>>>.,....>>,>.*>>>>>,,>.>.>,,>>>,.>,,>,,,,>,,.,>,>>>>>>>>,,,,",
"..>.>.,..>.>>..>..,.*....=>.,,..>..>....>,.,,,,>.>.>..>..,..,..,>>*>..>..........>,,>..,,,,>**,>>>.,..,.>>>,,>,,>>,,>,,,>>,>>>,,",
"..>>.>..>.>>,>.>.....>,..>.....,.,.....>,,>..>>..>.,..>.,,,.,*.....>...,>.>,,,.>..>>>.>,,,>,>...>.>,>>>>>>,,>,,>,>,,,>,,>>,>>>>>",
"..,...>.,>..>.>....>*....,*....,....>*....>>,>>>>.>>.,..,.>.*.,..,,>,..>.>....>...>,>>**,>,*.>.>,>>.,,>>,,>>,,>,,,,,>,,,>>>>,,>,",
",>...>.....,...,...........=...,......>>.>.,>,.>,>>.>........,..>..>>>*.,..>...>.>,,,,>..>>,,,,>>>>.>>..,>>,,,>,,,>,>,>,,>.>,,,,",
"..,>.>.,,.>,,,>........>.>>...,>>,..:.,.>...,,,,.>,.,,,...,..,**,,..>..>,>,.,.,>>,.>>,>...>>>>>>>,>.*>,..>,>.,>,,,>.>,>.>>>,,,,,",
">>,....>,,.>..>..>..,,*>,,...>.,...,..>>,.>>,,>>>,.>,..>>...,>*..>..,*.,.,,>,,.>,>>,>...>>..*>>>.>,..,>>.,,,>>,.>,>>,>.>,>>>,>,>",
".>>.>*>>>>>..>....>>>.,,.>..>>>,>,,.>..>..,.,,..,,.,....,.>.,..>>>.,.....>>,,>>,,,,,.>>>,>,>>,.>..>.>,>,>>>>>,>>,>>,>>>,,>,,,,,>",
"..>>>>>,,.,>.>.*.....>.>>>.>..>...,.....,..>,>,,.,..,>>,..>.,......,>.>...>>,>,,.,.,.>>.>,,,>,.=>,>>,>.>,,>>>,>>,>,.,,,>>,>,>>,>",
"....,>.,,.>>.>.>..,,.>.>>...*.,.,>....,,.>>,..>>,,.,,.,,*.>>...,,...>>,,>...>>>>.>.>>>>,,>>,.>,>>,.>,.,,>>>>.>,,,>,,.,,,>,,>,,,>",
".>.,.,>,,,,>,,,,.>=,,,>..>>...,,...>,.,>.,,.>,.>>,,.,,,.,..,>>>...,,.>,,>>.,*>.>,>.,.>,,,>.>>*>,,>..>*,,>,,>>,>,,,>>,,,>,,>,.,,>",
">,,>,.>.,.>.,,,,,>>..,.>>..,>,,,,...,>>,>.>>>,.>.,>>,.,,,>>>>,,.,..,.,.,.>.>,,,,.>>,>,,.>,>>>>.>>.,>*>,,>>>,,,,,>,>,,>,>>,,>>,,>",
">...>..>.,.>>>..,.,....>>.,>.,>,,.,,>,..,,,.>,,,.>.,.,,>,,>,.>>.*>.>..>...,...>>>,,,.>>>,,,,>,>>,>>,>.,>*,>,,,,,>>,>>>>.,,>>,,,>",
".,>...>.......,>.>.>>>.>,>....,>,.,,,,>..,>.,,,,,,,,,,>>>,>,.....>..>.>>.>>.,..>,,,..,,,,.,,,,,,>.>..,>.>*,>>>>,,,>,.>.>,,>>,>>,",
"..>>,>.>.>..,,>,,.>..>>...,.>>..>,...>,,>,,.,>,>.,,...=....,.*.,,...>>,..>,>>>,>>,>>>.,,>,,,>,.>>,*>>.>,>,,,.>,,>>>>>.>,>>>,,,>,",
",.>,.>,,.>.>,>>,,>,>=.>,>,.,>..,..,.,,>.,.>.>,,>,.>>..>...>.>>,,,..*..>>.>>>.,,...>.>>.>.,,,,,>>,,>,,>>>.,>>>,>>,>>>,,,,>>>,,,,>",
",.,..,,,.>,,,,,,,>,.>>...>..,>>,,>>.,,>.>...,>..*,,>,>,*.>,*>,>,.,>...>,>.,.>>>.>>.>>,..>>>>>>>,>.,>>>.>>>,>>,,.,,>>,,>.>>,,,,>,",
",>,>>,>,,,,>,..,,,>..,>.,..>.,,,,.>>>..,,,,,>,,.>,>.>.,.>>,.*.....,,.,,>,...,.,>,>>.>>.>,.,.>,>>,>,,,,,,>.>,,.,>>,,>,,,>,>,,>,>,",
">.,,,>>,.,,,,..,,,,,,,,,,.,.,>,,,>..>>,,>,>,,,,>,>.,>>>.,,.>>...>>>..,>,>.,>..,>,,,,>>.>>>>.,,.>>>,,>,>>>,,>>>>,*,,>,>>,,,,,,,,,",
",>.>.>>>,,..>,..,,,>,,,>,,,,.>,,>>>.>,,,,..>.>,,...>,,,>,.>,>>>,,,>..>,,.>,,.,,,,.,,,,,,>.>>>>,>,,>,,,>.,,,,,>>>,,.>>>>>,,>>>,,,",
",>.,,,,.,>,>.,>>>,,.,>,,,,.,,,,,,>.,..>,...>,>,>>.,,>>,,>.,,.*,,,>,>.,,.>>,,,,>>,,,,,,>>,,>.,>>,,..,,,,,,,,,>,,,,,>,,>>>,,,,,,,>",
">>>,.,>....>>,..,.>..>,,>>,,,,..,>>>,>.>.>,,>,>..>.,>.,,>,,,>,,,,,.*>,>>..>.,,>>,>,,,,>>,,*>>>*,,>,,,,,,,,>>,>,,>>>>,.,,,,,>,,,>",
",.>>.>,>.>.>>,>>,>,.>..,,,.,,>>..>,>,,.>...,,,>>>..,,.>,,,,,>,,.,,,.,,>,>,,,,,,>,>.>,,>>>,,,.>>,,,,>,>>,>,>,>>,>>>>,,,,>>,>>,,,,",
">.>>,,>>,....>,,>,,,>..,,,>,..>,..>,,,>,>,.,,.>>>.,,.>..,.,..,,>,,,.,>,,,,>,>>>>>,>.,,>>,>,,,,>,,>,>,>,,>,>,,,>>>>,>>,,,,,,,>,,,",
">,,,>>>.>>>.>>,>.,,,>>,.,,,>>....>>>,,,>>,>,,>,,.,,.>>>.,..>,,,,>,..,>,,,,,.>,,>>>,,,>>>>.>>>,,>.,,,,>,,>>,>,,,,,,,>,,>,,>,,,,,,",
",..>>,,,>>,..>,.,>,,,.>.,,>,.>.,,,>>>>>.,>>>,,>.,,>,>>>>,>>,.,,>>.,.,,,,>>,,,>,,>>,,>,>>,,,>,..>>>,,,>.>>>>>,,,,,,,,,>>,>>,,,>>>",
",>,>,>>>,..>.>.>>>,,>,..,,,>,,,,,,,,,.>,,>..>.>,,,,>*.,,,,>,,,,,,..,,,>,>>>,>.,,,,,>>,>,>.,,.,,,>>>,>,>>>>>,>,,>,,,,>>>>,,,,,,,,",
",>>>>>,,,,,,>,,..,,>,,.>,,,,,,>..>,>>>,,,,,,.,,,..,>>>,,,,,,,,>,>>,,,,,,,,,,,,>,,,,>.,,,,>>,,,>,,,>,,,.>>,,>,,,,>,>>,>,,,,,,,>,>",
".>,>,,,,,>,,,,,.>.>>..,>..>>,.>,,,,,,,>,>>,>,,>,,.,,,>.,,>,.,>,,,,,,>,,,.,,,>>,,,,.>.>,,,>>>,>,,,,,,.,>>,,,,,,>,,,,,,>>,,,,,,>,,",
"..>,,,,,,>>,..>.>.,,,,,>,>.,>>>,,>.,.>,,,>>.,,.,,..>,>,,>>,,,,>,,,,,,,,..>,>>>,,,,>>,.>,,,,>.,,,,,,,,,,>,>,,,,,>,,,,,,,,,,,,,,>>",
",>>>>>>>,,>>,,>>.,,,>>.,,=,,.,,>>>,>>..>>>>>..>.>,,,>..>>>,,>,*,*,>,,,,,,,,,>,,,,,>>,>,,>,,,,,,,,,>,,,>,,,>,,,,,>>>,>,,,,,,,,,>>",
".,,>,,,>,,,>>>,>.,>.*..>.>,,,,..,.,,..,,,>,>,.>.,>.>,>>*,..>>.>>,,,,,,.,,>.,,,,>,>>,>,>>,>>,,,,,,,,,,,,,,>,,,,,,,,,,>,,,,,,>,,,,",
">>>,>>,,..,,>,,,,>..,>>,,>..,,>.>>.,.,,,,,>,.>.,,>>...,,,,,,,>,,,.,,>,,,>,,,,,,,,>,,,.>>,.,,,,,,,,,,,,,>>>,,,>,,,,,>,>,>,,>>,,,,",
">>>,,,,>>,>>,>,>,,,...>>,.>,.>,>.>..>,,>,,,,.>>>,>.,..,,>,>,,,>,,>>,,,>,,>>>,,,,,,,>,,.>,,,,,,,,>>,,,,,,,,,,,,,,,,,,,,,,,,,,,,,,",
",,>,>>,.,,>.,,>,...>,.>>>>,>,,,,>.,,>>>,,,,,,>,,>>>,,,>,>*>.>>,,>,,,,,,>>.>>,,,,.>>,>,>,,,,,,,,,,,>>,>,,>,,,,>,,,,,,,,,,,>,,,>,,",
",,,>>,,,,>>.>>,,,,>,>>>*>,>>>,,.>,,>,,.,>,,,,,>,,>,>..,,>>.>>,,,>,,,,,,,>,,,,,,,>>,,,,>>>>,,,,,,,>,,.,,,>,,,,,>,>,,,,,,,,,,,>,,,",
",>,,>>.,,,,>>.>>.,,>.>>,,,,.,,,.,,,>,>>,>,,>.,,,,>,,>,,,,>.,,.,.>,,>,,,,,>,,,,,,,,,>>>>,,,.>,,,,,,>>>,,,,,,,,,,,>,,,,,,,,,,,>,,,",
",,,>>,>,,>.>>>,>,>..>>>,,,,,>,,.,.>,,,>,,>,,>>,,,,,,,,,,>,,>,,>>>,,,,>,,,,>>>,,,,>>,>>,,,,.,,>,,>,,,,>,,,,,,,,,,,,,,,,,,,,,,,,,,",
",,,,>,,,>,>>>.,,>>>>,,,,,,.,>>.>,,>,,,,.,,>>,,,,,,,,,,,,,,,,>,>,>,,,,,,,.,>,,,,,,,>>,>,,,>,>>>,,>>,,,,,,,,,,,,,>,,,,,,,,,,,,,,,,",
">>,,.>,,,,,,.,,,,,,>,,,>,,,>,..,,,>,,,>,>.>>>,,,,,,,,,,,,,.>,>,,,,>,,,,,,,.,,,,,>,>,>,,,>,,,,>,,,>>>>>>,,>>,,,>,,,,,,,,,,,,,,,,,",
">,,,>.,,>>,>>,,,,,,,,,>,>,,,..>>,,>,>,>,,,>,,,,,,,,,,,,,>,,>,>,,,,>,,,,,,,,,>,,>>,,,,,,>>,>>,,,,,,,,,>,,,,,,,,,,,,>,,,,,,,,>,,,,",
",,>.,,,,>,,,,,,,,>,,,,,,,>,>,>,>,,>.>,,,,,,,>,,,,,>,,,,.,,,>>,,,,>,,,>>.>,,,,,,>,,,,,,>,.,,,,,,,,,,,,,,,,,,>,,,,,,,,,,,,,,,,,>,,",
".,.,>,,,.>>,,,>,,,>>,,,...>,,,,,,,,>,,,,>,,,,,,,,>>,,,,,,,,,,,,,,,,,,,,,,>,,,,,,,>,>>,,,,,,,,,,,,,,,,,,,,,,,,,,,>,,,,,,,,>,,,,,,",
">,>.>,,,,,,,,,>,,,>,>.>>>.>>,,,,,.>,,,,,,,>,>>,,.>,,,,,,.,,,,,,,,,>,,,.,,>>,,,,,,>>,,,,,,,,,,,,,,,,,,,,,,,,,,,,>,,,,,,,,,,,,,,,,",
",>>,,,.>,,,,,,,,,.>>,,,,,>>.>,,,,,.,,,>>,,,>>,,,,,,,,,,,,,>,>,,,,,,,>,,>,,,,,,,,>,>,,,,,,,,,,,,,,,,,,,,,,,,>,,,,,>,,,,,,>>,,,,,,",
",,,,,>,..,,,,,,.,>,>>,,,>,>>>,,,,,.>,,,>,,,,,,,>,,,,,,,,,,>,,,,>,,,,,,,,,>,,,,,,>>,,,,,,,,>,,,,>,,,,,,,,,,,,,,,,>,,,,,,,,,,,,,,,",
",>,,.,,,,,,,>,,,,,>>>,,>,,,>,,,,,,,>>.,>>,,>,,,,,,,,,,,,,,>,>,,,,>>,,,,,,,,.,,>>.,,,,,,,,,,,>,,,,,,,,,,>,,,,,,,,,,,,,>,,,,,,,,,,",
",,,,>,,.,,>,,,,,.,,,,,.,>,,,,,,,>,,,.,,>,,,>,>,,,,,,,,,,>>,,,.,>,,>,,,,,,,,,,,,>>,,,,,,,,,,,,,,,,>,,,,,,,,,,,,,,,,,,,,,,,,,,,,,,",
".,,,,>>,,,>,,>,,,,,,,,,,>,>,,.,,,,>>,,,,,,,,,>>,,,,,,,,,>,,,,,,,,,>>,,,,,,,,,,,,,,,,>,,,,,,,,,,,,,,,,,,,,,,,,,,>>,,,,,,,,,,,,,,,",
",,,>,>,,>,,,,,,,,,,,,,,..,,,>,,,,,.,,,,,,,,,,>,>>,,>,,,,,,,,,,,,,,,,,,,,,>,,,,,,,,,,,,,,,,,,,,,,,>,,,,,,,,,,,,,,,,,,,,,,,,,,,,,,",
",,,,>>,,>>>,,,>,,,,,,,,,,,,,,>,,>,>,,,,,,,,,,,.>,,,,,,,,,>,>,>>,,>,,,,,,,,,,,,,,,,,,,,,,,,,,,,,,,,,,,,,,,,,,,,,,,,,>,,,,,,,,,,,,",
">,>.,,,,,,,.,,,,,,>>,,,,,,,,,>>,,,,,>,>,,,,,,,>,,,,,,,,>,,,,>,,,,,,,,,,,,>,,,,,,,,,,,,,,,,,,,,,,,,,,,,,,,,,,,,,>,,,,,,,,,,,,,,,,",
",,,>>,,,,.,,>,,,,,>,>>,,,,,>>,,,,,,,,,,,>,>>>,,,,,,,,>,,,,,,>,,,,,,,,,,,,>,,,,,,,>>,,>,,,,,,>,,,,,,,,,,,,,,,,,,,,,,,,,>,,,,,,,,,",
",,>,,,,,,,,,,>>,,,,,,,>,>,,,>,,,,,,,,,,,,,>,,,,,,,,,>,,>,,,>,,,,,>,.,,,>,,,,,,,,,,,,>,,,,,,,,,,,,,,,,,,,,,,,,,,,,,>,,,,,,,,,,,,,",
",,,>,,,,,,,,,,,,,,,,,,,,>,,>,,,>,,,,,,,,,,>,,,,,,,,>,,>,.>,,,,>,,,,,,,,>>,,,,,,,,,,,,,,,,,,,,,,,,,,,,,,,>,,,,,,,,,,,,,,,,,,,,,,,",
",,,,,,,,,,,,>,,,,,>,,,>,,,,,,,,>,,,,,,,,>>,>>,,,,,,,>,,,,,,,,,,>,,,,,,,,,,,,,,,,,,,,,,,,,,,,>,,,,,>,,,,,,,,,,,,,,,,,,,,,,,,,,,,,",
">,,>,,,,,,,>,>,,>,,,,,,,,,>,,,>>,,,,,,>,,,,,,,,,,,,,,>,,,,,,,,,>,,>,,,,,,,,>,,,,,>,,,,,>,,,,,,,,,,,,,,,,,,,,,,,,,,,,,,,,,,,,,,,,",
".>.,,,,,,,,>,>,,>,,,,,,,,,>,,,,>,,,,,,,,,,>.,,,,,,,,,,>,,>>>>,,,.,,,,,,,,,,,,,,,,,>>,,,,>>,,,,,,,,,,,,,,,,,,,,,,,,,,,,,,,,,,>,,,",
",,,,,,,,,>,,,,,>,,,,,,>>,>>,,,,,,,,,,,,,,,>,,,,,,,,,,,.,,>,,,,,,,,,,,,,,,,,,,>>>,,,>,,,,>,,,,,,,,,,,,,,,,,,,,,,,,,,,,,,,,,,,,,,,",
",,,,,,,.,,,,,,,>,,,,,,>,,,,,,,,,,,,,,,,,,,,,,,,,,,,,,,>>,,>,,,,,,,,,,,,,>>,,,,,,,,,,,,,,,,,,,>,,>,,,,,,,,,,,,,,,,,,,,>,,,,,,,,,,",
",,,,,,>.>,,,,,,,,,,,>,,,,,,,,,,>,,,,,,>,,,,,,,,,,,,,,,>>,,,>,,,,,,>,,,,,,,,,,,,,,>,,,,,,,,,,,,,,,,,,,,,,,,,,,,,,,,,,,,,,,,,,,,,,",
">,,,,>,,,,,>,,,,,>,,,>,,,>,>,,,,,,>,,,,>>,,,,,,,,,,,,,,,,,,,,,,,,,,,,,,,,,,,,,,,>,,>,,,,>,,,,,,,,,,,,,,,,,,,,,,,,,,,,,,,,,,,,,,,",
">,,,,,,,,,>,,,,,,,.,,,>,,,.>>,,,>,,,,,,,>,,,,.,,,,,,,,,,,>,,,,,,,>>,,,,,>>,,,,,,,,,>,,,,,,,,,,,,>,,,,,,,,,,,,,,,,,,,,,,,,,,,,,,,",
",,>,,,,,,,,,,,,,,,,,,,,,,,,,,>,,,,>,,,,,>,,,,>,,,,,,,,,,.,,,,,,,,,,,,,,,,,,,,>>,>,,,,,,,,,,,,,,,,,,,,,,,>,,,,,,,,,,,,,,,,,,,,,,,",
",,,,,,,,,,,,,,,,,,,,,,,,,>,,,>,,,,,,,,>,,>,,,,>,,,,,>,,,,,,,,,,,,,,,,,,,,>,,,,,,,,,,,,,,,,,,,,,,,,,,,,,,,,,,,,,,,,,,,,,,,,,,,,,,",
",,,,,,,,,,,,>,,,,,,>,,,,.,,,,,,,,,,,,,,,,,,,,,,,,,,,,,,>,,,,,,,,,,,>,,,,,,,,,,,,,,,,,,,,,,,,,,,,,,,,,,,,,,,,,,,,,,,,,,,,,,,,,,,,",
",,,,,,,,,,,,,,,,,,,,,,,,,,,>,,,>,,,>,,,,,,,,,,,,,,,,,,,,,,,,>,,,,,,,,,,,,,,,,,,,,,,,,,,,,,,,,,,,,,,,,,,,,,,,,,,,,,,,,,,,,,,,,,,,",
",,,,,,,,,,,,,,,,>,>,,,,,,,,,,,,,,,,,,,,,,,,,,,,,,,,,,,,,,,,,,,>,,,,,,,,,,,,,,,,,,,,,,,,,>,,,,,,,,,,,,,,,,,,,,,,,,,,,,,,,,,,,,,,,",
",,,,,,,>,,,,,>,,,,>>,,,,,,,,,,,,,,,,,,,,,,,,,,,,>,,,>,>,,,,>,,,,,,,,,,,,,,,,,,,,,,,,,,,,,,>,,,,,,,,,,,,,,,,,,,,,,,,,,,,,,,,,,,,,",
",.,,,,>,>,,>,,,,,,,,,,,,,,,>>,>>,,,,,,,,,,,,,>,,,,,,,,,,,,,,,,,,,,,,,,,,,,,,,,,,,,,,,,,,,,,,,,,,,,,,,,,,,,,,,,,,,,,,,,,,,,,,,,,,",
",,,,,,>,,,,>,,,,,,,,,,,,,,,,,,,,,,,,,,,,,,,,,,,,,,,,,,,,,,,,,,,,,,,,,,,,,,,,,,,,,,,,,,,,,,,,,,,,,,,,,,,,,,,,,,,,,,,,,,,,,,,,,,,,",
",,,,,>,,,,,>,,,,,,,,,,,,,,,,,,,,,,,,,,,,,,,,,>,,,,>,,,,,,,,,,,,,,,,,,,,,>,,,>,,,,,,,,,,,,,,,,,,,,,,,,,,,,,,,,,,,,,,,,,,,,,,,,,,,",
",,,,,,,,,,,,,,,,,>,,,,,,,>,,,,,,,,,,,,,,,,,,,,,,,,,,,,,,,,,>,,,,,,,,,,,,,,,,,,,,,,,,,,,,,,,,,,,,,,,,,,,,,,,,,,,,,,,,,,,,,,,,,,,,",
",,,,,,,,,,,,,,,,,,,,,,,,,,,,,,,,,,,,,,,,,,,,,,,,,,,,,,,,,,,,,,,,,,,,,,,,,,,,,,,,,,,,,,,,,,,,,,,,,,,,,,,,,,,,,,,,,,,,,,,,,,,,,,,,",
",>,,,,,,,,,,,,,,,>,,,,,,,,,,,,,,,,,,,,,,,,,,,,,,,,,,,,,,,,,,,,,,,,,,,,,,,,,,,,,,,,,,,,,,,,,,,,,,,,,,,,,,,,,,,,,,,,,,,,,,,,,,,,,,",
",,,,,,,>,,,,,,,,,,,>,,,,,,,,,,,,,,,,,,,,,,,,,,,,,,,,,,,,,,,,,,,,,,,,,,,,,,,,,,,,,,,,,,,,,,,,,,,,,,,,,,,,,,,,,,,,,,,,,,,,,,,,,,,,",
">,>,,,,>>,,,,,,,,,,,,,,,,,,,,,,,,,,,,,,,,,,,>,,,,,,,,,,,,,,,,,,,,,,,,,,,>,,,,,,,,,,,,,,,,,,,,,,,,,,,,,,,,,,,,,,,,,,,,,,,,,,,,,,,",
">>,,,,,,,,,,,,,,,,,,,,,,,,,,,,,,,,,,,,,,,,,,,,,,,,,,,,,,,,,,,,,,,,,,,,,,,,,,,,,,,,,,,,,,,,,,,,,,,,,,,,,,,,,,,,,,,,,,,,,,,,,,,,,,",
",,,,,,,,,,,,,,,,,,,,,,,,,,,,,,>,,,,>,,,,,,,,,,,,,,,,,,,,,,,>,,,,,,,,,,,,,,,,,,,,,,,,,,,,,,,,,,,,,,,,,,,,,,,,,,,,,,,,,,,,,,,,,,,,",
",,,,,,,,,,,,,,,,,,,,,,,,,,,,,,,,,,,,,,,,,,,,,,,,,,,,,,,,,,,,,,,,,,,,,,,,,,,,,,,>,,,,,,,,,,,,,,,,,,,,,,,,,,,,,,,,,,,,,,,,,,,,,,,,",
",,,,,,,,,,,,,,,,,,,,,,,,,,,,,,,,,,,,,,,,,,,,,,,,,,,,,,,,,,,,,,,,,,,,,,,,,,,,,,,,,,,,,,,,,,,,,,,,,,,,,,,,,,,,,,,,,,,,,,,,,,,,,,,,",
",,,,,,,,,,,,,,,,,,,,,,,,,,,,,,,,,,,,,,,,,,,,,,,,,,,,,,,,,,,,,,,,,,,,,,,,,,,,,,,,,,,,,,,,,,,,,,,,,,,,,,,,,,,,,,,,,,,,,,,,,,,,,,,,",
",,,,,,,,,,,,,,,,,,,,,,,,,,,,,,,,,,,,,,,,,,,,,,,,,,,,,,,,,,,,,,,,,,,,,,,,,,,,,,,,,,,,,,,,,,,,,,,,,,,,,,,,,,,,,,,,,,,,,,,,,,,,,,,,",
",,,,,,,,,,,,,,,,,,,,,,,,,,,,,,,,,,,,,,,,,,,,,,,,,,,,,,,,,,,,,,,,,,,,,,,,,,,,,,,,,,,,,,,,,,,,,,,,,,,,,,,,,,,,,,,,,,,,,,,,,,,,,,,,",
">,,,,,,,,,,,,,,,,,,,,,,,,,,,,,,,,,>,,,,,,,,,,,,,,,,,,,,,,,,,,,,,,,,,,,,,,,,,,,,,,,,,,,,,,,,,,,,,,,,,,,,,,,,,,,,,,,,,,,,,,,,,,,,,",
",,,,,,,,,,,,,,,,,,,,,,,,,,,,,,,,,,,,,,,,,,,,,,,,,,,,,,,,,,,,,,,,,,,,,,,,,,,,,,,,,,,,,,,,,,,,,,,,,,,,,,,,,,,,,,,,,,,,,,,,,,,,,,,,",
",,,,,,,,,,,,,,,,,,,,,,,,,,,,,,,,,,,,,,,,,,,,,,,,,,,,,,,,,,,,,,,,,,,,,,,,,,,,,,,,,,,,,,,,,,,,,,,,,,,,,,,,,,,,,,,,,,,,,,,,,,,,,,,,",
",,,,,,,,,,,,,,,,,,,,,,,,,,,,,,,,,,,,,,,,,,,,,,,,,,,,,,,,,,,,,,,,,,,,,,,,,,,,,,,,,,,,,,,,,,,,,,,,,,,,,,,,,,,,,,,,,,,,,,,,,,,,,,,,",
",,,,,,,,,,,,,,,,,,,,,,,,,,,,,>,,,,,,,,,,,,,,,,,,,,,,,,,,,,,,,,,,,,,,,,,,,,,,,,,,,,,,,,,,,,,,,,,,,,,,,,,,,,,,,,,,,,,,,,,,,,,,,,,,",
",,,,,,,,,,,,,,,,,,,,,,,,,,,,,,,,,,,,,,,,,,,,,,,,,,,,,,,,,,,,,,,,,,,,,,,,,,,,,,,,,,,,,,,,,,,,,,,,,,,,,,,,,,,,,,,,,,,,,,,,,,,,,,,,",
",,,,,,,,,,,,,,,,,,,,,,,,,,,,,,,,,,,,,,,,,,,,,,,,,,,,,,,,,,,,,,,,,,,,,,,,,,,,,,,,,,,,,,,,,,,,,,,,,,,,,,,,,,,,,,,,,,,,,,,,,,,,,,,,",
",,,,,,,,,,,,,,,,,,,,,,,,,,,,,,,,,,,,,,,,,,,,,,,,,,,,,,,,,,,,,,,,,,,,,,,,,,,,,,,,,,,,,,,,,,,,,,,,,,,,,,,,,,,,,,,,,,,,,,,,,,,,,,,,",
",,,,,,,,,,,,,,,,,,,,,,,,,,,,,,,,,,,,,,,,,,,,,,,,,,,,,,,,,,,,,,,,,,,,,,,,,,,,,,,,,,,,,,,,,,,,,,,,,,,,,,,,,,,,,,,,,,,,,,,,,,,,,,,,",
",,,,,,,,,,,,,,,,,,,,,,,,,,,,,,,,,,,,,,,,,,,,,,,,,,,,,,,,,,,,,,,,,,,,,,,,,,,,,,,,,,,,,,,,,,,,,,,,,,,,,,,,,,,,,,,,,,,,,,,,,,,,,,,,",
",,,,,,,,,,,,,,,,,,,,,,,,,,,,,,,,,,,,,,,,,,,,,,,,,,,,,,,,,,,,,,,,,,,,,,,,,,,,,,,,,,,,,,,,,,,,,,,,,,,,,,,,,,,,,,,,,,,,,,,,,,,,,,,,",
",,,,,,,,,,,,,,,,,,,,,,,,,,,,,,,,,,,,,,,,,,,,,,,,,,,,,,,,,,,,,,,,,,,,,,,,,,,,,,,,,,,,,,,,,,,,,,,,,,,,,,,,,,,,,,,,,,,,,,,,,,,,,,,,",
",,,,,,,,,,,,,,,,,,,,,,,,,,,,,,,,,,,,,,,,,,,,,,,,,,,,,,,,,,,,,,,,,,,,,,,,,,,,,,,,,,,,,,,,,,,,,,,,,,,,,,,,,,,,,,,,,,,,,,,,,,,,,,,,",
",,,,,,,,,,,,,,,,,,,,,,,,,,,,,,,,,,,,,,,,,,,,,,,,,,,,,>,,,,,,,,,,,,,,,,,,,,,,,,,,,,,,,,,,,,,,,,,,,,,,,,,,,,,,,,,,,,,,,,,,,,,,,,,,",
",,,,,,,,,,,,,,,,,,,,,,,,,,,,,,,,,,,,,,,,,,,,,,,,,,,,,,,,,,,,,,,,,,,,,,,,,,,,,,,,,,,,,,,,,,,,,,,,,,,,,,,,,,,,,,,,,,,,,,,,,,,,,,,,",
",,,,,,,,,,,,,,,,,,,,,,,,,,,,,,,,,,,,,,,,,,,,,,,,,,,,,,,,,,,,,,,,,,,,,,,,,,,,,,,,,,,,,,,,,,,,,,,,,,,,,,,,,,,,,,,,,,,,,,,,,,,,,,,,",
",,,,,,,,,,,,,,,,,,,,,,,,,,,,,,,,,,,,,,,,,,,,,,,,,,,,,,,,,,,,,,,,,,,,,,,,,,,,,,,,,,,,,,,,,,,,,,,,,,,,,,,,,,,,,,,,,,,,,,,,,,,,,,,,",
",,,,,,,,,,,,,,,,,,,,,,,,,,,,,,,,,,,,,,,,,,,,,,,,,,,,,,,,,,,,,,,,,,,,,,,,,,,,,,,,,,,,,,,,,,,,,,,,,,,,,,,,,,,,,,,,,,,,,,,,,,,,,,,,",
",,,,,,,,,,,,,,,,,,,,,,,,,,,,,,,,,,,,,,,,,,,,,,,,,,,,,,,,,,,,,,,,,,,,,,,,,,,,,>,,,,,,,,,,,,,,,,,,,,,,,,,,,,,,,,,,,,,,,,,,,,,,,,,,",
",,,,,,,,,,,,,,,,,,,,,,,,,,,,,,,,,,,,,,,,,,,,,,,,,,,,,,,,,,,,,,,,,,,,,,,,,,,,,,,,,,,,,,,,,,,,,,,,,,,,,,,,,,,,,,,,,,,,,,,,,,,,,,,,",
",,,,,,,,,,,,,,,,,,,,,,,,,,,,,,,,,,,,,,,,,,,,,,,,,,,,,,,,,,,,,,,,,,,,,,,,,,,,,,,,,,,,,,,,,,,,,,,,,,,,,,,,,,,,,,,,,,,,,,,,,,,,,,,,",
",,,,,,,,,,,,,,,,,,,,,,,,,,,,,,,,,,,,,,,,,,,,,,,,,,,,,,,,,,,,,,,,,,,,,,,,,,,,,,,,,,,,,,,,,,,,,,,,,,,,,,,,,,,,,,,,,,,,,,,,,,,,,,,,",
",,,,,,,,,,,,,,,,,,,,,,,,,,,,,,,,,,,,,,,,,,,,,,,,,,,,,,,,,,,,,,,,,,,,,,,,,,,,,,,,,,,,,,,,,,,,,,,,,,,,,,,,,,,,,,,,,,,,,,,,,,,,,,,,",
",,,,,,,,,,,,,,,,,,,,,,,,,,,,,,,,,,,,,,,,,,,,,,,,,,,,,,,,,,,,,,,,,,,,,,,,,,,,,,,,,,,,,,,,,,,,,,,,,,,,,,,,,,,,,,,,,,,,,,,,,,,,,,,,",
",,,,,,,,,,,,,,,,,,,,,,,,,,,,,,,,,,,,,,,,,,,,,,,,,,,,,,,,,,,,,,,,,,,,,,,,,,,,,,,,,,,,,,,,,,,,,,,,,,,,,,,,,,,,,,,,,,,,,,,,,,,,,,,,"
};
