/* XPM */
static const char * LeatherData[] = {
"128 128 9 1",
" 	c None",
".	c #B5895C",
"+	c #D7AB7E",
"@	c #C89C6F",
"#	c #D0A477",
"$	c #E9BD90",
"%	c #C09467",
"&	c #E2B689",
"*	c #DEB285",
"#@.+#%@+%.@@@#@#+#@%@%@##%%##%@+##%%@#++@#+%@@##.@@@%##@$%%@+##@.#*%+@%@%%#*#%#++#.%*#@@+@+%.#@##%%#@@.+@#@%@@@#@#@#@%%##.++@##+",
"%@@*++#@&++@@#@+#%+##@@++@@@@@@#%##@%.@+%@#@@#@@@+#@@@%+@@#+#@###@@@*#@#@.%@%.%+#@@@+&#@%##@.@#.#+++#+#+@##%#%@##@%@%#@@@@@@@%@@",
"@@.@@&+@#@#%%%%@+@@@++#####@@##+@+#@#####%##@@#@@#@#+#%#.%##@@@##%@%#@@#+#@@@%%#@*@@@@+#.###%@#@@###+&+@*&#++&%%+@##@#@@@+#@@.@@",
"%#+#@##+@###%@@#@#@@#.+@+@#@@%%@%++##@%@@%#@@%@#+@%#@@@@#@@++@@##++#@@@@@##%%@@#@@+#@@@$@%@##@#*@##+@%@*@@#@*@++#@@@.@%#%@@##@##",
"%@##%@@#@+**@%@@%#@##%+%@%@%##@@@###+@%@@@@#+##+%%@#@#++#@@*+@%+@#@%##%%%+#%@###%@.++.@%+%@@@@.#+@.@+@@#@@.+@##&%@@@##.@#@%@##.@",
"++@%@+##%@+&#%@@%%##+#@%+@@##*#@+@%@+*##@@@@+@@@@#@##+@@@@%###@#@@.#&#@@@@###@@#+@@@$$#%#%#%@#%@%@##+@@#&@##&##+@+%.@+#*#%#@#@%+",
"%###%%@%@%@*+##@@%+++#@@@@@@@+#%@%%@%@@#*#@@#@#@@@@#+&#%#+@##+##@%.#+#@#@%@++++++$%@+++.###@@#@##@@+$*#%+#%@%#@+@*#@@%%%####@@@+",
"+#%#&##%+@.+#@+#*@%@&+@.%@+%%+@##%@@@##%@@@@#@+@#@@@%@#@@#@%.%%++#@###+%#%%@@@@@.+*@%.%+##%##@#++@%@*@#++@@@++#.@#.###@.@@%@#@#%",
"%%#@##@.+@.%@%+*#@@%@#%@+@#%%#%##@$+%%@%#%##+#.@+@@#@%###@@#%+@@#@@*+%#####%#@+++.#+@@*#%%@+@++.+##@@#%#%+@%#@%*####@*@@#%#.@@+#",
"#%+.@#+@@.%%@@@+##%.@%.@###@.%@+#%++#%%###%@+##@#@+@.@%@%#%#@%+#@+@%+*@###++%.@@@@@@@.@#+++..@+%+##@%##*@#+++@.@#@*@.@+*#@@#@.%+",
"&##%@+&####@%@@+@#+#@@#&@##+@%@#+@#%@@@@@#@%%.@@+@++@#@##.@%@#%@#@#%.+##@%.##@@%#+%.+#@+.+@+@+#@@@@+%#+%+@@%%@%%+@##%#@%##%+#+@#",
"##+@@@++@+#+@@#@#@@@##@@#@#**@%@@#@%%+##@%###+%@@@%##..@*+#@#%#.*%#@@@@@##@#@@%#@*#%*#%##@#@#.##@@#+@#+@#@%@@*#@%@@@*+%@%%##%#%@",
"%%@%%%##%#.#@@+..@+#@%%%+@@++#%@@@%#+##*#%@@@#%#%#@+#@#@@@@@#.####%@$#.@@#####%#.#+@#@%.@@%$@@@%@#++%#@#@@#+++@#@###+@@+#%#+*#@@",
"####%%@###@@%+@%@%%#**+@#.@###@#@@@@@#@#+*%+.%+$#.@#+#@@#%#@#+#$@#.@*#@%@##++*###@##@#&##%#%##*#@@##@#@#@+#@#&#%#@@#+##%#%%%+#@.",
"@*$+..#+%@#+#+@@.#@@###+@@@+#@##@#@%%#%%+&%+@@#%$%%##@%###.%#@#@+@##.%#.%@#@@%.@.%##@%++###@.#@@#@%#@##+%+#%@$*@#%%@@@+#@##@@##@",
"%@@#@+&#%*%*@%#%%#@@#####+@##%#+#@%+#+@@##++%+@+@#+$#.#%@%.##+.@#.@##*+##%%.*+###@@%@@##%.##++@+%@%*+@#@#@@@.@@+#+%%+#++#@%+@+%&",
"%@$&%##%#@@@+%@#%@@%#@@#%.@.@@#@+@##@+@@%.@@@@@@*@@%&@%+#%%@#++#%+#@@#&++#%%@%@*##@#@++##.#*%%+@++#@##@##%%@.%+@@#+@.@@###@@.%@#",
"#.%+@+#@%@@#+@#@#@.@@%%+#@+@@@@#@.%##..@+%@.@##@%@%.@@@%#*+@##@##@%%.@+@@++%.%@%+###%@##@.%@.@##@@%##@@+##+*@@+@+@##%%#*##@#@#%@",
"%#&+@#@@@@#@%%@%**%%%@%@+#+@#+#@##+++@####*##@@#@+#.%#++@%##%@+@@@@@%@#########@%@#+@@%@%@+*%%#*@%@##@@####+@@@.*@@##%%###%%+#%%",
"%@%@+#.%@@@@@@#+@*##%@%%@%@.#@%#.##@%#+%@%%@@@%@%#+@@%%@+%+&@##.++#%@@.+@@%+#%%&##@#@@@+.%#++@@##@@#%%@%++@@#@###%@+##@@$+#%#@#@",
"@%.@+#@##@#@@%%@@#%##@@@#@@%##@@@#@+#@##@%%@#@%@@@+&###+.@@@++%%#+#%@#%#%#%@@%@#@#%@+#.%#@@#*#@@+@%@@@#@@#@##@+$+@@@@##@%%@%##+@",
"@#$*%%*#+@#+#@@###%@###@*#@@++@@@@#++@@###++##@@#@@@@+@#%++@@@#@@@#++*+%@@@#@#*.&$@@@#@*@#@@##%%&%%#@@##.%%##@@#+#@%@+#@##&+@##%",
"&%.+*@#%+%@@#@@#@+*@%.+@@@#@@%%@@@##+#@@*@@%%##%#@@##$&@@@+#%@#@+##+#+&#@@@+@%+%@@%#@##@#@%@+&+#*#@+#@@@@@%####%#@@@#++#%%%@@++#",
"#&#@#@#%#%@#&+@+@@@@*@+%#%@#@@###%%%#@%#%.%@.**@+%%@%$#%#@@++##@@#@@#@##.@.%+*+@#@#+@**%%@@@#@#&@#+*#@@@%@@%.@+++.%#@#@##+%%%+@@",
"+#@@%#%#%*#%@+#%%#@#%+##+@#@@.@##@#%.@+#@@#@@%.#@%%#@.@#@@#%.@#@#@@%.##%+##@%#++%#@@@@%+%.@%@@%@#+%#+@#@#@#@%##++#%+#@+#@+@%%.+%",
"#%+@.@+#@@.@@@#+%#%*%+@+%.@@+##@%++%####%@@%@@##+#@#@.#####%%@#@%@@+%@@%+@#@@%@%%@@@%@@@+$@+%#.#%+#.%##@@%.#@.###@##%.@#@#+++@@@",
"@%@+@%.++@%*+%%%#@##*@@#&@%@@#+*%#%.%%%##@+###++#@%@#@+#@####@@%++%@@@@%@@@@##@@+#+#.%#@@*+@$@#%%@+###@%*#%**%@@#@@@@@@@@+&+##@.",
"@#@%@#%#%@%#@#@@@+@+@#.@@@#+####@@@#+#@####@@@%@++%@@@@#@@@###%@@+@##%@%@#@%++%%%@##.@#@%#@#%#+@##%##%+**@@@##%@++++%@++#.@##%%#",
"+@@#%##@@#%@##@@@@#@+@@@@+#%.@#@#@%###%@@#@%##.@@*+#@%@###@@##@+.+##+@#%@+#%%##+%@#####%%@++#+++.%%@@%@.@@#%%#@#.%##%@#@%@#.%+#+",
"#%@$+@%@#*#+*#%@+#%$#+@#%%%#+#@%@+@%##%+.@#%@+##%++++#%%+#@%@####+@%#++###&+%@*##**#++@@%%+%$*#%+#*##+%@#&+##@#@%%%#+*#.@%%###@+",
"@##@##@#%@.###@#+@@+#@%%+@@#&%%@.#@@#+@#%%##@###%#%%++#@#+#%%##.@@#%%@*$%.+&##@%%@+##@@##*@@+$&+#%+##@.+@#%@+##%*#@@@#@@.@@@%+#@",
"#.@&@#+#%#@@@+*%@@%+.+@%#++.@%####@%.@#%$%@*++#@%+#%#*+*.@+##$+.%%@@#@@%$+%%##%%#@@%@@##@#+.%@$#@+#++@#$%%@%#+%#@%@@@##@##@@%#@@",
"#@@.@@..$@@.%@###%++#@#%%##@@@@%@%%.*@#.%+@+$+@##@@%@###@+@#%#*+&###@##@@%@##@@@#%@@@+#%+#+$#%#%#@@@##%@@#%%#@+%@#*%%#$@%%+$.##+",
"+@@%+@#+%#*##@%%#@@@.@+@#@#@#@@@@##@$##+#+%%#&##%@+#@@@@#+#@%.@#@.@##+#%@+$+@#+@#@@%@#@@@@#+#@@@#%.%%##@+#@%@.#++%.@%@%@+##+.@%%",
"#%%@#%#+@#*+#@+&%###%@#%@%.@%@%@#+%%+%.@%#+%%@@+@%##..@@@+#@@%@@%+$@%*&@#+$&@@+@@@#@@%.##@%@+*##%#++##@%#@%+#%%##&@#.#%@@@#+#*##",
"@@#@@##@#@%#@%+@@#%@%#@@+%#@+@@%#*@@#@@@@@##@#%@*#@@@@@@.@%#@%@@@##+%%+$@.#&+%%%%%%@@#@@+@@%#+#+@%@%@##%#@@+##%%@#@#.@%@####@+#+",
"@###@@#@@#%####@%@@++*#@###$+$@%.##+#@##@##++@@%###+*#@@@&+*+@#&#%%#+@@#@@@@####+@%#@#+@%@+#%.@++@@%%@@%@#@++&@%.%@##++%%%##@#@@",
"@#%#%.@%%+@@#@@&+#%@%#@#%%#@&++%@@#*#@#++#@##%##.#+++#@@#+##+@##+#@@#*+%@+%%@##+@@#@%%@%%.##@#@#@##@@@#+%##+#+@%+++@@#$&#.@%%%##",
"#+@#@%#@.+##@@%#+##@@@@@%@%##&#@#%%@@.@@&#%%####%@@@%%@@@@%@*###+#%@@#++%@%+*#%@@@@#+*&+*#%%##++@#%.@@@@.%%%@@&$@##&*@%+*@#@+@%@",
"%+@+##+#@%##%#@#@#*++#*##@@%##+@%+#@+@@#@@+%@%@+#@.@%#+%@#@%+#++#+#%%@#%+@%@@+++@#@%@%#*@&++#.%#.##@##@%+@@#+%+&%+%#%+@+@%@%*@@*",
"%@.@#@#@#@%%%#@@@#@@@.#@+#@%@@#@###%@#@#@@.@##@+#.#.@+%%+@.@#%#@%@@+%@%%##%#@%@&+%.%+#%###*+@###+%@#+#@+@%%.@+@@@#%%@#@#+##%%@@#",
"%%##@%%#@$#.%+#@.@#@#+$&###@@#@%.%#%@@####@#+##&#@@@+$+#%#&$@..##%%@@@@*##@%%#%%%#.@+@@%###%@@@@@@@#%.@+#@$@#.#.#@.@#%.@##+@#%#@",
"*@@@##@@##@%@@#$@.%@#%%++##@%@@@#@+#@@%@@#@##@@#++#@#+&*#@+*+#%###@%#@@@##@+#@.@#@#%@#%#%+#.%+#.@#%#@.#+@*@+##%#%#@@#+%%##+@@.@%",
"%@@*+%@@.@+&##@.+##@##%@+#@@.@**@%@##%@+@@%@%#%%#++#@@###@#+##@+@@@.###%+*#@#+#@#&@@#@#@@@@@##@@@@%@@@@@@#@%*@@#.#@@@+@.%@+@@%@#",
"#%.+&#+.#@@@%#++##@%%+@@%#+*###@##%%+#%+@##+@##@%@*#@@%@%#%#@%%##%@#+#+%%*+@@##+##*#+$%%%#+#@++%+###++#@#%#*#%#%@#@+++##%%+@##++",
"#@##%%@+@..#$##*$&###%@+#@#@@@@@#+#@+&###+++@@%@#@+#@#@+%@.@+@#@+@%##@*%@@@+@@@$@#%###*+#@#+#.#+#@+@%#%##@%$@+##%@@@@+#@@@##@@+@",
"#%##@@#@%@#@++#%+$#+@@*#.%@#+*#@##@@@+@.%@@###@#@%@+++#*%#%#+###@@.%.@*#+#%@#&#@#.%%%@#$@#@@%%##%#+#@@@+#%%%$+#+@##@@++##@#@@@#%",
"##%@%%+##%%.%@*#@@.*+.#@@+@@##@+#%@##*##%#%#**@#+#%#@%@+%@@@+@%%*+#$&@@++@%+#%%+@@@#@.%@@@%@@%%#@###@%#%#@@+@#%@+#@#@+++#%%@@#*#",
"@####%%+%@#@%@@@@@@%@@#+#.+@%.%##@#@%@##@@@%@@@#@@#@@%+#+%@##@#+%@#+&$+@*##@#%@#+*#@++@@#@.%@+@+@%%@#++#@#%+@@@#%+@@%.$##+##@@@+",
"$#%%#@#@#@%+#@%#%#@%@@@+&&%+%@%@@#@#..%#@#@.@++@%@###%++@#++#%@&%@@%@++#@.*@#$#.%++%@++@%#++##.@+###@%%@##%%.#+#@%###@#*#%@#+@%%",
"#+###@#%+%.+++@$%@%%#%%@+&+##%%%@#@###+#@##+#%%+@..%%.@@##%%+#%#@++#%@##%#.+#.$#####@@@@@@#@##@@##@##%@$#@@%@##+$@%@&+%#@%%##%%@",
".###%.*+@@@#+#%@++%##%%###$#+@#+%@@#%%@%%+$#%%%@#####@#%#*#@++@@%#+#@@%%+%@#@*%##@@*+%@#%@@.#@@%#@@#+@%##@##+%.@*&###@###@@@+*#@",
"%%@+&#+%###@@+#+++@#+%.@%%%@.*##@@@#@@###%@*&@.##*+###@%%@##@@#@%@###@%%%+#+%%%*.@%@@@@#%@#@#%@%##@+*@.%@%#+&#%##+@@@+#.@@@%@#@%",
"#@@##%###@#@%##@@@@+++##%%%+##&@&#@@@@#%##@%#+#.@&+@%@++##*+##+@##@######@@+$$..%**###+@@#+##@@@%@%%###+#@%%%@%@%@*+%@+*###+@%#&",
"#@###.%#$#+#.#@@%.@#@###.%@#+.#%#@#@%@#####@@@@#%@#+@%##%@+#++##%@@%%####+#%+$$#+*+*#%#%%@@++#@@@##@###%##@##*++#@@@%#+&@@%####+",
"*#@%@@@#@%@#%++@#%#%%#@#+@%#@@%*@.#@#+##.**@@##%#%%&@@#@%#%@++@#%+*#%@#@+@%%+@$+@@@+##&#@@%+@##+#+#@%+#%%@%*@#@.%&%##%##@@@%.%#+",
".&@#+%%#+#@%&#%%+%%##@#+@@#@%%%%@..%###+%#+$#@#%+@.%@#@@%..@%#+##%#+*@@#%@@.%.@#%@%%.##%#@.%##@+%#%#%*#%+@#.+@++#@+++#@###%%#+*@",
"%.#%@*%%%$+@.&+@%@@%%@+@###@#@#@#@#+.%@@+@%#@%@@%#@@@#@@@++@.%%#+##%@%%@+@%#+%%@###@%%@@*@@@#@%#@@%#.@@+@%@@@.%@###++#@@##+#%##%",
"##*+.@&#@.#@+@++###+@.@+%%@#@%%@##++.%@@#+#%.#+%&#.@##%##*##@@@@++#.@@@#+#@##@#+#@#++@##%#+@@+#@##@%..%@#@%%@###@@@@++@.@#$+%@@%",
"%@@+#@*.#@%#@#@%+#@%#+#.@@@#+@@@.@##*+@%%%#+#@@@@++@@##@%@#+@.@.#@@@#@.%@+###%*+#.@#&@@@#%.@#@#*#@#@###%@+@#%+#@@##@##.%@@###+@.",
"#%#@@#@+@+#@%##+.@#@%%#@@@%#&+@@@##@*&##@%##@@#+@%%#+%%+@@@+#@+@@@#++#@@@#@##%@@*@%%*####+@%@++%+#+@+##..++*%@.%@@@@##@#%@@%#*##",
"%@@@#@.#+%##*.@++##+#@@@%@%###%@#@@#@###@##%%@##++#%#++#++@@+++&@%@%%++#@@.@@#@@##@@#####%%##@@#@%@#+@#+%@@++#@#@%@#++@@%##@##++",
"++.@##$#@@%+@###%+$+@@+@%@@#@#@+@@@###@%+%@@#%%#@##@@.%@#+#@@%%*$+@%@+#+%#@@#+@@%#@@%@..###@%@##+#@##@#+#+%%*&###@####@%%@#+#@*+",
"+@+%.++%@%++@#+##%%++####+%%#+#+##%@**#+###%@##%#+#.@#+@#@++++##+#%#+*.%#++##@.&%#@@@#@#%%@*+%@%@%.%@#@@@+@.@+#@&##@%+&#@@@+@@&@",
"@+%.%%@$#@@%@@@@%#+%.++###%.@%@##%.%@%##%.+@%#+@.+#@%%++%@#@@+#%##@%@*+@@@@%%#+.+#@@##@.&+%@#@%@@%%##@%%#@##%@*.@%@%@*@*+#%%@%##",
"%@@@#@%@##@@@#%%@%%@@.#&#@@%#@@#@@@#@%@@+@++#@@#@%%#+@@+@##%.%%@@#+@%%##@#@@%.@+@@+#%###+#@@++#+%++@%.@%#@##%@*@+#@@..####.@@@#%",
"@#@@@%@@.@++#%%@@#@##@#@**+#+@@@*+@@@@@%@#$+@##%#@.#+@%@@+&*+#@@#@#@%%@#%@%@#@@.@%&#.##@%@%%%@@##+###@##@++#@%#####+@@#@@+@+#@#@",
"%+@@#@@@+@.@+*+*#..@++%.##+##@#+@#@@@#+#@%+++##+%@#@@#+@.%#+*+@%+#######%##@###@%%++#+@.@@#@#@%#.@##@%@##@###%##%.@%@#.@@#+++@@@",
"@&+#####@#@@@##$$#@%@#%%@##%@@@#%#@#@@+#@.%@@@@##++@%@@%@%%#+##@@%@@%@#@##@@@.@+@@%###++%@@##%%#.@%%#$+@+%%##@##+@#@#&#*#@%@+#@%",
"%@##@#$#@@@@##@%#&#%%%#@%##@+@@####@#@##%@@@@+#@##@++@#@%@%@@@%%@@+#@##+##@++###@#%#+@+*++@##%#+@##%%%.%#%###@@###+##@#@+%%@##++",
"%.@@@+*#%##@@###@@@+*%#&%@#@&#@+%#++#@###@@**+@+@%%###+#%#####@@#%##@@#+.@@#+##%%@@+*#@#+$#@@@&+#@@@+#@+@#*##@@#@@++#%@.@@@@@#++",
"$##.@+#&++@%@#@.+%#+++%@.%%@*@%&+#%@#+++##@@.%@#%@%%%+&#@@%%%@++#.++%%@+#%.@#%@##%%@%@##.*@@##$####@##@+#+@.#*##@%@.#+@+%####++%",
"@.##@@@%@@++.@%@+###%##%@+%*%#%%@#*#.%#$#%++@@%@*+@%%%#+###@+@@####++%#%+$%%#%#*##.%%%++@%@+#%*$++#@#+#@#####@**@@##@@@%###+@@#%",
"#%+*@@%%%@++%##%##@#.%#+@+@#%+#@#+#@@%@@###@#+@@##@@@%@@####+@%###%@#@@@@*#@#%###+#@@@@@+%%%+@###%%@@%@@@@#.%#*%#@@@%%@@@#@###+#",
"+@+*@@@%#%+#@##%@#%#@%+&%%%#@@%%#*#*+%@%@#@..+@@@@#+#@%.%@.@@#.@%#@#+@@%%++@@@#@@@+@@#%.##@%@%%@%@##@@%%#@@@%@#@###++#@@+#@@%%#@",
"##@@%@@%#%+#@%#@%@.#+@@%+@%@#%@#%#@+#@+#.@+#+*@%###@##++@#.@@+####%%#+@%@####@##%#+#@+#@++##+@+#%#+@%#+##@%+@@@+@@%@##@##@@%%%@@",
"@#@####+#.+#@%###*%#&##.#++%#@#%+@@+@@#@@@++###@#@@##++++#%.###@%##@####%#+%%+#.@###%%#@@@#+#%@@##**###@*$##@+@%##@@#@%@@%#@###%",
"@+%+$@#+#@#@@++@#*@@#%+#@#+#++#@#%++####$@@+#####@@++#%##@+%#%+#%@@++++#*@#*+%%*%%%@@#&+@@+$#@+##@%%%#*+@+*@#&##@%%@@#@@%@####@%",
"##%#+%@%@@@%@&+#%##@+#$$#@%@#@%#%@#+#%%#+@%@@@@@#@%@%#@+%%@@@%@#+%.@+&*@%@+%%+@@@%@%%#+@@%%+##+@%@#%%++%%%+#%%@@##@@@+++#@####@#",
"@#%#@#$+#@..%*++@#@@+#$&#+@%%+%+#+.%#%#+###@#%@+%##%%*#%+#%+@#@+@%#+@%##%%##+&@#@%+@%+#%##@#.%@*@@@#%@+@#%&#@%#@%%@@@##.+@+*+##+",
"@#@%%@##*@#++@%.#@%##%@@*##@.#@@+*#@@#+#%@.%#@%%.%@%@%@#+#%.++@.+#%#+@@##%##@#&@##.+@&#@*#@%#&+@@@#$#.@+@@@+@.##%@%@+#@@@%@@.%##",
"@@%#+@%##@%@#+#@##@@#######++@%###@%@@#@+##+##@#+###+#@#@+#%###@@#&&@.@@@#+%@%%##+@@.#@@@##@%#++@#@+$@###*##+@@+@#+@@@%##@%%@##@",
"@@%@#@%@%@#@%@#@@@@.%##@@#%#@%@%@##%%@@%#@##%#@#+@@#+#%#@#+@#@+*#@##%@+@#@#+%%@%@*+#%#++@@%@%%+&@@@#@%###@#@%%@#+@@.%+%%++#%@@#@",
"%@@#@%%%+###@@@@#@+@@##@####%#+@@+#@@@#%@@##@##@+##@##@#.@#@+#%%$#@@@##@##%@#*%%@%++#@##@@%#+@@%+.@#@##%@%##%@@@##+#@@%##++#@@%%",
"+#@##@@##@%@@@@%+@+*#@@@+@+$#+##@##@#+*#@#@##++@%%@%##@#%@@%++@@@@####@#$@@+%+*%#%@@+@#+@@@.@*#%@####+%+@##@##.#%#+*@.@#@##@@#@%",
"@#@@#@##%##%@##@+%+&####%@@#++%#%%.@###%%%.#@#*+#@#@##@@##@.##*+%@#%@+@#@$#@#@.+%%@%#@#@*##@@@%%@%++@@#$+@@@##%@.#%@+#+@@@#@@@#@",
".@####@%#*#%@++##@@+*++#.#%%#&#+####+#+###%#@@#+#%@%##@@@#+.@@#@+#+%%#%@@++@@@#@@#+####%#%@++@%%+%#$#++#&#@@@+#%%###++##@%##%@##",
"+#%#+@@+@+#%%%@#%..@*++#+#%#####%@@+@%@+%@@@@@%+$#@%##@+%+*@++###%&+.@+$##@.#++..@+@#@@#.#%%#**.##@@@#@##+@%@##%.%##+#%#+@@+@##.",
"#@.%#@@@%##@@++%@@+@@.#@@$@@%.#+@#%@%@#*+#..#%@@@@@%.%+#$@@@@@@#$@@%@%@%$$%%%+++@@&%@@@@+@%%+#%#@%@.%@+##..+*%####@.@&+@#%%#%+@#",
"+#@#++@@.@++@#+#@%@####@%##%%@#%+#%+###@#$+##@@%@@##@@@%#++@.@####@@@%#%%#@@#%@%+##%.@@@#@#@@#@@#@+%%#+%@#@@%%##@##%@+@@@@##%+#+",
"#&*#%%@*@%#@@.##+#@@%@####+@@##@&+@#%@@%+$*##%@%%@##@@@.@@##@%..+#%%#@+.%@#+*@%%@@%@@#%%@%#@%##@++#@@@@&#@%##@@@#+#.%#@@@@@%.%%#",
"%@++*+@%&##@@%@#%#++%###++@@##@+@###%@@%#@@#%@+#%@%@%@#@#%%##@@#@@@#@%&#@@#%+##@##@#@#@.@@##@@##@+*#.#+%@##%%%+##++###@@#@+#+#@@",
"%@+#%@#+@%#@@%@@@###.##++##@+@.+@@%@+&#@%.%+@#*#@###.@@@@##++###%@#+#.&+@@#%####@#@@@++#@@@@+#@@##.@#@@$@##@%%##.@+*+@@+#%@%#@@@",
"@%%@+++@%@@#@+++.%@+##%.+#+#%##@#+@%#+%@.@#@##@%#+#&@@#@%@#**@%@#%@+&+#%@#+@@@#@@#@@%++@.@#@+*@%@@+#@++.*@%#+#%@@@%##@@+*###@+#@",
"%@#####@%#@#.+##@%@@###@@@@%%@#@%@###+@#@#@@@@%@@#%*#++##%.#*+++%.%@+++#@**&#@###@@.@#++##@@++%@#@@%+@@+#++@@#####%@+#@%@@@+%+@.",
"#%%@@%@%##%#@+#%*#++#.@#%@@#&+@@+@@++*+++%@#@%@+#@.#%+*##+%.@+#@###.@#@+.@.@%@#@+%@%##@%+@%%##@++@@%#%+#@%.%#@%.##%%@#++#%%+%+*+",
"###.@####%#@@%##@%@#@@#@%#+@#+#%@%%%#.@+@&@%@%%@+@%%#+@@+@@%@%%#@#@@@.%#*@%##@@+##%@@..#%++##*@#++#@++%@+#@@@@$#@+$#.%@##%.##%+%",
"%#+@@#++%.@@@@@%@%###@@%#@#%.%%%#%@@@@@#@#.@++*@@%@@@+#@@@@%%@@####@##@#+@####@#*+@#+@##@#%.%###@%..%@@###@@@@&##++#@@@%+@%#*%@#",
"*@%@+#@@+%#%%%@%#%#%@#%##@##@@@#@@#@%#@@$+@+##$$@%@@@###@@$++.#+#+##+#@%%@*+@@%##+#@###+##%%@+%%##++#@%@@#@@@@##%#++++@%++#@#@@#",
"@++##+#@@%@#@@@@%%####%@#%@#@@#+.@@#@##@.@++@@+%#@#@#++#&#+$++%@@#@##@%.@@@@##@%%##@@#%%++#@@@@##@@@#@.#.++##@##.%@##@@@#++%%##@",
"%%@+#%@*#@+@@@@%%#@#+#@@@@##@@@@@#@@.@$&#@#@#@#+#%@%.@@%+%+%*@+.@#%%@##@@#+#@@@+@%@%#+@@.####+@%@#@@#+%@.##+###@#@%%####@%@+@@%@",
"@@%%##@%+@##@#+#%#%@#%#@#@++@#@#%%++%+####@@#@@@*#+@@##%@@@#%@@+@#@#+++@#%@@##@###%%@@@+#+@%%##@%@@%**#+@@##.#*#@#%@+#@##%#+#+#+",
"+#%@###+#%###++@@@@@@%@%#%@@@##+#%+#@@@@%$$%%$&@+#*+#++@+%#@*%@#%@@+++#@@%@@@#@##+#@%.@+%+*+%@##+@@@@#@@@@@@.#+#%#@@#%.%+#@@@&*+",
"@#@%%%@#+##@@+&*#@@%@##+%%@###@#+@@++@&#%%@%%@%%++$*#+*+%%@@##@@%%%##%#@+%%%+&#@%@%@+#+#@#@+###@@.#+@@%.%##+#*#%+#.@&+@@##.%###+",
"+@%+@#@@%%%%%###+%.#+##+@%@@#.+#.+##%%%%+%#%%@&@@#@%#@#$++%@#**.#%@%#+@###@..@%+##.#+++#@#%%@@#+@#%#@@*#%.@@@@+#@#@.@#@.%##@@%@+",
"@#@##&#%@@%@@@@@@+#+#++#+#+@#@+#+#%###@+#%@%###+.%@++@@@*+%#@.@#++#%%@@*#+###+%%@#.@@%#+#+#@@@%@###@.%@@###%%%@###+@.@+*%%@%%@@%",
"@*@.@+##@#@@##@@@@@+#@@@#@@.@@@@%%.++#@@*+%.##%+%%%@%.@%@##+@@##@##@@%.@@##@@+@@.@%+*#%.@@@##@%@###@%#@+#@@@*@@&#@*#%++&+@@+#@@%",
".++%##@%%@@%##%%@+%@#+@@##*#+##+@#%@@@%@#$+@#+@#####@@@@%@%@@#@.@#@#+#@%%@+#@++&@+#%%@+#@#@@+#%@%@+#####%##%@@@.@@#%##.@*#%+&@%@",
"%@#%#@##@###++++@@.###@@@@+#+##*+#.##@.@%#+#%##*@###@%@%#%.@@####+@#+###%%+##+##%#+@@#+@@#####@@%##+#@#@+..@+@##@++#+@@+@#%@#@@@",
"@@%@#+####@@####+#%*+%%$%.@#+#@#@#%@@@%@+%@@%@++*@##%@+@#+++@###@@###@%#@%@@@@@##@@@#++@#+#@#+#@@#@@%%##@@#@@##.@@@#@@#+#@@##@+%",
"+#%%.+#+&+++@@@%@+@@@@@#&#@#+++@@*#@%@##+.@@+##@#%@#%@*@%###.@##@@@@###$+@@%#@#&##+#@@#@##@@@@@%#@#@%#++#%#&+@@%#%##%##@#@%++@#%",
"#*%@%+%.+%@@%@#%#+.@@%.@+@.%@@#.+#%@#@%%+#+%#%@+@#@.%@+*#%%#@#%@#%@%@+@+#@@@+@%+#@#%#++.#%%@@##+@.##.#@%%%++#%#@%@#%%##&@*@%+**%",
"+%#@#@@*##++%@@#++..#*#%#+#%@@@%##@#@@@@#@#@@@@@##@++%#%$+@+#%%+@@%.##@++#.#@+#@@#@%%@#@#@@#@@@%#@.@@.@%#@.@%+++@%%#$+@#@##+%+#+",
"+@##@@@%@#+#.+&.%++%#@#+##+#+@@#@##@##+@@@####%#%##+#%@%#%@+@@##%@@@##%@###+@###@@#@###@@%@@.%#%####+@@%+#@@%@##@%@@+@@@@@@.@##@",
"@%%+#%##%%@+#%@$##%*%##%##%#%#@+##@%%%####%@#@.@@@%#@%#%#@#@.@#+#%%%%@@##+*#%%#@##&*#@##%+@%#@%##+@@+#@+#+##@@###@###@#@+%+%@@*@",
"+@@###+@@#%%+#%@%#@.$@#%#@#%+@#%+##@##%@%@@#+#@#@#@@%##@.@@##@#@@%@#++@@@#+###+%%@+*#@%@#@++@@#%#%@@+@#+.#@##%%%@@###@%%@#+#+%%#",
".#+@@+##@.#&#%##@@@$%@#.##@#%+@@%%%@+#%%@#@@@@@@@#++@#++++###@@+#@%%#+@@@@+##@#@%.@###@@%@@@+@@#%%##@%#*.#%%#@##@@#@##%%&@@$###@",
"@#&*@@.##%#@@+#%.@@.*#+#%%+#+%#@%%%.@#@#%@#+###%@%@#%..@@%.@##@#%@##&$@%@#@#%%@%*@##+#@##%@#%#+##@#@%@&@#@@.%%%%%#@+++##+$###+%#",
"#%.*++@#@%@%+%.*#%%@@$*@+@@+@#+*++#%#*###*++####+%%@#++++#@%.@+#@##@@*+#.@%++*+#@%##+#%+@+@.#*##@@@###+%@%+@#+#%%%%#@##@%@++#@@%",
"@#@#.%*#@+&@+$#%%@*@%#*$#@%%@++%+#@@+#%#.#@@#@%@####@+#%##&+%@#.@#*@.@+##+%+%#+#@%@%##%+%@%.#&+###%@#.++@%+@@+###%.##+#%#@%.#%##",
"%##.##.@#%@@.*##&%@$$#@@@@@%.@+##@+@.@+@##%@.#@%.$%.##@%#@@%@@###@@#+%#+%++@#+++@@%%@%++##+@%@#@####@%%@+@+.#+%+#%#+%@@##@#@+*@#",
"%+*%#@@##@%%%@#@%.#+%*#+###@%%%.##+@@.#+@#%.##%%+@*+.@###@#++%@@@@@##%%@##@%@#%@+@%%%@@##@*#@+%@@@@@%.%@@%@.#@@#+###%@#&@@@.@@%#",
"@*#+.@.##@+%##%%%%@@#%&%@@#@@%@###@@#.%%@+#%@@@+%@@#%%%%#@@++%@#@@@@#@@@#%%@@@%@#@#@%@.@##@##@@%@#####@%%@@.@%@@#@@%.%%*#@#%@@%#",
"%%##*##.%#.%+%#@##@+%+@##+###@@#&*#@@##.@#+++##@%+@@++@.###@+@#@$&#@%@+#*%%@##@@@.@@++@.@.##@#%#.%#+*++@%@@@###+@@###@@@####+@@#",
"#+%+%*##$$+#@#.#@%*@#%@@#+@@+#@%@@*#.#+@@@##++@.+.#@%$#%%@@@##+@@+#+##@.*#@@%##%+###&&+#@+@++@#@@#@@#@@@#@@@@#%@#@@.@@@##@%%+#@#",
"@@+#@%#%+$@+%#+*%#%$#@@%##@@+++@%.++%+#@@#%#+#%@&##*@+#@%%@@#%++##@%##+#+@#@@#@%%@@@@@##@@+##+@#####@#++#@#@@+%@#@#####@#@%@+#+%",
"%%.@%@+*#%##%+@@$%#@+#@######@###@@#%++#%+@+#+%+@&%#@.@%.@#++%@@@#@@@#++@@####@@@%@@@+#+%@%#+##%##@%@@#+++#+@#@##%#@@%@%@#@#+#+@",
"#@@%+@#%#.#%@*+@@+@%%++@@%@#@%@@%#@@%#+%##.#.#@+@#@%%+*+@####.#%#++#@%++*++@@@#+#%+%%#%#+#.@+#@@&#.%%@@@%#@#%%#++#*+#@@%@++@@@+#"};
