/* XPM */
static const char * LightTanParchmentData[] = {
"128 128 9 1",
" 	c None",
".	c #DBCCB3",
"+	c #EDDEC5",
"@	c #FDF0D6",
"#	c #F8EAD0",
"$	c #E1D2B9",
"%	c #F0E2C8",
"&	c #E7D8BF",
"*	c #F4E6CC",
"$@$&%#+&%*%*%&%%+*+#++%%*+&++&++#%&&+%%%#+$*%#+%%%&+**.&+#%+&%#+&&+%+#++*@$+++#%%.&+%#**+&+%%+%**&%&%%*+%&%+&%*%&++&+&@+*$+#&&@+",
"+*%&%%@*&+%%*#@#%+@@+*%#%%@@+@@%$&%***%&+*.%&&+&@%*@+&&@&%%%+&#@+&$$&%++#%&*&&*+*#+...%&@@+..&+&&+%%*%@&#+*+@&%++@&+*%+%$&%@%&#+",
"%+$%&+#+**+&++%++#+&&@@%*++*+%+&+++++%%&+*&&&&&+$+%%&%%%%+%*%&+#&%#%&&+#&&&#@#$$%@**@%&$$$+#@%&&#&#+&%#+*%$%*#+***&*+#++%#$&*&*+",
"*&$@+%+$@*&**++%%&.+*&%#+&$&#%$%*&&&&&&&$+$$+**#&#%&&*+&&&+&%&&$+&&+%+&%@&&#@@%&&$+%%&&@**+$.&%#++$&%$#%#*&$*+%*%&+#&%++$@##%&+%",
"+&+++$*%&%%#%+%#&$+*%+&@&#*&+%&%#*%#**@@+@++#&*&**+%*+&@+%#&#@*+**+++++&&+$.#@*@&.**%@#.&%**%*%$%*&&%$%++#%&+&*#+&%&*+&%.&@@##+*",
"++$$&*%++#%&&+*&$**+&@*$&+%+&&++%&%*&&%#&%+$&$&$&$$*&+*+&+@.&##*&+*+&+@@&++&&+%&@*.&%**+*$.&##*#*#%&*#+*$#$%&#*%++#+%&+#$.*%*@++",
"%@$++@+&**&&%##++%$%&%#$@&+**++++&+*+&&.&.*$%##@+++*&**.+%@$+%%@+$$&+#@&*@+.$$*%.@#&&+#@##+$$+%&+@%+*+%++*&$#%*$++**&+@#..%+**$%",
"$%*&$&&*&$$#@*%+&&@@$+%+$%&&*#%+%&&$&##&@*%&*+%&+*&%%+&&+&#$++&@@&$%++#&**+%%&@.@.@@&.&++#@#$..&%%%$&%*@$%$+&++++#++&*+@&%&+#*&*",
"*&%++*$.&**#&%#.##$&+$$++*&#+$#+*#*%+&+&$$*$$.+.$++&&+#&&#*.+%#&$#*$$#%%&$##@*.$+%.@@#.&**&@@#+$.$*&&##%@$&*%*&*&#&&@+%#+&&&*%%%",
"@+&*+.&*#+&+%$*%$&.$*%%#+#&&+$$&&&&++&%*#%*$*@@+@&**.&@$#&@&*+$+***$&$&+*&#%*#%%.%+&+@@.$+&%%##*++&&$.%%@&.+*&#%%+&+#&&*#.%$&&&&",
"++%&&##%&+$&&%$%+%+&+&$&&&&+%*#@###@#%%*#**$&%#&&#%&+**+$&#+&.+@*@*#$*+*#$%+&##*%..&++##+*++&*@@#%%#+.&&#&#$&&*+*&++&&%+#&%#%&#%",
"&.*@*+$##&%%#+&##*#*%%%#%+&%&+&$+&+%*++&+%@&$$%%+&$&%$$%*@%&+%#**.%%@$+*#&++&*#*+@*..&@$#*&&&%%%@++&&@+&%.#&$+**@.+#@&&%@.+&$&++",
"@*.%@+&&%++#%#$%#%##+%%++@&+##+**+&&+%+&+&#*+&%*&&%&$+*&%+*&&#&&%%&@*#$+#+&%$%+#+&#@+&.%+++%&&$+##@#$+%@@&&@+$&%%&*%**%%#+&%++#%",
"%#%&&%#%$$*$%%%$$$++$%#*&#&&%%&%##@%%%%%&$&++$$$&%$&&+.&$.+*&&&#&*@$*#*.%*&#&&&++%&#@*&%$$%#++&%&&+##&.$#&+@*+&++$+%#+&#*&+%+#&&",
"#+%*#*$%%%&%+++%#@*&%%#@%*&&&+&+$$&&&%%#@*%*#%+&%#@#%@**#*&#+&+&+%+#+###+%$#&+&&*++$%@%&++%*%*+%$$+#@@&+&.@&+@+%.&#+##&&++$%&##%",
".#%++$##%@%&%+*+&@&$%%&+*@%$+#&##+&+%%%#@%++&++&@&&#$&.&$+**$@&+$.+++%##*#$*&***.$@&&$+$#&$$&@&.%*#+#@&##&&.*%*#.%*+#%+&*%+%$*++",
"@.*+%#&&%%%&%$$##%+$%+&%@+&+&&&$$*&%*&*..+@#&%%*$++%%*@##**@.&@@++%$.$$%*@.+#$%@@&.*$&&%@#*%&$+&%+&+%##$$#$*&&@$+.*@++&#*#+&@.$+",
"#+%$%%+*%%&*#+%&#$$%#%+$#&+%*%&&@&*%&+&#@%@&#&+&#*%%%&$&%%%@+$#+%++*##%&%@.%@.*&#@#.@$@%&%*&&%#%&+++&%@%&#++&&*&@&.*&%$&#*+.**&&",
"&+%%##*$+$*+&%%%$%&#*&@+#&+&&%%+$+&**%#+%&$%+*+%$+%@#$&@$&&%%&+$*%%+%%%%%*%+*&&+#&$@%$.&%&&*@*%+%&.&++*@+*$+&@&&++*$&@++$*%%&%#*",
"$*@%&$@%&%#+&%@*$*$..&##&*%&#@$%%&&&+%$&+&#$#$%$&$$%*+$+*%&&%&+$.$$....$$*$+*&**.+#.*@%.&%*&+%*#&@*+$$+**&+&*%++*#%%*&+&*#&*&&*+",
"#&+*%+@+$%+$%+%&*+**$.&@$&*&+#&+*@*$$%@@+%+*%@%+&$.$&+$&&++&#$+#*****##*#@%&#&&.*@.%&@##.&&&%*%$%%&@#&$%&++#&+.@*&&*%@$+#++*$+$+",
"&$+@@&*%&+@&*#&+&@&&@+.+$##$%*$#+@+@*.&.++*$#$@*%#@%&&&$&+*#@+&*##%+++%%%+#&*%&%@.*+#.@+@%&$&&$+&*+*@@+$%&++++$%+#+++*+&$&*#+$+%",
"@%$&#++#.%*%+$++*+@#$##&++*+&%&&+&##*#&&&%%#+&#@%&%**@#+..&&*&$&%***+&+%&*#&%$%#.+#+%#.%%#@*+&&+$&&*&$&%#+$++#&$#&#+%+$*++&&#$*&",
"%@#.*&.@&&#*%++&%*&#+&#&#&%$&#%%%+...+##&&%+*&*%%&%*+%##+##$%&&&$+&+&$++*$#$##&&+%*%$&++#%&&#+&#*#$&.++*%*#+$++$*&&%%@++&$#+@$$+",
"*%##&+%&@.**&*&&@%&%*&#+%#*+*&&&&$#**@+%@*$$*&$@#&$@%&+@+&$@@%&&+&&%%*$&**+&@*%&%@%+%&#+&&$*###&+**$#&&*++####$&&&+*+&&&#+%+#*.%",
"+%&&*%++@.#&&&%%*&+#**+&+%%&*%*+*%%%+&&&+%*%++&&%%&#++&%#.*&#%%#&&%+&*+%+$%%**.*#*+#&+$.&**#&&##%$&$@**%&+%%+@%#++*%&$*#++#$+*.+",
"$$#*+%++*++%*$%+*+&++%&%%%*$%@#%*+%+%+$&&&&......&$&$++&@#$+%+$&+++++@%&+%#@%%$+*#&&&$*%#*&&&&+$$$#+@$+%+#++&#**@+.$+*+&&%*&#@++",
"&&.+%+%&+*$*+&.$.&..+&*&+**&*#+&%#$%#%@##@*@@#%@#@%#&*+%+@.%%*&%&%%+&$+%$%%%$#%&@&&.#@*+&&%@#%%$@%*%&&%#&*&++***&+&&&++%&&$$+#*%",
"%.**.+#%+#&**@%@&*@%@&@$&#@$+*&&#%+&*%%+**&+@++@+++#&+&+@#@$%%$*%&.&%+*@%&%%&@%+.&$@%@#@%&&%%++&#*+#&%*#$%&+%*%+.*@*%.+*%*+&$$+%",
"#@$$#+&&*%*$*+++++@+++#*&%@$&%+&&*&$%$%$++*#+&+.+++@&%&&@#%+$#&*#%#*%$$**&&*+%$$#&+#+@$#@%++&&*@&%*@.&+*%@&+++&$*@*@&*$&+*##*&++",
"@*@+$+&%+*@&#&*&%*%*$+%@$$@#%%%.##@$++&+&&&&$+#*%+&@&+&&+%.@.#&&*%#%**&&**$+&&#+&%%#%$**@+&&**+.+%*+++*+*@&&&%+&*%%&@&++.$&####+",
"&+@@%&*+&##+%&@&$#&@%&$@*.*#&&*&&*@$%*%%&+&&%%&%*+&*&%+#&.##&+&&&+*$&*#*$%*&%@@+$*+*+@*%%*#&&+##..*$*+#$%#+&&#%+*+.%@*$#+&&+++*+",
"&&#@%&%+&&%#%.&#$$*#+@+.#%.#*$%+&.$+.$&+*@+*&&@%#&%@&+*&.*#+#&*&%#$*#*&%%+#*&.+&%+&++##*$##*%$$#@@.&&&%%&&$@@$##$&++*@#.#*$$&#&+",
"&$.&&&*+*&+*%&%@*$*&+*#%$*%%+%&%%*#@&%#+&#@+&+&@#$+@$$%$@%@$+#&&%*&*+%+++#%@&%%#$$.$.+%$$%*##%$++@**+&++%*.#&**+$&#%+%*#$*#+$+$%",
"@%*+&$$&%+++++&%*+*&+++%*&&#%%&*&**#&&%.%%#%&+++#$&@+&*%#&#++%%&++++&%%*++*&@++*+##+&&&&*%%#@*+&&&$%*++&#%$#+%&$%%%&+%*@+$*#*%$%",
"+%$*@#@+&$&+++&+%%+%+*%@#+%%&#&$#%%@*$*%&+%%&%#$@$+#+&+%&++%%$*+++++&*+#.++%%*&%&%@#&+#%+&$&+%++%%%+&%*%#$&&#&$#&&+%@#+%@&$+%#$+",
"%&*+##%*#***+$&+++&%+**@&%@++%.&#*%@@.+#.#@++&&&#+*#+$+&%++&*&&#&&+%##&#&&*@+#%%+%$$#*&&*%%%%***$++&&&+&@$@%$&@&+%#++&&++&&$$#%+",
".&*%%.%*#*@@*&&%+&+&+%%&$*#&&#$&%*#**&&*.+@%&*&%*$*#%$++*++&@#.*%&+&**&#+$*+%+#%%&&%**#+&&++&&++*+++@*&&&$$&$%+$&%*+&+.&$+*#*#%+",
"*.%&*%+&+%*#*+&$*%*++&+$*$$%%*&&$%%$**&%%$*%$%&+%$+*%$+%&+$$#@+&%&+&+%+#&+.%$%&&$%&$$..&.&&&&%%%&##$+#@@@+&%+*+%+$$..+%*@@+#++&+",
"#&+&*%*&&&$$+*%&.&$+&++*$@*%*#&$##*.@@$%++$&%$&*@&*@#$+#%%&&*@#&&&+&+%&+*#+$@%%$###**#@@*@@#@@*%&#+$%+#@#+#&*++$.$*@##*%&@%+&&++",
"@$%&+%*#*&&#@$@@&%+***&+%+++%+%+&&$%$&%&#$@#&%+##&+##$&&#+&%$&@+&%%+*+%&$@*.#&&###+%#*%$$&%%&#%&+#$%$+#%&+#&&&#%#@*&%++*&$$.$$*+",
"*&$*$&&@&@@&%.&@*&#*%&*%&&++%+%&&&+*&%#&#.@%&*.$#%&*@&+%%+++&$##$+%%*&#$+@*%.%+%%*%+$+%%%+%*&##&*+&@+$$$%%%+*.%#%#*++&$$$&+##**+",
"*%&%#&&%%#@**$%&@*+&%&+#@@+%%&%+&%%*%#@+%&#$+#$&+*&+@&+%%$+@%$*#$&%*#+%$+*%#.&#+#*&$+*#%&+$+&%#&&%&&++$#&.@#$&**+++&&+%%@##**$%+",
"&%&$#&+&+%+%@&$$%%#@.$%*#*&*#+@@%%++&%%&*#%$%%*&$*++@&%&+&+*@%&#&&&*#+*&*$%#%.*%.&#@+&&*&*&++&+$*%%+.***&++@+$$+&$+*##*+&+&%*++%",
"$%.++++&*$*@#$@*.&**.%**%*&##&%%++&++*+*&*+$+%*.%***%+#&*.$&&%%%*&$%#&%&%$&*@..&*%&&$+*@&+&+*$*%%++&%#+@&$%&##.&@++&&%+&++&&&+++",
"*#.+*&%+$#+$@$$@@@%.+%$.%*+*%&&.##*%+&$&+&*$%*%$%+#*&&#&&%&$++%%%+&+*&%%&*%@#*$%&%##*%+$*$+%&&#*#.%#&*%#&+%$#%@$$$##%&&&$$++&#++",
"##&$#$*$#%+%@$%&&&++%&%%&&&+&#%*$$&+$%%@%%#$%%+&$+#%+&%%&++%&%@&+%+&%$%%&&&*&@&.%&$..$$&@$++&&++*+%&%*+%%&%&*+%#&$#*+++#@#%&$&&+",
"$#&&$&%%$$&+@$*%*#&**&.@#+++&%&%@#@#$%*@$**+*&*#.+@%#%&*&%&+%*@&.#*$+$**@.#+&%*$++*#**#@#+%$##$@+&%%**&%+%&@.+@%*&&&%*&+###@##++",
"++*$&+.$&$$$$+&&@&&@#@%.&*%&%+++$%@$&@%&%+#%&+**$&##%+&@&&#&$%@&#..@+$&*&@$&#*@+&+#**##&&+.*+*%$+.#%+*%$%*%$%+@$*&$#%&%.&*%$+@#+",
"+@&%*+@#%*%%&+++&&&++*@@&$++$+#$*#&&#$+$***+&%**%$&&%*+%&+&&#+$&&%@@%&$@+&%.@**@.+$#%%&&%%$+*#+#%$%++%&%%&&%@#&+%@%&+%@+.&+##*++",
"*#*+++&$%&%@@%#@$*#&&+*#@#$$#%.%%%%$**++&@*&&#@%*%%%%++%&&##.&*&@$+*%@+..#@&.&%#*.$**&.@.&%&%%$@+$&&@%&%+%*%&+.$@@#%&&#&*&&&++$*",
"++++%&%+$$+$&%%+&%*+%*+&#@@*.$*%&.++#*&@+%+&&$+&@**%&&+@$%%&&#*+#.+#+*+&.+@@..#*#&&+$$@$+%@$+#$**+&&@%%++#*&.+$**$$%&&&.@*$+%$%+",
"#&@+%@%@%+$&$$&&++&&+@#&&+##@*$$%*&*#$+$@+$%*&+**+&+***#&&&#*%+*&&##&&&@*..@@.+@&*%$&@$&@*@.&@*&**.&&&&+*+&%#$+*@%&*@%&%&$#+&+$%",
"+*&&*$@#+@@%+%*$%&$$.$+$%*+..%#%&%%&+%#%&$&&+%+%&&+#*%%%+$&@&&%*%$%&$#%$@%..@%.*%@$+@+&@*&*+$@*&*%@&@.#%&&+##.%*&+&%***%&#**&&#+",
"%%%&*&%#+%#@*%+&*%##%+%*$$.*@#%.*&*&+%&#.%@+&*+$%*%*+&%@&@.$*@$%*$%*.#@.+@%.$@&%#.#+$$#*&+#@$+%+$+&*&&$+&@@@&&%%$&*#+%@%%$&&&%+&",
"++@+#+$%$&%%###%&$$%%&++%*&&&$%+%%&&*%@&*+%&%%$#@*&+**#@&#$%*@&%%&+#&+%#.@##$.@&$%%@*&.#$#&#$%#+&&&%@&+%*%*#.@%+$++++&&*@*+*&$+*",
"$%##%%*%+&%+%&%#%*+&+#*#*#%##%@+%%++%&&&**+&&%*#&+%%%&%%&*@$$%#$#%&+&%*@..@@*&#&%@&%+%%.&$@##&*+%#&%+$&$&$@&&@+$#+$++&##*+++##+&",
"+.**+&&@%&%&++&*@%$*%&&$*#%#%$*@%@%**%$*&*%&%%%%++++#%*%$+@*$%#.%%&&$%+#@.#+*%&+&++%#%@*..$@@%&+$%+**&**&..&&&&%+$*%&&.&&$*&*+#*",
"%+&&%&%%%&+%#%%%&%&$%@++%%%*+.&*%&#%%+*%%*%+%%%%#%+&+&*%%.*@%&%&%@@&.$$%@&.&%+%*+$%+#&*&@&.$%%&#.%+++++#+#&%%$&$%+%#@@#+&+$&..$+",
"&#&++%#$#$*&%&.&%**@%$%%+$&%+&%%*&%#$+%&@#%&&++*&+**#%#&++%$*%%.##+@#$.%+%+&&*&#+%*+*+*+#%+.%$%#$+%%++$.+#&#@+##&&.$++*&###%###+",
"+&%*%&%##&&%#$*@#***#*.+++%+&&%*%#+++*+%+%%&&%*@&%%&+&*$%++%@%&$%*$&@@&$.+%%#@$%$*%++&&%+*@%%.%##&+$$%#*@**+&+#@%%@+$&&+&+%&###%",
"*&&%%&&%#.&%*+&##%+@*#@.&%#+$$%%*+%$#+%%&**%%*%+*%+$&&#&&%#&+%*.$#++&+&*$+.%@%*+&%+*%%&%+%%#%&&+*$#*$%*&*+*&$#@@&+*%%%+*$++&.+$%",
"%&$&&%@&@++*@&&&**@@*&&@&&&+&&%+*+&#&%&&%#@%+$$&&$%#@#@&%+%+++*%.%%$.&*@@%&$%%%&&&&&++*+*&&%%@+.*$@+$%++%$&**&&%&+$&%+*+$&#$*&$+",
"*+#%$&&*#&&&%%&&&$$&.&*@@%$&%++&$&&+#%%#%+&+&$&@%&+%+$%$$*%$**%&++.%@*&$*@%.%$@$**@+%&#.+*@$&+@#&.@+$%&++%&$$...&++&++&#%&%+*@&%",
"#.%@@..+@&&&%%&&&$.&%&.$&@%&+$$%*&*#&+%$%&$&*@%#%+&..+@$%@$##&@#&$$%#@#*$&++%&%$*%+##+@*%&&&@$%#@*&%&#*+%&###@*@.#@+$*@#$#&$&&@+",
"@&&*#*+.##.#@$@@@#$&@@*#*#%&%&&*+%+&&++&&%#%%%..&+*@#*@$%&+*+&$+#@$$.++@@**&$%&+&*%+&&*%#*&&@++##*%%&%#@%&&+#@@%&%+*$.#@$#*+&+#%",
"%++&&@@*$+$&&$*#&$+@++%$&$&##%%$$##%++%##%%&.$%@&&%@#%%$@&%&$**@##&&+..$#@*@%%$$&&+*+&&%@%+&&$+%%#*%$$+*&*&&&&#&+%$@#..#&$#+$++%",
"+%+&$+@@+@&&&&%&$%#%&$&*@&&%%+%+&$&&+++$&.%#@*%*&+$%%%#%&%*#&+@&*@$%$#@$.&&@@%*#$..&+&&#+&##&++++***&&%%.#*%$$*&%&&+@*.+#.+#$&%+",
"**+%++&*@@&+%&&.**&$+*#@*&%%*++&%&+%+&%#*#*+%@@%&%&++%@%.&*@*&*$@@$@$$+@@&&&*&&*@@#$.&&&&%*+%%$&&++*$+@%$%##+++.*%$.+@+.@+$@+$*+",
"&$&+%$&&%*++*+%&&&#@**#&&+&$%$%###&$*#%%%%&$%*&%$*%+&%%&**#*+$+*+@%&+$.%*%%%#$+%@#@#++&&+%&&&%$&+++*$&@+%&+%%#%$&*@+.%@&&#$+@$++",
"&+*%*+%%%@*%%+@+.%%$$...$*#*@$%+*@*+%&$&%%&%@%.#$*%%%%%%&$%**&$**@.*+*$#.%%@#$*+.$+#@*+&*&%@$*@%+%+@$%@&%&$+%*@+$&#@$$#@.#.&@&&+",
"#+&&&$+.$.+&$+$*%$$$$#@%$@%+*.***$+*%&%%*@&.%&&@&%&#@*++&.+*@&$&#%+#$*+$&#%*.%%%%%*&+@#&##*#$&+#+%&*&++.*#+#%+#&*..#@+.##%$+@+++",
"%*%&@**##@#%**+%++++$+&++$$&%$&$+&+%***$%**#&%+#&+##@&%+#*.&@&.**@$@@.*&+&#%&$%#*@*&**&%+*#@&+&&+#$*%&%+&&&+%++%+#$.+@#.+**$+*++",
"%*%&+%*#%&&&*#@@@*%@@+&$*@%@@.*%++%+%%*&%+%@$&%%&++%%&%%&&&&+&.$$%$&@+$*&+*&&%%+&#$**$#&&&&*&+%#*@&%+$+&&+*+%+%&$*%+&&+%$&+$&+&+",
"%%%&$&+&&*@$.&+&#++%@$*$%%**@+$&%*%$$&*%&&%*&&%&%&&%&+%&%***+%%%++%&*#.%@&++%%$+%%&*%&#&%*##%&&+*@%#**%+%*$$.&&+++*#+&#@*+%**%+%",
"+*#%%**&#&@@*$.&$@+@.%&%++&+#&+&+%***%*$+*&$&+$.&$&$+%#&$&&+$&$$$$$&$+&$&$&$+%$+%$%+&@#+&+*%%%+&%%%%%%%*$&@#@@@&%$$+&%%$%++##+&+",
".%*%+%%+&+*%%@%..%+@.#$%$&&++&%#$$&&%%@*%@&*@@@@#@#&####@#%@@@+%*@**#*#$%*#%%#%%&%++++*.+%#&+%%$###*%%&&@%.%.#%#&+##%@@$%&&%%+++",
"$***%*%%*$&+%@@@&.&.%%+@@+*++&.&#*%$$&@@&&$#+&+&%@*%&#$&@*&%%#$%@%%*%@@#+&&%%*%*$%$*#+@$&*@&*#*$..++%%%+@%&&&&+*&+*+%@#$#%+%++**",
"$&&++%%&+@#$.+%@@%$+&%$*@*+%#%@+$$&&&.&&#+&@&+#%&%&*%@&&@@+%%@.&@&+%&+*++*+&%#*$%%*#%%%$$%@$**%.*#@%%&&$&*$*&*$*#+$&**&$@%+%%&*+",
"&&%@&%+&&%#@*&.&@@+*.&$&&.+%+%%%@#*%&.$.%#$&$%#%%&+&*#&.*@*&&@.$&*&&@&.$*+$@*++&+*%+&+#$&+#.#*#&&%#*@%*+&@#@%+$+@&$*@%.%*&&#*+%+",
"%+%$&#++.+%*%*@&$&&@@+$*.*&&$&&&$&**#@#%$+&$&+++&++*#*+&&%&&&@.%$*++$.%&@%&%&$%.+%+$*%*$+++&***&$+%%++&#*+**%*&&$@$&%%&+#+&%&#+%",
"+$%%%*+#$+$%&&%@@++.@+%&$*%@@#%**$..$.&#*&@*$&$+&#%$$+++$$%*&%%$#&+.&@&%**&&&*%+&%$$@%*$#&%%&$*@$$&++@%++@@+#&*&&#*.#&$##+&%%+++",
"%$&$.$.&%$$*+$&*$%@#*%++%+.+*@*@##@**#%*+&$+%$&%&&$&++%#.+++&&*$&+&*@@&@+*&+%&#%&$%+%+%.&@#.%***&$%@+%&$&#@.*&%#$$#&*.$+@&&#%&$+",
"*%##**&*@&&*%%%++%%#&@&+@*$&&$+#***@@*$#**%$%*$&+*%&&+$$$%&**+%+$*+#@$*#+.*#&%%@.*%%#+#$#.+@*.+#+$&*+&*@&*%%#%.#%++#&.*#@&&%#+$+",
"+.++**&%+%&$%**&*&$.%@%$&%*#&&&#%%$&%$$*##@%$@#&&$&#*&%@##*@+#+.#**+$*%$.%*#&&@#$.@%+%@$$%&+@*$&@&.+*&+*&#$*@+.+%#&@&&&#@$+&#*&+",
"#&%&%*&*%@#.%#+%$&*+*##&&&%#%%&&%#+$+%%+&+&*+$%%%**+&%%&**+%.@&.@$*#++$$#%@&%*&#$&&+*&%.#**%&##$#%$&#+$$*%&&*+&+%+#*+&.+@&%$#*&+",
"%$+%++$%$@@.&&$&##%%+**%+&$&%@%*%&&%++%&@%*@@#.%+$+%+&&$.&&&+@%$+&+#%.&*@#+&%&$%@.%++%%.+@*&$%*@&+&.++@#@&*%+#&.*+@%++++*&*&*&$+",
"#&*@%&$@%&@*$&***+$++&#@&$%%&&&#&&%%&#@.&+%&&#@$%&+##%*%@&%*&&@.$#%$$%*%&.+&$****$&&++*$#&&*%%&$%@%$&+#%%+$@&#@&$%&$#*&+%.*&#&$%",
"@+&+@$&%%%.+%&%&&&&&.&.$%&$&$.&&+&##+%*%&#&+@+$@#$.$#@%&&%#@*%@%$*$&#+$.&$###*$%#&&@#&%$+&%&$+*###%$.%&+&%*&*+*&&.$&$++$*&*++&#+",
"&&&%@&&&$$#@@.&%%#*#%*%@**%&%+&+%%+$$$$*.&%$%*&+@#*$$%&&%@@#%%#%&%+&+%*@#%%@%%%%%&$*%$*+&%*++%&&&**%$&+#%$+%$@%$@****+*@*&++&++&",
"&+++*&&&@*%&**$*&%%%%*%#@%%%&%#+#@@@@*+@$%@#+$%.#@@&&%&$%#%+%+%#$&#@+%+#&*&%#$+**#+**&*%$++&&*%*+*%*&.&**+#+%##%+&+**&++#$@$*#+#",
"&&+%++%$++&&+@&$&%&+%*%*+&&&%%+#&%$%*%$#+.##+&$&+*@++*&.&+&&%+%@*$+@+&&&++%#&$*%**$%#&%%%&**+%%&%*&#%$%#.%+$*&#*+*&+%+++&&&&&+&+",
"&++*%&%+&$*%%%@.#*+$+&&+&%%%%+$+%%%%%%&&*&$%#$%&%%#+*#*&&&%++&+*#&.#%&##$%+$+%+#%%$%#&&&%&*#*%+&&%+#*&+&&@&+%&%%$%$.$&+$#&@&#%&+",
"&&%#&%#*%%$$+$++$.&$&&&+*&#@&$++++%*%%*$*&%&*+$$$&%$++%+$&+*%%##@*.@&&&%*+%&$*%&&@*%%&&&#%+$&&$+$++&%%+$#&*+&&++*##@#%##*&#+&#&%",
"++%@$%#*.%%*%%&@%&#*%++&&&*++%+#&&&$$&%*$%&&*.*&**@+%+%$#*%*%+%&+#&+$++###&$%+*#&%%%%+%+..$$$*###@#$%#+&#$@+#%@#%&+%+&+*&+$&*.@&",
"$*#@$+*+*.#+$+*%*&%%%*#+*$##&+$.$+%%**#@*%%*@$*+$+%$++*$**&%%%*&+@*+$*&*+*$*%.*%%+%+%++%@&@@$%@.&*@$++$*&++%%+*#@&&&$+*#*+++&+#%",
"&%@*$%$+@&%&#.#*+&%*+%*%&%$$+&%##@*&%$&#@*$*%%%*+.*&**@.+*@+++$%+%*%.++&%.%&%%&%$%@*+&*+&+%&+++%++#+%%%+$+*&%&++@&@@+$++&*&$#$*+",
"*&&#&+$#@&&&#&%&%#&#&%+%&%*$%@&%*#$*#$+&@%%#&%&&*%@$%%*.&+&@#$%&%$@%+%%#%$@%+++&%$&#*$&##+&.%&+&#@@+*&%++*%+%&%%*+$.**+&+#*+#$%+",
"$%%@+&$*#%&&%%&&@%*.+&&@+%%&*#$.#&.#*$@%&%&%$*%%%%*$%%#$&+$#*&#%%$#.+&+@.+#$*%&*%***$%&.+&&&#&&&++@+#&++%&+&&+$+$*#+++#%$+&%+$#%",
".&%%&%*#$*@%$%&%&+&*%**@&%$%%&%&%.+*+&&&&%##$#+&**#&%+#.+*#&&%&&%@#&++#+&+*%*%%%$%*%++*#%+%&&..$$$&%++&$&&$%#%#+*&&+++@%&*%#$$+*",
"@$$%+%*&&#@#$%$@@%+*+%*+%+$##%@#$&##*%$**%@@$#$$@*@%&+*.&*#$+*$%*@++$&+.&#%+@*&+%&%+%$%@&+*%@#*+$&$%&#+#@+@#+%$$@+&%*$$++**#+&++",
"+*&$%*&+#%*#&%.%@$*&&&@@%&+$$%*%$%++%$$@%+#*$@&$%+@%&%@$+#&+%$&*@*&#+#&%&$+%%+*$*#*$&+%&+++&%%+%*##%&++%&%+*&$%#@$&@@%*#+$&*%+*+",
"+@@.&+$%#+%%%%&+.+%@&$*%*%#&.**&%%%%*&$#&%@*&@.$+$@%+*%.%$$%+&**&&$***+%&&&&%&%$$%$%&*&+&%*+#%+&%***+%&&##*+&%+**.##$&#@*++&#&*%",
"%$#@$$%%&&%%&%%+%&%&+$&%.%@%.&#$#&*+%#.&&#@+&@$+&&@&&*+&#.*%$#%.&#&+#&*&@&&#%+@%$#$@.@$*%++&%&%#&*&#$@$&%%.$+#**$&#.+#++%&#+#$++",
"%+**#+$&&@#$*%+*&%@%%+#&$%$#%.&%&%+&&@.#&$#%+@$&@%$*$%%+.#%&%+++@%++&&%#*%%&&+#%#$#&*.+#&@*+&$#%##%*+&%%&&+@+%+*+$$*++$##+%+$+*+",
"&*+&@#&&$%++%#%%*&$$*#@+%##@#&$*%*#%%#.&%%+$%@.&%%+@&%%+%%++++%@@%%#+&%&%%%&&&&$+$$+&*&$&$%*#&&+*++#%&#%&++&$%+&@++*++$*%&*%+&++",
"&++&@#@@&+&%&*%$#@#&$##.$%*%%*&&&&%$*%.$@#*%%@.+$%+%$#@$*$&*@+&&%&%++++&&%++&#+#****+@#&+*##*&*&&%%+*+++*&+*%%$+%&+$&*%#&&%*%&++",
"&$&$$.&&%&*&+&*&&%#*+$&&&%%&%%%.%**+#@&&.&&$**.@%++@+&++&&*#%&%#@&**&%%%&#*%$#%#&%#&$%##.$&@@$*#&$+%&+#+@*+%*#+#%+#$%**#*+&**&++",
"*@#*@******&%&&+.&&+%*%&%%+%%&@%$%.&+@+&$%%%@@.*$*@*$+#+.&**%&+#%&*%&*@@$*@%&*&&+%*%$&#@%$+*@&$#%#%&%+$+&&&+#@&%+$*&%&&&*+&*%++%",
"$*##@@@@%*&%%#+%@+$%@%%%++&%%.@@&%.%&@%&%.&&%@&&$+*#++*%%&.&*%&$%&*#$&%+$%#&&%%&+++++&&+*+&.$&*#%+%*%%#%&&$+**&%++%%*%+&#+&*#+++",
"$.&+&%@&*%+#%%&++*&%+++&*%*%*.%@%&$%&##%&&&$&@.%&**++%*.**+.$&%@++#*&%@&+##&++%%+%%+#++&&$.+#$%+&*+%#%+*#@#..%++++&+&+&&*#&*%+++",
"**..%&%$*&**+$*&+*+*%%&++%#.*&$%@#&%&&@%%&@%.*&*%+&%%&%&+%@%%%$+$%#%$%@.%**$@&%*.#&%&@%@+%@%**+$%%&%%$+%&%@#*#&$%*$+&%*+*#&*&&+%",
"+#@%&*+*+@$.%@*#$&%++%+%%+&$*$%&%%*&%%%.@*&%*%$&%*+#%&@%.*@*#$**&%%*&%$+$@&#+*%#$+&%%+%&*&+@%#$#$%##&+%&#+&%%#%#*$+%*%+&**%$+#+%",
"&*%*%***&.%%*%$@$$%&*@%%&%@&#$&&*&*&%%@&%*$&@*&$%**#+&@@.%+*#$%%+%&#+#&%+@.%%%+*&%&&+&*++#*##$&**+*.+%&&%%#*%*$##%+$&&+*&&&&*@*+",
"%*+%&+$$*&&*&$@@+&++%#+%+&*.@%&*#&*%&%@&&%#$$*%*$$%%+%@%$&+$@$@&%%$@%*$%&#$#**%@$+$%*%%++&$%&++.++$#&%#$++%+%#&%+%$*##&+$&**%%++",
"$&..$%#**@%@*%#&%$++&+$+@%%.%#.#%&**&%#&**%&$&@%$$+&&%*#$%$%%+%&@%$**+&*&*$%%+%@$*&%#+%&$$+%.#**#%#&*&&*.&$&%%+++#.++#$$@%&&++++",
"%@+*%%@%+@*%*#$%*$%*+%%%&%%&&#.#&%%%*%%%%&@@&%$%@#%&$&&@++%$*$%+%&++@$%#%%&%%$&*$+$&++*@%*@$#*%*%#.#*&*@&@%*%$+&$#&$&&*@$%%##+$+",
"&&##+@&*&@$&%&&@#.&%+**%.##&$%.%&*%&**%#.*@@@$$%&%#*%+&#+*%%&+&%$&*+#$+%*&**#*&%&&++$&&*%+$$#+%+&.%@@&&*$++@@*@#%%@$#$#**%&&##%+",
"#+@%&@&*$@%@#$&+@.$%++$+%@@&++.&&%%$%***+&$%@@&$&&*@*%+$++*+%+&%$*@%++&+#$#%*@%@*$##%+$$++&*&&*+.*$@#.+@%.$**#%&#++$&+@+$%***&+%",
".#&*%&@.%*&+$@*&@&&%*%$%&&#$@+&*+%%&&%%&+&.%###$*&&++@@%$&%%+%$%$#%%.@+**.@+&*%@*.+%+@##%&*.%%%$#*+*%$%%#.#++*+%++%#.#+&&%**+&++",
"**$%+*+*$$@+%*%.@#$&&&*&&@%$@@&.&+#**+.@&@$.*%@*.*#&.+%@@&%.@$@$&*@&+%&**&&+&*###$+%%.$#$+#@$*&*%*+.@$&+@.&&*%$*#+@+$$$+&*%+#+$+",
"%%++%++**$%.%@++**&+$$%&#+%&#%@&$$@&%%%#+%@$$%%%&+%%&&&$@%#$*%%&$$+&&+&#%*+&&+@#%%&++&**+%*%@.&$@#*%*&*&##$@%&#+&#+@#+$*&#+&#*$+",
"+%#++.%@**&&@**%&@+&#*&%##+&$%#%$$$&.+....$$&.&%@$$#+%%%*+@&%#.%*+%%%%+%&*#+$&&$+&&%#*#&&+&#$@&.$%%*%++%&@.@&&*&++&@@&+&++**+*#%",
".$%%*&&&*+%$&&+@++%*%&%$$&+.%$*&#&%&@*@##@%@@$&%@*&*$&%&%&@&*#$#$*&.*%$&%%#%+&$%#$#*%*&&@*@+&@@$.+%%+&&*&*&&&+$%&+&&@&&&+$+#&+*+",
"#%.&%*&$%&#%+&&&&+++&&&##*%@&##**@+*$*#@&&*+#@&.&*%%&%#@%&*$#&%#%&#&$*@&$&.+%&%#%.@@&+$&*@$.%%@@%$$$*&@#%*#$%#&#@&##.@%$+%%%*&$+",
"@@+%&%%#$$&*@*@$@&%%$+@@@#%%+$+$+@@$$.#@*$&&%#*.&@@%$&%%##*&%$%*&#@$&&%%**%%#+%*.&*#&&%&+*.&%#*##%%$*$+**@%$****&&#&&@*&++%##%+#",
"%@@@%%&%#%$.$+$+@#*$&%&%$#&*+@&$$@@%$$%%@#$&%%@%..%@&&&&**#%&&+*$%#&%+%&@*@++%$&.*%&&%%#%$@$%$+.%#%&%$&*%#&++%@%&&*&%%#&+&*#&+%&",
"*%#%@*%&+@&&#&&@$%*&&*+&&#%+$@@..&&@#$$&#@*.&#&#%.&@&%&&$+@%$*&*$&*&%%@&$+*@@##&&%#$&@&@&*&*%.$#@#%%.&+&#+$@$%*%.@$%#+%*$&%+&*#%"};
