/* XPM */
static const char *OrangeTextureData[] = {
/* columns rows colors const chars-per-pixel */
"128 128 21 1 ",
"  c #D6793E",
". c #D97C41",
"X c #D97D41",
"o c #D97C40",
"O c #DA7C40",
"+ c #DA7D40",
"@ c #DA7C41",
"# c #DA7D41",
"$ c #DB7D41",
"% c #DA7E41",
"& c #DB7E41",
"* c #DA7D42",
"= c #DB7D42",
"- c #DA7E42",
"; c #DB7E42",
": c #DB7F42",
"> c #DB7F43",
", c #DC7F43",
"< c #D87B40",
"1 c #D77B40",
"2 c #D87C40",
/* pixels */
"&&&&&&&&&&&&&&&&&&&&&&&&&o&&&&&&o&&&&& &&&oo&oo&&&&&&oooo&o&&o&o &&&&o& &&&1o&o&& &&&&&&o&&&&&&&&&&&&&&&1&&&&&  &  &&o& o&&oo & ",
"&&&&&&&&&&&&&&&,&&&&&&&&&&&&&&&&&o&o&&&&&&&&ooo&&&oo&&o&o&   &&&&&&&&&o&&&&o&&1&&&&&& &&ooo&oo&&&&&o&&&& o&&&oo&o  && &o&&o o&  ",
"&&&&&&&&&&&oo&&&&&&&&&&&&&&o&&&&&&&o &&& &&&&& oo&& &o & ooo  &&&& 1o1o&& 1oo&&&o &&o && o&& &&& &&&&&&&1&&o& o&oo o&&&&o&& &o o",
",&&&&&o&&&&&&&&&&&&&&&&&&&&&&&&&&&&&&&&&&&ooooo&&&&o ooooo &&o&o&&  o  && 11&&&&&o&&&& o&&&&o&&oo&&&&&&o1&o&1  &&& &&o&& oo&& &1",
"&&&&&&&&&&&&&&&&&&&&&&&&&&&&o&&&&&&&&&&o&&&&o &ooooooooo oo&&&oooo oo1oo&1&&& &oo&&&o    o&&o  &&&& &&& oooo o o&o&&&&o&1oo&&  o",
"&&&&&&&&&&&&&&&&o&&&&&oo&&&&&o&&&o&&&&oo&&&oo&o  oo&&ooo o&oo&&o&  o&& 1oo&&o   &o& 1&&&&& &&& oooo&  &&&&&&       &&&&o && o& &",
"&&&&&&oo&&&&&&&&o&o&&&o&&&&&&&o&&&&&o&&&&&o&&oooo&&&&&&&o&ooo  o&&&&&&o o &o&oo oooo&&&&&&&&&&&& &&o&o& &&&&    o     o&& &&&&&o",
"&o&&&&o&&&&&&&&&o&o&&&&&&&&oo&&&o  &o&&&oo&oo o&o&oo&&ooo&  &&oo&oo&o&&1o&1&& o     &o&&&&& &&oo&&&&o&&&&   o   o oo  &o&&& o& o",
"&&&&&&&&& &&&&o o&&o&&&&o&&&o&&&&& o&&o &oo  &&o&&  oooo&o&&&o 1oo11 &1&&&oo&& o  o&1ooo &&o&&&&&&& &o& &&    o&&  o &   &&&&&&&",
"&&&oo&&o&&&&&&oo&&&&&&&&&&&&o&oo&&&&&&o&&  &&&ooo&oo   &&&&&o ooo&o &o&&    & o&  oo&  1&&o&&& 1o&&&1o&  o&&&   & &&  o &&o &&&&",
"&&o&&&  &&&& oo&&&oo&&&&oo&o&& &&&&&&&&&&&&&o&o&o&&&o  oo&o&o&&oo&&&&&o&&o o&ooo&& o& &o&&&&&&o&&&&o& && &&o&    &&&&&o o&&&& &&",
"&&&&&&&oo&&&& o&o&oo&&&&&o&&&o&&&&&&&oooo&&&&o &ooo&o&&&o&o&o && &&ooooo &o  o11o&oo&1&o&&o&&o&&o&&&  &&o&&   &  &&&&&  &1& &o  ",
"&o&o&&&&o&&o&& o&&&&&&&&&&&&&&&&&&&&& &oooo&& &oooooo&&&&&&& o&&ooo && 1&1 11 1o&&&o&& &&o&&o &&   &o  &o& & &o &&o&o  o  ooo  &",
"&&&&o&&o&&&o&oo&&&&&&&o&&&&&&oooo&o 1  &oo&&o  && &o&&&&&o&oo&&&o o1&1oo& 11o  1&& 1&& &&&&&o &     1&o&o&& o&& o&  &o o       o",
"&&o ooo&o&oo o&o o&& oo&&&&&&&&o&&o oo  ooo o&oo1&&&o11&&&o&&o&o ooo11 &1 11 1 1&&  &1&&&  1&&&&&o&  o  oo    &    && & o1 &   1",
"&&ooo&o&&&o&&&&o&&&&o&o&&&&&&&o&ooo o& o&ooo&o &oo&o  1 1&o&&&o oo1o   o 1 1  o 1o &1 1     oo&&&&&&o  &o&&        o&ooo   &o&& ",
"&&o& o&oo&&&&o&&&&& &oo  &&&&&&&&oo & o&oo oooo &&o111o 1&&&&&&oo&o1 & 111o &1&&oo 1 &     1o&o &o 1 & 1&&&       &o  &o &   &  ",
"&& &&ooo&&o&&&&&oo&& oo&&&&&&o&&&& o&1ooooooo&o o&o   o&o1&&&&&&& o&1oo&1&&o11&&1   && oo1 ooo   &o 1  & &&ooo o&o &   & o   &&o",
"&&o&&&&&o&&&&&o&&&o&ooo&&&&&&&oo&o&&o &oooo & &&oo&o&&&1  &o&1&&&o oo1& &&&&&11&  & &&   1o&11o1 o11&    o &o  &o o& &&    & &&&",
"&&&&&&&&&&&o&&&&&&oo&&&&oo&&&&o o&&&&oo&o&  &oo1& oo&  1 o o& 1o&&o11 1 &&&&oo11&& 11&&  &&&&   &ooo&1  o  o    &   o&& &&oo    ",
"&&o&&&o&&o&o&&&o&& &&&&&o&&&oo&oo&&o&oo&ooo   11&1o o& o11o& 1o 1o&1&11oo&&&ooooo    1<1  o&&& o&&&&&& &o & o&  oo  o   oo oo  o",
"&&&o&o&&o&ooo&oo&&o&&&&&&o&&&&&o&o&&&oo1 1 oo1o&1oo 1o11  111&1o&1&1o&1  && 11&o&&11o&o       &&o&&1&1o1    o o          & oo o ",
"&&o&&&o& o&&o&&&&&oo&&&&&1&&&&oo&&&&o&oooo1o11111o 1o o&1&1&&1 o&11o 1  oo&&&&&o1 1 &&&& o &&o&&o&o&         o&            o  & ",
" &&&&o&&&&& &&&ooo&&&&&o&&o&&oo1&&&&&& o&1o1o1o1 1ooo&o&&&1oo oo &&1 1&o &o1&&o1       o&&&    && 1&1 1o 11   o  o    o   &     ",
"&&&&&&&o&&o   ooo&o&&&&&&oo&&o1&&o&o&&o&oo&oo1  &1 o11 ooo 1& o&  oo &o1 <1o o    &o&   o& ooo11&  &&& o&  o&      o  o&       o",
"&& &&&&&o &&&o &&oo&o &o1 &&& o &&&1&&oo o11 1 o1 11 o1 1&1111&&o1&& && o  1  o  && 1o 1oo&&&o1o&&1&&  1&   oo && oo  &o o o   o",
"&&&&o&ooooo&&oo&&&o&o&o1&&&&o     11 &&ooo o  o&  1 1o&o o1& o1 11o 1o&&o&o 1oo  o  o    &111 11&&o&      o    o oo o&&  &     o",
"&&o&ooo11& o&o&&&o&&&o&ooo&o&&o&oo 1oooo1oo1 1  &  & 11111o& 1o1o&& 1o1o&&11 1  & o o  &1   1 1&& o  oo    1   o   o   &o 1  &  ",
"&&o&ooo  &o & o&oo  &o&  &&&&& &oo&ooo  &oo oo    o  o  &&&o1&&1 &&o1o  1&&111  o &o11o   o &o oo &  &  1   &    1  &   o1 &   &",
"&o&o& &o      o & &    oo&&&&&&o&&&  &  &o &  & o  &  1&o&& 11o&o11 &1  &1&1&1&  o&1&1   o&&&&&  oo& &o       &   &    &&o&&&  o",
"oo &1&&& o&&&oo 11o&& ooo&&o  ooooooooo1ooo1 11 o 11 & 1 11   11 o1 & 1 &1&1    1 1 &  &1 &o1 &1&1  &1 1& 1   o        o&1o&&  1",
"&&&&o&&&& o&&oo& & &&&&oo&ooo &  & 1o &&  1o   111o 11 1    &o 1&oo o1 &&1 &&&o1    o11       o   1 1&1&&o&1     o oo o&  &&   o",
"& &&&&o&&oo&&&oooo&oo&&o oo&&& oo&o   o&& 1&   1  11  11o   o&&&&o&o 11o&11&o&o1   &o    &   1   1o&& o& & &o       &o&&  o& && ",
"o&o& o&o&ooo o&1o&oo&oo&&oo&oo&oo oo&o11o1 &1o1&& 1&&o&&1&& 1&& o&&<   &<  o&1 1   11& 11   o &  &&&1&& &   &    o &1&& o1oo    ",
"o&& &&o & oo && 1o o&&ooo & oo& &o &ooo& oo&o oo 111&11o&&&& 1 11&&& 1  &  1o 1o11   o&1&     o   o  &&o& & o  1  o o    o     &",
"&&o&&   &o1o&&o&o&o&o &&oooo ooo  o&ooooo&&& ooo&  1   &&  &111 o &o 1   1 1o1o&  1  1&& 1  1 1  1 &&&&oo      &  111  &      o ",
" & o& &o  oo && 1&&&& o& &&o&o   ooo&&&    1& 1&o  &1o      &1&11&     1 &1o & 1  &&o&&  & &          o  &o  & o   o          o ",
"&& o o&o&ooo oo oo       o & &&   oooo  ooo    &o1&    &  1  111&&o&o 1  o 11& 1 o  ooo o 1&  oo      &&   o1    & & o          ",
"o&&&&&o&&o&&o o&1    ooo    &&  o  oo    &&o&&  &&o11    o1 1111  11&   o   1   1&       &  o   1 & 1 o&          && &oo    &   ",
"&&&oo o&o&oo& o o  o o1   &o1oo1oo& &&  &&oo &oo1&  o1  1o1 1&1  1  1  & 1    11       1  o&1o&1 &&  1      o      o1&&&    o  o",
"&&&&&o &&o&oo ooo&1 oo     ooo&o oo  o& &o  & o&&1o &&  1   1     o&1 11&o 1     &     &o1&o &&  &         o1    &&& &     & oo&",
"o&&&&o oo&&oo 1  &o&  o   o ooo&&o o  &ooo&oo 11&&&  &   1o    &1  1o 1 o        o&o  &&&   &o  1    oo o    &  & &        o  &&",
"&&&oo ooo&&&&o  &   oo& o oo&&& oo  o o oo&1 o11o&o 1 &o &1&o  o11 o &o   o    1  o&1  1 o           &         &o  o&      11   ",
"oooo o&&oooooo o& 1 &&o& o o&&&&o  1oo 1oo&o 1  &1 &   o &&o   1o o& 1o1   &1  o &   11  11     o    &         o      1  &   oo ",
"o&&o&ooo&oo&&o & o11o&oo  oo&o&o  oo o&&  o11 o&  o 1 o1 && o1 1o& &            1   &11    & o&      &&                 o& 1 &&&",
"o& &o&&&o&&o&o&o o o& &&  oo o o& 1  &o   ooo&1    1&&1 1 &1     o11         o      1    1  &   1                     &   o o   ",
" ooo&o&oo  oo  &&o oo oo    ooo&&o 1o       &   1             11o1  1              <&     1           & o  1      &  o       & &",
"&&oo   oooo    &o&  oo 1&& & &o         1  o               1   1    o   o         &&&1   & o        & 1                         ",
"&&&oo o ooo ooo&o&1      oo  11  11 11    1&  o  o&1 1        1         o1  1      &1&&1    o                                 o ",
"o&&&&&&&o1&o oo&&o  1o& o&  o   11  o&&o1111&&&&    1o1 1     & &           1     11    1         o             &&o o         o&",
"&  &ooo&1ooooo o& 1o&&&1&o  1o&1 &11&&  1o11 1 1 11o111& oo11&1       1   &    1 o1                               1 &           ",
"&&&&&&&o&&o1&    1o&oo&111&&1 oo o&1&  11 1 &1&  1 1oo o         o            11     1                                    o&    ",
"&&&o&&oooo&&1ooo11 &&&&& 1&1&o ooo&&o  o   o&11   & 1o    1   1  1o                   &                                 &       ",
"o &&&&o&1 &&  o1&&&&&&& 1o &o   1ooooo1  11  &   1    1  & &1   1 1    1 o11 1  & 1   o                      &           1   &  ",
"&o&&&oo 1&&&&o1 o&&o&& &&o&oo  oo    1&1&11111&     11  1 &     1             1 11                              &           o   ",
"o&&&&&&  o&o&&oo&1 && &oo1&&   o1  1 oooo1 &&o1 1        o1  1 11  11         1    1      &&&                               &   ",
"o&1&&&&oo&&o1o 11o&&o&&1 o& o  & 1oo  &   11&o  1       o  1         1    11&             &1 1  1                               ",
"oo&o&o&o&ooooo  1oo1oo  o & ooo1  &o o &1 1o   1 1                      1 1                1<1   1                      o       ",
"&&o &&oooo11&o  1  oo 1oo1&& o&   &1 1& o&111             &1      1       & 1   1   1                                    1      ",
"&&o1&&& o& oo    o 1ooo o  o&o&&o o 1 1   1   1    11        1    &   1     1  11      1                                   o    ",
"o1&&&&&oo1  ooo oo o 1   o oo1o&  o&        o     1  1     oo 1  1    11       1        1                  1             &   o  ",
"&1&o&&  &o&&oo&& oo& 11&&&o             o      1 1&1         1  1                & 1              1             o       1&&     ",
"&1&&&o   o&ooo&&o1o o&o& &o1   1 &o    1  & o1  &11          o 1      1        11           1                           o o     ",
"1ooo11&oo    1&oo&1o o1 1oooo     &   o  o &o    11         1       1  1        1           1&             &     1      &&      ",
" o oo&1&& o & &&   o&1 o11o    o  &    o  1    1 1                              1              o                        &       ",
" &&&&o 1    & oo  &oo o&o  o           1            o1 o                   &    o                                               ",
"o1o1&  o o&oo&oo&     & &    o  o      &            o    1   o        1         o                &                              ",
"&oo11oo 1 1 o&         o&    &    1    1           11   o   1                                                   o               ",
"&o&&oo oo o ooo       o&&   &     &    1     o  o 11                     1                       1 1                            ",
"&o&o&&o1&&&oooo o  o  oo  1  1  o o    1      &&         1    1                                                    o            ",
"&o&&oo  o o&ooo 1ooo o    o   o     o o       o   1         &          1                                                        ",
"o&1&& o && 1o  11o&o&oo o ooo     o     o &&o      1 o      o         1  o        o                                             ",
"&ooooo&o o  o&o  o   o&1&o     1oo        &    1    1 1    o       o                                                            ",
"o 1o &&o &oo oo      o  &  o   oo      o o&1       o 1o &o   oo                             11                                  ",
" ooo&&o ooo&&o o  oo  & ooo    o        o& &o  1  o o  1       o                            o                                   ",
"&&1&    ooo&&&  o ooo o o &   oo      o  oo          o      oo    1                                  o                          ",
"&&&o1&&    & &o o oo oo   oo   o o        1o         1oo oooo   &                                   1                       1   ",
" &&o& 1&&&& o o& oo  o&& &&o    1&o       1        11 &  o1                        1       1         1                          ",
"1o  o  &o o o&o&oo&oo o  o&      o                    oo  1             1       1            &  1                               ",
"oo&o1oo&ooo1 o oo oooo      o  o  1   1               1&                     1   o       1                                      ",
"& &&o&  o  &o  ooo o &oo o ooo o  o   oo      &                                  1 &                                            ",
"&ooo oo o &o o o  &  &&   oo&o&oo    1  1    &o        1 o              1     1                                                &",
"&o&   o                      &    &          &          o                     &1                        &                       ",
"o &  o  &     o 1o  o    o   & o      o      o&     &                          o                                                ",
"oo1oo  o    & o  o &    &o &1o            1                   1  ooo                                                            ",
"&o  &      1 o &  oo &  o o&   o   &     1                  1     o1                                                            ",
"o & &&&&o  o &&&&&&      o  o   o    o    1    11 11                                    o                                       ",
"&ooooo&&   oo& &&&&&        &   1 1  o          o  1o o    o             1                1                                     ",
"&&   &&&&  &&o  ooo oo o1  && oo&  1    1    1        1                  1o   1                                              &  ",
"oo    &1   &o11      o                  1      o1                                 1        1                                    ",
"&&  &&    oo   1    o  1                     1    o 1                   o                                                      1",
"oo  &o  1o       &o1o    &            1       o            &            o                                                       ",
"o1    1 oo  o oo o o                          1 1                                                                               ",
"&&   ooo&o  o    &o    o o           o      1     1                                                                             ",
"&oo  o&&oo       o &  o1o&         o                            o                                                               ",
"&&&&&  &ooo o&  1o  o o   &    o  ooo   1  1       1                    1                                                       ",
"&&&&&  oo o oo    o      o      oo oo   1             1                                                                         ",
"&o   o&ooo  & oo         o    o o  &          1         1  &                                                                    ",
"ooo1     o1oo1 o       o  o1   o                       1  1                                                                     ",
"oo &    oo o   o  1o     1                1o                                                                                    ",
" &&o  & oo o1       o1                                                                                                          ",
"&&         o  o        &o                                 1                                                                     ",
" o& 1   o           o                    o1                             o                                                       ",
"&oo         o   o o 1o  o    o    &  o   o                                                                                      ",
"& o& o  o          1    o o1    o  1        1  o                                                                                ",
"oooooo& &   &o o 1      o     o&                                                                                      1     &   ",
"o o&       &&o  o o    1 &   &               o                                                                             1    ",
"&oo&&          o         1  &&o          o     & 1          o  1                        1                         1             ",
" oo&&   o  o o           o  o                  &              1               1     1                                           ",
" oo       oo               o    o                  o                           1o                                               ",
"o  o     oo   &   o    o           oo     1    11                       1    1                                                  ",
"&&     oo    o     o   o   o      1   1o     &   1&                           1          &1                                     ",
"&&o  & o       &oo          o                       1                                                                 1         ",
"o  1&&  &                   o &           1o       o                     &             1&      1                                ",
" oo o&      oo  o   o          o      o1o   o  1    o        1                              1                              1    ",
" o&o       &&       o                oo      1 o &&   o1      oo        o  1  1                         &                       ",
"& o   o  o &    o      1     11o       &        &&& oo          o           1       o      1                                   &",
"oo o&  & oo       o           &       &o    o                                                                         o  oo     ",
" &o    o     o     1oo        &     &                                          &                                  &             ",
"& oo    &o o   &   &&     o      1o1 &  11                                        &                                           o&",
"  o    &  o1&     o    o o1        o1o                                1o          &                                   &         ",
" &  o       oo     o  o 1 o    11&          1    1                   & 1     &            1&                                    ",
"&&&o o      1oo  1  1 o   1      &                                                   1   1o1                               &    ",
"&oo&& o  && & &1o&  oo   1     1   1&                        o            oo      11       &              o1    &           & o ",
"o& &o 1  o &    ooo&     &    1    o                         o     o  1 1         1     1oo1          1  1  1 &     1           ",
"oo &o& &&   o    &oo  o1 o 1    o      &o          o      o     o  11  &1   1              11     1   & 1  &<     1   1o        ",
"  ooo o& o o  o    ooo&o    o  1o       o          &                   o  o  11  1         1                                    ",
"o 11  && o  o       o       o        o                   o                 1         1                                          "
};
