/* XPM */
static const char *ParchmentData[] = {
/* columns rows colors const chars-per-pixel */
"160 120 6 1",
"  c #8f7a66",
". c #a68f76",
"X c #b8a084",
"o c #ccb394",
"O c #dec5a4",
"+ c #7e6b5b",
/* pixels */
"OOoXXoO. OX XOoXoXo+ooXoXXoXooX.ooOoXO..Xo..o.XooooO..oX.o.oooOoooXo.oo..OoXOoXoXX.oo.XoOooooooOo oXOoXooooOoooo o.OooooXoo ooooo.oo.OX.oo+o.oOo  oOOo .XXo.OX.O",
" oo.o.oO Xoo XXXooO.XoooooooooooooXoXOoX.oXXo X.ooooXXoXooOoX.Xo.oooXX.o.oX.oooXoO ooO..oOX.oo..oX.o.OoooO....O..oO.XoXXOooXooooOoXOoXoOoOXoooooo...OOo.XoOoXO. ",
" oXXoo.OXX.oX.o.ooX.Xo.oXoXXoXooooXoooXXo.Xoo.XoXoooOoXoXXoOoooO oOoOooXOXXoX.oooOXoooo.oOOoooOooo.ooX..ooO ooOX.Xooo oXooX .ooo.Xooo.ooooO oooooXO.OooX..ooooO.",
".Xo.OXooooXOX.XXoO.oXXoo.Xooo..oooX.oOO.ooXOoo Xoo.XXoo..o.XooOO.oXOooooooooO.XooXo.oOoX...ooXoOXXo.OOX ooo.XXooXO.ooo..oXoo .XOo.XOo..oooO. ooXO.oooOO.XXX.oOOo",
"O.O.ooXXoXXXoXoXoOXooXoXooXXXOX.oooo.Xoo.XOo.O..XoXoXooO.Xo oXoO.oXXoXooooXooO.XooXXXo.Xo.XXOooo.ooooooXoO.oo.oooOooooo.oO.OOX.XooXoooo.XoooXXX.oX..o.OOXOoX..oO",
"XO.oX.XooXOoXXoX.ooXooooXoXXoooXooooooo.o.ooo.o..X.oO.X.o.o.ooooXooXOooXoXo..ooo..O..Oo.o..o..ooo.XooX.ooooXoX.o.oooOOooXOoX.ooXXooX.Xo.ooXoooXXoo.ooo.oXOXooooo",
"Xo.o.oXo.oXooXOo.oooXoooooo X.Ooo.oXooOXo OXo.o..ooXooO.oO.o.XoXXOooX.OoXXoo.ooXX oo..oOXXXOo.oooXXXoXXooooO.Oooo..XoXoX oOo.ooXXooOX.o.XOoo.OXooX XXoXOo.X.oXXo",
"OoOoXoOXoo..ooOoXooXX.ooO.OXooXoOo.oooOXXXOooooX..o.oO.oooXXo.O.oo.Xo...OXXO.XOOoXXoXX.oX Xoo.oXXoX ooXo.XooX.XooO oo OO oOXXXoXXX.oOXoO.ooooo.XooX..XXXOoooOX.o",
"oOoooooo.oo ooo.o.ooo.XooOoXXXXooOXXoXOO.XoOoXOoX o.XoX..ooo.XoXXX.XXOoXooXO.ooXoooX.oOoO.oXo.oO..O. o.ooX.oOXoooo..O.XOXoOXooXoXO oo.XXo.OXoooXoXXOo.oXX.ooOo.X",
".ooXXooOoooO.oXOXXXXO..XXOXooXXXoXoXOXoOoXXoOXoOoXOXOXXOo..O..XXOOoX.oXoXoOo+OX.ooX.X.o.oXo.X..ooooooo.XoOXoooX.Ooo.XXooXXo.oO.Xo.oooXooo XoX.OoXO .O.ooOX.XooXX",
" ooOXXo.oXOoXoXOooX oOXoXXoo .oXoo.XXXXooooXoooXXo.XXoo.OX.XooX .XOo.oXooXXOo.O.oooO.oOX.Xoo.oX.X .XXO.Xoo.oooO OooXoXoOoXo..oXXXXXoO..Ooo.oX..OooO.X.ooXoooooXO",
"ooo.OOXoXoXO.XXXoOO.XooXo OOoXOXooXoXXO..ooooXoO.O.o..O.ooXXoo.O.+.O.Xoooo.Oo.OX..oooX.O.OXooXoooOX..XOXoooooooo.oo XXXooXOO O.O.Oo.XooX.OoXoooo.oOoXooXoooXoXXO",
"oXoXo.oO.o.OXo.XXXOoXooOoXOXoXoooooXoXoo..XoX.XOXoooXoooXXXO.OXoOoX Xo.ooOXOoXooXoo.XO.XoOO.OooXooo.O XooXXXoooOoOo.X.oo.ooOoOoooOXooXooXXO.XXXOoXO. oooXoOXoOXo",
"oXoXO.oOoX XXooooX..XXoOXXoXoXXXooXoOXoO.X.XoooooooXXoo.ooXooXoOXX.o Xo.ooooOooo.oOoooXX.XoooXoXXXO+oo.XooX.XoooOooXXXooXooooX.X.ooXoo.oooXXXXoXooOo. XX.ooXoooo",
"ooXoo.XoOooX oo.OOooo Xooo.Xooo.ooXXooooOO XX.oooO.o.XoXXXX oXooOXo.o.XoXXXoo.oo.XooOoOoXoooOO.XooX .OoXXoO.XXoo.ooooXooo.XXoO.Oo.OoXoXXooXoo.ooXXooOX.oooXoXXoo",
"o..OoXXXXOoooXX.ooXXOXoXXooXXXoo.oXooo.ooo.oOXXoXo.XOoXooOX O..ooXoX.X oooXXXOXoo.XooXoooXXoOoooXooX. .oX.o.X.Xo.X.oXoXooXXoXooooXoXoo.OoXo.o oOooooooXoXXoXXoXo",
"Oo.oOooXoXOXo.OooXoooo.oo.ooo.ooXo.XXXXooo XX.ooXXO.XXOO.OoXXo..O.XoXoXooXooooX.X.o o.oXXo..OoOoooooXXX.ooooXXoXoO.ooXooOO oXXoOX.OoXoXOooOXOXXXXoXoXoXoooo.oXXO",
"oX..XooooooXOoXooo.oXooXooX.o.OXXoXXXXoO.Oo.o.XoOooOX.oo.oOoXoXXO.O.OX.XooXX.oOX..oX.XXo.X.XooOOoooOoXXXoooooo.oXooX.oo oX OX.XOoo.XXXoXoo.o. oX.XoooXXXXoooXooo",
"OOoo..O.oOO..oXoXOX.oXXooXO.OoO..ooOOXXO..ooXo.XXo.OoOooXoO.Oo.oooo.oO XoO.OXooXXO.X.X.ooo . ooooo XOXOooXo.oo.XXoooX.OXoo. O.XOooX.XooXooooO..ooXX.XooXXoX.Xooo",
"o.oXX XXooXXX.XoXOOoXo.XO.....Oo.oXX.ooOOoXoooooXo.Xo.oo.XOoOXoX.oOXoXXoXo..oooO XOXooXXXoOo+ooOXOXXOoooX.oXoX.X...XOoXoooooX..oooo.XX..OXXoOXX ooOoo.O..OoX.oo.",
"oX.OOXXXoOXXoX.oX.oXoXO.oooXX.OoXooO.XoXooOXXXOXoXX OX.O..XooXOX.oX.ooXooOX.XOXOo.XOXoOXoXOXX.XXooXoXoooOoOoooXooXXXooXOXXOo.O.XooXoOoo.oXoXooO.o.XXoooOX.XO.oo.",
"oX.XooXooo.OXoXooXXXO ooo.OXoXX..oXXoXOXoooXoXo.ooO.XOooOXX.oXoO Oo XoXXXOoXXoX.oooXXO.o.oXoXoXo.oXXooooo.XXoOoOoXXXo OO.ooO.ooXoooX.oooo.oX.oOXOXo.XoXooo.XXOXo",
"ooo.XXooO.Xoo.oo.OXoooXXooXX.XoooXX.o ooXoOoXOoXo.XXoo.XXXXoooXXXoOXXXXooXXo.Oo XXoooooXXXXoXXXo.oo.oXooXOoo.o.oooXoo.XoX.o.oXo.ooXX.XOoOooXXo..ooooXoooXOooXo.O",
"XXooOXOXOXo.XO.oo.ooXX.o.Oo.OX XOOoXoo XooooXoooOo oXoOoX.X.XXOo..Xo.o.XOXXoXOOo.XXXo..OO X.oXXXooOoOXOooXooXXOXoOXXoXoXOXoX.OoXX.OOX.XoXoo..OXoXX.X.ooXoOXXOo.o",
"OX Xo. O.ooo.O..oooooXoo.oo.oO oXXoOooX..O.OXX.XXO.XXooOXXOoooooXX.X..oo.oXoXXooo.XXOXoooo.oooooo.XXoXoOXXooXoXXXXooooO.ooooo.OXXoXooooXXooX.O.OOOoO..oXooO.oooO",
"OooXOo+oXXOXXOooO XoOX.OXOXXoOX.o.XXoXX..OoooX.Xoo..X.oX.XoXXoXOooXXo..OoXXXo..OXo.oX oX.OoXoXoooXo.oo.ooXooooOOoOXOooO.XOXXOooO.X.XoXOo.OOo.O.X.XXo.XoXoXoX.XX.",
"ooooOo.....OoXoXooo oO..oOo..XOXXo..oOOX..oOO..Xo.OX.o.oo.oXoooOoXo.Oo.ooXoXoo.X.oo.O.XoXo.oooXoooX.Xoo.O.ooXXXoo.XXoXXoXoo.XooXoooXXooo.oOoXooOXoOoXoXXOooOXX.o",
"..O OooOXo .oX.oX.O..XXoX.ooo Xo.X.oooOoX. XOo.ooXOOX.oXXoo.XXoooo.X.XOooooooOoOXXo Xo.. O...oooOOoXoooXOooooo.oooOXooXooooo..oo.Ooooo.O+.oOX.XXo.oXooOXoXOOX..o",
".oOo.o.oOooXOo.OOXooO..OOXXoOoOXoXX oooOoooXXXoX...oOXX.oXXXo.Xoo.o.o XoX..oXoXoOOOooooooXo.X.ooooOooooXoOo.oooXo.OOoOooXOoooooOXoXoOooXo oXoXo.XXo..ooOoXXOoXoO",
"XXXoooO XooXO.Xo oXoXoXXXXoooXoooXo+ooXoo..OoXoXoX..XoX.Xoo.oXXoOXoXXX ooXXoOX..Xoooooooo.oXoXoo.ooOoX.XooooXoo.OXX.XoOoXoXOXXoXXooXOoXoo.oo.oOo oX.oXXXoo.OO.OO",
"XX..o.XXooO ooooXo.OX oXooXoXXooooO XoXOXO..OooooXOXXOXooXXooOX.oOooOoo.Oo XOoo. oooooXooX.oX+oO.oXXoooXooXX.XooXXo oXooXoo.oXXoXX.oOoXOX.XoXXoXooO.ooo.ooXXoXoX",
"oXoXoXo O.Oo.ooooOXoOX..Xoooo.Xo.O.Xoooo.oo.oXXXOXXX.oooO.o.oOOoXoo.XooXOoo.oOooXoXooOXoXo.oo oO.OXXOXooOXOOXXoXoOo.Xo.OooooXoXXX.OXOoXoXXXoXXooo XX.XO.Xo.oXXoO",
"XoooXXoXooXOXoX.ooOooOX.ooXooXXoXX..XXoo.OoXOOO.OXooXX.XXX.X.XXoXOoX.XoXoOO..Ooo.XOXXOOOXoOooXooXooXooXXooXoOoO.XoOXooX.oOoXOOoX.XoXXoXooooXOXoOooo.ooo.XoXoo OO",
"oooOXXX.XOoXXOo..XooOoooXooOOXoXoXoXOooo.oX.o.o.oo.OOXXXoo.XXoXX.oooOXoooooO..XoXoXoXooo..ooX.oo OXXooOXO.o.XXOo Oo.oOOXXXooXXOoXXo.oOooXoO.XoXoX.XoXooo oXooXoo",
"oo.ooo XXOXXoXOXXoXooO.o.XXXoo.OO oXooO.Xoo.Xoo..oXXoOOo.OX.OX o.XoX.X.oooOooo oXoooXoo.O...o..O .oXX.oXOoo.X..O.OooOo.ooXXoOoXoOoo.XXOXXXoOXoXXoO..XoXoXX..oXoo",
"OOO.OOoX Oo.o OooXoXX.OXXoooXOoXOXXo.Xo.OoXOXoXooXO.oo.O.oo.XoO.XXXOX.OX.XXXoXXXoXXooXoXoO.XoooO...OXXXooXoooo.ooooXOOXoo.ooOoOXXXOO.oOXo.oo.oo.XXo..ooo.oX XXXo",
"ooo.O.oOo.ooO .o.XooXo.ooXXooX.oOX OoXXX.OXoooXXXXo.oX.OOXooX.oO.oooo oOo.oXo.oXXOXXOo.OOoO.ooooo.X.ooooXXXOoooX oXXoOXoXo..oXo.ooXoOoOOX.oOoXoOoXooXoo.Ooo.o.OX",
".ooXXX.oooXXXOXo.ooO.ooXooXXXO .Oo.Xoooo.ooXoO.o.XoX.XXo.ooooXXooXoXXoooooOoO.XoXo.ooXXoooOX oooo.O.ooXOoXoXOXOo..X.oOoOXXoXo.OoXX.oXoooo..OXXXooXXXooooooo.oXoo",
"oXXX.XXooooo. .OXo.oO. .o.OoXOo ooOooXoXXoXoXooO.ooOoXXO..OXoOX oXOo.oO.oXoOoo.XooXOXo..oXOo .o.oo.XooXO..o..oOoooXo+OXooo OoX.ooX.oooOooOo.OoooXoXOXXooooOoXXoX",
"XooOX.XoXOOooO.XX.XooooXX+oOXoOooooXXooX.OXXOXXooXooo.XXXX.OoOo.OX.ooXoXoo.XoXooXoooXoooXoooOoX.ooX.oo.OooOoXXXXOXoO..OX.OoOo.ooO..oXXooooXooOooo.oOXX.X.XXooXO.",
"oXoOXooo.ooo.OoXoXXXXOooO...ooo.oOO..o..ooXXooo.XoXXXXo.XoXXXXO.oOX.oXoXooo.O..oXooo..o..OXooXoXXo.XoX.O.oo.oooOoXOoo Ooo.oOOXOoooXXOXooXoo..OOOoXXXo.OXoXXoXooX",
"oXXXX.XOo.oXoOOooXoo..OXX.XX oO. OXoXoX.oooXXoXoo.XooXo.ooXOX oXoOo..Xoo.OoXoo oXooOO.oO oOXXoXoXO X.XXXOXXoXo.oOXOoo.oXo.XooooO oX.oo.ooXOXXooOOooooX.oooXooX..",
"oXXoo. XO.o.oOXoOXXoo ooOXOo.oOo.Ooooo.o XO XXXXOoX.ooo.Xo..OX+oXXOooXooXoXXOo.X o .OXXooXooXo.XoXoo..oXOoooOo oXooOoXoXXo. OXOOooXoXOXoX.XoXoooooXoXo oXOX.oooo",
"O..XoO..oXooXoo.OO.XO X.o.ooX.OXoooXooXo.XOXX..oOOOoXXooO.O.oXX.o.o.XXO.XOXoXXOo.o..O.oXoX.OXOOXoo.XOXXoX..ooO.oXoXXooXOXOO.oXoooOXXoo.oOo...XooOoooo.X..O..o.oO",
"OOOXX.oOo.XoXoo..oo.ooOoo.XXX.XX.OOooooo XOXXX. ooooOXXooO OOo..ooOoXooo.X O..OXooX.O.XooX oX..OoXO+O..OooXXXO.o.oOXXooXoXoXXXoo..oXooo.oOOoX.oXoo.OoXX..OX.XXoo",
"oooOo.oooX.oo.XoO.XO. ooooXXXXXXX.XOXoXoooooXoX..ooXoXoo.Ooo.oO.oXXooXOoo.Xo..OXooo.oXXXoOoXooXoooOoX.oXooooXXoOoXooOXooXoooXoXoo.XXXo.XXoooooXoXoXooooo..oX..XX",
"XooXoooo.OXoOoX.OOXXOo+oooO.O OXXo XoOO+XoXOooX. XoXooXXoXoOo.XXXoo.XXOO.o.OX.XOXOoX.ooo..OXXXoo..OoXoooXooXoo.oooo.oOXoXXXXoOoXooXXX.OXoXo OOoooXo..O.ooooXo X ",
".oooXo.ooo.oooo.XoXoXO.Xo.XoOXoo.oXXX.OoXo.XoXOo+.oXXo o.XXoooXo.oXoooooXoooXXXOXoOXoooXO.Oo.XXoOoOX+.ooXooooOooXXoXo.OOoooX.oOXOooX...oXoo XOooooOoXoooooXooXX ",
"+Xo.XX.oXo.o.OXoo..XXXoooo....Oo..OXO.oXoOoXoOoo.X.XOOXo.o.Xoo o..XXoooXoOXoo.XXooOXoXo.ooXXXoXo.ooOO. o.XOXXooooOoXO.XooOooo.o.oXOooXX.o.oo.XOO.XooXooXXooXooO ",
"..XoOoXXoooo oo.oo..X.XooOoo..XO.Xo.OoXX.XOX.XOo.oX .XOXXO.oXo.oo oX.ooXoOooX.XXXoOOXoo.OXo.O.XOXoXoOo.ooX.oooXoooooo..oOoXXoOoXo ooOoOoOoXoXooooXoXoooOoXXOoooX",
".O .XXo.O.oOO+OOooXoo..O X.O.oXOoXooXoooO.ooXoXOo.o.O+oo.XooXOXoX oOoXooo.XOO.XoX OO.O.oOXO.o..oooooXo.XOo.XoXoXXo.oOXo.oOX ooooO.XoXoXooo.oOooOoXOo.oXooXoXooo.",
".Xo.o O.oXX.O.oXXooXooXooo.XooXXoX+OoooXOoXoooXoOo.XoO+ooX..ooXXO XooXXooO+XOO.OoXXO XXXooooooXX.oXXXXooOXooXXXooooXoooX.OO.o.oooo.ooXXoXooXXoXXOXooOX.oXooXoooo",
"OXXXO. oo.OXoO.oooO.oXOoXoo .ooooo  oo..oXo+oXoXXooXXOXoXOooXoo.O..oooXoOooXoO..oOXOo.Xo.oX.X..oX.XoX..oXooooo ooXXooXOo.XOoXXoooOXXO.oXooXOXXXoOOXXoo.oXoOOoooo",
"XO.Xoo.oo..ooOXoooo.oooXXXO....oXOo .o.ooXoo.XoXoXoOX.X.OXoXXXooo.o..oX..oXXoOX XXX.OOo.oOoOOo.Xo.Xooo+ooXXXOX.OXooooXoOoXXoooo.OOooOXXoXoXOoXXXooooooooo.XXoOoO",
"Xooo.o.ooX O.oXo.Oo.XXooooOXOoXoXoOoXoOXo.Xoo.O..XooO oooXXoXX .O.oO.OOoXOOO.oOoO.Xo..oXXoooOoooXo.XoO  ooooXXXXXXX.ooXooooXoXoo..oo.OoXoXoooO.XOX.o.ooXXoX.o.Oo",
"XooOX.XooX.oOXX.ooooXoo..Oo.XoXoX.OOX.oOoXXXo OoX ooo..oOo.OooXooX.oXoOo..XoX..oOoXo o.X.XoXXoXoXo.oooo.oXoOO.oXXoOXXXooooXoOoXXo.oOoXOXo..oO.ooooOo.XoOoXo.Xo.X",
"..ooo XOoXXo.oO..XOo.ooo.OooXoXoO.OoXOO.oo.oO.oOoXoO.Oo oO.oO.XXoOo.ooXOOoOOoo.XoOoooo.o..oooX.ooX.OoOXoX.XooXooooXooXXXXoXXoO.oO.X.O..ooo XOXXoOXoOooXXOO.o.Ooo",
"XXOoXo..OooO.OXoX .oooOXOoXOoo ooXoXoXO.ooX.oooo.oXO.XoooooXoo o.XoXoX.oooooXOooXooX.Oo.O.oooXo.oo.oOo.oOoXoXOXoXoooO..OXXo.oOo oXo Oo.oOoX OooXoXX.oO.XoXXOX.oo",
".Xoo.XoXXoXOooOooo.oXoo.o XOoo .XXX..XO.oooXXooXXooooOo XXX.oo.oXXXXXoooXoXOo.ooooooXoX.OXXooo.oo.XX O. Xooo.ooooXoXoo.oooOX ooooOo.Xoo.OoOo.XooOXO.ooooOXo.oXo.",
".XOoOooo.O XXoOoo.o.XooOXo ooXO.Xo oXXo.ooXoX oXXo.ooooooo.Xo.XoXXo.oXXo.oXXoOXoXooXXooooOooXXOXoXXoXXo.ooooXXXXXooOXooXXOoXoooXOOo.XooXoXXoOXXOooOoX .Xo.Oo.Xo.",
"..Xo.o.XooO..XoXOXo..XXOoooXOoXooo.ooOXo+X+Xoo.ooXXo.ooXXXo.oo O.ooX.X.oo.ooooOo.oooo..XooOoOXXoXoXOoOX XXooXoo.oXooooXoXOXXXoooooOoX.o.OX.XXoooXXooXoXooXXoooX.",
"..XOo.OXoooOo oX.oOXoXXooO+oooooXX.XooXOoXX.XoooXXXooooOXXoo OXo XoXo.O.oo.XXOoooXooo.X..XOooOXooo XooO. o...Xo..oooXoXXoOXoXoo..oOo.oo.XOoo.XXooXOoXXooOooooooo",
"X.XoO .oXXOXXoXX.X.XO.oo.Oo XOXOXo o .ooOooXX..oo..XooooOoOoX.oOXoOOoXooXOoXX.oXOoOOOoOXo..oXOXXOo..XooXXooXX..o  .ooooXooXXooooXooo.O.ooo.OXoXXo.ooo.XXXOoXoooX",
"X XoOO XoooXoooOXO.XXo.o.XOOXXOooO..X.XXXoXoXo..Ooo.OX..XXoooXXoXXoOOOX.ooOOOOXXXXooO.o.ooo+XoOXoOXX.oOXOooooooooO..Xoooo.X.XoO.X.Xo.oo..oXoXoXoo.oXooXXXoXoOoOo",
"o ooOOXOoooo.O.XXooo..XO..ooo oo XOXooXXoXoO.ooXXoXoooOo o OOooX..XXoOo.oX.XoOXooo oooX..ooXooXOooooX.Oo.oXoooo.o.o.XXOOoOooXOOXXoXOo oOXo.XoX.oOooooOoooooXo.oo",
"O oXoXOo.ooOXXO.X.oXo..Oo.XOooXoOOXOoooXX.XoooOo.oXOoXooooX.OoooO o.o ooXOoXooo.ooX.oooo.o.XXOoXOXoX..oOXo.oo OXX.OXXXXO.XoXoOOXXXoXO.XoOo oOOX.OXooOoOo.oXOoOXo",
"X.XXoXoOXooXO.OXOXo.Xo..ooXoX..oXoooXooooX..XXOOo.XooooXXOoXoOoXOX.OO.Xo.o.ooOXO.oOoo.OoXoXO .OXoOOXo..OoX..OooOoXoXXXoooooXXOOXOXX.Oo..OO..XXO.ooo.XoXO.o.XXoo ",
"oOo XoXOXoooooooXoOXoXo.oo OoOXXOXXoOo.oXOo ooXoOXo.XOo.o.o.XooXoo.oOX.oXO.o.oXXoXooo oXooXXO OoXoO.XOoXoo...oXXoXOo..Oo.XXoooo.oOoXXoX.oOX.OoX.oOo.X.oOoooooooO",
".oOo.oooOXooo.oooXOOoooXoO.oooXooXo.oOOX.oXo.XO.ooooXoo.Xoo oooo.o.oXoo.oOXo..O.oo.oo.ooOoO.ooooX.OoooOoooXoXXXXooXOX.XOO oo.oo..oXoXXO.XooXXoX XoOXooX.o.oO.Oo.",
"..XooXX.Xoo.oooOooooo..ooOXXXoX.oo.o oOXXO.XX..oooOo.oooXOX.oXoXXo o.XoXoooo.OXooXooo XoXoooooXoO.OXXOoooXXoOXo.oooOXXXoOoooo.Oo.OoXo.OXoOooXXO..OOXXOO.O.XOXXoo",
".Xo XooXo.ooXXX.oXoXOOo.oXXXXOO XO.oo OXoOoXoOXXXXoOooX.X.O.oooo.ooooXoXo oO .oOooX..Xoo.XXXoXX.OXoO.OoXOOXOXoo Xo.oOo..ooOOOo.XoOOoXooXXXoOoooX XoX.XOXoo OX.oO",
"O.XoXo.Xo.+XXoXoooooXXOXoOXXo.Oo..o.o...oooXXooo.oXooOoooX.X.oXoOoXooooXooXoX.oOXooooooo X.ooOoo.oXO.XoooooooOoXXo..X.oXoO.XOOX.o.XOXoo.X.oXoooOooOo..oO.O.oo oO",
"OX..oXXoooo.O.Xo.oX.o.XoXoo.oXooXoo.Xo.ooOoOXoXoooXoXOXXoo.OoX.X oXo XooX.ooO XO.o oXoXXo.o..XooXoOoXO.ooo.ooooooooOO.oXXoXXoOo.O .oX.OX.XoXo..ooX.ooo oXXoOoXoX",
"o.OXOoX.oXo.OXXoooOoXo X.XXXoXXooooOX.oXoo.XoXooXo.oXOOXoo.ooo.o. oO..OXoXX oooOXooXoOoooooO.XXooXXoOo oXO ooo.XXo....O..OX.XO..Oo.OXXooXoXO.oXXXooXXO..o..oXX.o",
"oX .oOo..Xo .o ooXooOOXo.oXXo.XoXX.OOXooXOX.oXXXXXXXXoOXXXooXOXOO.XOoXOoXoO. oXo.Xo.XoooXOXOXoOXoOo..O.Xooo.XOoO .Ooo.oo.XOX.OX.ooXOoXoX.oooooooooOXoOoooXooXo.O",
"XOX.XoOOX.oXoX.XooooXOXXooo..X.OX.o.Oo..oXO.o.oOo+.o XOOo. oX.XoooXo.XoOXXoo .oXXXXoXoooXoXoooX.XoOX.ooXOoooX.Xoo XOXXXOX.XXo.XXX.oooOooXoXXoXo.Xoo.oO.o..oXXX..",
".o.ooXXoOXo o.oo.oXooOXXX.oO.XoXX.O..ooX.O.oX oOOOXo ooXOOXXOO.ooXoXXo.oXX.OoXOXoO..X.oXo...XoOXXXoooo..o.OoOooooo.XXo.XOOO.Oo.OO.Xooo..XXoXXooOXoOXXooooXooooo.",
"ooo..OXXoOXXo+.OXXXXOoXoooXoo..O.XXooXooXOXXo..oOoOo..oXXOo.XoXoooO.XOo.oX..XXoXooO.X.Xooo.XooXooooXoOX.OXXooOXooooooXo+oXOooooXOXXo.OoX.XXoXooXXoXO.ooooOXoXOoX",
".o.O+ooooOoOOX.XooO..OooXXXoOOX.XoX.XoooXoOooO.XoXoooXXoo O.XoooooO.oOOXoOoXX.o.XXOXoXXXXooXXOX.oo.ooOX.Xooo.ooXoXOXoOo.XXXXOoXooo.OoOXoXo.oooXoXoooXO.Xoooo ooX",
"oO.OoXoooo.ooXo.XooO.ooXO..XooO. XoXoXXoo.Xoooo.OoOXooooOXXO.ooXXoooooXXO.o.o.o.o.oXXXoo oXo.XOoXO.XoOooo..OoXoXXoOXXXoo.XoX.oooXoXoXOXOXXXXoo.XoooXoOo.oXoo.Xoo",
"ooO.ooXooXoXoXoXXXoo.oooooXXX Oo.X..oo  OX XoXOo oooXooXoooo. oX.oXXXO.XoOXO.oO.oo.XXX.O.Xo.o.oOXoXooooooO.OXoXo..OoXo.oo.ooXXooXXooo.oXo. ..XX .oooXoooXooo.ooo",
"oXoooX..o.o.XOooXXoOX.Xoo+OXoXoXoXX..OX.XXXXO.XoXXoo..oXooXoO.XoXooXXo o.XoooXoOXoOooXo.ooOOXXoooOooXooXooXOXOOoO.ooOoooo.XOo.O.oooooooooOXOXXoX .XooXooooXo.Xo.",
"o.XoXoooXXX XXoXOXooOoXOoXOoXOX.oXXOXoOooX...ooXooOOXXoo.oo.XoX.X. ooo..oo....O.ooXOXoXX.ooXo.ooXX.o.oooXo.oX.XXoooOXoXOOX..o.Oo XXooXXXXooXOXooooX.ooooXO.oooO ",
" ..oo.X.O.XXo.XX.oO..OooO oOXooX.X..oXOO.o.O XooooXO..oXoXo..oOoXo.X.oOX.OOOX.oX.o.X.O.oXoXoXoXooO.OXo.XooXoX.oX.oX.OoO.oOoO.XooXX..XoXXooOo.OXXoooo.OOXX.ooXXo.",
"oX .Ooo.oO..oooX .oO Xo.oOXooooooo.X.X.ooXoo.o..oooooOXXXoooXooOoO.XO+X..oooOoOoXoOo.XXo.Xo.oX.XO.XooOoooOooXoooXoo..XoX..oOoXXoooooXoo....O.o.oXX.OXXO.oXXXOoXO",
"Ooo XoOo.oXoXoOoX..OooX.oo.ooo.XXooOoOoX ooo..o+XooO.oOoOX.o XoOoooXooXX oo.ooOoOoooo.XoOoXXoo.XOX.XoX.XoOooX.Oo..OoOOOoo..ooOXoo.oO.OoOXXXXoooooo .oXoXooXooOXo",
"ooo. o.OOXo.oooXXOXXXoo XO ooOO.OooXo.Oo..oXO.oXXXoXOoXoOo.o..XoX.ooXooo o..X.XooOooOX.oXoooXOo.XoXXoO...OoXOo.oXXXooooXOOo.OoX.OX.OXXooXoOXoXoooXo.XooXXXXXoooX",
"XXoO.oXXoOO+.oXoXXOXooOooo.o.ooooOo.oXoXO+XoOo.ooXOoXooooooo.XXoXo.oXooo.ooo..XXooXXOXXoXX oooOoX.XX..Oo.ooXOOXooX.ooXOo.oXooooXoo.OXoooo.oXOoXoOXoX.oXXo.oXXooo",
"o .OX.oXXoOX.o.XXXoXXX Xoo..oooXXoOoOooXOo.ooXXXX. OX XXooXOoXXooOOOXXo.XXXooXX.oXo.oo.oooo.ooXoO.oXo.oo..o..OX.O.o.oXXOoooXooXooXOoOooXXoX.oXoooooXooXooo.X.XXO",
"oo.OX.O.o.OoXOoo..XOoooXXoXXXXX.ooOXXo..oXXoo XX.o.oO.XoOoXOOOXXXXoOo.oXXXOoXXXXoXXooooXX.o.OoXOoXoOX.oXo.OoOoXXO.Xo.ooOooo.oooX..XooOooXooXoX.ooooX.o+oXOoO..oo",
"oXo.O+Xo.X.O Xooo.XoX.o.oXXX.oo...XoXXO.oX XooX.oXoXXO..Xo..oOoXO.o.Ooo.oo.oO.oooO.X.XOXXoo ooXoOoXooOoX.XO oOoXOo.oo.X.OoOooooXXX..XOooooooo.oo .oXXO.X. .OXoX.",
" O.OOXXXXo Oo.XoX..OOoOXXO.XX+oOoo.oo OXoO.OXoO.Xooo.oo ooOoXoX..oo..oOXoOoooXXo OoXo OOXoo.oXoo.O.oXXOOXXOOo.OoOOooXoOO.oXOoOOOoo.o XOOoXOOo. O.oXoXXooO. oo.o.",
".o oXooXoo..XooOooXXoOXOXXXOoXoXOoXo.X.OXoooO.OoX.OoXXOXoo ooXOX.oOoX..XoooOoO oX.OooXooooX.oXXOXooX.XoooXXoO.ooXoOO..OXoo.XoXoOXooo.o.O..oooO.oo.ooXo.ooo..oXXX",
"OO.XoXOooOo.XXXXo.XooXoXoXX X ooOOXXXoooXX.Xooooo.oO.X O.OXXoXOX oOoOo.o..oXooX.ooXXXooooooooooXoOoX.X. O..oo..O ..oO.o.Ooooo OoXooo.Oooo.XXXoXXOo.OXooXoOoXoXOo",
"oOo.o.XXoXoo.+O.oXooXoooooO.ooXXoO.OXXooOoooXoOo.oXXoXXo XoXoXooXo.XXoXoO .OXooOXoooo.XoXo.XooooXOO..ooXOoX Oo.Oo.o.oOXoXXXoo.oOX.o XXo.ooo.Xo.o OXXXOOXoOOXXo.o",
"o.Ooo.oo.oXoo.XO.XXooXXXO..OXO.XXooXoXoXOoXoooOooXo..ooOO XoOo.O.oXX..XXOO+Xo..oo.oXOoX..oXoXXOoX.OXoOXXoOoo.o ooXOXXXoOOooOo.OXOOoX.XO XXoX..oXoXoo Xoo.XOooooX",
"O.XoOXoOooOXXo OoXo.OOo.XO XoOXXo.XooooXXXoX..OOoXXoXXo.oXX XoXO.OX.o..oXoOX.O.XooXoXOOOo.XooX.OXXOoXooX..oooXXXO.XooX.XooXOoXXXX.OooXXO.OXOo.oXooXO XooooXoX o.",
"OXX..XoOoOXO OX.OooXooOoXoXooXo.o..XXXXOXX.X.XoOOOoX.XOo.XXXX.oOXOXoOoX.X..oo.XoXoXXXXXOOo Xoo.oo o.oOoXoXoXo.OXoO.XXoo ..ooXOoXXoo.oX.ooOo.OX.Ooo OOXoX O.OO.oO",
"OoOX.XX.oXoOX.ooX.oXoXXOXXoo.oO oooXoo.XOXoO. +ooooO .OXoXo.X..o oOX.o.ooOo oo XooooOo.Ooo.oXX.oo.O..OoXOoXXo.oOXoXXXoooo..oXooXoooXOXo.XXOXOoX.oo...oXO.o.Oo..o",
" XooooO .ooXoO.ooXo.Xo.OXXXOo.oX  ooOOXXXOXOOo XoOXOXXOooX.Xo XO..oo..o.XOoXoo.ooOX.ooXoooXoOo..oXoXXOoooooXX.XOooooOXXOooX.Ooo.OX.oOoOXoooOOXXoXooXo. oooo.oXXo",
".X..XXoO Xo..ooXoooOX..XXXooOoOOo..oXXOo.ooXOoX.XoXO.XXoOXooo.oOX OO.oooX.O.o..XXXO XoOXo XooXoXX.oXXooo.ooo..XOo.OXOXOoo.O. ooXoooXooooXXXoOoXoX XooO..XoO.oX.O",
"o.O..oXOO..o.XooXoooOOo...XoXoOOo..oOXoOXoOooXXoXo.OXXoXOoooXXXOXo.OoO..X.XooXoO. oX XoOoo.XooXXXX oXoOOO.OooX Oo.o OoXoOooOXoXooooX.XXXoo.oOooXoX.oXXo...oooooX",
"oXooXXX..oo.XoXoXXXoXoOoo.XoXX.OOX.XoooOXX.XXooXoo.XO.oOXXoO.oXo..XX.OOoOX.XoXXOO.oX.O.oooXOXXoooX.oXXooO.ooooX.ooo .ooOo.OooO.XooXOXoXX...XoOOOXX.oOX.XXX.XOooO",
"oo.o.ooOo.oo ooooOooXoOoOoXX.Xoo.O.X.XX.oOo XXXX..OXoXoXXoXXX. OO..o.OooOOo.OXoooOOo Xo.oX.oOoXOXo.oXO.oo.oX.oOoo.oOX.oXXooo.OooXO.ooooXOo  .ooooo ooXoXo...Xo O",
"oo.XX.XOXXoo.oXO.XoooXXoXoOoXX.O.XXoXXOXooOoXXooo. oo.OXoXoXOoX.O.XooXXoo.O..oooX.OOXOOoOoO.oooOoOX.ooXXoX.XXoXooO  ooXO XXo.oooo.oooooooOO. oOooO.oOXO.XXo oX o",
"oO.oooXXO.o.XXXoo .oO oX.XOXXO.XX.XOoo.ooooo..OoooX.o ooOXO oOX.ooX.ooooooOXXXooOXoooXoOooXo.X..XoooXo.oooXX.oXooOoo XXoX.OoXXoXooXoOO.OXoooX.oXoo.oXOXooXo.OO X",
".OoO..X.oooXoO..oX XOoOXo ooooXXooXXXooooooOXXXoXXoXoX.oXXOoXOXXo OoX.XX..ooOoooXXXXOXXOXoo OoXoXXoXoooXoOoXooXooo.OO.o.X.OXooXXooX .oooOooXooXXXoXoXoooooXXXoXX",
"XXXOOoO..XoXXOO.oX.O.oXXoX o.ooX .OX.ooXoXoooooOXO.OXXoXoX.o.OX.X..ooXO.o.XXoXoX.XXoooOoO OX.oXOXXO.X.oXXXX.ooo.ooooOXoX.XoXooO.ooOX..OX..ooX.oX.oX.OXXoXo.ooX..",
"XX.OooOOo.oXoooOOo oXXoXX..oO.XoXXXoXoooO.O.XX.oXOooo.o.o..oXoXX.o..XX.oX..X.ooOo.XX.oXoOX.ooXOXoXXOOoXoXoo. XO.X.ooooOX. oo.ooXoooooo.OX.XXo.XXoooXoXXooo...Oo ",
"ooXoXoo.O..oooX.OOXOOooooo.OoOoX.X..oXoXoXOoXo.oX .oXXXOXOXoOXOX.oo oXXoOXX.X.XoXoXX .ooXoOXoo.oO o.XXO..Xoo..OXoXooo.OO.ooooXoXXoo.oOooOXXoooo XoXXOXXoXoOo oO.",
"o.ooooooOXoXooO.ooo.oOooXOooooOOOOo .oXoXXOoooXoooXooXooooXoo oo.ooO.XXooO.XXX.OXXXOO Xo.ooo.o XO.XXXoOOoXXXOXo.ooXoo..oX.XXOXoo XooXooXXO ooooX..X ooooX OoXXoo",
"ooo.oX XooooooXXXoooXOOoXoXXXoXooOOoooXoX.oOXXoXo...OXXXX.XOX.XXoXXoXO.oXoOXooXooooooO..OXooooX.oX..XXoOOoo.XooX.ooXoooXXo..oooOXX.oo.o.oo.oXXXooXo.XO.oOXoo.o..",
"XooXO.O.XXoooX.X.Xoooooo.oX..XXoXoX .ooOo..OOoooooo.XooXo.XOOoXXXoXo.ooOooXoXoXXo oX..oo.X.OooooXooX..XooXoooO.OXXOo..OOOo..ooooXOooOX...ooXOooXooXoXoXXXoXoX.X.",
" .X.Xo...X.ooOX.oooXXooO.XXoXo.oXoOo ..OOoXXOoOoooXOXoXX XXoOoXoo...oo. oOX XooXO..ooo.ooOXXoXooXXoX.X ooooXXXooo.oOo.XoXoO.oXooXX.oooOo..o.XOXOXOo.oXX..o.oX..o",
"X oXXoOXX.X.XOXoXXooooooOo XXO. o.oO XXoXoXX.XXXOO .OOOX.XXXooOoXOo..oOoXooO..oO.o.XOo.oo.oXOXXooXooOX+XoXXo.oXo.o.o.OXXXXXoooOXooXoOoOOoX.O.O X.oX.oooooOOooXXo",
"oO.XXOoO.XXXXoX.oXoooXoXoOXXoXO.XXooo..oXoOo.oo oOX. OoO.. ooXoo..oOo.oXOo oo ..oXoX.O.o..XXXO oXooooo..XXoO.XooXO Oo.oo.ooXoXooOoo.oOXXOooo.oooXOXoOXooXXX.OXXo",
"ooXoXoXoOXooXOXoo.oooooOXooXO.XO.oXXOX.oooooX.o.OOo.o.XOooXXoOooO..oo.XXXo.XXO.oOX.X.XooXoO. oXooooOoX.O .ooo.OXoOo+OOXOX.XooOo..ooXXoO.oXXoXoX. Oo.o.X.oOXXXooX",
".oXXooooXXoo.Xo ooooooooOoo.Oo.XXoX.oX XoXooOoo.ooOXooXOoX..oXOXOo+ooXOXXoooXoX.OOooX.XoXXOO.oXXXX.oXO.Xo o O.XoXXO.XXXooX+XooOo .XXooOoXOooooooX.OoXXo.OOXoXXXo",
"..oo. oO...ooXO.XoXXooo.XoooOoOoOoX.oXX XoooXoOoXOoo.XooOO.oX..XOOo.o.ooXooo.ooXOooOOo.ooXooOOOXOOoooXOXoXO. oo.oXXOXoXXOo..oooOO.XoooXo XOoooooooXoX. XoOOoXoXX",
"X..oOoXOOo.XOo.XoXoooXoooXoXOXooOOoXoo..oXXooXXooooXo.oo.OooOo..XoOooXXooXoXoXoXooXo.O..oooX.Xo .oooOooO..Xo ooo.OXOXXoXoOX oOOooo.ooOXOo. ooXoX oOOo..oXXoOoXoO"
};
