/* XPM */
static const char * TanParchmentData[] = {
"128 128 9 1",
" 	c None",
".	c #CFC0A7",
"+	c #E0D2B8",
"@	c #F6E8CE",
"#	c #F0E2C8",
"$	c #ECDEC4",
"%	c #D7C9AF",
"&	c #E6D8BE",
"*	c #DDCEB5",
"%@%*&#+%&&&&&+&&+&&$++&&&+*&++++$&+*+&&&$+%&&$+&&&*+&$.++$&++&#+*%+&+$++&#%&++$&&%%+&$&$+*+&&+&$&%&%&&$+&*&&*+&&*++++%#+&%+$%*#+",
"*$+*++@$%&&&&&#$&&#$+$+#&&#$&$@&%*+&&&&++$.&*%+*$&&#+%*#*&+&**$@+*%%%&&&#&%&*+&+&&+..%&%@@&..*+%+&&&$+@%$*$*#*$++#++&&&&%*&@&*$&",
"&*%$*+$*&&++&+&**$&**@#&$++&&+&%+++&+++*+$%+***&%+&&%&+&&&&&&%+$%&$&*%*$*%%$@$%%&@$&$&*%..+#@+%%$+$+*&$+$+%&$$+$$&*$+$&++#%*&+&+",
"$*.@+&*%@&*&&++&&%.+&*&$*+%+&&%&&+*%%***%*%%+&&&*$&*+$+***+++*%%+**+&+*&@*+$$#&%*%+&&*%#$$+%.%&#*+%++%#&$$*%$+&&&**$*&++%#$$&%*&",
"+*+++*$++&&$&+&$+%+&&+%#%$&*++%&#&&#&&@@+@*&$+$*&$*&&+*$+&$*$#$+$&+++++*++%%#@&@%.$&&@$.+&&&&$+%&&%*&%+**#+%+*&$*+&*$**&.*@@$$+&",
"+&%%%$&++&&**+$*%&&&%#$%*+&+**&+&*&&+*&$%+*%+.%%*%%&*&$&%&#.+#$&%&&+*+@@%++%%*&*@&.*&&&+&%.*#$$$&$&%&$+$%#%&+$&&+*$*&*&$%.&&&@++",
"&#%+*@+*$&**&$$*+&%&+&$%@*+&&++*+*&&**%%*.&%$$$@*++$*&&.++@.*&&#+%%%&$#*&@*%%%&+.@$*%&##$$+%%&&+&@&+$+$*+&*%$+&*&*$&**#&..&&&&%&",
"%+&*%%*$%%%&#&&+**#@%&&*%+**&$&&&*%%*$#%@$&%&&&*+&*++**++*$%&*+#@%%&&+$%$&+&+*#.@.#@+.*+&$@$...%&+&%*+&#*&.+*++&+$++*$+#*+*+#$*&",
"$*&++$%.%&$#*&#.#$%%+%%*&&*#*%&+&#&&+%+*.%&%%.*%%+&**+$%+$&.&&#*%#&%%$&&%%#$@&.%*&.$@$.%&&*@@#+%.%+*+##+@%*&&&*&*#*%$+&#&%*%$&&&",
"#+*&+.*$$+*+&%&&%*.%&++#+$%*+%%*%**+**&&#&&%&$@*#*$&%%@%$*#%&+%*$&$.*%*+$%$&&$&&.++%*#@%%+*&&$#$++%%%.&&@%%+&*$&+**+#*+&$.&%%%%%",
"&+&**$$&%+%*%&%++++*&*%%%+%&&&$#$$$@#&&&$$&%*&#**$&.+&&+%+$+*.+@$#$$.$+$$%&+*$#$$..*+*&#+&**%&#@&&&$*.*.#*$%**$*$+++*%&+$%+#&*#&",
"%.$#$+%$#*&*#+%$#&#$+&&#&+*+***%+*+&&++++&#%%.++**%&&%%+&$&**&$&&.&+@%+&$%*+%$$&+#$..%@%$$++*&+&@&+**#+*&.$*%*$$#.+##**$#.&*.*++",
"#&.&$*+%&*+#&#%&$+#$*+&*&#++##+$&++++++**+#&&*&$**+*.&$+&+$**$*++&+@&$%+#&*&%++$+*##+*.&*+*+*+%+#$@$%+&@@%*#&.*&&*$&&&&&#+*$++#&",
"&#&%*&$&%%$%+&+%%%*+*&$$*$**+$%&#$$&&&&&+%%&+%%%%**%+*.*%.*$%*%#*&#%&$&.&&*$***++&%##&%+%%&#++%&**+$#*..#%&#&&%+*%*&#+%#&%+&+#%*",
"$*&$$&%+&&%&*++&#@&+&&$#&$*%%+**%%%*++&$@&&&&+**&&@$&@&&#$%$+*+*+++$&#$$*&%$*+**$+&%&@&*++&&&$+&.%*$@#*+*.#*+@+&.+&+#$**++%&*$$&",
".$&+*%$$&@&+&+&*%#*%&+*+$@+%&$%#$*+*+&&##&*&+&+*@+*&%%.*%*$$%#***.++*&$$$$%&%$$&.%#**%+%#+.%*#*.&$@*$@*$#%*.$+$$.+$+$&**&&+&.$++",
"@%++&$**&++*&%%##+*%&+*+@**+***.%&*&&*&..+@&*&&&%+&&+$#$#$$$%%@$++&*.%%+&#.&$.&#@+.$%**+@#&&%%+*&**+&$$%%#%&**#*+.$$++*#&#*+#%.*",
"$*&*&&+&&++$#+&%$%%+$&+%&+++&&*+@+$+++%##&#+$***$&&&&*%*+*$#*%$+$*+&$$&*&@.&@.$*&@$.$%#&*+&+*&#&%*+**&#&%$++*%$*@+.$*&%*$&&.&$*+",
"*+&+##&%+%&+*&&&%&+#&%@+$%++%&+*%*+&&&$+&*%&*&*&%*&@$%%@*%%&+*+%$&+++&&+&$++&%%+$%%@+%.%&+*&#&&+$*%*++$#+&%+*#*%*+&%%#++%&&&*&$$",
"%$#&%%@&*&$+*+@&%&...*$#+#&%##%&&%**+&%*&%$%#*&%+%%+$*%*&$**$**%%.*....%%&**$*$$.*$.$#&.%&&+*&&$*#&*%%+$&*+%&$*+&$&+$*+*&$%&**$*",
"&**$&*@+%&+%+&&%$+$$..*@.*&*+$*+&@&*%&@#+&*&&#&**%..*+*%%+**$%*$$&$$$$$&##&*$*%.$#.&*@$#.%*+&&&%&&*#$*%&*+&$%&.@$**$&@%&$+&&%***",
"&%+@#*$&%+#%$$**%@%*@+.+%$$%&$.#&#+@&.%.&*$*&%#$&$@&***%++&$@**$#$++++&&++$*&&*&#.$+&%@+@&%%%%***$*$#@+%&%&+&+%&+#*+*&+*.*&$+%+&",
"#&%%$++#.&$&+%&+$&##%$$*+*#*%&*%+*#$&$**+&&$+*$@+*&$$##+.%%%$%%%&$&&+*+&*&$*&%&$.+$++&.&+#@$+%**.+*&*%%&$+***$*%&*$+&+%$&+**#%&%",
"&@&%&*.#+*$&&++%&$%$+*$%$*&%*#++&+..%+$$%*&&&%&&&*&$++$$+$#%&***%+++**++$%$%$$**+&&&%*+&$&*+$&*##$.%.+&&+&$+%+*%$**&&@++%*$*@.%&",
"$+$$*+&*#.$&%$+*#&%&&*#+&#&&&++*%%$&&$+&@&%%&+%@&*.#&*+@**%@#+***%*&+$.*$&*%#$&*&#&+&%$+%%%&$$$*+$$%$%*$++$$$#%***+$**%*#*&+#$.&",
"*$%*&&++#.&**%&+$*+$$&+*+&&*&&$+$&+&+*%%+&&&+*%%&&*$++*&$.&*@&+#**&+*$++*%$&&&.$$#+$*&.%*&&$**$#+**%@&&&++&&&@&$**$&*%&$+*$%+&.*",
"%.$&+&*&$&+&&%&+&+**+&*&&&&%+#$&&++*+&*%%+%...%.%%%+%+++@$%*++**+++++#$**&$@+&%+&$*+*%&+#$**%%+%%%&+#%&&+$&**&&$@*..+&&**$&*$@++",
"%+.+&+&%*&%$*%.%%*.%+%&*+&$*$$*%&#*&#*@$#@&#@#&#$#&$*&+&*#.$&&*+*&&+*%*&*&+&%$+*#%+.&@&&%*&#$&+%#&&&*%&$*&+++&$&*+*+%&++***%&$$$",
"&.$$.+$&&$*$$@&$*$#&#*#%*$#%+$%*$&+*$++*&$*+$++#&++$*&*+@$@%*+%$&%%%&+$$+*&&%@&&.*%#&##@&%%&&++*$$+#%&&$%&%&&&&*.$@&&.+&&+**%.*&",
"$@.%$&*%&&&%&*++++#+&+$$%&#%%$+**&*%&%+%&+&#&++.+++$%&%*@$&+*$*&$&$$+%%$$**&+&%.$*+$+#%$#&&+**$#%&$@%++&&$*++**%$@$#*$.++$&$&*+*",
"#$#+***&+&@%#%$%$$&&*++@.%#$+&+.#$@%+&*****%%+#&&+&$%&%*+&.$.$**$+$&&&*%$$%++*#+*&&$&*&&#+*+&$*.++&**+$+$#+**&+%$+&*@*+&.%*$###+",
"*+#@+*&&*#$+&%@*.#*@+*%@&.$#**$**&#%&&&&**+*&&%&$**#%&+$%.#$*+****$%*$$$%&$%&##+%&+$*@&&&&&*%+##..&%&+&%&#***#&*$+.&#&%$+**+&+&&",
"*+$#&*+%%*&$&.%#%.$$*@+.#+.#&%*++.%+.%**&#+&+*@+$*&@%+&%.$$+$*+%$$%&$&**++$&*.+*&+*++$$&%##&&%%#@@.%+*&+*%%#@%$#%%++$@$.#&.%*$%+",
"%%.***$&&++&&+&#&%&**&#&%$++++*&+&##*&$++#$++**@&%*#%%&*#*@*+#**&&*&+&*&&$&@*&+#%.%%%+&%%+$$#+%**@$$*%&+&&.$%$$*.*#&+&&$%$$*%+%&",
"#&$+*%.*&+++++++$+$*+*+&$*+#$&*$*&&#%*+.&&$+*+*&$%+@+*&&$*$**&&%+&+&%&+$*+&%#*&$*$$**%%*&&&$#$***%%&$&**#&%#*&*%&&&++&&@+*&#&&.&",
"&+%&@$@&%%%++**++&*$+#+@$+&+*$%%$&+@$%&$%+&&*&#%$%+#+%&&*+++&%$+*++&*$+$%*&&&$%++&##%+#&&%%*+&&*&&&**&&&&*%%#%%#***&#$+&@%%+&$%*",
"+%&*$$+$$$$$+%%&+&*&*#$#%$#+*&.*#&+@#%*$.##++***$*&$+%**&&&*$*%#**+&&#*$**$#+$&&*+%%$&**&&&&&&$$%*&*%**+@.#$.*@%*&$++*%++**%%#&+",
"%*$&+.&$$$##$**&+%+*++&%%$#**#%**##&$%*&.+@+%&*&&*&$&%+*$*+*#$.$&**+&$*$+%&*&+#+$*%&&&&+**+***+*$+++#$***.%*%&***&&&+*%%%&&&&$&&",
"&.&+$&+*+&&$&+%%$&$*+*+%$%.&+$**.+&.$$*&&%&&%&*+&%+&&%+&+*%*$#+%&***+&*$*+.+%&+*%+*%%%.*%%***+&&*$$%+$@@@+*++$*&*%...+&$##&$&+*+",
"#*+*&+$*%%%%&$&%%%%+*++&.#$+$$*%#$&%#@%&++%*&%*&#+&#$%+$&&*%&@$***&+++*+&#+*$&+%$#$&$$#$&#$#@#&&*$+%&+&##+#*$++%.%##$$&&*@&+****",
"@%+*+&$$$%*$$%##*&+$$$%+&++*+*+&**%+%%+*$%#$*+*##*+$&%**$+*+%*@+%&++$+&*%#&.#*%##$+&$&&*%*&&*$&**$%+%+$+*+$%*%$$$@$*&++&%%%.%%&&",
"&*%&%**$*@#%&.%@$%$$+%$$*++*$+&*%**$*&$%$%#++&.*&&+$#%+&&+*&%%$$%+&+$*&%*@$+.&++&&+*++&*&++&*$$*$+%@+%%%$+&+$.&$+$&+&*%%.*+$#&$+",
"&&*+$**&&$@$$%&*@&*%&*+$$@&&&*&**+&$+#@*&%$%+#%*+&*+@*+&+%&@+%&$%*&&$+$%+$&#.+$+#$+%*&$$*+%+*+$**&%*++%$*.##.*$$*++***&&@$&&&*++",
"*&%%#***+&++@%%%+$#@.%+$#$%$#*@@+$*+*&&*&$&%+&&%%&*&$*&***+&#&*$*%+$$+&%$%&$+.&&.*&#&%*&*&%++**%$&&+.&&&%+&@&..***+&&#&&***&&&+&",
".&.**+&*$.$@$.#&.*&$.+$&&$%$$*&&*&*++&+&+&+%+&$.&&&$&*$*&.%+%&&+&*%&$*&%+%*$#..+&&*%*+$@*&*&&*+&&+++&#+@*%+*##.*#***+&+*+++**+++",
"$$%&&+&*%$*%#%%##@+.&+%.+$+$&**.$$&&+*.++*&%+&&%&&#&**$+*&%%*&&&&+%+$*&++&+@#&%+++$#&+*%+%*+**$$#.&&*&&#*+&.#&@%%*##&+%*.****$++",
"$&*%&%&*$&+&#%&%+%+*&*&&*****$&&%%%+*&&#&&#%&&**%*$&++&+*++&*&#*+&+%+%&&***&+$%%&*%..*%%@%++***+&+&*&$*+&*$%$+&$%%$&*++#@$&*%+*+",
"%$%*%*++%%++$*&&$$*&$*.#$*&+*&%&#$#$%&##%&$*$%$$.+@&$&*$*&*++&#+.$&%+%$$#%&++&&%+*&$$&$@$*+*$$%$&*&+$$*&++*#.&#+$%**&$**$$$@#$*+",
"+&&%%+.%%%%%%***#%+$$#&.%&++&+&*%&#.+$+*++#&*+&$%%&$&**#%*#*%&@*$..#&%%&+#%*$$@**+#&$$#**+.$*$&%+.#&*$+%$$+.&+@%&*%$&*&.*&&%+##+",
"*#+&#+#$+$&+++&+%*+&+$@@%%++%&$%&@%+$*+%$$&+%&$&&***&$&&****#+%%*&@@&*%#++&.#&&@.+%$+&%%&$.+$$+$+%&++&*++**$@$**+#+%+&#+.%+$#&&*",
"$&&+++*%++&##&&@%$&+%*&#@$%%$&.&*+&%+$++*#$**$#&&&&&++*&%*#&.*$*$%%&&#+.%&@+.+&$$.%$&*%#.*&*&&%@&%%*#&*$*&&&%&.%@@#&%+$*$**%++%&",
"++&++*&*%%*%%&&&%&&*&$&%#$@&.%$&*.++#&*#+&+*%%++#&&&**&#%&&**$$+#.+$*$+*.+#@.%#$$*+*.%@%*+@%+&%&$***@+&+*$$*.*%$&%%&+%&.@$%+&%&+",
"$*#+&#&#&*%*%%%++&*%+$$*+&&$#&%%&&+&#%+%@+%&$**#$+*+&&$#*%*$&&+$**#$**%@&.%@@.+#*&&%*#.%@&#.*@&%$&.*%**&$*%&$%*$#+*&#&%&%%$&%+%&",
"+$**$%@#+@@&*&&%+%*%.%*%&&+..&&&*&+*+&$+*%*++&&+%*+$$++&+.*@%*+&+%++.$+%@&..#&.$&#%*@+*@&*&+%#$%$&#*#.$&%*+$#.+$***&&&&&+$&&**$&",
"&+&*&%&$*&$##&+*$&&$&+&$%.%&##&.$%&++++&%+@*%&**&&&&&*&#*#.%&@%&&%&$%$#%*@+.%@*+$.$+%%#&*&$@.+&*%+*$*%%+*#@#%*&&%*&$+&#&+%***&**",
"+&#+$*%&%*+&&#$&%%*&&+**&&*%%%+++&**$&#*&+&*&&%$@&*+$&##*$%&&@*&&*+$%++$.###%%@*%$&#$%.$%&%$*&$+*%*+@*+&&&$$%#+*%+&+&*%&@&+&**+&",
"%&$$$&&&+*+&&%+@+&*%*#&#&#&#$&#&&+++&%%+&&+*+&&$%+&+&*&+*$$%%+$%$+*+*&$@..@$&*$*+#*&+&&.*%@$$%#+&#*&*%*%%%#**@+%$*%***##&+*&&$+*",
"*.&$+*%@&%&*++*&@&%&&**%$$&#+%$#&@&$&&%&*&&*&&&&++++$&$&%*@&%&#.$+**%++##.$+&&*+*++&#+@$..%##+*+%&+$$++$%%.*+%*&*%$&**.%*%&*&+$$",
"&*%**+&&&++&$+&&%&+%+@*+&&+#*.*&&%$&&*$&&&&*+&&&$$**+*$&+.&$&%&%+@#+.%%&#*.*&+&$*%&*#*&+#*..&&*$.&*++++#*$*+&%*%+++####&%&%*..%*",
"+#*+&+#%$%&+&*.%&&&@&%&&+%+&+*+&&*&#%*&%$#+**++$*+$&#+$*+&&*&&+%#$+##..&+&+%*$%$&+$*$+&*#&&.+%+$%+&&&+%.+$+##*$#**.%+&&%$$$+#$#+",
"*%&&+*+$$*%&$%$@$$$&$$.*++&+*+&&+$*+&$*&+$+**&&#*+&*+*&%&**&@&%%+$%+#@*%.+&&&#*+%&$****&*$@&+.+#$%*%%&$$@$++*+#@+&#+%*%&%+&*$#$&",
"$+*&+*++$.*+&+%$$&*#&##%%+#+.%&&$&+*$+&&%&$+&&$+$&*%*+$%*&$**&&%%$+**+*&*+.&@&&+%&+$$$%$++&#&+**$%#&%&+*$+&*%$#@*+$+&&+&%+**.+.&",
"++%*+&#*#++$#*+*&$@@&*%@*%++*%++$+*$++**&##&*%%%*%&$#$@*+&&+++&+.&&%.%$@#&*%&+&**%*%*+&+$*%&&#+%&%#+%++*+%*$&%%$%+%*&+&+**$*&+%+",
"$*$&%%%&#**%&&%*%%%*.%$@@&%++&+*%%*+$&+#&+*+*.*@&*+&+%+%%$&%$$+*&*.+#$%%$#&.+%@.$$@+&*$.*$@.*+@&*.#*%&+++&%%%...*++%+&*$+*++&#%&",
"$.&@#%%+#+%*&&*+*%.*&%.%*#+*+%%&&*&#*+&%&%%*$#$$++*..+@%*@.$$*#$*%%&##$+%%&+&*&%&&+$$+#$+*%*#%&$@&*&*&&+$%$$$@$@.#@&%&@$*$****@+",
"@%*$$&*%&$.$#.#@@$%%@@&#&#&*+**&&&+%*+**%&$&&+..**$#$$@*&*+&+*%+&@%%.++@@&&*%&*+*&&+**#+$$*%@*+#$&&&*$#@++%*$@#&*+&&%.$@.$$**+$+",
"&++%+##$%+%++%&#%.&$&++%*%+$$&+%%&#&&+&#$&+%.%&@+*&@$*&%#*&+%&$@#$**+%.%$@&#++%%%%+$+**+@&+**%++&$&&%%+$*$**%%$*++*@$..#**&+%+&&",
"+++*%+#@&#*%**&%%&$+%%*&#%++&+&**%%+++*%%%+$@$+$**%+&&$+*+&$*+#&&#%&%##*.+%@@&&$%..***+$+*$$*+++&&&$.*&+.$$+%%$*&+%+@$.*#.+$%*&+",
"$&++&+&&@@*+&**.&&+%+$$#&*&&&*++&*+&+*&#$#$*&@$&%&***&@&.&&@&%&%@#%#%.+@$+**&*%$@@$%.*%*%&$*&&%**++#%+#&%+#$+++.$+%.&@+.@**#&%&+",
"**%&+%%%&&*+&&+**+##&$$+***%&%&$$$%%&$+&+&*%&$+&%$&+*+&%&&&&&.+$*@&++.%&&+&&#.+&#$$$++**&+**%+%*+++$.*@+&**&&$&.*$#*.&@%*$.&#%*+",
"*+&$&*&&+@&&&+#+.+&%%..%%&$$#%+&&@$+&*%*&+*+#+.$%&+&&&&&+%&&$*%&$$.$+$.#.&&@#%$+%.+$#$**&*&#*$#&+&+#*+#*&*%++$#&.*#@%%$@.$.*#**&",
"$+%*%%*.%.&%%*%$$%.%%$#+%#&*$.&$&*+&+*+*&#*%&*%@+&*$@&+++.+$#*%+#&+#*$+*+&&&.+$+&$&++##*$$$#.++#++*$**+.$$+$$*#*$..$@*.$$&.&#+++",
"&$&*#&$$$$#&&&++++&+.++*+%%*&%%%+*+&$&$%&&&$*+&$%*#$@*&+$&%%$*.&$#%@#.&*+%$&%%&$&$$*&$*++$$#*+**+$%&&*&****++&+++#%.+@$%*$$%*$++",
"&&&*+&$$&+**&##@@$&#@&+%&@&##.$&++&+&+$*&+$$%%+&+++&++&+**%+&%.*%+%*#+.&++$%*&&**#.&$%$*%**&*++$##*&**+***&+&+&*%&$+*%+&%**%*&*+",
"&&&%%%+%%&#+%*+%$+&&@.$%&+&$#+%*&&&%**&++*&&*++++**&%+&*&&&&+&++++&*&#%&#%++&+%+&&*$+*$%$$$$+*++$$&#$+&*$&%%.**+*+$$+*$#&+&&&&*&",
"+&$&&$$+#*$@&%.+%#+#%&*+&+*+$*+**&$+$&$%*$%%%+%.%%*%+&$*%***%*%%%%%%%**%%%+%+&%+&%&+*#$+**&&&++*&&&&&$+$%*$$@##*&%**++&*&*&$$+*+",
".+$&+&++%+&&&@+..&&#.$%$%***&%&$*%*%+&#&&#+$@@##$#$*&$#$#$$###*$&@&$$&$*&&$&&$&$*+*+++$.+&$*++&%$$$&&+**#&.&.$&$*+$$&##%+**&&+++",
"*&$&&&&+$**%&#@@*.*.$++$#+$+**.%$&+%%%@@+%%&*%&*&#&&+$%*@$%&&#.&#+&&&#@&***+&$&&%&%$$&$%*$#*$$$%.%++&&&+#&*%*%*$%*&++@$*$&*&+&$&",
"%%%++&&+*$#%%+&$@&%**&%$@&*&$$@+%%**%.*%$+*#++#&*&*&&@%%##&&+#%%#*+&%&&&+&+++$&%+&&$&&&%%&#%$&&.&$#&&**%*&%$+&%$#+%*$$%%#&*&+*&+",
"%+&#*&&%*&$$$*.%@@&&.+.**.&+++&+@#$&+.%.&&%%%&$&&*++&$*%$#&+%@.%+&+*@%.%&+%$$++%+$&+*+$.*+$.$&#**&&$#+$+%#$$&&.*@*%&@&.+$**$$+&+",
"+++**&&+.+&&+##*%**@#+%&%&**%*%*%%&&$@$&%++%%*+&%++&$&***+%++@.&%&++%.&+@+*&*%&.+&+%$+$.+++*&$&*%*&&++*$$+$&&$+*%@.*+&%&$+*&*$&&",
"**&*+$+$%*%+**&$@+*%@*&*%$&##$&&$..%..%$&%@&%*%*+$&%%++*%%&&%$*%$*+.*@%&$&+%*$&**&%%@+$%#*&&%%$#%%%+&#&*+@@*$%$%%#$.#*.$#**&+&*+",
"+%*%...*&%%&+%*$%&#$$+++++.+$#&##$$$$$&&&*%+&%*&%%%*+&&$%*++*%&*%*+&@#%$&$%+&+#$%.&*&+&.*@$.+$&$%%&#+&***$#%&*&$%%#*$.*&#**$&*%*",
"#+$##$*&$**$&&&+*&+$*#*&#$%*%**#$$$#@&%$&&+%&&%%+&&***%..&+&&&&*%$+##%$#*.$#**&#.&$+#+$.$.*@&.+#+%*#**&@%$&+$$.$+**$*.&&@%*&&+%&",
"*%*+&$*&+&*%+$++&*%.&#&.%&$$*%*#++%%&%%&$#@&%$#++%*&&+&@$&$@*&+.$&&*%&&%.+&$**@$%.#&+$@%.&*+#&%*@%.*$*+$%$%$$*.&&#*#***#@%**$&*+",
"$*&++&*&&@$.&#+&%*$+$$#%%*&$&&**&#+%*&+&***&+%*&+&&&*&&*$$+&%#*.#%$$&+%%$$#**&*$%%**$%+.@&$&*#$.#+%*$+%.$&%%$+**&*$$+*.+#*+*$&*+",
"+%+&++%+*##.%*%*$$+&+&#&+%%*&#&&++*&+&&*@&$@@#.&&*%&+*%%.*%*+#$%&%+$+.*&#$++&*%&@.&++&&.+#&*%+$@*+*.++#$#*$&+$*.$*#&*&++$*&%$*%+",
"$*&#&*%#&*#$%%&&&+%&+*$#*%+&***$%%&&*$@.*++%*$$%+%&$$&$&#*&&*%@.%$&%%&&&%%+*%&$&&%*%+*$.$+*&&&*%&#&%*&$&&+%@%##**&*%$&+*&.$%$%.&",
"#**&#%%&&&.+&++***%%%%%%&%%*.%**+*&$++&&%#*+@+%@#..%$@+**&#@$+@+%&.*$+*.%%&#$$%+#**@#*&*+*+*%*&$$#+%.+*+*+$%$+$%*.%*%++%&*&+&+&*",
"***&@%**.%###.*&&$$$&&&$$$**&**+&&+%%%*&.*&*&$**@$&%%&*%&#$$&+$&*&&*+&&#$+$$$*&&++.$&%&**&$+&&**%$$+%*+$&%++%#&%#+&$&&&@&*++*&+*",
"**++&*+*#$&+&$%&%&+&&&&$@&&+++$+$@##@&+@.+$$**+.###*%+*%&$&+&++&%%##+&+$*$*&$%*$&#*$&*&&%*+%*&&&&&&$%.+&$+$+&$$++*+$&*++$%#*&$&$",
"++++&*+%+*%*+@*%*&**$&&&+***+$+$%+*+#+%$&.#$***++&@++&*.*+**&+&@&%+#+**++++$*.&&$$%&#*&&&*&$+&&*&&*#&%&#.&+%$%#$+&*+&+&****+%+**",
"**&$&+&*+%&&++#.$$*******+&&&*%+&&&&&+**$*%&$%+*&&$+$$$*%*+++**##*.#&*&$%&*%+&+$+&%+$%**&*&$$&***++$&****$*++*&$*+%.%%+*#*@%$&*+",
"%*+$++$&+&%*+%&+..*.***+$*#$%*+++*&&&&&*&+&%&+%*%%&*+*+***+&&&$$#&%$+%&*$+&**+&%+$&$&***$&*%%*%*%++%&&+%$+&&**+*&$$#$&$$&*&+*#%&",
"*&&#%&#$.&+&&+*@&+$$&*&%**&++&+#**%%%*&&%&%%$.&*+&#+&&&%$$&&&+&*&$%+%*&$$$*%&+$$*+&++++&..%%%+$$$#@%&$+*#.#+$&@#&*&&**&&*+.+&.@*",
"*&&@%+$+$.$&%+&&&*&&&&#+&%##**%.%+&&&&&@$&+&@%&+++&.&*&%&&*&&&&**@$*%&*&+&%&+.$+&++&+&*&#*@@.$#.*&#%++%&*++&+*&##%*+%*&$$*&+*+$&",
"*&#$%&.+#*&*$.#&&%&&*&&&*+%%+++#$@&++**$@&%#+&&&*.$*&$#.&&$+*&%++&$+%*+*&.+++&*+*&@$+*&&**+*+*&+++$+&&&+%+$*&**+@*##+%+&*&*%$.$+",
"$*%$*+%$@***$*+*&$*$*++&*&&%&#*+&$*&$.+%@&+$*+**$&#%&+$.*&*@$%&*&%#&+&+#++#+*++*&%%#&%*$$+*.&*+*##@*$%&++&&+&*&+&*%%$&**&$&+#*&+",
"%&&$+*%&$***+&*%#&$.+*+@*&&*&#%%$%.$&*$&*&+&%&++&+$%&&$.**%$&*$++%$.+*&@.+$+$&*$*$$&%+%%****$+*%&+@*$%&+&%+**+***&$+&+#&%+*&*%&$",
".*+&*&&$%$#&%&*&*+*&&&$#*&.&&%+%&.+$+*%**&&$%$+*&$$*++$.&$#%*&*+&@$*+*$*+*$+$&&+**$&++&$&&+%%..%%%*&+&%%**%&$&#+&***+*@+*$+$%%+$",
"#%%&*&&**$##.&.##&+$+&&++&%##&@#%*$$$+%+&&##%$*.#$@+*+$.%&#%+&%&&@++%**.*$&*@&*+$*+*&%&@*+$$#$&*%*%++$&$@+#$++%%@+*&$.%++&&@*%++",
"+&*%&$**$&&$+&%$#.$*%*#@&%*%%&&+%&+++%*@$+$$%$*%&*@&*&#%+$%+&%*&@&*$+$++***+&*$.$#&%%++*++*%&&&+$&$&*+*&*$+$*%&&@%*#@&&$**%&&+&+",
"*@#.%*%&#++&&&%+.+&#**&&&&$%.&$*&&&&$*.$*&#$%#%%*%@&*$&.&%%++*&&*%%$$$*&%**+&*&%%+%&*$*+*&$+$+++&&&&*&%*$$$**+*$&.#&%*$@$*+*&*$&",
"&%##%%+++*&+*&++&*&%*%*+%+#&.+&%&*$++$.*%#@+%@.+%%@*%$+*$.&&%$&.*#%*$*&*@**$&*@&%$%@.#%&+++*&++$*$*#%@%%++.%*#$&%%$.+@*++*$&#%++",
"++$&#+%%*##%&&&$*&#$++$*%+%$&.%&++*+*#.#*.$&*@%*@&%$%+&+.#&*+++*#&+&*%&$&&+**+$*#%$%$.+$+@&+*.#&$$+&&%&$***#+++$&%%&&*%$$+$*%*$+",
"*&&%@#*+%&+++#+&&+.%$##*&#$@$+%&&$#&&$.*&&+%&#.*&+*$*&&+&&+&&*&@#&&&+++*&&&****%+%%+*&*%*%&$$***$&+$&*$+*+&*%&+%$++&++*$+*&&+*&+",
"%+++###$*++&*&&%$@$%*$$.%&$+&&**%*&%$+..@$$&&#%*%&+&%##%&%%$#+**&*&+*&+%%&+*%$*#&&$&+@$%&&$&#*&**&+&&++&&**$&&%&&*+%*++$+*&&+*+*",
"*%%.%.**++&*+*&*+&&$+.%+%+&*+$+.&$&*$@**.**%$&.#&++#**++**&#&*&##*&&*&&&+&$+*#+#*&#*%+#&.%*@@%&$*%*&*+$+#$*&$$+&&*$*&$$$&**$&*+&",
"$@$$@$&&$&$*&**+.***$$&*+&++&*#&%+%*+#+*%+&+@#.$%$#$%+$+.*&$+*+$&*&&*&##%$#&%$***+&&%*$@&.&$$%*$+#&*++%+***+##+&&%&%&**%$+*&&+&+",
"%&&&@@@@+&*+&$+&$+.$#&+&&**&&.@@*+.&*#&++%**+@**%+$$++$&+*.*&&%*&*$$%*&+%&$*%&+*++++&%**$**.%*$#+*&$&&$&**%+&&%&+*&&&&**$&*$$+++",
".%**++@*&&+#+++++$*++&++$&$+$.&#&+%+*$$&*%*.*#.+*$&+*&&.$$*%%*+@*+$&*&$%&$$*++&&+&&+#++**%.*$%++*$*&#*+$$@$..&++++***&**$&*&&+&+",
"$&..+*+%&%$&+%$**$*$$&**+&$%&%%+@&++**@*&%@$.&+$&+*&&++**&#+++*+%&$&%&#.&&$%#*+$.#%&*@&#++#&&&**+&*+&*++*&#@&$**&&**%&&&&$*$+%+&",
"*#@&*&+$+@%.&#$$%*&**&*+++*%&%&+&+&*&&&.@&%+$+%%&&+$&*#$.&@$#.&&*&&&*&%+%@%$+$+#%+*&&*&*$++@&$%$**$#**&*$**+&#*$&%*&$&+*&$&.+$&+",
"*$+&&&$&*.+&&&%$%*+*$#&$*+$*#%**$*$**&#%+$%*$$*%&$&$**##.++&$*&&*&*$+#%&*#.&&&&&*&%*+*&+*#&$#%%$&&&.*&**+&$&&&%$$++%*%*$****&@&+",
"&$+&*+%%$*+$*%$@+*+*&$*+&+$.#+*&$%$&*+@+*&$%%&+$.*+&+&#$%***#%$*&&%$&&*&*$%$$&&$%+%+&+&&+*.&*+*.*+*#*+$%++&&&$*&*&%&$$**%%$$&&++",
".*..%+$&$#+#$&$*+%&+++*+#&+.&$.#&*&&++$+&&&+.*@+%%+**+$$%+%+&+&+#&%$&+*&*&%&+*&@.&*&#+&*%%+&.$$$#&$*&+*+%%%%&&+&+$.++$%%@+*%+&**",
"&#+$+&#++#&+$$%&$.&&+&&&%&&**#.$*&&+&&&&+%@#++%&##$****$++&%$%&+&%+&$%&$&+*$***&*+****$#&$#%$$+$+$.$$*&#*#&$&%***$*%**&#*+&$$&**",
"**$$&#*$*@**+*%@#.%&&&&+%$#*%&.&%&&*$&&#.&#@@*.&+*$&&**$&$+&*+%&%+$+$%+&&*&$#&*+*****%+&&+%%#+&**.&#$%+&%++$@&@$&&@%$%#&&&**$$+&",
"$*#&*#*$.@+@$%**#%%++&%*&$#%&+.**&&*&&&&&*%&@@*%**$$$&*%*+$+&+%&%&#&*+*+$%$+$#&@&*$$++%.+**&**$+.&%#$%*@&.*&&$&%$*&.*+#+*+&$&++&",
".$*$++#.+$*+.##%#**&&+%&*+$%@*+&&++**&&%+*%+#$$*&%*++#@+**&&+&%+.$&&.#+$$.#++&+#&.*&+@$#&*$.&&&%&$+$&%&&$.$&+$*&+&&#.$+%*&&$+*++",
"$&%++$*$.*#+&&&.@$%***&*+#&%@$*.%&$&&+.#%$%.&+#&.$$*.&&@$++.@%@%+$#*+&*&$%+**$$$$*&++.%$%*#@%&%&+$+.@.*+@.**&&%&$*@+%%***$++$+%+",
"&+++&++$&*&.&@++&&**%%&%$+&%$&@*%%$+&&&#&&#%%&&&**&&%**%@+$%&&+%%%+**&*$+$**%+@$++**&*$&++&&#%**@$&&$*&%#&%$&*$&*$+@$+%$*$+*$&%+",
"&&#*+%+@&&*%#&$&*#++$+++#&+*%+$&%%%*.+...%.**.*&#%%#*+&+$+@*+#%&&+&&&+*&*$#*%%*%++*&$&$%++*$.#*..&+$&*+&*@.#%%$*+&*#@%***&$&+&$&",
".%&&$***$+&%**+#&+&$++&%%*+.+*&*$%&+@&#&##&#@%*&@&*&*%&*&%@%&&%$%&*.&&%*&+#&+*%&&%$$&&+%@$@**@@%.+&++**$*&*&%+%+*+*%@****%&$*+$+",
"$+.*+$%.&*$&+****++++*%$$$&@%&$&$#+&*&$#+%$+$@%%%$&+%+##&*&*#%+$&*$*%&@*%*.*&*&@&.##*+%%$#%.&+@@+%%*&*#$&&$%+$%$#%$$.#&%+&&&&*%+",
"@@++*&&$%%*$#$$%#*&&.+#@#$&+&***+@@%%%$#&%**+$&.%#@&%*+&$$&%&%&$%$#%**+*$$+&$+&&.*$$**&*+$.*&@&$#++%$%+&$#&%$&$&+*$**@&&**&$$&+$",
"&#@#&+*&$+%.%+%+$$$%*&*&%$*&+#%%%@$&%%+&@$%*&+@&..&#*+*%&$#&**+$%&$*++&+#$#&+&%%%&&*%&&$+%#%+%*.&$&**%%$&$%&+&#+**$*&&$*+*$$**&*",
"&&$&@$&*+#+%$*%@%+$%%$***$&+%@@..*+$$.%*&$&.+$%$&.*@*****+#&.&*&%*$%&&#**+&#@$&*%&$%*@%#*&*&&.%$@#+&.**%#*%$%&&&.#%+$++$.*&++&$&"};
