/* XPM */
static const char *YellowTextureData[] = {
/* columns rows colors const chars-per-pixel */
"128 128 15 1 ",
"  c #EEBF32",
". c #EDBD31",
"X c #ECBB30",
"o c #EBBB2F",
"O c #EEC033",
"+ c #EFC033",
"@ c #EFC034",
"# c #EFC134",
"$ c #EFC135",
"% c #EFC234",
"& c #EFC235",
"* c #F0C235",
"= c #F0C335",
"- c #F0C336",
"; c #EEC034",
/* pixels */
".oo.....o.+=&&=&...o....+.=&..+..&X...o.&&..+...+&+......&.+...oo.+=.o.o...oo.X..o..&.++.+.+&..oX.....+....o.ooo.o...o.oo..o.o.o",
".oooXo.....+..+&.......+.&=..X.+&..ooo.oo...o..+.....&....o.o......&..oo...o..o.....&X.......o.o.&+.....o..oooo..oo.Xooo..oo..oo",
"oooooX..o.ooo..o..X......+.o.o...++oo..oo...o.ooo..o&..+oooXoo.&+.o.....ooooX.X.Xo....&.o.&+o+.oo..Xo...X.oo.oo...ooXX.o...o.ooo",
".oo...oooooo.....&..o..........o...&.X.o..ooXoooX...X...Xoo..o.X..oo.oo..oXo..........oo..&.oo.Xo..o.o.oo.ooooo..+X..o..o....o..",
"...X...o............&.X.X.o...+...oooo.o....oo.......X..ooo....oX.oX.X...o...o.X.&...oooo...oooo.......ooooooooo........o....oo.",
"...oooo.o..&.o......oo....o.&.+..o..X.oo..oo...oo...oo.Xoo..o..o.o.o.+.o.....ooo...oo...ooo+..oo....oo..Xoo.ooooo.......o.=X..o.",
"..o..oooo.&...+.o.oXo.&&&+oo&+o..oo.oo....o.&.ooX.....+.o...oooo.&&..&.o.o...X.X....+.oo+o.++...o..o...o.X..oooo...Xoo..&.+..&+.",
"oo...Xo...&..o.oo.o...&..+oo...&ooo.o.o.oo...oo.o.oXX..oo.Xo..oo...+...X.Xo.=oXo..oo.o...o...+......X...ooooooo....X.o.....o..o.",
"X.ooo....o.+.oooo.&.++..o....++.ooo.X.oo...oo..o..ooo&.oXo....o...Xoo.XXoooX&.o.ooo.o...ooX.&+...&.oX..X..oooo++XXooo&ooo+....o+",
"..ooo...++.+..o.....+.......o&oooo..o.X..oo.+=.XX.oXo....o...........o.Xoooo..X.Xo...oo.&...++..o&+..&&oooX..o.oooo.o..o.+.....X",
"+.ooX.oo...+Xo...&....=.oo.o.+oo.ooo..&........&......o......&&&..+...o.&X..&.XX..o..X...&&.......&.&...oo.oooooooo..&.......o..",
"+.o..o.X..+.+oX.o.XX..&&.o+.oo.&.oX.......o...o...X.X......&..&.o...XXooX&....oX..oo.....+.X.....&&.X...ooooX..oo.o..&oo+..o.oo.",
"+oXo.X.+.....&oo.........+.......oo...+...X&.o...oooX.+&..&......ooo..oo&.o..oX....o.&o....&.o.&...&ooo.ooo.X&X...o.ooX..o.XXoo.",
".oo.X....Xoo.............&...XoXo.oo.o......XXo+.o.o...&..&......o.XX..X&...&XX.oooX&&o....&..+..o.oo...oX.o...o..oo.oo.oooo.o..",
".Xoo.X..oXoooX..oo..o..........X...o..Xo. ..X.o.o&..XXX.....&&.Xo.....X. ........oo......oo.&+....&oo&ooXooooo..ooo.oo.oooo.ooo.",
"..oXooo...oo.....o..o.X.........XX....o......oo&.o.....X.&...+.o....X.X...X..o ..Xo.Xo..oX.X.........oo....oooooooo.Xooo.ooXo..o",
"..o.oX.XX.oooo&Xo.oo.oooo.Xo&+.X..oX oX...oooo.X..X..X.........X.&..X.......&.......oXX..X......+.....o..-.ooooooooooooXo..oo.oo",
"&.o.oooo..oo..oooX..o.oo.&...X.oX.o..XX..oooo.Xo..X.Xo.&.XX...&. ........&..XXX ooXoooX..Xoo..o....X.XX.o..oXXo..oooooo.Xoooo.oo",
"..oX..oo..oo.+oo..o.oo.o...&..XX.o...o.Xoooo&o..Xo..&&&.oo.o.X...XoXXXoo. . ... o..oXX.o............&.o.oo.X.oo.ooo.oo.oooo.o.Xo",
"..&.X.oo...o...o&.oooo.o....X.oo..X..XXXoooo.....o..&.oXoX...ooX.Xoooooo   ....X..ooo.&X......XoX...&..Xooo.oooo.oooooX.o.oooooo",
"&.X...o.&..ooooo..o..o.X.&..oo...&Xo.XXXoooooooo&. X..X.XX..oX.ooo X.X...&&......ooX..&.o...&&o...&.&.o..oooo.oooooooooo.ooooooo",
"&..o.X.....ooooo.....o......o..o.....X.oooooooo.......X.oX.Xo.X.. &..&&oX&.XXX..........o..X..&&.&.X.oo.o.oo.oX.ooooooooo.o..ooo",
"=.oo.Xo....Xo..o..Xo...X..&.X.Xo.&...&......oooXX.X..X..X&.X..X &...X....X.&.......o..+&o..&..&+....oooooo.Xo..oooooooooooo.oooo",
"..X.ooXX...oX..oo.o....o...&.XXo...&&...&...oooooX...&.&& XooX........&&.&.. &.XXoXXoooo...oo.o&....oo..o...o..oooooooooo..ooooo",
"&.o..o....XooooXoX..+.&X..X..XXXXo&.& .&...&Xooo....oXoX..XXXo..oo.XX..Xo.X.X.oooo+..ooo.........oo..Xo.&.o..o.oooooXoo.X..Xoooo",
"..o.....Xo.o.ooX.o..o.&Xoo..Xo.XX..X..oXoXX.XXooXo.Xo.Xoo&.Xoo..XX..o..o.XX.Xo.oo..X......&&&....Xo..X...ooo.Xo..o.ooo.Xo.oooooo",
"..X.X&.X.oX..ooX.......o....oooX.ooXoX.o.Xo.ooo.XX.oX...oXX.o.ooooXooXX....oX..oo.oX.ooXo+........o....oX..XooXXo.Xo...oo.ooooo.",
"...X......oX.X........&.XX.X..o...oXXXXXo..XoooX.XX.X.XX.XX X.XX. .oo.XX......oo.X.o.......X.X.&.oXXo..Xoo.XooX.X.o.ooo..Xoooooo",
"&......oo.Xo.o....X...+.o...&.o.X.....oo..oooXX.XX.XX.oo&....& XX&.XX.Xo.  .oooo.o.oXoXoo..o&.oo.o.oo.oooooo.oooo.oo.ooo.Xo.ooo.",
".....o.ooooooo.o+.&XooXo..o...... .Xo.oX.XooXo..Xoo.ooo.X.&.X......o..XX...o.oXooo...XooX....&.oo.+.X.ooooooXo.Xoo..ooo.Xoo.+ooo",
".oo.....o.o..oooX....o.oo..X...XX...XoXXX.XoooXoXo.Xo.ooo..Xooooo.Xo&X . ..oooooXoXo.oo..o..X.+o....+.o..oooooXooooooooo.oo..ooo",
"....o...Xoo....Xo.X.o..oo.o..o.oX.oXXoX.oXo.XXoX...o.XoXooXo.ooX.XXo....& oX..ooooXo.oXooooo...oo..o.....oXooo.o..o..oX.Xo..oooo",
"&oX...o...X...XooX.ooX.oo..&.XoXoXooooX..oX.Xoo.ooooooXX.XooX...XX..X..X....X..XooX..oooo.ooo..o.....oX.o.o....oooXo....ooo.o.oo",
".+o.o.Xo....X..XX.X...Xo....ooXXooooXXoXXXo&.XX..oo...&.X.XoX..oX.oXooo...XoXXo.oo....Xo.ooo..&...&...oooooo.ooXooo....oXo.Xoooo",
".+.o..oo.oo.o..oX.oo&.oooo.oo..o.Xo.oXX.o...Xoo.XX.X......XXooooooX XXoo..XoXoo..oo......o..oooXo..oo.Xo.oooXoo.oo..oooooo.ooooo",
"..X..ooo&ooX..o...o.oo..ooX.oooooXX ooXXo...oX...Xo.oXo..oo.oooooo.XXoooX oooXo.XoXoX...X...ooooo...oXXoooooXoo.ooo.ooo.oooooooo",
".....o.Xoo..oX.oXX.+.oX.o..X.oooo......ooooo.Xo.Xoo.....oooo.oooo.oooooXo...o.ooXX.....oo..&Xoo.o.oooo..o.ooo.oX.oo.ooo.Xooo.ooo",
"..XXoo...Xooooooooooooooooo.o.ooooX.X.ooXX.oooo.X..X....ooXooooooXoXXoooo.X.X.o.Xooo..Xo....oo..oXoX.o..ooo.Xooo..X.oXXooXooXooo",
"........Xo..ooo.oooXooo.oooo.ooo.oo..oooo..X.ooo........X.ooooooooooXooooo.o.ooXX.Xo..oo.+.XXooXoo...X..XoooooXoX.+....oo....ooo",
"...XooX.oooo.oXoXoo...X.oo.XooooX..o..oo...Xo.X.X.oo..XX.XooX.oooooooooXoo..oo..oo.o..X.oX..oo.oo.&ooXoXXXoXXooXoo.XX...o.oX.oo.",
"+....oX.oo.Xoo..X......oooo.o.X....Xoo.o..oo.o...X.o..oooooooooooo..oooo.....oX.o.ooooo.XX..X.&oo.XoXXoXoo.Xooooo....&XooXX.o...",
".&.X.Xooooooooo.X...X..ooo....oo..o.oo.X...o.oX....oooooX.Xoooo.oooXXoXo..XoX.oooX.XXo..XXoo.XXoXoo.o..o...oo.o..o.Xooo..o.Xoo..",
"&&.XooX.oXX..Xoo.ooo...ooX.X..oo...oXo.oXo.Xo.X...XoXo..X.oXXooooooXX.ooX.Xo..Xoooo..X..X.oXXoXoo.o.oXXoXXoooX...oo..ooooooo.XoX",
"..XoXo..Xoooo.XX.o.o..X...oX..X..X.X.Xo.ooXXo.Xo.Xo..Xo.o..ooooXXo.&XXXoooX..XXXoooo........XooX.ooooXoooXoooooXooo.oo..o.ooX..o",
".&.oXXoo.ooXXXo.X.XXX&..oXXo....Xo......oo.XXo.&oo.X.X.XX.XoXooX..o.oXXoooooXXXX.XooXX..ooo.o. .XXoooX.oooX.XooXoooooo.o.XoXo...",
"..o.o......X..XX..oX.X..oooooXo..o.XX..oooX....oooo.&.XoooXXooooXXXXXX..XoXoX.X.XoooXoXoX.X.&o..Xooooooooooo.oo.oooooXX.oo.X...o",
"X.X...o..ooo.oo..XX.oo.Xoooooo.. .o.XXoooooo.XXo..oX...oXooXooXX.XooXXXXXo.oooXooooo.oooo...oX.ooooooooo.oo..X.X.o.XoXoooo.X..o.",
"+.X.Xoo...ooooo...X...oX..ooo..o.oXXXoXoX.o.oX.XX.oXo..ooXX.oXooooXoXXoo.XXXXooooo....ooX.....oooooo.oXoX.XoXo..XoXoooXoXo..X.Xo",
"....XX..XXoo.XX...Xoooo.oX.ooX.Xo..o.Xooo.X.oX.X....o.ooXXoXoXXoooXXoooo..oo..oX.XX.X...oooo.oooooooXoooo.oooXo.XooooooooX..oo..",
"X.....+&XooXooo...ooXX.oo&oX.ooX..oXoX...X... .&.XXX...XXXXX.. X&X.ooooooooo.o..oo..o..XXoooooooooXooX.ooo.ooXoo.....Xooooo.oo..",
"&oo.XX..ooX...oX&.X.&..X.oooXX.Xo.oo.Xooo..XX...X...XXX.o....&.XoXooooXooXXooo..oX.X..oXXXXooooooXooXoooo.oXoooo..X.+Xooooo..ooX",
"...X..XoX.X.&oo..&..oooooX..XoX.oo.o.XoX.X.X.X .o.....ooXXooo.ooo.ooXooooooooo..oXXX..ooXXooooooooooooo.oooooXo..oo.X.o.oo..oooo",
"...oX.XoXo.&......o....Xoooo&.oXXX..XooooXX..XXo..&o..ooooXooooooXXooXoooXoooXXXooo....XooXooooo.XX.XX..oooooX.oo.Xoo....ooXoooo",
".o..XXX.oo.&XXXX..XoX..XoooXooooX.XXXoooo.XXo.oo...oXo.o.&X..oooooooooXXX..Xo... X.o.X..X.ooooooooX....o.oooo.oX.X...ooooXoo..oo",
".....ooooX....ooo..o...&.oo..XX...oXoo.o.X.oXo.oX.o.X.X....XXoooooooooooXooooo.X..oooooX.X..oooooXoo&.o..ooooooo.ooXo.oooooX..oo",
"..X....oooX...oo.Xo....Xooo...o..XoXoo...XX..XXo.....oooo..oo.XXXoooXooooXooXXXXXXoXXoooXo...XoXooX.XXoXoooXXoooXooo..XoooX..ooo",
"..o..X.XooX..oo.X......Xooo..oX.o...o...oo.X.XXo.o.Xoooo.Xo.ooXoXooo...oooXo.Xo...Xo..oooo..o.Xo.XoXo.Xooooooooooooo..ooooo.XoXo",
".X.XXX.Xoooo..oX..X.XXoooo...ooXoX..... XoX.ooX.XXXXXooooooXooooXoXooooo.oXooooX.Xo.X.oooXX...ooX.ooXoooooooXoo.oo.ooooooooo..oo",
" .XoX.XXoooo..Xo.oo.XoooooX XXXooo........X..oXooooooooooo.Xoooooo.ooXoXX..XXooX.X.X..oXXXoXo.oooXooX..oooXoXoXo.o..oo.oXooo.oo.",
"..XX.&.o..oo..XoXXoXooooXXo..XXXooXX.X.Xoo.XXoXXoooXoooooooXoooooX ooo.X.oX..oo..Xo.X.X..oXXoXoooXXoo.Xoooo..X.ooo&XX..o.Xo.Xooo",
".X.......Xoo..XX..oXoooo..X...X.oo..Xoooo.oo.oooXoXXoooooooXXoXoX.Xo..X..XoXX.X.o.oooXXo.oXXXXXooXoXoX.ooooX.ooXoooooXoooXoo..XX",
"&. ..XoX............Xoo.. .oX.XoooXXoooX.oXXoXX.oXXooooooooooXooXXXXooXoo.XoooXXo.. ..XXoX.oo...ooXooXo.ooo.X.X..oo.ooooo..o..oo",
" ..&.XoooX.... ....X.XX.. ..XXXXo.XooooXoo.o.XXX.XoooooooooooooXoo.oXo .X..Xooo.X..XoooXoooo.ooooooo..o...XX.X..oX.oooooooX.oooo",
"...Xoo.X.ooooX..o...ooXo... ..XXoo..oo..XXo..XooXXoooooooooooooXXXXX .X.oXXXXXoo...oooooXoXo...ooo.Xo...Xo..ooXXX+Xooooo...oo.oo",
"X.oXo.o..ooo.o. o...XooX.X...oX.oo..Xoo.ooXooXoXoXXooooooooooooooooooooooXoXoooo..ooooXXoX.ooXo.Xo..oo.oooooo.oo..oX.ooX.X..o.oo",
"X.X..Xoo..oo.oo.o...XooXXoX .oXXoooo.XoX.ooXoooooooXX.o.ooooooooooooooooXoo&XXXX.oooooXoooooXooooo.XXXX.ooooXoooooo.o.oo..o.oooo",
"..XX.ooX...oX.o..XoXooXo..X....XXooo.XoooooXoXooooXX.oXooXooo.ooooooooXooooX.Xoo.ooXoo.oooooooooo.oooXoooooooooo.oXoooo.o.o.oooo",
"&.oXX..oXXoo..ooooooXoooX....&ooooooooooooooX.oooooXooooXooXooooooooooXoooooXoooooooXo.oXoooooooo.ooXoooXX.oooo.....oooX.o...ooo",
".o....oo.ooo.oXoooooooo..oX.&ooXoX..XooooooooXoX.oX.oooooXXoooooooooooooX.oX.oXXXooooooooooo.oooX&..oo.oooooXoooooooooo.ooo.oooo",
".o.o..Xo.XooXooooooooooooXXXXXoo...X.XoooooX.ooX.ooooXXoX.X.ooooo.Xooo.ooXX..XXooooXooooooXX.oooo...oX.ooXoooooooo..ooooooXX.ooo",
".XX.X.ooooo.XoXoooXoooooXo..ooooX.Xo...ooXoo.oooX..ooooXoXooXooooooXoXXoo.oooXooooooooXoX.XXoXXXX..XXooXoooooo..Xo.Xoooo.oooXooo",
"..o..ooo..ooXooooo.oXooo.oX..ooooX.oXooo.oX..oXXXXoXoXooooooXooooooX.o.oX.X.Xo.Xo.Xoo.XoX....ooXX..XXooooo.ooXoo.oooooXooooooooo",
"...XXX.oooooX.oooooooo.o.oXoXoooo.XXoXooooXX.X..oXooXoXXoooXoooooXo.oXXoooXo.ooooooo..ooX.o.o.Xoo.ooo..ooX.ooooXooXooXo..oooo..o",
"....o..XoXoooXoooooooooo.oo.oooXoXXooXX.ooXoXXX.XXooo..X&..oo..XoooooooXoXXoXoXo..XXo.XooooX..X.oooooXoo..oooo..oooooooooooooo.o",
"X.X...XoXXXX.XoXoo.XooXooXXoooo.oXXoo.XoXXoXXoo..X.o........oXX.oooooooooXXoo.ooXXooXoooooXX.Xooo..ooooXoooooXX.ooooooooX..ooooo",
" .X.ooooX.X...oo.o..oooooo.oooX.ooooX..oooXooXXooooXX.......XXX..X.oooooooXXXoXXo.oooXooXooXooo..XXooXooooooooXoooooooooo.oooooo",
"&. .X..ooXo.o.Xo.o.ooooooX.oooo..XooXooooo....X.oX.Xo.&..& ..oo.&XXXooooooo.XoXoooXX.Xooo.oXooXooooo...ooXoooooooooooooo..oo.ooo",
"X.....oX...oXoX.o.XooX.Xo..oooXo...oooo...&.X.oXoX..XX&.o .oXoX.XX.ooooooooo.XX.ooo..ooooooXooooo.ooo..ooo.oXoooooooo..o.X.o.oX.",
"..Xo.oo..o.ooXo......o.ooo.ooooo..X.XoXXoX...X.oooXXoo..XX.oo..oX..ooooo.XooX.X..ooooXoooXooo&X..ooooXoo.oooo.ooooooo.oooo.oXooo",
"...Xoo...X.XoXoX...o..ooooooXXo.oo.Xoo.o.ooooooooXXXXo..Xoo.oXX...&.ooooooooo.o...ooXooooXooooXooXXoo.oooXo..oooooooooooXooooooo",
"&X.Xooooooo.oooX..o.o.....X...o.X..o.X...ooooo.oXXoo.ooooooXoooXXXXXooXoXoXoooXo..X.ooXo.XoooXooXXXXXoooX..Xoooo.ooo.Xoo..o.oooo",
"&oXoooooXo.ooX..o.&Xo..X..&...Xo..ooX.oo.o.Xo.ooXXXooooXoooooXooo..XooXX..Xoooooo.X.Xo.oooooo.oo.X.X.Xoo.ooooooo..oXo.ooo.oXooX.",
".X.oooXXooooooXo.o..o.o..X.XX&oo...oXoo..X.Xo.oo..XoXXXX.ooooooooooXoooXXoXXXo.oooooX.oo.X.oXooo..X..oo. ooXXoooo+o.oooooo.ooooX",
".oXoooo..ooooo.oXXo..XXoX+ooX.o.XooooX.oo.oooXXoXXXX&XXXoXoooXooooooooooo.oooooXoooooXoX.oXXo.oo.XooXoooXX.ooooo..ooX.oooooooooo",
"oXooooo.Xooo&..oooo..XX.&.X...ooXoooXXXXooXoooooooXXX...ooXXooooo...ooooXooooooooXooXXo.ooooooooX.Xoooooooooooooo.oXX.oo.ooooooo",
".XooXXoXooo..oo..oooo....o..ooo.XoX.Xoo.oXooooXooooo.oX.oo.XooooooXXooooooooooooo.ooXX.o.XooXoXXooX.XoooXoooooooooo...ooXo.ooooo",
".oXoX....oo.ooo.&.XoooXoX.XX.ooo.XoXooooooXooXo.XoXooo.XoXooooXoooooXooooooooXooXoooXo.o.oooooooXoXooXo.X.ooooooXooX.oooooXooooo",
".XoXoX..ooo...o.....oX.X.ooo.XXX.X.ooXoooooooXXo.ooX.o oX...oooooooooX.oXXoooooX.o..ooooXo..oooooooXXo.&X...XXXoX..oooo..o.o.oo.",
".&ooo.&.Xoo..Xooo..oX.o..Xo......Xo.oXoooooXoXooooooooXooXo.oooooXooo.oXo.XXo...XXoXoo.ooooooXXoooo.ooX.oXoo.XooXooooo..o..oo.oo",
".Xooo.&oooo.XX.X.X.XoXoo.XXooXooXXXoooooX.ooooo.XoooXoXXoXoooooooooXXoXX.o.oX...Xo.XXXo.ooo.oooooooXXoooXXo.ooooooXoooooo..ooooo",
"..Xo.&.oX...ooo.oXXX.ooXooooooooo.oXXXXoXoooo.XooX.o.XXoXoooooXoooooXooX.ooo.oooXoXXooX..ooooooo.oooXXoo.ooooooooooXo.oooo.ooooX",
"X.oo..oo..ooooX.X&oo.oooo.ooooooooXoXXXooooooo.oXooooooXooo.ooX.oXooooooXoXXXoooooXXXooooooooooo.XooXXXooooooooXXXoXoooooooooooo",
".XoXooooX.oo.o..XXoXoo.ooooXoXoXoooooooooooXooo..oooXooXoooXoooooooooooooooooooooo.o..oooooooooooXooooooooooooooooooXooooXoooooo",
"..oooXXXX.oXXoo.oXXoooo.oooooXoXooooooooooooXoooXo.oooXooXoooooooooooooooooooooooo.oXXooooooooooooooooooooooo....oX.XoooooooXooo",
".X.ooX....ooXXo.ooX.ooo...ooooo.oooooooooooooooooooooo.oooooooooXoooXoooooooooooooooo.oooooooooXooooooooooooooX.oooooXoooXoooooX",
".....Xo..XXo..X.XXooXoooXX.ooooXoooo.Xo.XooXXoooooo.XXXoooooooooX.oooooo.ooXXooXoooooooXoooooooooXXooooooooXooXooooooooooooooooo",
"....Xoo..oooXXXoXo.ooooo..ooooXoooo..oooXooooooo.oooXo.ooooooooooooooooooooooX.oooXoooXoooooooooooooooooooooo.oooooooooooooooooo",
".ooXo.X.XoooooX.XoooooooX.oooo.oooo&oooooooooo.Xooooooooooo.ooXooXooooooX.ooooXooXooooooooooooo.ooooooXoooooX.ooooooooooooo.oooo",
"..XXooooooXXoXo.oooXXoo...XXooX.ooo.oooooooo.XoooooooooooooooXoooooooooooXXooooXoXooooXooooooooooooooooooooX.Xooooooooo.ooX.oooo",
"....oooooooXooo.ooXXooooo.XXoooooooooooooooXoXXo.XoooXoooooooooXoooooooooooXoXoooooooooooo.ooooooooooooooXXooXooo.ooooooooo.oooo",
"...Xoo.oooooooooXXooXXoooooooooXoooXXXoooooooo.oXoXooooooooooooooooooooooooooooooooooooooooooooXXXoooooooooooooooooooooooooooooo",
"..oooooooooooooooXXooXo.XooXoooX.ooooXXoooooooXXooooooooooXooooooooooo.oooooooooooooooooo.o.oooo.ooooooooooooooooooo..oooooooooo",
"oX.oXoooooooooooooXooooooooooooo.oooooXoooooooXXXooooooXoooooooooooooo.X.ooooooooooooooooooooooooooo.ooooooooooXoooooooooo.oXooX",
"+XXoooooooooXooX...oXoo.XooX..oo.X..X.oooooooo.XoooooXooooooXoo.oooooooooo.ooooooooooooooooo.Xoooooooooooooooooooo..oo.ooooooooo",
".ooXooooooooooooooo.o.oo.XooXooX.ooXoXoooooo.ooXoooXXoooooooooooooooooooooooooooooXoooooooo.oooooooooooooooooooooX..ooX.X.oooooo",
"X.ooooooXoooooooooooo.ooooooooo.XoooooooooooooXXoooXXoXXXoooooooooooooooooooooooooooooooooo.Xoo.oooooooXoooooo.oooo.oo.oX....ooo",
".oo.oooooooo.oooXo.oooXXoXooo.oooXooooooooooo..oooooXooooo.XXooooooooo.ooooooooooooooooo.oo..ooooooooooooooXoooooXooooooo..&o.o.",
".XoXooooooooooooooXooooooooo...ooooooo..o.ooo...oXXooooooo.X.oo.XooooooooooXooooXooooooo.Xo..Xooooooooooo.oooooooo.oooooo+..oooo",
"ooo.Xooo.oooo.oooooooooooooo...XXoXo.oooooXXXo..ooooooooooooXo.ooooXooooooooooX.ooooXooX.XX.ooooooooooooo.ooooo.ooo.ooooo.XooXoo",
"ooXooooo.oooooooXooooooooooXooooXooXXoooooooX.Xoooo.X..oooooooXoooooooooooooooX..oooXooo.Xooooooooooo.oooooooooXoooo.ooo.o.ooooo",
"oooXooooooooo..oooooooooooooo.oooo...XXXXoXooooX.ooXoXXXoo..oooX.oooooooXoooo..ooooooooooooooooooooooXoo..oooooooooo......Xooooo",
"+.oooooooooo..ooooo.ooooooo..ooooo..XoX.oo..X.ooo...X+o.oo.ooo..oooooooooooooo.XoooooooooXo.oXoooooXoooXX.ooooooooo.ooooXXoooooo",
".XooX.ooooooXoo.oXooooooo..o.ooooo.ooooooooooooooo...XXoo..o.o...oXoooooXXoooo..ooooooooooXXoooooooXXXooooo.o.X.o....o..ooooo...",
"Xooo.Xoo.oooooooooX.oXXoooX..o.oooXoXoooXoXXooooooo.Xoooo.oo....ooooooooX.XooXXXXX.ooooX.ooooooXoooo.XXooooXooooXoo...oXoXo.oooo",
"ooXoXXoooooo.ooo.ooo.oooo.o.oooXooXooo...oo..XoXooooXoXoo.XoX.XXooXoooXXooXoXoooX..XooooooXoXooXoo.XoooXoooooo..XoXoooooooo..ooo",
"oo.oooooooo..ooo.oXoXXooo.X.oXooo.ooo.X...X.o.o.o..ooo....oooooooooooooo.Xo.oXXoo.Xoooo.o..ooooooooooXoo.oX..oo..oX.ooooooooX.oo",
".oooooooo.o..ooo..oooXo.oooXoo..ooooooo..XoXoXoo...o..oooooooXXooooX.ooooo.oXoooXoooXooooo..o..XoX.oXXoooooooXXo.oo.oo..oooXo.o.",
"XXo...o...oo.oX..o.ooooooooooX&Xoooooo...oo.XoooooooXX.oXXooXooooo..X..Xo..oo.oo.ooooooooo.oooo.XooXXXoo..oooXooooo.o....X.o.ooo",
"..XXoooXooooo..XoooXooooo...oo.ooooX.ooXoXXoXoooooo.oo.oooXooXooooooo..oooooXoXXoXooooo.XoXooooXooooooooX.ooXooX.o.XooXo...o.ooo",
".o.Xoooo.oo..XX.ooXX.ooooo.ooooooX.oo.oo...oooooooXoX..ooooXoX.oooooo.XoXoo..XoX.X.ooooXX.ooooo.oooo.oooo.XoooooXXoo..Xo..oooo..",
"oo.oXoooooXX.oooooooooooo..oooooooooo.Xoo...ooooo...Xoooooooo.ooo..XX...oooo..Xo.o.oo.ooo.o.X..ooooo.ooXoooXoo...oooo.&Xoooooooo",
"X.oX.oooXooooooooooXoooooo..ooo...ooooo..ooo.oXoo...oooooooXo...o.+..&X.oooXX&XooXo.ooooo..&..oooo.oooXoooooo...XooX...oX.Xoooo.",
"....o.oooooooXXooXooXoooooooXooX..ooo...XXoooooXooo.ooooooooXoX..o..XXoooooooXooo.oo..oXX.....XooX.ooXoXoooooX.XXX.X..oo.Xo..oo.",
".o...o.oo..o.o.oX.oo.XoooXoooo...oo....ooooXooXoX.oooooooooo.....o.oX..oooX.XoXooo..Xo...oo..oX.oooo...oooXoo..X oX.X.oXXoXo...o",
"X.oX.X.oooo.ooooooX.ooooo.ooo..X.XX.....ooX.oo.oooooooooXoooo.o.o.oXoX.oooooooooo..oXoooX.oXoXoo.oooooX.o.ooXX...oXXXoX.Xo..oooo",
"o.o.X....ooo.oooo...ooXXX.XXoooo.ooooXo..XXXooooooXXoooooo.ooooX.ooXXXX..oooXooo..XooooooXXX..oo.o.oXo.X.Xo..XoXoo.oooX.XXoXoooo",
"ooXoooX.o.o.ooooooooXXXooooo.ooX.ooooooo.oooooooooo.ooooooooooo.Xoooooo.oo.Xo..oX.oooooooooXooooooooooooooooXooooo.ooooooooooooo",
"ooooooXXXXoo.ooooooooooooooo.ooooooooXooooooooooooooooooooooooo.oooooooXooXooooo..oooXoooooooooooooXooooooXoooooooo.ooooooooooo."
};
