/* XPM */
static const char *DarkOrangeTextureData[] = {
/* columns rows colors const chars-per-pixel */
"128 128 19 1 ",
"  c #85321F",
". c #8F3C27",
"X c #9A4730",
"o c #9B4730",
"O c #9A4731",
"+ c #9B4731",
"@ c #9A4630",
"# c #994630",
"$ c #9B4831",
"% c #9B4832",
"& c #9C4832",
"* c #9C4932",
"= c #9D4932",
"- c #9C4933",
"; c #9D4933",
": c #9E4933",
"> c #9D4A33",
", c #9E4B34",
"< c #95422D",
/* pixels */
"#<<#XX<<X#==XX==X=X<XXXX#<=XXXX<<X=,==<X,X#<X<<<#X<#X<<<<=<XX<#<<==,X<X#X$<<<#<<<<#XXXXX<XX<=X=<<##XXXX<<<X#<<<<##<##<#<<X#<<<#<",
"=#<<X<<#XX,=#XX=XXXX<##X<XXXX#<<X<X<#<<<<<<X<#XX<#<<<X<#<<<#<<<<XXX$XX<<X$X<<#.<#<<X$<<X<<#X<#X<#X<<X###<<<<<<<#<<<##<<<#X#<#X<<",
"#X<<<<X=<#X<<#X<X#<<XXX#<<<.<<<<<<X<.#X<.XXX#X<.<=X<X<<X<<<<<<X=X<<<<<<<X<<<<X<<<<$X<<X#<#X$<==<<X<<#<XX<X<<#<<#<<<##<<<#<X###<<",
"=#<XX<<#<<#<=#XXXX<X<#X<XXX#<<<<XXX,=<=<<X<<X<<<<#X<<<<<<<<XX<X<XX<<<<<X=<<<XXXXX<X<<X<<$XXX<<XX<X#<X<<<<X<#<<<<##<##<##<##=#<#<",
"#=X#X#X<<X<<X#XX<<<<=XXX<X#<<X,XXXXX<<<<<XXX..#<<<#X<<<<<<<<<<<<X<<X<<<XX<X<#<<<XXX<<<..<#XX<.<#=X#<XXX<<<<<<#<<####<<<X<##X#<<<",
"<X#<<<<X<$#=X<#X<#<XXX<#XXXXX<=X$<XX#X<<XX<<<<#<<XX#<<<<<XXX<<X<X<<<XX<<<<<<<<.<X<X<<X=XX#<X<X<<####<<XX###X<##<<<<<#<<#<#=<<#<<",
"X###X<<<<=X###XX<X<XXXXXXX<<XX<<<<<X<<<XXX<X=<<<<X<<X##X<X#X<<<<<X=<X$<<<<<<#<<<<<X<XXXX=XX###XX<##<<<#<##XX<<<<<<<<.<<#=<=#<###",
"#<XX#<<=<<$<<#X<<#<XXXX##X<<<<<$<<<<<<<<<<XXX<<#<<<<XX#<<X<<XX<<<<<X<<X<<<<<=<X<<<<<$<X<X<X<<XX<<#XX<X#<<<<<<<<<<<<#<<<##X#<<<<<",
"<=<<<X#X<.#X#<<<<<$X$X<<<XXX<XX<X<<<<X<<X<<.<XX<<#<<XX<<<<<XX<.<<<<<<<<<<<<<X<<X<<<<<<X<<<<<X#<<<X#<<<X<XX<<<<#X<<<<<X<<<####<<X",
"XX#<<##<<##X<<<#XX<XXX<#XXXX<X<<X<XX#X<XX<.<$,X<<<<<<<<#<<XX<<<<<X<<<<<<<.<<#<<<<<<<<.<<<<.<<<.<<=X<<<X.<<<##.<<#.<#<<#<###<##<#",
"X#<X<<<<<<#X<<<X#=<<XX,X<<X<XX<<<X<<$XX<XX<<<<XX<<<<<<<<<<<<<XX<<XX<<<<X=<<<X<<<XX<<<<<<<X=X##<XX#$<X<##<<#<#<<<<<###X<<<##X#<<#",
"#X#X#<<<<<#<X<<X<X<<##=XX<X<<<XX<<<X<<<<<<<<<<<<<<<X<XX<<<<<<.XX<<<<<<<<<XX<<<<<<<<<<<<<#<<<<#XXXXX#<<<<<<<<<<#<<#<#<X<<=X#<<<<<",
"#.#<#<<=#<<<XX<<XX<XXX<<XX<XXX<<<X<<<<X<<<<X<<X<<<<<<<XX<#X<<<<<<<<.<<<<X<.<<<<<<<X<XX<<<<<X<<<X<<<=<<.<#<<#<X<<##<<<<<##<#<<<<#",
"X<<<<#<<XX<.X<<X<XXX=<<<<X<<#<<<<X<.<.<<<<<<<<<<<<#<XXXX<<<<<<<<<<<<<<XXX<<<<<<<<<<<XX<XX<XX<<#<<<#<<<<<<X#<<##<##<.X#<#<<#<<<#<",
"X<<<<<<X<X<<.<X<.<XX<<<X<<<<<X<<<<<.<<<<<<<<<X<<.X<<<<<<<<<<<XX<<<<<<<<XX<<<<<<<<<<<<<<X<<<<X<XX##X.<<<<<<<<<<###..##.#<<<<##<<<",
"<<<<<<<XXX<<<X<<X#X<<X<<<<<<X<<<<<<<X<.<<<<<X<<X<<<<#X<<<X<<<<X<<<<<<<<<<<..<.X<<<<<<<<<<<<<<<#<<<<X<.<#<<<<<<.<<<<###<<#.<#<<<<",
"<X<X<<=X<X<<<<=<XX<<X<<<<<<<=X<<X<<<$.<<<<.<<<<<#<<<X<<<<<<<<<$<<<<<<X<X<<<<<<X<<<<<.<<<<<<<<<<<<<<<<X<<<=#.<.<.<<#<<<<<<##<<<..",
"X<.##<###<.<<<XX<<X<<<<<<X<X<<X<<X<#X<<<#<<<<<<<<<<<<<<#<<<<<<X<<<<<<<<X<X<#<<<X<<<<<<.<<<.<#<.<.<<<<<<<<<<<<<.<<<<#<.<#<<<.<#<<",
"<.<<#<<<<<<<<X<<##<<<<<<<<XX<X<<<<<X<.X<<<<<=<XX<<<#$XX<.<X<<<<X<<<<<<<.X<<XX<<X<<X<X<.<<<<<<<<<<<<<X<.<<<<<<<.<<.##.<#.<<.<<#<<",
"<<<<<#<<<##<<##<X<<<<<<<<<<X<<<.<<<<X<<<<<.<<<<<X.XX$<<<<<.<<.<<<X<<<<<<X<XX<<<<<X<<<<<<<<<<<<<<<<<<<<<.<<<<<<..<<<<<<<<<#<<....",
"X#<<<#<#<<<<<<<<<<<X<<.<<X<<<<X<<X<<X<<X<<<.<<<<<<X<X<<<<<<X.<<.<<X<X<<<<XX<<<<<<.<<<<<<<<.<##.<<<<<X#.<<<#<<#<.<<<<<<.<<#<<<<.<",
"X#<<#<#<<<<<<<<.<X<.<<<XX<<X<X#<<<X<#<<<<<<<<<.<<<#<<<...<#X<X<<<<<<<X<.<#<.<<<<<X<<X<<<<<..<<#X<<<.<<<<<..<#<#<.<<<<<.<<<<#<<.<",
"XX<##<<#<<<<<X<<<X<.X#<XX<$X<X<<XX<<<X<<<<<<<<<<<<<<<.<<<<<<X<.<#<<<.<<<<<XX<<.<<<<<X<XX<<.<X<X#<<<<<<<.<.<<<##<<<.<<.<.<..<.<<<",
".<#X#<<<XX<.#<<<<<<<XXX<XX#=<<<<<<<<<<<<X.<.<<X<.<<<<<<#<<<<<.<<<<X<<<X<.#<<X=<<<<.<<<<<<<<..<.<<<<<<<<#<<<<.<<.<<<.<<<<.<#<<<<<",
"X#<#<.<.<<<..<.<<<<<X#X<<<<<<<<<<.<<X<<X<<<<.<<<X<<<<.<<<<<<<<#X.<<<<<X<<<<<<<<<..<<<<<<<<<<<<<<<.<<X<<#X<.<<<<.<<<#<<<#<<#<.<<<",
"#<.#<#X<<<X<X<.<#<<<<<$<.<<<<<X<<<<<<#<<.<<<.<<<<.<<.<<<<<<<<<X<<<X<.X<<<<<<<<<<.<<.<<<<<<<<X<<<<<<##<<##<<<<<.<<<<<<<#<.<<<<<<<",
"#<<X#=#<<<##<<<<XX<<<X<<<<<<<<<<<..<<X#<<<.<.<<<<<<.<<<<.<<<.<<<<<<<<<<#<<<..<<<<<<<X<<<<#<<<<<<#<<#<<<<<<#<<.<<<<<<<<<..#<.<<<<",
"X#<<#<<<<#<<<<<X<<<<<<<<.<<<<<<<X#..<<<<.<<<.<.<<.<<<<<<<<<#<<<<<<<.<<<<<<<<.<..<<<<<<<X<<<<<<<$<.<<<<<<<<<<<.<<<<<#<.<<#<<.##<<",
"X###<#<..#<<<<X<<<<<<<#<<X<<XX<<<<<.<<..<<<.<<<<<<<..<.<<<<<<<X<<X<<<<<<<<<<<<<<<<<<..<<<<<<#<<<<<X<<#<<<<<<<<.<.<<<#<<<<<<<<<.<",
"#<#<#<<<<<.<<.<.<<X<..<<<<<<<<<<<<<.<<.<<<.<<.X<<<.<..<#<<<<<<X<<<<<X<..<<<.<<<..<<.<<<<<<<<<X<<<<#<<X<.<<.<<.<<<.<<<<.<..<<#.<<",
"#<<#<<<<.<<<<<<.<<<<<.<<<<<.<<<<<<<<<<<<<<<<<<<<<<<<<X..<<<<<<<<<<<<X<<<<<<<<<.<<<<.<.<#<<<<<<<<<<<<#<<<<<<<.<<<<<<<.<<<<<<<<..<",
"####<XX<<.<<<<<<.X<<<<X<<<.<<.<.<<..<.<<.<<<<<.<<<<<<<.<....<<<<<<<<<<<<<<.<<X<<<.<<<<<<..<<..<<<<<<<<<<X<<<<<<<<#<<<<<<<<<<...<",
"#<#XX#<X<<<<X<..<<<<.<<<.<<#<<<<<<..<<<<<<<<<<.<..<<..<<<<<..<<<<<<<<<<<<<<<<<#<.<<<<<<..<...<<<<<<#<<<<<X<<<<<<<.<<<<#<<<<<<<<.",
"<#<<<<<<<<<<<<<.<#.<<<<<<<<X<<<<<<<<<<<<<<<<<<.<<..<<<X<<<<<<#<.<<<<<<.<<<..<..<<<<<<<<..<<<<<<<<#=<<<<<<<<<<<.<<<<<<##<<<<<..<.",
".<<<<<<.X<<..<#.<<.<=#<<<.<..<<.X<.X<<<#<<<<<..<<<<<<<<<#<<<.<..<<<<<<<<<<.<<<.<<<<<<<<<<.<<<.<<<<<<<<<<#<<<<.<<.<.<<<<<<<<.<..<",
".<<XX<<.X<<<<<.<<<<<<<<#<<<<.<<.<<<X<.<<<##<.<<<X<.<.<.XX<.<<<<.<<<<<<<.<<.<<<<<<<<<<<<X<<<<<<<.<<<<<<<<<<<<<.<<...<<<<<<....<<.",
"<<.<<.<<..<<<<<...<#X.<<.<#<<<...<<<<<#<<.<<<<<<<.<<.<.<<<..<<<<<<<<<..<<<<<.<.<..<<<<#<<<<#..<<<<.<<.<..<<..<<<<..<...<<<..<<<.",
"<<<<.<<<<.<<<<<.<<......<<.<<<<.<<<<<<.<<<<<<<<<<<<.<<<<<<#<.<<<<<<<<<<.<<.<<<.<..<.##<<<<<<.<<<<<<<<.<<<..<<<<.<<.<.<..<<..<...",
"<#<<<.<#<<<<<<<X.....<<<<<..<<..<<<<<....<<<<<<<<<<<<.<<<<<<<<<...<<<<..<<<.<..<<X<<<.<<<<<<<<<<<<<<<<<<<<...<<<<<<<<<<<<<#<#<.<",
"<#X<<.<#<<<.<<<<...<.<....<<.<<<<<#<XX<<<<<<<#<<.<..<<.<<<<.<X<.<<.<<.<<<<.<..<<<.<<..<<..<<<<<<.#<..<.<<<.<<.<<<.<.<#<<.<<<<<.<",
"<<<<X.<<<<<.<.##<<<<<<<.<..<.<<<.<<..<#<<<<<#<<<<<<<<<.<<.<..<....<#<<<<<<<<<.<<<<<...<<<<#<<<#..#<<<<<.<<<<.....<<<<#..<<<<..<<",
"<<<<#<.<<<<<<.<<<<<<<<<<.<<..<.<<<.<..<.<<<<<<<<<<<<<<<.<<<<.<.<<.<<<<<<<<..<<.<.<<<<<<<<<..<<<<<..<.#..<<#.<<.<<.<..<.<<...<.<.",
"<<<<.<<<.<.<#<..<...<<<.<.<<<<<.<<<<<.<.<<<<<#<<<<<.<<#<<<<<<.<<...<<<<<<.<<<<<<<<<X<<<<<<.<<.<..<<<.<..<<<.<.<<<<.<<<<.<..<<...",
"<...<<<<<..<....<.<.<<.<.<.<<<<<<<.<<<.<<<<<.<<<<<.<<<<<<<<<...<<<<<<<<<...<<<<#<<<<<<<<<<<<<..<<..<.<<<<<.<<..<.<.<..<<.<....<.",
"<#<<<.<<<..<#<.<<<...<<<.<<.<<<<..<<<<<<<<<<<.<<<.<<<<<<<<<<<<<<<X.<..<.<<..<<<<<<<<#<<<...<<<<<<<.<<<<<<<<<...<<<...<#.<<...<<<",
".<.<.<<<<<<<<<<<<<..<.<<..<<.<.<<.<.<<<..<<<<<<<<..<#<..<.<<<.<..<<<..<<<<<..<...<.<<....<..<.<<<.<<<..<.<<....<<.<...<<..<..<<.",
".<.<<<.<<<.<<<.<<..<..<.<..<<<<<<<.<<<.<..<<X<<.<<.<....<<.<..<<<<..<.<<<.<<..<....<<.........<..<<<..<<<..<<...<.#<.<...<..<<<<",
"<#<<.<..<<<....<<<<<<<..<<<<<<<.<..<<...<<<<<<<<<<....<..<<<.<.<....<<..#<<<<<....<<<<..<<.<<<...<<.<.<<<<...<<<<.<..<..<....<<.",
"<#<<<<<...<<##<<<<.....<.<<<<<<<.<<.<<..<<<<.<<..<#<.<..<<......<...<<<<<<.<<<<.<<<<.<<..<.<<.<<..<....<.<...<.<<...<.........<<",
"<#<#<###.<<<<<<<<...<.<.<X..<..<<<.<<#<<<<<<<<<<<<<<<<<<<<<.<.X.<<<..<<<.<.<<<<.<<<<.<<.<<...<<...<...<.<<<.....<<<<#<.<...<..<<",
"<<.<..<<<..<<..<<.<<#<<<<<....<<.<<.<<<<<<...<<<<<<<.<<#<#<<<#...<<<..<<<<<...<<<<<<<<<<.<<....<.<..<..<<<<......<<<#<<....<<.<<",
"<<<<<<.<##<......<<<.<<..<<#<<.<.<<.<...<.<.<.<<<<<<<<..<<...<...<.<<..<<<....<<<<<<<<<..<<.<<.<....<..<.....<.....<<<<<<<<<<...",
"<<<..<<<<.<<.<<<...<<<<..<<<<<.<..<<...<..<<<.<<<<<.<<..<.....<.<<<.<<<..<<<...<<<.<<<X<.<<<.<..<.<<<....<.......<...<.<<<.....<",
"<.<<<<<#<.<#....<<<<<<<<<<.<<<<<....<.<..<<<.<..<<<...<.<<.<<<....<...<<.<<<.<<<<<<.<.<<.<.. ...<.<<<<..<...<<..<<<......<..<<<<",
"<<<<<....<<<<...<<<.<<<X<<<<<<<<<..<..<<<<<.<.<....<<<..<.<<<<..<...<...<.....<.<<......<<<<<....<..<..<#.....<<<........<..<<..",
"<<<<<<<.....<<<<<..<<<<<..<<.<.<<<.<.<<<<<.<<<...<.......<<..<<<<..<<....<....<..........<<<<<.<...<.<.<...<<...<...<<.....<<...",
"<<.<<.<<.<<<.<.<.<<<<<<..<<.<..<.<<<.<<......<........<<<..<.<<<<...<<..<.<<<....<........<<.<<.<..<.<......<..............<....",
"<.<..<<<<.<.<<..<.<<....<.<.<<<<..#<...<.......<.<<<<.......<.<<<<...<..<.<<.<..<..<.<.....<<<......<...<.<.<<<<..<....<<.......",
"#<..<<<<<...<<.....<<.<...<<.<<...<...<<<<<<<..........<..<<.<.<..<..<.<..<<<<.<<.<.<<.......<...<..<<<<<.<...<<......<........<",
"<<<.<#<<<<.<<......<<<<....<<<<<....<.<..<<<<......<<<.....<.<....<...<<<.<<<..<<<...<.<...<.........<<.......<...<..<<.........",
"<.<<<<<<<...<....<......<<.<<<<<..<<........<.....<....<...<<....<<.<<<<<....<.<....<<..<.<<<...<<.<..<.<..<<.... ...<..<<...<..",
"<.<.<<<<<<<<.<<<...<<..<<#<......<.<....<..<...<.<<...............<...<..........<.<<<<..<<...<<..<<...<<..<.<..<..<.<..<#<.....",
"<<<<<<....<<<.#<..<.<<.<<#<<.....<<.<.....<.<<..<.......<......<..<.<.<...<....<.<..........<.......<..<<<.....<.....<<<........",
"<<<<.<<.<.....<..<<<....<<<#<<<...<<..<....<<........<....<.<..<.<<.<..<....<...<<..<...<...<<<.<......<..<<.....<...<<.........",
"<<...<.<#<<.<<<#.<<<<...<<<<<.<<..<..<.<..<........<...........<<........<......<<.......<<..<.<...<..<.....<<..<<..............",
"<#<<#..<#<..<.<<..<<....<..<........<<.<<..<........<<......<..<........<..#.<<.<.........<<<.....<....<....<...<....<..<..<....",
"<<..<..#<<<.....#<....<.<<<<.<<.<...<..<...<.....<<.<...<<...<<<...............<<................<...........<..<......<.<.<..<<",
"<<....<.<.<.<<.......<..<<<..<....<<.........<...<......<.......<...................<..<.<.....<<<...........<.<<<.<...<<.<<<<..",
"<.<#<<..<...<<.......<.#<...<<....#<.........<....<<<..........<.<.......<.......................<<...<....<<.....<....<......<.",
"<.<<<#<.<<<..<<... ..<<<.....<..<.<<.....<..<.<<.....<<....<.....<....<......<.....................<.<<..<.....<<.<<........<...",
"<<<<<<..<..<<.<...........<<<<<.....<<<..<....<<.<<....<<<..<......<..<<.<...<...... ..................<..<...<<<........ ..<...",
"...<<...<<..<.....<.<.<....<......<.<...<.<<....<....<......<......<<.<..<..<....<<.........<.............<..<........<......<<.",
"<.<.<.<.....<......<..<.<........<........<.........<.<....<....<<<<........<..............<.....<...<<...<....<..<..<.<<... ...",
"...<..<..<..............<..<..<<.....<.<.....<.<.<<<..<.<<....<........<......<.<<<<.<<.....<<.<..<....<<<.....<<........... ...",
".<<<<<<.<<.<<..<......<..<<....<...........<<..<<<<.<......<...<.............<......<.......<<....<....<.....<..................",
"<<.<....<<<<<.......<.<.<.<...<<......<....<..<.........<...<<.<..<....................<...<...<<....<..........................",
"#<#..<<..<.<.<..<.......<.....<<<<........<<..........<<<#<.....<.....<...............<<<<..........<<.....<................<...",
".<<.<<..<...<<...<....<<.<<......<........<........<..#..<........<.................<...<<.<.........<<...<..........<<.<<<.<...",
"....<..<<....<......<.<.... ..........................<<..<.............<....<...........<...<..<.......<............<....<.....",
"<.<...<<<....<......<.................................<....<...<<.<.........<<...<.......<...........<...<......................",
"#.<..<.....<.......<.<............<...........<...........................<.....<<.<.<..<................................<.<....",
"<.........<...<...<.......<.....<....<.......<...................<....<.<<<.....................<.<......................<... .<",
"..<..... ....................<.<..<..........<.......<..<....................<<<.................<......<.....<...........<.....",
"....................<....<...<.<.........<....<....<<........<.............................................................. ...",
"............<......<....<....<........... .............<..<...<..................................<<.............................",
"<<..<...................<..<................................................................<.....<<............................",
"..<.<<<.........<<<......<......<... ...........<.<............<....................... <.........<....<................. .. . .",
"<<.....<.......<<<<<....<.......<.............<.<.<<<.<..<................................<............<.<.<............. .....<",
"<#.........<...............<<.<<<.............. ........................ ....................... ..<................. ..........",
"......<....<.<...........................<<....<.................. ..........<<<....<......<....................................",
"<...<<....................... ...............<......<.......................<...........<.......<........ ......................",
"....<....<.......<.......<................................ ............................................. ............... .  ....",
"..............<<.<....<................................................................................   ......................",
"<<...<...............................<.....................................................................................<<.. ",
".......<...........<................. . ........................<.. ...................<....  ................................ .",
"<<<<<..<<.................<........................................................................ ............ ... ......... .",
".<<............................... ..................................... ........... .. ............. ..  ...... ...... .....  .",
"......<........<...................<............. ................... .............. . ............. .. .......  . ......  ... .",
"...............................<.... .............................. .........  ..<....... .......... ........... .  .. .........",
"...<............ .<............................ ......................................... ............  ......  ....... .... ...",
".<....<......................... ............................  .......... ....... ................. . ... ......... ............",
"<<.............. .. .............. ...................... .............  . ...... .. ......<.. ..... ... ..... .................",
"..<............ ............ .... ................................................... ............... .  .........  ...   . ....",
"<........................  ......................... ... ...................... ....................... .... ............. .....",
"<..<.. ............. ........................ ......... .......... ......... ........... .... ...... ......................  ...",
".................................. ......................... ..... .................. ...  ........ .... ....................   ",
"..................................   ................... ....... .............  ..... .... .....  . ........ . . .. ...... ... .",
"............................<<.. ..............<..... .. ........ ............... ..............  ... .......... .. ........  . ",
"...........................................<............ .  ..... ... ... ... .................. ... ... ......... ... .... ....",
"............................  ............. .............  ...... . .<... ..  .... ............ .... ...  ..  ....... . ........",
".. ................. ... ....... ...........  ...... ......... ................. ......... . ..  .........<.... .. .............",
".... ......................<............ ...... ................   .  ..  ... .. . .... ...................  .. .. .. ... .  ...",
"....................... ....................... ....... ......... .. .. ....  .... ... .............................. ..........",
"........... ..........  ......<.......... ..... . .... .... . .............. ......... ..... .....  ............... ...... .....",
"..................................... ... ........... ...<.. .............................. .. ...... ..... .......   ..  ... ..",
"...........<. ................................ ............. .....  .. ............ . .......   ...  . .. ...  .. ......  ......",
"<............ ...................................<<......    .. ..... .. ............ ...... ...... ... .. ..............  ... <",
"...... ...... ... ...... ............ ...  ................... ..... ... ........   ......................   ..  ...............",
"................................ ..... . ...........  . .... .. .......   ..........  ..... .......  .. ..............  .....  .",
"...............<............. .. ... <.....  .... ............... ..... . .... .... .. ................  ... .. ....... ........",
".................... ........ . .. ..<.  ....... .....  .......  .. ......  .......... ........ ........ ........... ...........",
"..... ...........  ................... ......... .... .  . .....  .... .. .. .. ..... .........  .. ...  . . ... . .. . ........",
".................. ...... . ........ .....    ...................... .   . ... .. . ...........  .......  .. ... ....   ........",
"................... .................   .... ..... ..................... ... .... ........... .. . .....  .......  .  ......... ",
"............. .................... ..... ... .. ..........  ............... ..................  ................. ... ...... .. ",
"..................... ......   ..  .. ......  .  ....... ..  ...................... .. . .....  ... ..... .... .....  ......    ",
".........< .. ............ .. .... ...  . ...  .. ..... .   .....   ...............   ... ........    .. . .   . .......   ... .",
"..... ........................  ........   ....  ...  ..........    ..............   ... .......   ..... ....  ............   .."
};
