/* XPM */
static const char *GrayData[] = {
/* columns rows colors const chars-per-pixel */
"64 64 6 1",
"  c #9fb8a1",
". c #99b4b9",
"X c #b4a1b4",
"o c #b8b6a0",
"O c #b3b4b3",
"+ c #a2a0a6",
/* pixels */
"o O+++OoX   O OXX oX+OOXOOOOOo oX.oOoOOooOOoOOOO  o   oXOooOOO.O",
"ooX++XooX XXXooXX +X.oXOOOXXXoXoOXO.oOooXOOoOO+O +++   OO  OXXOO",
"o X++XooX XOOX oXooXXOXOOXOOoOOOoXOOOOoo .O+++OO o o+o .+XOX.oOX",
" Oo+XXooOoXOOXXOOO.X.oOOOooXoO+..+X oX+XX.X+O+OXOooo    X.X.OOOO",
"OXo++XXoO+XX..OXOOOO..O+OXOooX+ooXOOXOXX+XXOXoOO.OOoOo  O.OOX.XX",
"Oo+++OX OoXXOOOoX.OXXXOOoOXXXoooOOXoXX.XXX oXX+.OO+o  OOO+OOOOOX",
"OOO+.Xo O OXOOOOXXOO++ XOXXXXOOoooOoo.O.oX.OO.++O .X.O  OOXXXO.O",
"OO.O.+X XoOXOXXXXOOO..OO+OOXOOXoOOX... OXOO.. . .OooXoO OXO oX..",
".OXOOXoXooOX....OOXoOO+OXo.XXXooOXOO+XXoXXXOo..+.XoX XOXXX o X.O",
"OXOXoX ooO.++.X...+oO+.o.OXXXoooXoo+.XXXXXXOOOXoXOO. oOOO OXX O.",
".OXO+XX.XXX+++.+.+oXOO.OOOXXoXXoooXXXXXXXXX Oo+oOOOXXXOOOooO .OO",
"XXOO XX. X+.+.XXX+oOOXXO+XXXOXoX+XXXXoXXXXX.O OOOoOXoO oooOO.OOO",
"XXX.O oo OO.XOOOOoXOXXO.XO.++OO+o+XXX OOOooOOo.oO X+..+O....OO.o",
"XXXX+XooXO+oOO ..+XXXO.OXoX XXOo++OXXoo+ OO oOXOOoXX OOOOOo..+OX",
"XXXXXOXXXOO.OOoOoO OXXXXOOoOOOXX  ..O +XX.+..XXoo XO +O  +X+XoXo",
"XXXXO.oOXO.ooO.O.OXoO.OOo ...OoX XOoOXOoo+. +.OoooXXo.O  ..OOOOO",
"XXXOOOOX.X+X+o+.XXoO..OO.+XXOoo XXXXoO XXOo++++ooOO+o+O O+OOOOOO",
"OOOO.OX.Xo+XooO+OXXOO...XXOoOoOoOX O+XoXOXOooooOoXo.OXO OOOOoOOX",
" oOOOoO+XO+.+OOo oOO+  XOOOXoOOooX+o .X.O.XXXOXOXXO.OO. +OOOOOOo",
"OOOOoOOOXo++XOoo+o+o+ XOOoOoOOXo+o+.XX++OXo.XXXooO.O+OXO+OOoOOo+",
"OOOOO OXXXO +X oo XOX OoOOoooooOoXoX.OOXXoOOO XXXXoO.OOO+OOoOOX ",
"XO.XXoXXXX.++.+oooooo.XOoo+++ ooooXOXOoO+o oOOXoO o+OOXo.XOo.X+ ",
".oO+XXXOOOOX.O. oo XoXXOo Oooo+ooooX.XOO .o++X..+OooOO++.o OOXOo",
"OXO .OXX.OoXX.OOooo ooXOoOX.OOo+O oXXXoOOoX.X.oXOXXO.OO OoXXo+.o",
"oX+X+XX+OoXooOOO  OoooXooOX.X..Oo+oOXOXOOo.OO..XO+oOOo.OOXXOoX++",
"o+X+. o + OXOoXOO oX+XoOXoXO++X.XOXX+.oOXOOOXX..oO.O+.XXXoo+XOXX",
".  XO OXO  OOXOoOOo O+oOoXOO+XX+O.XX.X.oXXo.XO.+.XoX. OX.+OOXoXX",
"o.+ OOO +. X.OOOOoO  OoX++OO.OOXXO..+XXXXOO.+X.+. Oo.X.+XOXoOXOO",
"OoOXXXOo.XOOXX...XXXO OooX OXOooXXOXXXO.XooO+o.X.OOXX..+++ OX++X",
"OOoOXXo.+.Oo.X+..X XXO +OOOXoOOO O..XXoXXoO.o Oo OoXX.o+O OX++XO",
"XXX+.X++.OOOo O  O X XOo OX.X.oO.OOXX+O+OO.+oOOoo.OXoooXooOX XXO",
"OOX+++X.OOoO.oO.OOOOo .XXXoX. XooO+ oo+XOOOX OOOoO. o. XOOO.+XOO",
"oXO.OX+.XO.oXOO  OO.OO.o++ .ooXXX XO+ .OooOoo OXOOOO ooOOO...XOO",
"OOoX..X.OX.  OoOXXO oO. OOoO+.O ... O OXOOXo oooOOO.+OOXXX...XOO",
".O+XoOO+oXX  .OOXOOXXooXooX+OXo+++.+XOO+XO XOOOooOOOOOXX.X+ +OOO",
"O..+Xo+o O. OOOXoooOOOOoooX..X....XX...O.oOOOOOoooOoOXXXXO++XXO.",
" O +.++X ..+ OOOooOoooOooXX.X OXOXO..XO+OOOoOOOOOoOOOXOXX+ +XO.X",
"oOo .+..XXXXOOOXXOOOoXXO+X+oXOoo+oXoX. ooooXOOOOOOOOooOOXXX.OoXX",
"OoOOooo ++ XX.oOXX XOoX++X+XXOo+XoooXXXo++oXoOOOOOoOoo+XO OOOOX.",
" oO..ooooo+OoOX++O+  .oo+XO+XXooooo OXX.++XXoOOOXXX+XOX.O  .....",
"ooO.....+ oO XoXXo++ + O +OOooOoXOOXXXXX++ooooOOOOOoo.X.OOooOXXO",
"XOO.OOX+OO+ OX++o.  o++ OOO OoO O.OoXX++ +OOooOOooOOX.X.+. O.OOO",
"XoO.OOOO O..OOOXXXX+.  ++  XXoXOX.+.XoOo++O.oo OoOXXX...ooX. ++X",
"XXOOO OOoooooo.o. XOX    +O+o.XO.+...XX++XXooOOOoOXXOO+++XXooOXo",
"XooOOXoOXooooX+XOXOOO+++ oXX..OoXXX...+.X+XooXo++oXXXOXO OOooooo",
"+OooOOOOXXXOOXOooOXXOXo.XXX.O++XXXXX..+.XXXXoO+XX+OXXXOOO.ooXXX.",
"O+ooo OoOX+XXXooOO.OO.XXXOoX XOOOoOX.+.+++.o+ X+OX+XXXXOOOooo...",
"oo oo.oOOoOOoooX OOoO+XXX O OO ooOO.XX.+..OXXOX. oXXOXXoOOXOOO..",
"XoO.O oXX OXooOXOOOOOOOOO.+.OoX +ooXXXXXXoO OOoXXOoO+OXOOoOooO..",
"O.OOOOOXXXooOOOOOO.OOOOOOoO  OXo+ooX+XXOO+OO+.OXXo.O.+XOO.OXoO..",
"+OOXOooOXoo +.OOOOXX.OO... O ...X+.++XOO.O.OOo.ooX+.OO.XO oXOO..",
"O+oooOXOoo ..OXOOOXOOOO  ooOO+oXoXX..O OoO.OO Oo O.+XoXXOXo XOOO",
"ooO oXXX  OXXXOOOOXX.OO.OOOOO +oooX.XOOoXO.Xo O +o.OOXO.OoOOO.OO",
"O.+OXooOXOOOOOOOOO.O.XO. O.OXX+ O +OooOoOO.OO.OOoXXXOO XO+.XXXXO",
"OoXXOXXXo  OXX.XOO+O.OO. O.XXXOXO+XOOoOXXOOOO.OOoo oO XO+oXOOOX.",
"OOOOOOOOOXX.X.+OOOOO.XO ..XXXXX+OXXXXoXoXXo.+XOOoo +OO+O+O. oO .",
"OOOXX .oOoXXXXXXXXOooo.O..X..XXOXOXOoXOoOOoO O .oo oOOOXoOOOX oX",
"O.XXOOooOXXXXXXXXoO OX.O.X..OOOX.O+XO+O.oooXOO.OoX oOOXOOXX+oOoX",
"OoOOXOO OXOOXXoXOOo O+oo+O+OOXOO++OXoooOXX  OOOOOooo.OXXXX.OXXO.",
"OOOOXOOXOoO++XXXXX.XX.oO.. OXXXXXOXX+.oOO.XXXOO. oo OO+XooOXXXXo",
"OOOOOOOX.OOX..++..OOXXX  XXooXXXX.X.o.XX.OOXOOXO oXooO+OXXXXOXo+",
"OOOOOXOO.XOX..OO+OOXX++XO+++OXXOXX.oOX.oO..OOXoOO+O  O XOOOXoo+O",
"XOXOOOXXXXOXX++OOooOOO X.Oo.oXXXX.oOXXOo  .X.X.OOXooooOO+OOOX+oO",
"XXXXXO.X.OOX.+XoooOO...XXOOOoXXXOoOXXo+   +XXX OXXooOOOOXoXXoOOO"
};
