/* XPM */
static const char * smokeData[] = {
"120 120 5 1",
" 	c None",
".	c #DFCAB9",
"+	c #E6D2BC",
"@	c #DECEBA",
"#	c #E6D6BE",
"@.@.@..@..@.@.@@@@@@@@@@+@+@+@+@@+@@+@++++++#++#++#++++@+@@.@.@..@..@.@.@.@@@@@@@@@@@.@.@..@.@.@@++++++#++++++@+@@@@.@.@",
".@...@...@.@.@....+.+.@+@+@+@+@++@@+@+@@@@+@@+@+@@+@@@@@@+.@.@....@....@.@...+.+.+..+.+......+.+.@@+@@+@@+@@@@@@+..+@.@.",
"+..+...@.....+.+@@.@@@@.@@@+@+@@@@@@@@@+@@@#@++@+++#@++@@+@.+.@.+...@..+..+@@.@@@.@.@.@..@.@..@.@@@+@++@+++@++@@+@.+@.+@",
".@...@...+..@..@@.@@@@+@++@+@@@+++++@++@+@++#@++++@+@+@+@.@@.+.....+....@.@@.@.@.@@@.@..@...@..@+@@@+@@+@@@+@@+@.@@.@+..",
"@..@...@...@.@.@.@+.+@+@@@+@+@@@@@@+@@++@++@@+@+@+++@@@+@@+.@.@.@.@..@.@@@.@@@@.+@.@...+......@..@++@+++@++@+@@.@@.@@.@@",
"@..@+..@.@.@.@@.@@@@.@@@+@+@++++++@@++@@+@@+#@+@+@++@+@@+@@.@..@@...@@@@@.@.@@@@@.@@@@.......@@@+@@@++.++.+@@@+@+.@@.@+.",
"@.@..+.@@..@.@.@.@.+@.+@@+@+.+@@+@++.@++++@++++++#@++@+@++.@@.@.@.@@..@..@.+@+@.@@.@@.@..........@+@@@@+@@@@+@.@.@..@..@",
"@@.@.....@..@.@.@@.@++@+@@+@++@+@++@+++@+++++@@+@@@+@+@@@.@+@@@..@@@.@..@.@.+.@@@.@.@...+....@.@@+@@+@+@++@+@@+@.+.@+.@+",
"@....@.@@.@.+.+.+.@@@@@++@+@+++++++++.+@@+@#@++++#@++++@@@@.@@.@.@..@.@.@@@@@@+.+@.@...........+.@++@+@+@+@@+@@@@.@..@..",
".@.@....@..@.@.@.@@.++@@@++@+@++@++@@++#++@@+@+@#++.+@@++++@+@.+..@..@.++.@.+@@+.@..+..........@@@@@+@.++@@+.+@@@.+.@@@@",
"@.@.@.@.@.@.@@.@+.+@@+@@+++@++#+@++#@++++++++#+@@#+++#@@@@@.@.@.@.@.+.@..+@@@+@@+.@@.............@+@@+@@@+@@@@.@.@..@...",
"+.+..@.@..+.@.@+.+@@@@+.+@++++@+#+++#++@+@#+@@@#+@@@+@@+@+@+@@.@.+..@.@.@@..@.@.@.+...........@.@@@++@+@+@+@.@.+.@.@.@.@",
"@..@.@..+@.@.+@.@@++@++@++@+#++@#++@@#+#++@+#++@+#+++#++@+@+@.++@.+@.+.@@.++@+.+@@..+..........@.@+.@@+@@@+.+.@..@@.@.+.",
"@@.+..@..@.@@@@@@+@+@+@+@++#@#+#@++#+#@#@+#+@+++++++@@+@+@@@++.@.@.@.@...+.@.@@.@.@.............@@+++@@@+@@@@.@+..@.@+.@",
"..@.++.@@.++@.++@@@@@@+@@+@#@@#+#@#@++#+##@#+@++@+++#++@@+@@@@@@@.+.@.@+@.@@+.@+@.@...........+.@.@+@++@+@+@.@..@.@.@.@.",
"@@@.@..@.@@@.@@@@@+++.+++++++#@++#+#+++@+@+#@++@++@++++++@++@@+.+.@.@.@..@.+.@+...@............+.@@@@+@@@+@.@@.@.@.@..+@",
"@..@.@@.@@.+++@+@+@@+@+.+@++#+++@++##+##++++#@++++@+++@+@+@++@.@@@.@.+.@@.@.@@.+@+..............@.+@+@+@@+.@+.@..@..@...",
"@@.@.@.@.+@@@@+@+@+@+@+@@+@+@#@##++@##@#++#++++++++++@++#+@@@@@@.@.@.@..@.@@@@@@.@.@...........@.+@@@+@+@@+.@.+@..@..@+.",
"..@.+.@+@@+@@+@+@+@+@+@@++++@+#+@#+#@##+##@+++++@+@++++@@@@++++++@@.@.@@.@..++.+@.@.............@.+++.++@@++@@..+@.@@.+@",
"@@@.@@@@@+@++@@.+@+.+@+++@#@#@@@#+++##@#@++#+++++@+++++++++@@@@@.@@+@.+@.+@@@.@@.@...............@..@+@@++@.@..+@..+@@..",
"@+.@+.++@@@@+++@@+@+@+@+#@++++##@#+@#++##@#@#@+@++@++.+@+@@+@@@.@@.@..@.@....@+.@.+............@.+.@@@@+@@.++@@..@@.@.@@",
"@@@.@@@.+@+@@+@++++@+@#@+@@+++@@#+#+++#@##++++#@@++@+@+#@@+@++@@@+.@.@..@.@@@.@+.@..+...........+.@+++@@.+@.@@@@+.@.@@@+",
"@.@@@.@@+@@+@+@@@+@++++.#++@@+#@@+@#+#+##+#+@+++@@@@++@++@+@@++@@@@@.@.+.@...@.@+.@..............@@.@@+@@@@@@@@.@@.+@.@@",
"+@.+.@@@@@+@+@+++++@@+@#+@+@++++#+#@###+@#@#@+@@@+++@@++@+@@+@.@@.@.@.@.@..@@+@+.@.+............@..@+.@.@@+.@@@@+.@@@@@.",
"@.@@@.+@++@+@+@+.++++@@++@#+@+@#@+#@+@#+++#++++@+@+@++.@+++@@@+@.@+.@+..+.@+.@.@@.@..+...........@@@.@+@+.+@.+@@@@@+.+@@",
"@+.+.+@+@@@@+.++#@@+++++@@++@+@@+++#+#+@#+@+++@+.+.+@@+@@@@++@@+@.@@..@+.+.@.+.@+.@.@..............@+@.+@@.+@.@.+++@@@++",
"@.@@@@.@@@@+@+@@++++@+++#@++++@#+@#@#@##+@+#+@+@+@@+@+@@++@@+@@+.@+.@@..@.@.@@+.@@.@..............@..@@@.@@.@++@@@.@@.@@",
"@@.+.+@@+++@+@+@+@+@++@+@#@+@@+@@+@+@##+##++@+@@@@+@@@@+@@@@@+.@+@.@@.@@.+@@.@.@+.@..+...........@..+.@.@@.@.@.@@+@+++@+",
"@+@.@@+@@@@+@+@+@@++@@+++++++#@+#+###+@#@#@+@+@+@@+@+@+@@+@@@@@@@.+@.@..@.@@@+@.+@+.@..............@.+.@.@@@+.++@@@@@@@.",
"@@.@@.@++@@.+@+@+@@+#++@+@#@@@+@@@@@#@#@#@#+@+@+@+.@@@@+@@+.@++@+@.+@.@@.@.+..@@@+.+.+.+..........@.@.@.+.@@.@@@@@+@@+++",
"@@@.+@.@@+@+@++@+@@+@#+@#@+#+@++@#+#+#+####++++@+.+@.+.@.@++.@+.@+@+.+@.@@.@@+.@@.@@@.@..............+.@.@+@@+.++@@+@@@@",
".@.+.@@@.+@.+@@@++#@++@#@++++++++@@@#+##+++#@@+@@+.@@@@+@+@@@@@@+@@@@@.@.@@+.@@@+@@@..+...........@.@..@.@...@@@@++@+@++",
"@+@@+.+@+@+@+@@+@@@@++@++.+@+.@+@+++@+@@++@+++@+@.+@@+@@@@.@+@.@@.+@@+@+@.@.@++@.+@.@@..............@.++.@@@@+@+.@@@@@@@",
"@.@.@@@.@@@+@+@+@+++@++@++@@@++@+@++#+#++##+@+@@@@@+.@+.@@@+.++++@@@+@@@@@@@.@.@@@@+.@.+.............@.....@..+@@@+@+@++",
".@@@.@.@+.@.@+@++.+@@+++@#+@+@++++@@@#@##@+@+@++@@+@+@@+.+@@@@@@++@@.@@@+.@.@@++@+.@@.@..+........@.@..@@.+.@@.@+@+@+@@@",
"@.@.@@@.@.@@+.@@@+@++@+@+++++@@+@@#+#@#@#+##+@+@+@@.+@+@+@@@@@@@+@+@+@.@.@+@.@.@.@@+.@@.+.............@..+..@.@+@.@@@@++",
"+@@+.@.@@@+.@@+@@@++@@++@@@@+@@+@@@@#@#@#@@@++@+@@+@@@@@@+++++@@@@+@@+@@+@.@+.@+@@@@@..@............@..@.@.+.+.@.+++@@@@",
"@@+.++@...@@.+@+@+@@+++@++@+@+@@+++++#@#@###@+@+++@+@+@++@@@@@+@+@@++@+@.@+.@@+@+.+@+@@.@............@.@.@.@.@@.+@@@++@+",
".@@@...@@@..@@.+@+.+.@@++@+@+@@+@@@@++#+#@++++@@+@+@+@+@@@+@+@+@+@+@@@+@+.@@@.@.@@+.@.@.@..............@...@...@@@.@@+@+",
"@@..@+++..+@.+.@@@+@+@+@@+@@+++@@+@@++@+@+++@+@@.+@@+@+@++@+@+@@@+@@+@@@@@+.@@.@.@@+.+@.@.................@..+.+@.@@.@.@",
"+@@@.....@..@.@+++@+@+++.@+@@@@@+++@@+#+++#++@+++@+@++@+@@+@+@++@@+@@+++@@.+..+++.@@@.@...+...........@.@..@.@@..++.+@@@",
"@..+@.@.@.@.@.@.@@+@+.+@++@+@@++@@@+@++@#@@++#@+.++@++@++@+@+@+@+@@++@@.@.+.++.@@@+@@+.@@...................@..++.@@@.@+",
".@@..@.@..@..@.@@@@@+@+++.@@+@@@@+@@+@#++#+++@+@+@++@+.++@++@+.+@+@@+@@++@@@.@+.+@.+.@+..@................@..@.@.@@.@+.@",
"@@..@..+.@.@.@+.@+@+@@@@@++@+@@+@+++++++@+@+@+@++@+@@+++++@@+@+@+@++@+@@@@@.@+@@@@@+@+.@@.@.............@...+..@@.+@.@.@",
"@..@.+....+.+..@+@+++@+@+@@@@++@@@@@@@#++#+@++@@++@++@++@+++@+@@+@@@@+@+.+++@@.+@+@@@..@.+................@..@...@..@.+.",
"@@.@...@...@.@@.@@@@.+++@++@+.+@+@+@++@+@+++@+@@.+@++#@+@@+@@++@@+@+.@.@@@@@+@+@.@+.+@+@....+..........+...@..+@..@.@.@.",
"@.+..@...@.....@.+@++@.+++@@@+.@@+@++++@+@+@+@++@+@+.+++++@+@@+@@++@++.++.@.@@@@+.@@....@................@...@.@.+.@.@.@",
"@@..@...@...@.@.@@+@+@+.@@@+@.++++@+@+@++@+@@++@#.++#@+@++@+++@@@@@+@.@@@@@+.+.@@@@+++++.+@.+..............@.@..@.@@..@.",
"@..@..@...@..+.@+..@@+@+@++@+@@.@+.+@++@@+++@+@+@+@++@+@++.+.@@+.@.@+@+@.+@+@+@+@+..@.@.@.@..........@.+.@..@.+.@.@.@.+.",
".@.....@...@..@.@@+@+@+@+.+@@.+.+@+@+@@++@+.+@+@+.+@++++@@+@@+.@@+@+.+.@@.@@..+@.@@+++.@+.@.......@.......+..@.@..+.@@.@",
".@.@.+......@..@.@+@+@@++@+@+@@@@@@+@+++@+@+.@@+@+.+@@+@++@+@+@+@.@.@@@@+@.+.@.++@.@@@+..+.+.+@.........@..@.@@.@@.@@@.@",
"@@@...........@.@.@+@@+@@@@+.+@+@@+@+.+@@+@@+@@@+@++++@++@+@@@.@..+@.+.@..@.@+@@.@+@@@..@@.@........@..@..@@.@.@@.@.@@.+",
"@..@.+........@.@+@@++@++@@@+@+.++@+@@@+@@+@++@+@@+@@++.@+@@+.@.@@..@@..+@.@@..+@+@+@++@.@@.@...+..@..@@.@.@.@.@.@@@.@.@",
"@+..@...........@.@+@@@@+@+@@.@+@.+@+@+@+@@+@@@++@+.+.++@+++.+.@..@...@@@@@.+.@@+.+..@@...+..+@..+...@@.@..@@.@.@@+.@+@@",
"..+@.@.........+.@.@@@+@+@+.@@@@+@@@++@+@+@+..+.@@++@++@@+@@@+@.@.+@@+@@@@@@@@.+@.++.+++@...+.@@...+....@.+..+.@@@@+@@++",
"@@@......+...+.@.@+@++@@+@+@+@+@.+@+@@@@+@@.@@.+@+@@+.+++@+.@...@...@.@..@.+@@+@@@+.++@@+@@@.@...@...@.@@.@.@.@+@.+@@+.@",
"+..@@..@.......@.@.@+@+@@+@@.@..@@@@++.+@.+@+.@+@@++@+@+.@+@.+.+...@...@..@.@.@.+@@+@@+..+@.@.@.+..@....@.@.@+.+@@+@@@@@",
"@@@..@......@..@@@@.+@+.+.@+@++@@@++@@+.@@..@@.@.@+@+.+@++.+@.@..@.......@...@@++.@@@+@+@@+.+.@..@...@..@.@@.@+@@@@+++++",
".@.+@........@....+@@@@+.+..@.+.+.@.@.@@+@+@.+.@+@@+@@++@++@.@.@.........+@@.+.@@++@+@+@+@..+@.@@@.@..@.@.+.@.@.+@@@@@@@",
"@+.@..+........+@@..++.@@@@@@@.@@.@@+@@+@...@.@@..++@+@@@@@@@@.........@...@@.+@.@.+@+@+@+@+@@@@@..@.....@@.+@++@@+@@@++",
"@@@..@..+..+.@@..@+@.@++.+.+..+.@+.@.@+..+@@.@.+@++.+.+++@@@................@@@+@+@.@.@+@+@+@.+.@@.@.@.+@..@..@++@++@@@@",
"@.@+..@...@....+@@@+@+@@@.@.@@.@.@@.@.@@@..+.+..@@@+@+@+.+.@+.............@@..@+@++@+@+++@+@++@@.+..@.+..@.@@@.@@@@@++++",
".@@.@...+..@..@@.+.@@.@+.+@@@.@.@.+@+@.@.@@.@.@@.+@@@+@++++.@+@............+.@@@+@@+++.+@@@@@+@+.+@.+..+@.+..@.+.++@@@@+",
"@+.@.@.@....@@@.@.+++++@@.@..@.@.@.+.+@@.+.@..@..@.++@@@@+@@@................@.+@++++@+++++@+@+@@@..@.@..@..@+@@@@@+@++@",
"@.@.@....@.+...++@@@@@@+.+@.@.@.@.@@@.@+.@..@.+.@@+@@+++@@.@.@..............@.@.@+@@++@@@.+@+@+.+.@@.@.+..@+..@++@@+@@@+",
"@@..+...@.@.@@+.@+.++@.@@.+@.+.@.@.@.+.@@.@..@.@..@@@@@@@+@+................@.@+@@++@@++++@++.@@@+@+.@@.@@..@+..@+@@+@+@",
"@.@@..@....+..@@@+@@++@++@+.@.++@.@.@@@.@.@.+..@.@.@@+@.@........+...+.......+.@+@@+++@++@.+@++.++@.@..@...@@.@@@@+@+@@+",
"+.+..@...+@.@@+++@@+@@+@@.@.@.@..@+@@.@.@..+....@.@@+.+++++.+..............+@@@++.+@+++++++@+@+@@@@@++@+.@.+..+.+.@.@@+@",
"@@..@..@.@.@+.@@+@@@++.@.@+.+@.@@..@.+.+.@...@.@..@.@@@@@.@@.................@.@+.++++@+++@+@.++@+@@.@@.@.@.+@.@+@+@@.@@",
"@.@...+.@.@@@@+@+@+++@++@+@@.@..+@.++.@@.+@.@....+.@.+..@+.+................@@@++++@@++@@@+@+@+@+@@+@..+@@.@.@@.@.@++@.+",
"@.@.@....@.@.@@+++.@@@+@@@.@.@+.@@.@.@@.@....@.@..@.@+@+@@.@+................+.@@@++@++++@++@+@+@+@@@+@@@.+..+.@+@..@.@@",
".@......@.@@+@+@.+++++++@++@@..@..@..+...@.@.@...@..@.@@@++...+............@@@@+++@+@+++@@@@+@+@+@+@+@.@.@.@@..@..@@.@@.",
"+..@.@.@..+.++@+@+.+.@+@@@+@@@@.+@.@@.@@....@..@..@..+@+.@@+...................+@+@+@@@++++@+@+@+@@@@@++.@.+.@+.@@.+@..@",
"..+....+.@.@@@+@+@++++@+@@@@+.@+.@+.@+..@..........@@.@@+@@....+...........@+@+@+@+@++@@@@@+@@@@@++@++@.@.@.@.@.+.@.+@+.",
"@..@.@...@@.@+@++@+@@+@+@+@@.+@.@..@.+.@.@.@....@@...@+@+.++@................@@@@@+@@@+@+@+@++@+@+@@@@@+@.@@.@@.+@.@@.+@",
".......@+.+@@@.++#@#++@@++@+@@@.+.@.@..@...........@@.@.@.@@++..+.........@@..@@++@+@+@@+@@+@@+@@@++++.@+@..@...@..+.@..",
"@..+.@...@.+++++.++++++@@+@.+.@@.@.@.@@@.@...........@.++@+.+@+.......+....+@+@.+@.+@@..+@@@@+@+@+@+@+@@.+@+.@@@.@@..@.@",
"......+@.@@@.+@+++@++++++@@+@+@.@.@..@..............@@@@@@+@+...+.+.....+@@..@@+@@+@+++.@.@+@+@++@+@@@+@+.@.+..@.@.@..@.",
"..@.@...@.@+@@@@+##@++@+@+@@@+.@@+.@@@.+......+........+@.@.@+@...........@@@.@@+@+@@@@+@+..@@@+@+@+@@+@@+.@.@.@.@.@.@@@",
"+....@.@.@+@@+++++@+#@#@+@++@@@+@@.@.@..............@@+@+@+@+@++.+..+.........@+.@.+.+@@..@@+@+@@+@@++@@@@@.@.+@@@..@@@.",
".@.@..@.+@.+++++@#++++@+@+@+@+@.@@.@...+..............@.+@++@+@@@.@...+...+@+..@+@@.@..+.@.+.@@+@+@+@++++.@+.@.+..@.@...",
"..@@.@.+.@+.@@@+++++++#+++@@+@@@@@+.@@.............@.@@+@+@@+@++.+..@@..@@.@.@@+.+.+@@.@.+.@@@++@++@@@@@@@.@@.@.@..+..+.",
".....@..+@++@+@#@++@++++@@+@++@@+@.+..@........+.......@+@++@.@+@@+@..@...@.@..@@.@.@..@..@.+.@@+.+@+@@@++@.@@.+@.@.@..@",
".+.@.@.@@@@@+@#++++#+@#@++@@@@.@.@.@.@..............@.@+@++@+@+.@@@....@..@.@@@@.@.+..@.@.@.@.+@@+@+@++@@@+@..@..@......",
"@...@@.@.+@+++@++#@+#@#++@+@+@+@@@@..@..........+....+.++@@+@+.+..@......@..+...@.@.@.@..+.@.@@@+@+@+@++@.+.@@..@...@..@",
"...+.@@+@+.+++@+#@#+@#.+++@+@+@@+.++....+..........@..@@@.+@+@@+@+@@+....@.@@.@.@.@..@...@.@@+@@+@@+@@@@+@.+.@.@@.@..@..",
"@...@...@@+.@+@+++++#++#@++@@@+.@@..@+...............@.@+@.++@++@.+.@@..+.@@@@..+.@.+.@......@.+@+@@+@@@@+@@+.+.@.......",
"..@...@@++@++#++@++++@+@++@+@+@@@.@@+................@+.@+@+@+@@+@@...@@@.....@@@.@@....@.@@@.+@@+@+@++@.@.@.@.@...@.+..",
"...+@.+@+@@@@@@+#@++@+++@@+@++@+@@.@.@...............@@++@.@+@+.@.+@@..@.@.+@@.@.@...@...+...@@.+@+@@@++@@@@.@...@......",
".....@..@++@++#@+++@+++@#@@+@@@@+.+...++............@+.@.+@+.+@+@@@.@@+@.@@@.@.@..+...@...@.@.@.+@@+@@@@++@@@@.+..@.@...",
"..@...@+@@+++@+@+#++@@+@+@+@@+@@.@@.+@..............@@@++@++@++@.++@...@+@.+..+@.@..+...@.@.@.+.+@+@+@@.@@@@..@.+.......",
"....+.@.+@+@@++#@@@@+#@+@+@@+@+@@.@.@..+............@.@@@@++@.@++@...@.@..@.@@..@..@.+.@...+.@.@@.+@@++@++.@+@@..+.@....",
".....@.@@@@@+.+@++++.@+@+@@@+@+.@@.@..................++@+@++@+@@.+@@.+.@.+@.@+@.@@......@.@@@@@+@@+.@.@@.@@...@....@...",
"...@..@.@+++@+.++@.++@@+@@+@.@.@@+@................@@@.++@+@++@+@@.+@@.+.@.@@..+..@..@.@...+....@..@@@@@@+.@@@..@+...@.@",
".....@.+.@@@@++.+@+@+@+@+@+@+.@@@@@+.+................@@+@+@+@.++@@@..@@+@.@+@@.@@.......@..@.@@.+@.++@.@++.+.@@..++....",
"...@..@.@.++@@@+@@+@@@@@@@..@@@@.@.@...+............@..+@.@.@@+@..+.@@.+.@@+@@@.@..+..@.@...+.+.@@+@@.++@@@+.@@..@....+.",
"..@..@.@+.@+@+@@+@@+@+..+.@@@.@.@.@.@............+...@@@+@+@++@@+@@+@@@@@+..++.@.@@@.+.@..@..@..@..+.@@@@.@@@.@.@.@.@..@",
"....@.@.@.+@+@@@+@+@.@@@.@..@.+.@@+....+...........@@@.@+@++@@++@.@..@+@+@+@.@+@+..@...@...@..@.+@.@@.+.+@@@+@.@@@.+....",
"..@....@.@@.@+@+@+.+@.+.@.+@.@@.@.@@+................++@@+@@@+@@+@+@.+@@+@@@.+@@.@...@...@.....@..@.+@+@@@+@@@@.@.@..@.@",
".@...@.+@.+@+.@.@.@@.@..@.@@.@.@.@.................@.@.@+@+@+@+.@@.@+.@+@@++@.@+.@@+...@...@.@..@.@.@..+++.+@++@+.@.@...",
"+..@.@...@@.@+@@.+.@.@.+.@.@@.@.@.+..................@@+@.+@@@+@++.@@@.+++@++@+@@...@....@..@..@.@.@.@@@@.@+@@@.@.@.+.+.",
"..+..+.@@.+@+.@.@.@..+.@+...@@+.@+...+.............@@.@@+@@+@@.@.@..++.@@.+@+.@++.@.@.@...@.@...@@.@.@@.+@@@+@+@+@@@.@..",
"+....@.@.@...+.@.@+.@.@.@@..+..@.@.+...+..........+..@..@+.@@@+@+@.@@@+@@+@@+@@.@..@.+..@.....+@..@.@.@@@+@@@@@@+@.@@..@",
"..+...@.@.@@@.@.@..@.@....@.@.@@.@...............@..+@@@@@@+@+@@..@@@@+@+@@+@@++@+..@..@..@..@...@@@+++@+@+++@+@@.@@.@..",
"....@+..@.@..+.@.@.....@...@.@..+@@..........+..+.@@@.++@.@@.@@+@@.+@.+@+++@++@@.+.......@..@..@@.@.@.+@+@@@+@+@+++.@..@",
"@.@...@..@.@.@..@.+.@..@+@+..@@.@.....+.+......@@@@@.@@@.@+@+@.@@+@.@+@@+@.@+.@+.@.@@.+....@..@...@.@@@+@+@+@+@+@@.@.@..",
"...@..@.@.@..@.+...@..@...@.@..@@.++.....+...+....++@@+@+@@@@..+@@@++@+@@+@.+@+@+.@@.@.@.@..@....+.@.+@@+@@+@@++@@@@..+.",
".+.....@.@..@.@..@...@..@.@+@@+.@.@........+...@@@@@.+@@@+.+.@@@.@@.@@@+++@+@+.+@....@..+.......@.@+@@@+@+@+@+@@@+.+.@..",
"@..@.+...+.@....@..@......@.@.@..@....+..+.+@+.+.@+.+@@+@@@@@.@.@@.@@+@@@@+@+@@@.+@@.+.@...@.@.@.@.+@+@+++@+@@@+@.@.+..@",
"......+..@..+.@.....@..@.@..@.......+.....@.@.+@@+@+.@@@+@+..@@+@@@@.@@++@@+@+..@@.@..+.@.+....@.@..+@@.+@@++@+@++@.@.@.",
".+..@..+..+.....@.@@..@....@.@@+@@.....+..@.@@+@+@+@+@+@@.+@+.@..@@.+@.@@@+@.++@+@.+@.@.@..@...@@.@@.++@@++.+@@+@@.+.@..",
"..@..@.......@.@.....@...@.@.@@....+..@..@..+.@.@+@+@+..@@@@.@.@@+@@@@@@+@+@.@.+@.@...+..@.....@.@.@@+@+++@+++@@@@+.@@.@",
"@...@..@.@.@.....@.....@@.....@@@+.@@...+@@@++@+.+@@+@+@.@.@@.@...@.@+@+.@@@@@@..@.@.@.@.@..+.+.@.+@+@@@+@++.++@+@.@.@..",
"..+........@@.@.+.@@+....@@+.@.@..@..@.@@@+@+@++@.+@@++@+@@+.@+@@..@.@@.@+@@+.@+.@@.@..+..@....@.@@.@++.+.+@+@@@+.@.@@.@",
"@....@.@.@.@.@.@@.@.@@..+.@@@...@.@.+.@@..@.++@@+++.@@@.@.@.@...@+..@..@.@@.@@.@.+.....@.+...@..@.@@+.+@++@@+@+@+@@@.+..",
"...@..@...@@..@..@....@@..@..@.@.@@.@..+@++@@@+++@+@+@+.+...@.@.@..........@@+@.@.+@.+.@@..@...+@@.+@+@++@++@+@@@+..@.@.",
"@.@..+..@...@.@.+.@+@@+.@+.@+.@+@.+.@.@.@.++@.+++++++@+@@@.......@+@@+@.@.+.@@@.@.@.@@.@..@..@..@.+@+@+@@++@+@@@@+.@.@..",
"..@....@..@..@..@.@.@@@@.@.@.@..@..@....@+@+++@@@@+.@+@@+@@+.+.@@..@....@@....@..@..@.........@.+.@@+.++.+@+@+++.@.@.@.@",
".@.@.@..@...@@.+.@....@@.@.+@@....@.+@+@+@.@+++++@+++@+@@@..@@.@.@..@@.@..@@+.@.@.@.@.+@....@....@@+@+.++++.@@@@.+.@@...",
"@..........@..@...@@++@+@.+@..+@+@@+@@+@+@++@@++.+@+@+.+..@.@.....@...@.@@@.@..@..@..@...@@....@@.@@@@++@.+++@@+@.+...+."};
