/* XPM */
static const char *velvet_xpm[] = {
"8 8 6 1",
" 	c #404040",
".	c #505050", 
"X	c #606060",
"o	c #707070",
"@	c #808080",
"#	c #909090",
" .Xo@#oX",
".Xo@#o@X",
"Xo@#o@#o",
"o@#o@#o@",
"@#o@#o@#",
"#o@#o@#o",
"o@#o@#o@",
".Xo@#o@X"
}; 