/* XPM */
static const char *WhiteTextureData[] = {
/* columns rows colors const chars-per-pixel */
"128 128 19 1 ",
"  c #B49D88",
". c #BCA997",
"X c #C2AF9D",
"o c #CDBDAC",
"O c #D7C9BA",
"+ c #D7C9BB",
"@ c #D7CABB",
"# c #D6C8B9",
"$ c #D7CABC",
"% c #D8CABA",
"& c #D8CABB",
"* c #D8CABC",
"= c #D8CBBC",
"- c #D9CBBC",
"; c #D8CBBD",
": c #D9CBBD",
"> c #D9CCBD",
", c #D3C5B5",
"< c #D4C5B5",
/* pixels */
"#,,##,#,<<#%#===%=#,#,,##,=#=%##,#,=#%,#==#,###,#%###,,<<#,#,<,<<##=#<,,##<<,,<<<o<<<<,,<###=#=,<#,,,,,<,<<<<,<<<<<,<<<<<<<<Xo<<",
"%#,,,<,###%%###=###%#,,###,#=####<,,#<#Xo=##,###,#<<,#<<<<<,<<,,#######,###,,,<<<<<<,<<,<,,%#,#,,##<#,,,<<o<<<<,<oo<<<<<<<<<o<o<",
",#,,<<#%<#,<####%###<<,,,,Xo#####,#,<,#<<###,#<<<#<<#<<#<o<<<<<##,<,#oo##<,,,,<,<<,<<<#,<,$=,>=,<,,<,,,#,#<<,<<<<<o<<<<<<<<<<<<o",
"%#,##,<,<,,,###%####o<#,##<,###,###=#,#<,#<,#<<,<<,<<<<<<<o,#<,<,,<<,XX%#<,<###,#,#<,,<<%#>####<<,,,#<,<,#<,<<<<,<o<<<,<<<<<<o<<",
",=#,####%#,##,,#,,##%#,#,#,<,#=###,,,,,<<#,#,<,<<<<<<<<<<,<<<<<<<<o,,,#,#<,,#,,,##,<,<<<,###,<<<#,#,=##<<<o<<<<<<<<<<<,#<<<<<o<<",
"<=,,,<,####%#<##,###,,<,#%<,#<###,####<<,,,,#,,<o<<<<<<o<,,,<<<<<o<<##<<,<<<,<<,##,<,,%###<#,,<,,######,<<<<<<<<<<<<,<<<o<<o<<o<",
",####,,,,%#,,###<,<,,#,#=>#<#,<<,,,=,,,,,#,#=#,<<,<,#<<XX#<,<o<<<#=,##,<,<,<#,,####,##,<=###,,,#<##<###<,,,,<<<<<<<<oo<#,<,<<,,<",
"<#%###,###%####,,#<,#####%#,,#<#<<,###,,,,###,,#<,<,##<oo,<,##,<#,,####<#<<,#<,,,,,<%,,<#,#<<#,,,,###%#,<<<<<<<<<<<<<<,#,#,<<<<,",
",%,,####,<#%%##,##>##%##,#=#######,##%,<#,,<##,<,,<<##,<<<###,<<<,<<<,<<,<<<#<<#<<<#<,#<<,,,,,,,,#,<###<,#<oX<#,<<<<o#<<,=###,,#",
"#%###%###=###%##=############=,#=#%=#####,<#%>,<<<<<<<<,,,#%#,,<<,,<,<<ooooo,<<#<<<##<,,##,,,<<<<,,<,##o<<,<oo,<,<<,<,,<##,,,###",
"%##%##,,####,##=%=,,,%>#<,%#%>,#%%##=%%#########<,,#,<<,<#<,#,#<<##,,#<,#<<<#<<,,,<##,#<,###,<o,<<,,#,#<<,,<,<,<<,,#,#,<,,<,,<##",
"###=####,=#,#<,>##,<#%%=#,=####=#####,,,,,,#%#,#<,,#,##,,#,#,o,,<,,#,,<<<,<<<<<,<,<,###<<,<,,<<<,,#,,,,<<<<<<<,<<#<#,#<<,,<<,<<<",
"%,,####=#,,,#%<<#%#,#=##==########,##,#,<,,=#,%#<<<<,,##,###<<,<,,,<,,<<#<<<,<<,<##,##<<,<<#<<<,<<<=#,<<<<<<<#<,,,<<<<<#,o<<<<<<",
"%#,,###,##,<#<,#####==###%###,,,,#<<#<<,<,,##,,#,<,<####,,#,#<,,,<,<<<,,#<<<#<<,,<o###<,#<,#,<#,,,,,####<<<o<##<,,<o,<<,<<<<<<<<",
"%#<<,,,#,#,<<,#,<,##,%#%####,#####,<##<<,#,,##,<<###,,,######,#,<##,<<<#,<<<,,,<#oo,,<<#,<<##,#####<,#<<<<<<<<#,<oo,,<,<,,<#<<<<",
"##,,,,,##%,,###,#####%,###,##<,#,<,,##<,,,##=,<,,<#####,<#,,,,#<<###<,<<<<<<,o,<<,<,<<<<<<,,,,###,##<<<,<,,<<<o<<<<,,,<,,<,#<,,<",
",%,#,,#,,#####>##=#,#,,<<,<<%#####<<=<,,##,#,<<<<,,,#,,<<,,<<<#<<##,<#,##,,<#<,#,#,,<<<<,<<####<<<<<<#,<<#<<<o<<<<<o<<,<<#,<<,<<",
"#,<#,,,,##,##,,#,#%#,#,,###,,<####<,#,,##,,##,<o<<,<<<##<<<<,<#<,<<<<#######<<,=,##<,,<<,<<###<<o,<<,<,#<<oo<oo<<<oo<o<<<<o<<,<<",
"<,<,##,#,,#,,#,,##,%,####,####,,#<<<<<,,<,,,%<,<<<,,%##<o<,<<<<<,oo<,,,<##<,#,<#,##,#,,,,,,###,#<,,,=,<,<<<<,<o<<<,,<<,<<<X<<<<,",
"<<#,<,,,#%%,,%##%,,<<##,#,,#,,<<,#,,#,,,<,<,,<<<,o,#=,<<<<<<,<<<,#,<,<,<##,,,,<<#%#####,,,####,<#####,,,,<<<<<oo,<<<,<,,,,<<<<o<",
"#,,,<,o,#,#,,,#,#,<##,,###<,<,#,,##,#,,,<ooo<<<<#<#,##,,<<<,<<,.<<#<#<<,####,,,<<<<,,,,<<<<#=#<#,###>#,##,,<,#<o<<<<,<<<,,<,,<o<",
"#,,,#,,,,#,,<#,,#%#,#,<%#<,#,#,<#####,,,<<<<<<<#,##,##<<<<<<o,<o<<<<<##<<#<<,<#,,##,,<<<<,<<,,##,#,<#,,#,,<<#,<<o<<<<,<<,,<,<<<<",
"#%,###,#####,=####,<#,,,#,####<<#>##,##,,,,,<,<,,,,,#,#,<#<<,<<,,<o<o,,,#,######<##,####,,#>####<,,,<<,<<<,<<#,<oo<<<o<<<<<,o<<<",
",#######%##,###<,,,###<<###=#,<<######,,%##,,,,,<,########<<<<,<<,<<<<,#<#,##%##,,,,,<<####,<,<,,<<,,<##<,<oo<,ooo<o<<<<o<,<<ooo",
"=%,####<,#,<<,,###,##,,,#,,,#,<o<<#,=#,#,###<<<,#,,#,,<,,<<<<<#,o<#<<<<,<,,#,#,,,#=#,<<,#,,,##,,<<<##<<<,<o<<o<oo<<<<<<<<<<<<o. ",
"##<%##%,<<####,##,,#,<=,,,,##<,<<##,##,#<#<,,,<,<<#,<#,<<#<<<<#,<<##Xo<<#<,#,,##,##<,<,,,,#,%oo<,<<,,<<<,<<<<<o<<<<<<<<<o,ooo<oX",
"%#<##%<<<,,#####=%,#,#,,####,,<<##,#,##,#,<,<,##<<,<<#<,ooo<o<,<<,,<,#,,#,,<,,#,,#,,#<<<<#,,,<<,##,,<<<<<<<<<<<<<<<o<<<oo,oo<ooo",
"=#<,,,<<<#,#######,,,,#<,,###,<#%#<#####<,##<#<<#<<<<<<<<<o<oo#,,#,<<,<,,#<,<<<<#,#<,<<,,<<<,<,>,<#,<<,<<<,#,<<<<<<<ooo<<<oo<<o<",
"=######<<##,#,#,##<<,,#<,#,###<#######<<,<<o<,<<<<,oo<<<#<<<<,%,,#,,#,<<<##,<<<oo,#,<<<<<,,<,,<,#<,<<,<<<<,,#<<<o<<<<<<o<<o<<<o<",
"#,#,#,#<,<<,,<<<#,#<o<<<,,,,#,<,#$##,#<,#<<<<<#<<<<<oo<,,,#,<<##,#<<#,<<<<,<#<,oo<#,,<o<<,#,<,,<<##,<,<<<<<<<<<<oo<<<<o<<<o<,o<<",
"#,<#####<,<#<<<<,,<,<<<<<,<<<<<<,###,,,,,,,,<,,<<<<<<,<<<,<<<<<ooo<<#<,<,<<<<<o<,<<<<oo,,<,,Xo#<<,,<#<<<<<<<<<<<<o<<o<<<<oo<<<o<",
"%####%#,,<,#<o#,<#<,<,,<<<o<<oo<<#<<<<,,<<<,,oX,<<,<,<<<<<<<,<<ooo<<,<<,,<<,,,<,<<<<<<<<<<<<<<<<<<,<<,<<,<#<<<<<<<<<<<<,<<<<ooo<",
"%,#%%#,#,#,#%%<<,,,oo<,oo<<#<<o<<#<<<<<,<<<,<oX,<<<<<<<,<<<o<##,,<#,<<o<,,<#,,,,<<<,,<<<<,<<<<<<<<<,,<<<<#<,<<<<oo<<,<,<<o<<<<oo",
",#,,,#,,,,##,,#<<,<<<<<<,,<,<<<<<<#<,#<<<<<,<,<,,<<,#,#,,,<<<##<,#,<<<o<<<<<,<<,,<,,<#,<<<<<,<<<<<#<<<<<<<<<,<o<<<<,<,<o<<<<o<oo",
",#,<##,<%<#,<,,<<,<,%#<<,,#,,,,<##<,<,,,o<,,,<<,<<#,#,<,,<<<<<<<,,,#<<<<,<<<<<<,,<<<,<<,<<<<<<<<o<<o<<<<#<<<<<<<o<<<<<XX<<<o<<<<",
"<,<#%<<<=,,,,<<,,,<,<<,##,,,<,,,,#,#<,#,<,,,o<,,#<<,<,<##<o,<<<<,<,,,<<<<,<<<<<,<<,<<<<,<<<<<<<oo<o<<<<<<<<<<<o<oo<,<<oooooo<<<<",
"o,,,,<oo,<##<<<<<,,#,<,,<##,#<<<<######<<<<<,<<,<<<,,,,#,,o<#<#<,,<<<<<,<,,,<,<<<<,,,,#<<,<,<o<<Xoooo<<<<,<<<<oo<o<<<<<<<<oo<<<o",
",#,,<,oo#,,#<<<o<<<<<<<<<,<,<,,<<,##,#<<<<,<<<<<<<<<<,,#,,,<<,<<,,<,,<<<<,<,,#<,,,<o,,,,oo<<<o<oooo<<<<<<<<,<<<o<<<,o<<o<<<o<<oo",
"########,,##<<<#,<<<<<<,,,o<#,<<,,,,,,,<o<<<,<<<<<X<<<<oo<<<<,<<<<<<,<X<<<<<,<<<,#<<<<<<<<<<<<<<oo<<<<<,<<ooo<<<<<<X<<<<<<<<,<oo",
"###,,<,#,####<,,,<<<<<<<Xo,<<,<<,,#<##,<<<<<<,<<<<oo<<oo<ooo<#<<<,<<<oo,,,,<<<,,,<<<<<<,o<,,<<<<o,,<<<<<<<<<<<<<<o<Xo<<<o<o<<<oo",
"###,=,,###=##<##,#<,,,<<<<<,<,,,,#,,<##<<<<<,<,,,,<o,,<<<o<oo<oooo,#,<<,##,#,,,,,,,<<<,,,,#,<,#<<,<<<<<<<<<<<<<<<<<<<,ooooo<<<<<",
"####%#,,#####<,,,,<,<#,<<<,<<<,,##,,,,#,#####<<<<#,<,,<<<<<o<<Xooo<,,,,<,<<<<<<,<,#,,<##<<<o<<<<<,,<<#,<,<,<,<<<<<<<ooo<oo<<<<<<",
"###,,,##,##%=,<<,<<<,##<<<,,,<<<,#,<,,#<#,#,<#,<<#<<#<,,<#<<<ooo<<o,<,,<<<<<,,,,,,,#,,##<<<<<o<<<,<,<<<<<<<<<<<<<<<<,<<<<<<<<<<<",
",,,##,##,##%#,<<#<<<,,<#<<o,<<,#,,,,,,<,,,#,<,oo,<<,,,,,<,,<ooo<<<<<oo<<<<,#,,,,,,<,,,##<,,<<o<,,<<<<,<<<,<<<<<<<<<<<<<<<#<<<<<<",
",%####,<,,,%%,<#,,<<<#<,<<<<<,,,<<,<<,##,,,,<<o<<o<<,,,<<<<<,<<<,,<#o<<<##,,,<oo<<<<#<,<o<<,<,,<o<o<<<,,<<<<<<<<o<<<<<<<<<<<<<<<",
",#,%##,#,###%,,,,,o<,<<,<<<<<,<,,<<oo#<<<<,,,,<o<oo<#,<<<<<<<<<<<##<<<<<,,#<,,oo<<<<,<,<<,<<#<<oo<<<<o<,<<<<<<<<oo<o<<,o.o<<<<<o",
"<,,,,,,,,,<,#<<##,<<oo<<<<<,,,,#%#<,,,<o<<<<#<<o<<<<<,<<<<o<<<#,#,<<,<<<,<,<<<<<<,,,#<<<<<<<<<,<<<,<<<,<<<<<<<<<<<,<o<ooo<oo<<<<",
",,<<<<<,,,<<<<<#,,<<,<o<,,,#,%#<,<<<<Xoo,#,,,<,<<,<<<,,<<<<,<,,<<<<<,<<<%,,,,,<<<,,,##<<<<<,<,<<<<<<#<,<<<<<<,,<<<<<o<<<<o<o<,<<",
"##,,<<,<<,<,,,,#,%,<,<,,<#%####,<,,<#<o<,#,#<<%<o,,<<,<<<oo<<,,<<<,,,<<,%#<,,,<<,,,,,##,<<<,#<<<<<<ooo<<<<oo<<<<<<<<oooo<<<<<<<<",
",%###=%%,<<#,,,#%#<<#,#<,>,,#,,,,,<<,%#,#,,,#%##<<<<<,,<,<o<<<=<%,,<<<<,<,<<,<,<<,,,<,,<,<<,<<<<<<<XXo<ooo<o<,<<<,,<<<oo<<<<<<,<",
"=,,#,,#%,,,,,,<,%,,#%,#,#,<,###,<#<<,#,,,,,,,##,<<,<<,,%,,<<<##,<,<<<<,,,##<<<<,,#,o<,,<<<,<<<<<<<oo<<o<<,<<<<<<<<<<,<ooo<o<<<,<",
"%>####,,%%,,#<<#,###,,,<<,#%,,,#,,#<,,,,,<,<#,#<<,,,,,<,,<<o<,<<<,o<,,,,#,,<o<,,,#,o<#,<<,<<,,<<<<oo<<<,<<<oo<<<<<<,<<<<<<<<<<<<",
"###,,#,,,<,#,#,##,<####,<,,,%,<,,,#,<,,,<,,#,<,<<,#<,#,,,<<<<<,<o,<<,,,<<#,<<,,,,,,##,%,<<,,<,,<,<,,<<<<<<<o<<<<<<<o<<<,,<<<<<<<",
",,%#%%#%<<,%,,##%##,,#####,#,<,,<,,,,,,<<,#,<,oo,,,<<,,,##<,<<<ooo<<<<,<,##,<<<,%##<#,#,<,<<o<,<,,,,,,<<,<<<<#<<<<,,,<<<<,<o,,,<",
"===>%#,,,,#%##,,##,,#,#>##,,,,<#,<<,<,#<#,,,,<,<<<<,,,<,#,,,<<<<<<o<,<<<,<,<oXo<##<<,<<<,,,,<<<<<,<<#<<<,<<<<<<<<oo<<<<<,,<<,<<<",
"#%#%%>#,,,,##%##%,<,%,##,,##,,o,<<<,<,,,##<#%<oo<<<<<<o<,#,<o#,%,<<,,<<<<,<<<<<<<<,,<<<<<<#,,<<<<,<,<<o<<o<,<<<<oXo<<<<o<<<<<<<<",
"##,%%##,,#%###,%####,##,,#,,#<<#o<,,<,,,<,,,,<<ooo<<<<<<#,<#<,,#,<,,,#,<,<,,<oo<,#,<,<<<<<#,<<oX<<<oo<<<<o<<<<<ooo<<<<<o<XX<oo<o",
"#,####,,#,,,#%,###,#,,,,#,#,###,o<#,,#,%,<,,,<<<<,,,,<<<,,<,,<,,,,,<<,<<#,,,<<oo,,,<<,<<<,<,,<XX<<<ooo<<<<<o<<<<<o<ooooo<Xoo<<<<",
"=%,<##,,,,<<##,,#,<,#,,#,##%#%#<<<#,###,,%###,,<<,<<<<<<,,#,,,<<<o,<<,<,<,#,,<<<,,,<,#,,<<o<<<ooo<<<<,<<<<,<<<,<<<<<o<<<<<<<,<<,",
",#,,#%,<,,<,#,,,##<,#,,,#,,##%,,<,#,#,#<<,%,,,,,<o<oo<<<,<<,<,<<o<,<<<<o<o<<,<<##,o<,#,,<o<<<<<oo<<<o<<<<<<<<<<<<<,<<<<<<<<,,<,,",
"#,#%##,,,,<<,,,,##,,,,<,#%##,#,,<,##,,<<,,,<,<<<<o<oo<<,<<<,,,,<,,<<,,<<,<<<<,<#<<o<,,,,,o<<<<<o<<<<o<<o<<<<<<<<<oo<<<<<,,,<,,,,",
">#%#%#,<#<,,,%%####%,,,%%>%,,,,,<,,,<<<<,<,<<<<<o<,<o<<<<<<<<,<<,<<,<,<<<,,<<<<,<#,,#,,,<<,<<<<<oo<<<<<,<<<,<,<<,<<<<<<<,%,<,,<<",
">%%=%#,<,<,####o,,#,##,#%=#,<#,#,##<,<,,<o,<,,<,,,<<<<oo,<<<<<<<<<,<,,#,<,,,<o<,,,#<<<,,<<<<,<<<<ooo,<o<,,,<<<<,<<<<<<,<<<<<<<<<",
"%=##,,#,,<<,<,<<X<##,,,,##%<o%,,,,%,<<#,,<<,,,<,<,,,<<<<<<,,,<<<<<<<#,,,<<<<,<<,#,,<<<<<<<,<,#,<<o<<o<,,,<,,oo<<<,<<<<<<<<<oo,<<",
"##<,,#,##,,<#<#>,,#%#,,####,#,,,,,%#,,,#,,,,,,,,<#,,<,<<<<,<,<<,<<<,<<<<<<<<<<<,#,o<<,,<<,#<<,<,<<,,<<<<<<<oo<o<<<<<<o<<<<<<<,<<",
",##,#,<,,#,,o<##,,#%#,,##,,%,,,<<,<,,#,#,,<,<<<<,<<<,,,,<<<,,<,<o<<<<<<<,<o#<,,,%<ooo<<<<<<<,<oo<<,<<<<<oooo<<o<<<<<<<<<<<<,<<oo",
"%#,<,<<##%%,,,,,%,,,<,#,#,,,,##<,<,,#,,,<,o,,,<<<,<o,,,,,,<<,#,,oX<<<<,<<o<,,,,,#<<<<<<oo<<<oX<o<,,<<oooooooo<<<,o<<<<<<<,<<oo<<",
">#,,,,,<,,%,,%<<<<,,,,<,###,,>,<,,#,<<,,<<<<,#,<,,<,,<<<<<o<,,<<,<,,<<,<<<<<<<<<<<<<<o<o<ooooo<<<,<<ooooo<<oooo<,<<<<<<<,<,,<<oo",
"#,#%,,,,%,,,##,,,,<,,,<%%#,,%,,,<,%,,,,,,,X,o<<,,,,#,,<<o<<,<<<<<,,<<,<o<,,<<<,,<oooo<<ooooo,o<<<#,,<<<<o<<<oooXo<<<oo<<<<<,<<<o",
"#,#,##,,%%%,,,#,,,<,,,,,,###,#,,,,#,,,<,<,o,%,%%,<,,,,,,o,<,<,<<<,,<o<,<<<<,,<<<<oo<<<<<<<<<<o<<<,#,<<<o<<<<oo<<<<,#<<oo<o<<<<<<",
"%##%,,,,%%%=#,,,,,,#,,,<,,##,##,,<,,#,#<,#,,%#%,,,,,<<,,o,<<,,<<<<o,<<<<<,<<<,<<<<<<<<,<<<<<<<<<<<,<,<<<<<<ooo<,<<<<<oX<<o<o<<<<",
",,<,#<,,%>,,%,,,,,,,%#,,,<,%,<,,<<,,,<o<#<##%,,,,<<,,#,<o<o<,<<<<<o,,<<<,#,,,<<o<,,<,,<<<<,<,<<<<,,,<<<<<<<<<<<<<<oo<<o<<<<o<<,<",
"#,#o,,%,,%,<,,,,,,,,,,#<,<,<,,,,,,,,,,<<<,#,,,,,o<<<,,,<o<o,<<<<,,<,<<<<<<<<,<oX<<<<,,<o<<<<o,<o<,<,<,,<<<,<<o<<<<<oo,<,<<<<<<<<",
"<<,%,%=#,%,<<,,,,<,,,#,<%<,%,<,%,,,<<,,#,,#,,,,,<,,,,##<,,<<<,<<<<<<<<<<<<,<,<,<<<<<<,,<o<<o<,<,oo,<<<<,#,<<<<<,<<ooo<<<<o<ooo<o",
"o,#%%%#,%#,,#,<,,##,,,%<,,#,,##=<,<<<,,,##,%,<,,,,,,,,,,<<<,<<<<<<<<o<<<<<<<,,,<<<o<<<<<o<<<,,<<o<#<<,,,<<<<o<o<<ooooo<<<<<<<<<<",
"##,#,,,,#%#,,#,,%,,,,<#<#,%,##%%,<<,,,#<<,,,,<,<o<<<<,#,<<<,,,<<<<,<<<o<o<<,,<,,<,<o<<<,<o<<o<<<<<<<<#<<,,<<oooo<<<<<<<<<<o<o<oo",
">#%#,##,,,,#<#,,%<,,<,#,,,#,,,,%#,,,,,<<,,,#,,,<oo,<<#%,,,,##,,,#,,,<<<<<<,,,<,,<<<<,,,,<<<<<<<<<<<<<<<<<,<<<<oo<<<<<<,<,<<<,<<o",
",#,,,,,#%##<,<,#<,,<<,#,<<,<<<<,,,#<<<<,,,,<,#<<o<,,<<%,<,,,#,,,<,,<<<<<<<<<,,,,<<<,,,<<<<<,<<<<<,oooooo,<<<<<<o<,,,,%#<,,,<<o<<",
"%#<,#<<%%#,<,,,,,<<<,,,<o<<oo<oo,,,,,<,,<<,<,,,<o<<<o<%%<<,<,,#,,,<<<<<<,,<<,,,,,<<<<,,<ooo<<,<<,<<oo<<<<<<<<<<<<,<,,%,,<<,<<<oo",
"%%>%#,,%###,,,<<,<<o,#<<oo<<<<oo<<,,,<#,,<<<,,<<o<<<<,%%,<<,,,,#,,,<<<<<<<<<,,<,<,<<<<,ooo<<<<<oo<<o<,<<<<<,<<<<<,<<,<,,<<<<<<<o",
">#=%%#,,,,,#,,<,#,<,,>#,,,<,<<<,<,#<,,,,<<<<,,#<<<,,##,#,<,,,<<,<<<<<o<<<<,<,<<<,,<,<<,<,,,,<,<<<<<<<<<<<<<<<<oo<<<<,<o<,,<,,<<<",
"%,#%#%#,,<#,,###,,%,#%%,,,#,,,,,#,,<,,<<<<<,<%,<<<#,#,,%<,<<,#,<<#,<<ooo,<<<<<,<o<<<<<,<<,,,<,<<,,,<<,<<,oo<<<<<,<<<o<<<<,<<,,,,",
"#,%,<,##o,o<<<,,,<###%,,,<,,,#,,,,%,,<<<,<,,,%,,,######,%,,,,,<,<<<<<<oo<o<o<<,<<ooo<<o<,,,,#,<,,,,<<<<<#<<<<<,<<,<<oo<ooo<<<<<<",
",<#,,#,%%<<<,<,<,#<,>#,<<%<,,%,,,<,,<<,<<,<<,##,#%%%>##,,#,,,%#,,<<<<<<<o,<Xo<o<ooo<<<o<<<,,,,<<,<<<<oo<<<,<<<oo<<oo<<<<<<<,<,<<",
",,,,,,###,#<%,,,<%%%=#,,%%#%#,,<,,,,,,,,o<,,,,,<,,%%%##%,,,,,,#,,###,,,<,<<<<,<<o,<<<<<<o<<,,<<<<,,oooo<<<<<<<o<o<<<<,<<,<<<<<<<",
"##,,#,<,,<o,,,<,,<o<,=%,,o,#<<o,,,#%,,,#,,<,<,#,,,<,%<,,,,,,,<<,<,,,<,,<<<,<,<<<<<<<<<<o<<<,,<,,<<<,<o<<,<<ooo<oo<<<<,,<<<,<<<oo",
"#,%,##,,,<X<<,,,#o<o<,#o<,<,<o<,,,,,<,,,<,,<<,,,,<<<,<,,,,<<,<,,<<<<,<,,<<<,,,<<<<<<<<,o,<<<<<<<<<,<<,<,<,<oo<<<<,<<<<<<<o<<<<o<",
",,<#,,,%,,<##,<,#%%#,##,,<<<<<<,#,#<<,,<X<<,<,,<,<<,,<%,,,,,,<<<o<<<,,,,,,,<,,<<<o,,<,<o,<,,<<,<<<<,<<,#<,,,<,#<<,,<<<<<<<<<,<<,",
"<#<<,,#,%,<%#,<<,,,,%%,,,,<,#,,%%<<,<,<<o,,,,,<oooo<,<,,,,<#<<<<o<<,<,<,<,,#<,,,<<<,,,,<<o<oo,,<<<<,<<<,<,<<<,#<<<<<<<,<<,<<<#<<",
"<,<,,,%,,<,%,,,,,,,,,,<<,,#,,,,,#,<,<<,,,,#,,<,,<oo<,#,#,,<<,,<o<<<,,<,,,<<#,#<<<<,,#<<,<<<,<<,<<,<<,,<<,,,,<<<<<<,<<<<<<<<<<,<<",
"%#,<%=#,####<<<#<<,,#,,#,,,,,<<,,,<,,,,<<<<<<#,<o<,<##,,#<<,,,,<<,<<,<<,#<o<#<<<<<<<<,,,,<,,,,,<#<<<,#<<,<<<<<<<<<<,<<<<<<<<<<,,",
",#,<##,,##,,<<,,<%,,%,,,<%<<<<,,,,<<,,,<o<<<<,#<<<o<,,,#,,<#,,,,<,<<,<<<,<<,,<<<<<,,,<,,,<,,,,<<,,,<,,<<ooXoooo<<<<<<<<oo<ooo<<<",
",,<,,,,<#,,,,<,##%,#,,#,,#<,<<<<<<<<,,,,o<<,,<,,,<oo,<<,,,<,,<,<<<,,oo<<,<<,,,<,,,#<#,<<,<<,,<<<<,,,<<<oooooo<<<<<o<<<o<<<<.X#<<",
"##,,,,,,,,<,<<<,,%#,##,#,,<<<,<,,<o<,,,,<<o<,<<<<<<o<,<o<,<<,<o<<<o<oo,<<<<,<,<<,<,<#,<<,<<o<,<<<<<<<<<<<o<<<,,,<<<<<<<<<<<o<<oo",
",##,,###,,,<<<<#<<,%,,,#,#o<,,,#<,<<,<<<<<,<,<,,,<<o<<oX<<oo,oX<,<oo,,<,<<<,<<<<<<<<<,,,<,<<<<<<<,<X,o<<<<oo<<,<<<<<<<<<<<<<<<o,",
"%==%%#,%#,,<,#,%,<<o,,,<,,,,<,<,,<<<#,,#,<,,,,,<<<<<<,<o,<<<<<<<,,<<<<<<,,<,<<<,<<<<<<,#<,<,<<<<<,<X<<o<<<o<o<<<o<<<<<,<<<<<<<<<",
"%=%%%<,##,<<,,,,#,#<,,,,,,ooo<,<,,o,,,#,,<<<<<<<,<<o<<,<<<<<<<o<<<,<,o<<o<<<<o<<o<<<o<<<<,<<,<<<<<<<<oooooooo<<<Xo<<<<<<<<oooooo",
"##,##<<###<,,,#,,,,,,,,<,,ooo<,<,<o,<,,,<<<,,,#,<<oo<<<<<<<,<<<<<<<<<o<<<,<<ooooo<<<o<o<<,<<,<<,<<<oo<<oooooo<ooo<<<<<<<<oo<ooo<",
"#%#%,##,,,,,,,<#,,<,#<<##,,,o<,,<<ooooo<oo,,#,,,,,<<,<<<<o,<<,<<<<<o<o<<<,<<<oo<<<<o<<<<<<<<<<,<<<ooooooooo<<<o<<<<<<<<<<oo<o<oo",
",,,=,<,<,,,#<<<,o<##,<#<<,<<<<<<<<ooo<o,<o<,<,#,,#,<<#<<<<<<<<<,o<<<<o<o<oo<<<<<<<<<<<<<<<,<<<<<oooo<X.oo<<<o<oo<,<<<<<<<oo<o<o<",
"#%%#,<#,,,<,,<<<<,,<##,<<<<o<<<<o<<,,,<,<,,,,<#,,<,<<,<,<<<<,oo<<<,<<<<<<Xo<<<o<<<<oooo<<<<<o<o<<<<o<ooooo<<o<<<<<<<<<<<o<oo<<o<",
"#%,,,,<<o<o,,<<<o,,<#,,#,,<<,<<,,<o<,,,,,<,,,##,,<<<<<,<<<,<<<<<,<,o<<<oooo,<<oo<o<<o<<<<,<,<<oo<<<<<oo<o<<oo<<,<,<<<<<<<<ooo<o<",
",##,,<,<<<<<,<<<<,#,#,,,,,<<<<<<,<<<<<,,,#,,<,#,,,<<<<<,<<<<<<<<,,,<oo<<,<,<<,<<<<<<<<<,<,<<<o<<<<<<<Xooo<ooooo<<<<<<<<<oo<o<<o,",
"%#,,,<<,<<<<,<<,#%%,#,,,,<o<<,,<,,##<o<<,,,<,,#,,,,<<,<<o,<,#,,,,<,,oo<<<,,<,,<o<<<<<<<<,,<<<<<<<<<o<<<<<<oooo<<<<,,<<,ooo<<Xoo<",
",<,#,,<<<<<,,,<<<,<#<,<<,,<<<<<<,<,#<,,<,,,<#<,%##<,,,<o<,<,,,<<,,<<<<<<,<<<<<<<<<<<<<<,<,#,<o<o<<<<ooo<<<ooo<<<o<<,<<<<<<<<o<<<",
"Xo#,#,#<,<,,,,,,<o<<<,<<<<<o<o<,,<<,,,,,###,<,,,,,<<<<<,,<<o<<<<,<<<<o<<<<<,,<,,<<<<oX<,<<<#<o<<<<<<<o<<<<<<<<,<<<<<<o,<<<<<,o<<",
"<<<#,,,<o,,##<<,<<,<<<,<<,<<o<<o<,<<<,<,,,,,,##,,#<o<,<oo<<<,<<<oo<<<<,<<<<<<,oooo<<<o<<<<<,,<<oo<<<<o<<<<<<o<o<<<<<<<<<<<<,<<<<",
"#<<,#<<<o<,<<<<,,,,<<<oo<,<o,%#<<<<,,###,#,####%,#,oooo<oo<o<<<,<o<<<o<<<<<<<<<<<o<,<<,<<<o<<<<<Xo<<<o<<<,<<<<<<<<,<<oo<o<<<o<<<",
",<<###,,#<,<o<<<<,,<<<<<,,<<#,###,,<#<,,,<##,,##,,<<<<ooo<<Xo<,<ooo<<o<<<o<<<<,,<<<<,<<<<<<<<<<<o<<<o<<<<,<<<<<<o<o<<<<<oo<o<<<<",
",,,<#,<,#,,<<<<<#,,<<<,,<<,,<<<,=<<<,<,<<,,<,,<<<<<,<,<<oo<,<<,,<<<o<,o<<o<<<,<<,<o<,<<<<,<<<,,<<<<<<,<<<o<ooo<<<<<<<<<<<o<<<<<<",
",<<,,,<,,,<<<,,,,,%#<,,,<<,<<,<oXo<,#,,,,<,<<<<<,<<<<<<<<<,#<,<<<<<<o<oo<o<<<#,<o<<<<<<<<<<<<,<<<<<<<<<<<<,oXo<o<<<<<<,<<<<<<<<<",
"#,<<<<<,,,<<,,,,,,,#,,,,<,<,,<<<o<,,#,,,o<,<<,<o<<,,<#<,,<,,,,,,<o<<oo<oooo<<<,<oo<<,<<o,#,,<,<<<<,<<<<<<<oooo<o<<<<<o<<<<<o<<<<",
",,<o<<o<<<<,,,<,,,<,,,<<<,#<,,<,,,,<,<,,<<<<<<<<,,,,#,,<<,,,#<<,<o<,<<<<<,<<<<,<<<<,,<<<<,,<<<,,<<<<<,<<o<<<<<<<<<<<<o<<<<oo<<<<",
",<<<%#<o,<,<,,,<oX<,<,<<,<,,#,#,<,,<,,,,oo,,,<<,,<,#,,<,,#,<<,,,<o<,<<<<,,<o<,,<<,,,,,<,<<<<<,,,<<o<,<<o<<<<Xo<<<<<<<oo<o<o<oooo",
",,#<,#,<<<<,#,,,<o<,#,<<<,,,,<,#<,,,,,#,oo<,##,#,,#,,<<<<,,<<,<,<<#,,,,,,<<o<<<<,,,#,<,,oo,<<<o<<<,<<<<<o<<<oo<<<<<<<oooooo<<Xoo",
",,#,<<<<<,,%,<<o,<,<,#oo<,,,<,,,o<<<,#,,#,,,,#,%,%=,<,#,,<<o<<<,<<<<<<<<#<<<<,<o<,,<<<<<<<,<<<o<<<<o<<oo<o<<<oo<<o<<<ooooooo<<oo",
"#<<<<<<o<,,#,<<<#<<<,,<<<oo,<,##<<<<,,,#<oo<<,,,#%%<,#,<,<<<<,,o,<<<<<o<<<<o<<,oo<<<,o<<<<,,o<<,o<<o<,<o<oo<<<o<<o<<<<<<ooo<<<o<",
",,<,,<o,,#,,<<,<,o,<<,<<<<o<<,>,<,<<,<,<oo<,,<<<,,<<,,,,,,,,<<<<<<<<<<<<<,<<<,<<<<<<<o<<<<<<<<<<<<<<<<<o<<ooo<ooo<<,<<<<<<<<<<o<",
",,<<<oo<,,<,<#,o<<oo<,<<<,,<,,%,<,,,#<<<o<<<<<<<,<,,<<,<,,,,<,<<,oo<<<<o<o<<<,,,<,<<o<<#<<<<ooo<oooo<<<o<<oo<<<<<<<<<ooo<<<<<oo<",
",o<<o<<<,#<,<<<<<<o<,<<,<,#,#<,<<#,,<,<<<,,<<<<<,o<<<,,<<<,,<,,<<oo<<<<<<<<<#,<,,<,<<<o,,,<<<oX<Xo<<<<<<o<<<oo<<<<<<<<<o<<<<<<<<",
"<oo<,<,#<,,,,<oo<<,o<,<#,#,,<<<<<,<<,,<oo,,<<<<<<,<<,<<<<<<<<,<<<,,<<<,#<<<<,,<<,<#<<<o<<,<,<<<<<<<<<<<,o<<<<<<<<<<<o<,<<<<o<<o<",
"<,<<,o<<,<<,<<<<<<<,,#,<,<#,<,,#,#<<<<<,<<<<,<<<<,<<<<<<o<o<<,,#,,,<<,<,,<<,<#<o<<<<<<o<<,<,<<<o<<<o<<,<<<<<<<<<<<oo<<<<<<<<<<<<",
",,<,<,<<,,<<<<<<<<<,#,,<<<,<<,<,<#<<o,,<<<<<<<<<<<<<<,,<ooo<,,,#,<,<<<oo<<o<<<o<<<<o<,o<<,<,<<<<o,,<<,<<<<,<o<<<<<<<<<<o<oo<<<<o",
",<<#,<,<<,,,,<,<<#<<#,<<<<<<<<<,<<<<,<<<,<<<<<<<<,o<<<<<<oo<,%,,,<,<<,,<o<<<<<<o<o<<<<<<<<<,<<<,<<<<,,,<<<,<oo<<,<<<<<<<oooo,<oo",
"<,<<<<<<<<<,<ooo<,,#<<<o<,<<<,,<<<o<<,,,<<<,<<<<<<<o<<o<<<<<<#<,<<<<<<,<oooo<<o<<<<<<<<<<,,,<,<<,<,<<<,,<,<<<<<<<<<<<<<o<<<<o<<o",
"<,<<<,<,,<<<<<<<,###<o<<<,<<<<<<<<o<<<<,,o<,<<<<oo<<<,<<<,,<<<,,#,,,,,<,,<<<,<o<<<<<<<<<<,,###<<,<#<,,,<,<<,<o<<<<,<<<<<<oo<oo<o",
"<<,,<o<,<,<,<o<<<,,,,,<o<<<<#<<<<<<<<<<<<o<<<<o,<o<,<<<<<,,<,,,,,<<<<,<#<,#<<##<<<<<<<,<<<,#,<<<o<<<<<<<<<<<<oo<o<<<<<oooooo<<<<",
"<,,,<o#,,,<,,<<<<<<<,<ooo<<<#<<<<<<<<,<<o<<,<<<<<<<<<<<<<,<<<#,#,,<<,,,#<,,,,,<<<oo<<,,<o<<o<<,<o<<<<<<<<,<<<oX<<,,#,<oooooo<<<<"
};
