/* XPM */
static const char * YellowStuccoData[] = {
"100 80 5 1",
" 	c None",
".	c #DBD69D",
"+	c #E4DEA6",
"@	c #EBE4A9",
"#	c #F4ECAE",
"#@@.@#+##@@@.+###@####@#@##@+++@@@#@@+.@+++@+..++@##.+++##@@##.@@##@##+@@@#####+#@.@#@@##@@+###+@@@#",
"@@#@##+@####+@@#@@##@@+....+@@@#+@#+#@@###@@..@####@##++@@#@@@+@#.+@##.++@++#@++@+@##+@##+@###+@####",
"##@#@#@@#@#@+##@####@+....#.+###@@@#+@@###@.+@#++.@.@##@#@@##@..++@@..+@@#@@#+.@@@###+##@.+@@+@+@#+@",
"##+..++@#@@@+#####@@+@..###@+###.###+.@..++.@##+@###+#+.#+##@+..+.+#@#@#@####..##.@+@#+#++##@+@#+@##",
"@#+@###..@##+@####+++#@###@@###++#@@@.+.@##.##@####+.++.##@#+.@##+@@####+.@#@+++#.+++#.+@+##.+@@@##@",
"++.@#@#@#@++#@@@.++@+@+@++@###@+@##@#.@####.##@####..##.##+@@.@#.+##@+@#@+##@.+#+@##++@##@#@+#####+.",
".+@+++++#####@##.@@@++@@@+@@@..@##@@#++####@#@@++@++###@##..@....+##@+@#+++##@#@@###@+++#@@#@#####@#",
".+##@+###@######.##@@+####+....@#+@#++@#@+..@@#+@@@+##.+@#+@#.+@@@@@@@@#+@@##.##@##+@.@++.+@###@@.@@",
"++@#@.@@@.@@#@....@@#+@##@...####.+@.+@+#++.@+@@@#@@##.@@#@@#@+##++.@@##@####+.@@@@#+..##.+@+@@@+..#",
"@@##+.@#++##@+...+##@@###...#####+++.+#@##.##@@@###.@#+@###.@+@#@.#####+.@##++##@@##@@@##.##@@@..+@@",
"###@@+###@##@.+#@@##@@###@@##@+@#+##@#@+@@+.##@##@.+##+.@#+.@#+#+##@.#++@##@@@###@@#.@###@@####...@@",
"..++#.++@#@@+@##@##@#####+@@@@###..@+######@#++@#+..+#.@##+########...@###@+.+#@@@#@..+#@@@#@++..#@@",
".@@@#@+#.@.@####@@#@###@++@+@@+#+@@@##.##+#+#@@+@..@##.+@@.##@###++..####@++@@+@+@##+@#@#@@##+@++###",
"+####+##.#+@#@+++...#@@@@##.+#+#++#@##@##+@+@.#@@@@@##+#@....+@++++.####@@@@###+@+@@@+#######@##@###",
"#+#@+.+#+@#+@++#@@@###@@###.##@####@.+###.+@@+#@######+@@@##++++++@###@##..+.+@@##@@@@@#@#@#...###@+",
"@@##++++@@@####@++###@@#@..+#@++@@#+++@+...@#+##@++#.++##@@@@##+##@##@+@#.+#@##.@##@@@#@+#@@+.##++.+",
"@+@#@@##@@#####++@#@@.++...+#@+@#@@@@@##@.@#@.+@@@#+.++.#@++@########@#@#.+####+#@@###@+@#@#+.##+..@",
"@+@@@##@#+@+#.+@+#@.+@++@@###+@@@##@.+.@#@####@.+##+.##@#+.###@###@#@@#++.@#+..@##@#@#@.##@#..@..+##",
"+@##.+@...+@.+++@@@@##@#@####.@@##.@@+@##.@##@@##@+.######+@#####...@.+@@###@+@###+@@@@.@#@+..@++###",
"#@+@@@+++@###@@#@##@##+@###@#@@###+#@@###.##@+@@@#+###@@#+####+##@@@#.@#@#@#@####@+#@@@.@@@#+.@@####",
"##@#####+####@@####@@#+@##@+..@#+@##@@##@@@++@#+.+####.@.+@#...@+@@##@@+.++#....@@###@@.+#@+..@####+",
"@@@##+@#@@##+.+@#+++@@##@@@#.+#@@@##+@#+++@###++@#@+@@@@@@##.@@+...+@@.#@#.#@@#+#+@@@+#++#@@.+###+@@",
"+@+.#@+@@#+@@.@#@+@@@@@@.##++####@@@+@@++++###@+@#...@@#@##@+@@##@###@@.####@@###@@++.+..+@#@##++@@#",
"@@++.++#+@@##.##+@##.@##+@+..++.@@@#@@###++@@@@##++####+###@@++#@@##@@#+##@##@.+.@#@#@##.###@##+@###",
"#@+#@+@@#.###+#++@@.+@@@###@+#@@#@##+@#@@@@##+@@+.#####+@#@@@.+###.+@##+##@@@@@##@#@#@@#+#####@+##+@",
"#.##+###@.@+..+@##@@@##@####@@#@##+@+#.++@@#@+....###@@.##.+@@###..+@#++.+.++@@@##@@@@#@@@#@@#@+###.",
"@+##@+##@+##.@@@#@@###.@@@+@#@@@++..+@#@##@.@++@@+####@@@##@##@+...@##@@+#@@####@@@#+.#@+@@@#@@##@#.",
".#@@@+@#..@@@@@##.@#+@@@@#@@+@@##@+@#@#+#+.@@+####@@@@++@##.#@@..@@###@@######@+.@@@#@@@+#@###..+@#.",
"@#@.@###+#@@@@@##+@#@#@#####@....@####@+@@..#@###@+@@+@##@+..#@+.#####+@@@.+@@++.@#@#@##+#####@+##@@",
"##@@####@#######+@##@#@@.@+..@@@@+##@#+@##.#####+@@+@####+.@##@+.##+@@@##@#@@@######@#++@#@@#@@@##@.",
"@@+@##++##+#@@@#+@###+@..@#.+#####@@+#+@#@@@####+####@##@+.###+..@#..+@#+@#@#####@@.@+@+@#@##@@#@@@@",
"@.@+.++@@+@@@@#@+@@@@+#@+#+.##+@#+@#+++##..+@@+#@@@@@##@@..@##++##@.+@...+@.+##@+.@+.+@.##.@#@@+@+.+",
"@@##+#@@#@####@.@@+.@.+@##.@@#+...@##@###@+@@@##@@@##+#+@@+##++.###.+@.+###+@@@+.@.@+#+.++.++++@@@+#",
"@+@#+###...###++##.@#+@#+@@##@#+#@#@@###.++##@#++++++.++#@@#@+##@...##@##+#+###..@@#@#@++@#####+##@#",
"##@#@###@@@@@.+###.@#+@#@##@@@#@###@+#@+.+#####.+@+.@..@@@.#@@##@#.+@##.++++@#+...###@@##.####@+#+@@",
"####@@@+@@#@#@#@@..@@+##.@@@+@@.+@##+@.+#@####.+##@#@####@##@@@+#@@####.@###@@@.@####@##@.#@#@+@#..#",
"@+@@#@+##@+@#@#@++.@#@@#.@#@##@+@#@#@+..#@@@@#@##@@#@###@#######@.+#@..@##+@###@@#####@@@.##@@+##.##",
"@.#@@#@##.+##@@@@#@#####.##@##@@##@@@@@##@@#+.@@#+@@+##@+##@@#+#++##@++@#..@@..++##@@@#+@##@@####+##",
"++####+....+@##.+#######@@#@@@++###@@@@###.#+..@+@##@##+.@#@..+##@##+@###.+##.+..@@+@@@+@@++....@@+.",
"@@#..++..@+####.@#@####@###+..++@@@.+..+#@+##+##@.+@@+#.+@#@+##@+.##@.@##+##+@##@@@@@##+.@+..@##@@..",
"#@@@.#@++#####@+##.+@@+@+@+@..+@#@@@#@##@++@########.++@###@+##@.@##@@@##@#@@##@@##.+.@+.@@.###@+@@+",
"@@####@@+@###@#+##+#@@+@@#@..###+#@@@####@+#@.+.@#@#.#++@##+@@+@.@@@#+##@@#++#@#+@#@##@@@#.@##++@+#@",
"#+@#@###@##@#@#@@@.##@@#@@++++##@+#@@###@@###@.++@+++##+#@#@.@@#@+#++@@@.@@@++@@@@#@@#+##@.##@@#####",
"+@+#@.++#@#@#+@#+@+@+.+.+#@@#@#@++@+@.@..+@##@@###.@#@@##@#@.#@##@#@+@##.@@@@##+###@+#+@@.+##+##@@##",
"##.+++@#@@++@@+#@#@##+@+@@#@####@#++@@#@.+++@@.##@++#@@#@..++##@##@#@#@@.##.+#@#...+@#@@#++#++@#@@@#",
"#@+##@##@+@.@.+#@+@##@###@+....+@..@#@##.####+@##@.@#@+@#.@+###+@#+##@...##@++.@#@@#@#@@@@@#+###@@##",
"+.@#####+@#+#@...+#+@@@##.#@@@+.@..#@@.+.###@+#@#@#@#@#@+.+@@+@..@.+#@#+@##@##@#@+###@#+@###+@#+.+@#",
"#+##@+@####++#.#@##@@++@+.#+##@##@+#@##.@##@.+#@.+@+@#@@#+@#@++@@####.##++.@@@##+@@.+@#####.+###@##@",
"#.@#+@###@++++#########@+#+.@#@#@@+##@#+###+@@#+.@@.@#@...##@#++#####++...@@@@+++@@.@##@##@+@###@##+",
"+.+#++###@.+.@#####@@@@+@#..##.##@###@@@##..+@#+.@#++#+.##.@.#@#@#@@@+@..####@+.++####++@+.@@###+@+.",
"+@##.###@++##@@##@@@+@.###@.##+##@##@@#@#@++##@#@@##@#+@##+@##@###@##@+..@###+.+#@##@@@.@@@####+@@+.",
"@###@+@@.+@+@#+##@@@@####.+@##++#@@#@@#@@++###+#@+###+.+@..@##@##.+@@...@##+@+@#####@##@.++#@...@@+.",
"@######@.@#@##@+@##+++##@@@#@@+@####.+@@##@#@@#@@+....+##+@#@...@+@.@..+##+.+######+++#@..+...@#@+@@",
"+@...@@+.@#@##@@##@+.+@#@.###.+@@.+@+##+##..###@++@+@@@##+@@@@@##.@#@@@###++###@@##++#@+.##@@####@##",
"###...+#@#@#.+#@##@@@###+@#++@+#..@#+##.@+..@#@+#+@#@#####@.#####@####.@#####@@+#@@+###..###.##+@++.",
"#.+@#####@#+.+.+@@.+@##++@##+@@#@@##@@#.#@.@##+..+@#+###@@@@##++####...@@@@#.+@@@++@#@+@###@+##.#++@",
"@#++@#@....@.@#@#@.+++@+@@+@.+########@.+#+@@+#.@#@#+##+@@@#++####+.+@###@.+@+##+#.@##@@####@##+####",
"@#@#@@@.+@@#+#++@..##@#+#@#++###@.+@#@+.@#@+++..####@##.@###+@#++@#.+####.@#.+@#@@#@@@###+@#+@+@####",
"@+@@@@#+###++..##..@#@#@@+##@###@.##@@@+##+@@@#####@+@.+.@....#.+@#+##++@@##.@#@@##@##@@@@+.+@@###+.",
"####.@@@.+..#+.##.+##.+#@++@#++..+##.+#@@@@@++@#@.+++#+###.+@##+##@.@#@##++#+##@@+@.@@.+.@+.@#####..",
"##@#+##@..#@##+#++##@.##@@#+..#++@..+##+@@#@@@##@..@@####.@####@@@@###@##@##@@++#....+.@##@+####.++.",
"@+@@@#@.@###@@@#@+###@##++@##@####@##@#+@#@@@####@+##+@##.+##@@++@####+#+@##@.@##..###.###@@###++@@@",
"@##@@@..@#@+@#+@#.+.@##.@+@@@##@+@###+@@@#@@@#@##++##.@@+.+#+@@...@@@.@##@@@@+.@+@@###@##@..#@@..##+",
"#@@.@@.@##++@#.+#@##@.+.+@#@#@@@.@#@+@#@+@@+..+#..@#@###+@@#@@..@##@#++@@.#@@@###@@###@@#+@###@..@++",
"##@..+@###@@#@@##++##+#@##++##+@###@.@@@@@+..@@@++######@+##@..@###@#+@##.#+@@+##@@#@#+#..+@#@+.@##+",
"#@#@@#####+##+.###+##+##@#@.+@..#++@.##@##@.#####@##++.+.+@+.+@@@##@@###@..++@+@+@+#@@@@+@##@+@@###+",
"@##++##+@@@#@@##@@###@++##@.##@+@+#++#@+@@@+####@#++#@..+.@..+#@#@..@###..####@#+@#@###@@+###+####@.",
"..@@#.@@##++@#+@##+##@####..@@@@##@+.@@+@+++...@@@@@+@#@#@#+###@###@##@+..######+@#@#+@@@.@...@+.++#",
"##@.+##@#.@###....++@@.@.@@@@+@#@#..@#@@@.+#@##@+.@..@##@.#####@@#.@#@@#@@#.+@+..#@.@@###.@#.@@@.+@#",
"###.+++@@#@##+...@+#+@.+@+@#@+##@.+@#####@#@.##@#.##.##@.+#@@+@++#@.@@+@@@@+@...@@@####...#@.#@@++#.",
"#@@+##.+####@+..##@#++@##.@.+##++@.@#+@@@##.@@#@@#@@+##@.###+@#@@#@@##@@@#@@##@+##@@##@..###..##.+##",
".##@##+##++@@@.@#@#.@.###.@#@#@@##+##@@@+.@.@###..@#@@##@##.+@####@+##@@@##+######+..@.+@#+..@##.@##",
"@@###+@####+++#+++##+###@.@#++.@#+@@#+#@+@#+@#...#######+##+@###@@+@@@@+@@@+@#@@@+@#.@@##.@.+###.@#+",
"@@#.+.@#+@+.++@.+#@@###@++##.#@##.@+#+@@###@@+..########@@@.@#++++@@#@#++##@+@#@+@#######+###++@.##+",
"###@@@##+@@++##@@#+@+....+##@@@@+.@#@#@@@#@@@++###+@@@++@+..+@...@#.@@@@.#+.++#@@#######@+###+.+@##@",
"#+..##@#@@##+#@++.+#@+#@####@..+....+#.@+.@#@@.#.@+@#++.+@.@##.@##@.+#@#.##.@#@+@@#@##@@###@..@##@##",
"#...+.@#@@@+.@#@.@##@##@###@..@##+@##..@#+..+#.#@##@++@.+@@###.@##@@##@++##@##.@.++@.+.@@#@@++@#####",
"#+.##@#@#..@@##+.######+.+...###+@@##@@##.@##@++###@.+@+##.@+.....++@###@@..+@.####@..++....@@##@#@#",
"#+@##@##+..#.+@++##...++@#@.+@#++####+##.+@##@#@##+..@#.##.@@+#@###@@#.@.@.#@+@#.##@.@#@@#@.@@@##@..",
"...@@@@@+.##.+#+###..@+@@#@+#@#@+@#+@.@.@###@@@@@#@.@##@##.##@@####+##@+@@###@#+.##@####+##@####@+++"};
