/* XPM */
static char * EmbossedData[] = {
"120 120 9 1",
" 	c None",
".	c #ADADAD",
"+	c #DEDEDE",
"@	c #EEEEEE",
"#	c #FEFEFE",
"$	c #E6E6E6",
"%	c #BEBEBE",
"&	c #F6F6F6",
"*	c #D2D2D2",
"@&@@&@@@@@@@@$@@@$$$$$$$$$$$$$$@@@@@@@@@@@@@&@$@$@$@$$@++@$$$$$$$$$$$$$$$$$$$@@@@@&&&#####$$$$$$@$$$$$$@$$@+@@@@@####@@@",
"$@+@$@@@@@@@$@@@$@@@@@@&#&#&#&#@@@@########@#*@&#@#@@@@@$@@@@@@@@@@@#########@+$@$@+++*****+++++++@$@$@$@$@+@*+++@%*%*+@",
"$@$@@$$@$$@$$$$$$@$$@@$$$$$$$$@@$$@#@%$@$@+&#@#$$$@$@&@$@@@@@@@@@@@@@**%******@@@@@@@@@@@@@@####&&&&@&@@@@@$@@@@@@@&$@@@",
"$$++$$$$$$$+$$@$@$@@@$$@&#####&@@$@@*******+%*+*++++++*+@@@@@@@@@@@#@@@&&$@@$@@$@+@$@$@@$@@@$+*$@$@+@+@+@+@@@@@$@@@$@@$$",
"#@@@@@@@@@@@#@@@@@##$&$@@**+**+*$$@@@@@@@@@@&@@@@@@@@@@$@$@$@$@$$@@@$@$$++@$@$@@@@$@@@@@@@+@@@@$++++@++$+$$@+@$$@+@$@@@@",
"%%+$@$$$$$+++++++++**$+$@$@$$@$@@&#@###@@@@@@@@$@$@$@@@@@@@@&@&@#&$@+@+@$@$$$@$+@$@$@$$$$@$@$@@@@@@@$@$@@$@@@@@@@@@@@@$@",
"+@@@@$$@+$+@$@@@@$@$$@$$$@$@@@$@@##@@***$@$$$@$$@@@$$@@&@@&@$@$$$$+$$@&#@#&@@@@@@@@@@@@@@@+@@@@&&&&@@##&&###&#&&@&#@#&@@",
"+++++++$$$@$$@$$@$$$$@@&@@@@$$$$@$***+@$@@@@@@@@@$@@@@@@++$++++$&&&@$#&+$$$@$@$@$@$$$$@#&@@&@@$$$+$$$@@@@@+++++++@*+$+@@",
"@@@@@@@@@@@@@@@@@&@@##@@@@$@@@@@$@@@@@$$@$$$$$@@@@@@@@@@$$$$$$$@&$+$@$+$$$$$$@$&&&@@$$$$%*+++$+++++++++***++++++++++@$@$",
"&&&##@@@@@@@@@@$#+*@@*+++++$++@@@$@$@$@$$$$$$$$@++++++$@++++++$++*+*&@@@@$#$$+$$++++$$@@@@@@@@@@@@@@@@@@@@&&&&&#@#&##$@$",
"*+++*+++@$$$$$$@$*$$@++++@+$$+$+**++++++@$+$+$+$+@+$+$++*@$@@@$@@@$@@%*+++@*$$@$@$@$$@@@@@@#@@@@@@@@@@@@@@@@$@+@$$$$$$&#",
"#@@@@@@@@$@$@$$$+$$$$+@$@$$$$@@@&#@&@&@&@####&#&&#&&&#@@$$@@$$@$$$@@$@@@+++++@++$+$+$@++++**+++++++++++++++++++++++++@@*",
"@@@@@@@$$$$$$$$@$@@@@@@@@@@@@@@$++$+$+$+$+*****++*++*++$$@$@@@@@@@@@@@@@@@&@@@@&@@@@@@@@@@&@@@&@@&@@@@@@@@####&##&#&&#@@",
"@+#&#@&&@&&@@@@@@@@@@@@@@@@@@@@@####&#@&@#@&#@#&&#&&##@@@@@@@@@$@@&&@@@@@@@@@@@@@$$@$@@$@@+@&#&@@@&@@@@@@@@%***+++++++++",
"@+@++*@$++++@$$@$@@@$@$$@@@@@@@@@++++@+@+@$$@+$$+++++++@$$$@@##&#&@+@$@$$@$@$@@$@$@@@$#&&@@##@$@@&@@&@####&#@@$$$+@$@+@$",
"@#@@+@@#+@&@@@@@@@@@@@$$@+$++++++@$$@$$@@@@$@@@@@@$#&&#@#&@&#@$+*+$$@$@@@@@@@@@@@@@@@&@+++@+***+++++++@%%%***++$$@$$$@$$",
"++++*@@@+##$#@+#&&&@@$+@@$@@@$@$@@+$++$$$@$@@+@$+#&#+@@+$$+#&@+@@$$++++++++++@@+$$$+$$$$@@@@@@@@$@@@$$@$@$@+$@$@$$@$@$@@",
"$@@@+#++@#@%@%+@%***+++$@$@$@@$@$$$$$$@#@&@@&@@$$$******++@+*%*++$@@@@@@@@@@@@*$$@@@@@@@@@@@@@@@@$@@@@@@@@&@@@@@@@@@@@$@",
"@#@@@$$$++.%@+@+@+@$@$$$$$@$@$@$@$@@@@@$*&@@$@@$@@@@@@&@@&@#&#&@&$$@@##@@@@@@@@@@@@@$@&@@@@@@@@@@@$$$+@+@$+@+$$@$@$@$$$$",
"+*.+**$&&#@@@@&&@#@@@@@@@@@@@@@@@@@@$@$@$$*++*+++@####@#@$+$*+*+@+$@@$+$$@@+$$@##&#@@@@+@+@@@@@@$$@@$@@@@@@@@@@@@@@@@@@#",
"@&&&+@$@**%++++#&$$@@@$@$$$$$$$$@$@$@$@$@@@@$@@$$@$%****++$$$@$$$$$$@@@$$$$@@$@@%**++$+$+@@++$+++@$$@&#@@$$$@$$$&&&@@@@@",
"@@$*+@@#&#&@#&@@+*$@@$@&#####@@@$$$@+@$$$+$#&&&&&&@&######@@@@@@@@@@@$$$$$$$$$@$@@$@$@$$@@&##@&###@@@@+*+@$@$@$$@**+++++",
"@@++$$@+*+++++$$@$$$$$$$+%%***$+$@$@$$$$$@$@*+$@&#&$@+@@@@$#&@@@@@@@@@@@@@@@@@$$$$$$$$$$$$$****+**++++@$@@###@@@@@@@@@@@",
"@$+*$@$$@$@$$@$@+$+$+$$$@@@@@@@@@@@@@@@@@@@@@@$@****+++****++++@$@@$@$$@$@$@$$@$@@@@@@@@@@@$$@@$@$$@###&++@%+%$$$@@#&&&&",
"$$+@@@@@@@@@@@@@@@@@@@@@@$@@$@$@@@@@@@@@@@@@@@@@@+@$@$$$+@$$@@@&$@@@$$$$$$$$$@$$@$$$@$$$@$$$@$$$$$@$+****$@$@+@+@+@$**++",
"+@@$@@$#&&&#&@@@@+@$@@@$@$$@$@$@+++@+@+@+++@$$$@$@$@@@@@@$$@$+$$+++++@$&@@@@&@@&&@#@@@@$@@$@$@$@$@$@$@$@@$&&@#@@@@#&####",
"*$$@@&@@*+++++$$@@@@$$+@@&&&@@@@@@@@@@@@######&$&&&@@$$@$@@@+@@@@@@@@@@@$@@@#&&&$+$$$@$$@@&&&#@@@$$$@$@$$@$++$+@@+$*+%%*",
"@$@&$@*@@@@@@@@$@+&#&#@@$$++$@$$@$@@$@@@$+++**++@$++@$@@@$@$$@$@$@$@$@@@@@$@+%+*+$$$$$$$@$$*+++@$$@@@@@@@@@@#@@$+$$$####",
"%%+**####$$@@$$@&@&@+$*@$@@$@$@@@@@$@+@$@+$@+@@+@$$$$+$@@+@@@@@@@@@@@@+$+$++$$@$$@$$@@@$@$@@$$@@+@$$@$$@$@$$$++$$@$@@%*%",
"+@@@$+*%%%+++++$@+$$$++@@@@@@@@&@@@$@@@$@@@@$@@$$$@$$@@@$@$@$@$$$$$$@@&@@@@@$@@$$@$$@@$@$@@@@@@$@$@$$$$@$@$$$@@$$$$$@@$@",
"@&@**$@@$@$$$$$$++++++$++++++++@*+++@@@@@@@@@@@@@@$$$$@+$$$$@$$@@$@$@@$*$$@$$$$@$@#@@$###&&&@$$$$$@$$@$$$@$$$$$$$@+$@&&&",
"++*+@@$@@@@@@@@@@#$$@$@$@@$@$$$@@@@@@$$@$@$@$$$$$@+@&@@@@@@@@@@@@@@@@@$@$#&@&@@@@@$*$$@*%*+**+$@@$@@@@@@@@@@@@@@@@$@$$++",
"#@@@@&&&@@@@$$@@$@*@@$&###&&&&&&@@@@@$@@$@$@$$@$$@$&&@$@@@@@@@@@@@+++$+$$$**+@@$@$@$$$@$@@@@&&#@@@&#&&@&&@@&@@#&+++$$$@$",
"$$@+$@$@+@@@#&@#@@@$@$@+***+++++++++++++++$$@$@@$$$$+++@+++++++++++@@@@&@&&#&&$$@$@$@$$@@@$$@$$@@++****+*++*+++**@&@@@@&",
"@@@#&@@@$@+$@@+#+$$@$@@@@@@#&@#&#@#&@#@&@@@$$$@$@$+@$@+@@$@$@$@$@$@$@$@$+++++++++$++$@$@@$@@@+@$*+@$@#@#@@@#@@@+@#@@@@@@",
"++++$@@$$+@&@$+$*$$@$@$$@@@&@@@$@@@@++*@+@$@$$$$$+@@$$@@$&&&&&&@@@@@@@@@@@@@&&##@$@@$@$@+$&+@$$++$@$@$$$$$@+@$$$@+%+@+++",
"&@&$@$@@#@@&+$+@&@&@@@@@@@@@++++++++@@@@@@@@@@@@@$$@&@@@@@++++++$@#@#&#&&&@@@$$@+&#@&@&$@$$+$$@@$@$@++$+$$+$$+@$@@@@@@@@",
"**@+$@@++@*$*+@+@*+*+@@@@$$+@$@@@$@@$$@@@##@@@@@@@$#&@&@#@#@#@@&$+@*+*++*+++$+$+$+$$$@++@@@@@@@@@@@@@$@@$$@$$@$@+&#@#@#@",
"**+*+++$+@*@@@@@@@@@@@@$$$+$$$@++@+$$$++@**%+++@@@@&+*+++++++++@+@@$@+$@+@$@$@$$$@@$$$$$@+$@$$@$$@$@$$$@@@@$@$@@@$****++",
"@@@@@@@$@@@@@@@@@@$@@@+@$$@$$@+@@$@$$$@@$@$@@@@@$$$@$$@@@#@&####$@@@@@@@@@@@@@$@$$$$@@$@$@@$@$@@@&&@@$$@$@$@@$@$@@@#@@##",
"##########@@$$+@@$+$@$@$$@@@@$$@+@$$$$@$@$$$@@+$$$$$$$$$++*@@++$*@$$@$$@+@$$$$@$$@$$@@@@#@@&@&@&@@++@+&@&@&@&@&@&@@@$$$+",
"%@@@+@+$+++*$$@$+@@$$@$@$$$$$@@@@@@@@@@@@@@@@@@@@@$@$@$@@$@$****++$$$$#&#&@@@@@@@@@@@@@+$+$+@+++$+@&@@@@@@@@@@@@@@$+@$$@",
"@#*+++++++@+@$$@$$$$@$@$$$$$@$$@$$@$$+$++++$+++@$$$@$@$@$+@$&&@@@@@@@@@**++$@$$@$@$@@$$$@@@@@@+@@@@@@@@+$+$+$+@+$+@@@@@@",
"@*+$+@+@++++@@$@$@@$$$$$$@$$$$$+@@@@@&&&&#&@@#@@@$@$$$@@$$$@@++@@@@@@@@@@@@@####&&&&$$@$@$@$$++@+++@%*+++@+@@@@@@@@+@@@@",
"**++$@$@@+@@@@@$#&@$@@@@@@@@@@@@@$@$+$@+$$$@+@$@@@@@@@@@@@@@@$@$++++@++@$@$$$****+@+$$@$$$$$@$@@$@@@@@@@@@#&@$@$@@@$@$@@",
"@+$&$$$$$@$+@$@+$+++@+#@@@@@@@@&@@@@####&#####@#@@@@@@@+$+@@+$@$@$@$@$@$&&&&$$+$$$$*++$+@$$$$$@+@$#&&@@@@$@@+++$++@+$@@@",
"****+++++$+$+$$$$@$@@@@*@+@+@+@++$$$$***+**%%**+@@@@@@@$@@&$&&#&#&&&&@@$@*+**@#@@@@@@$&@@@@@@@@&@&@*@+@$@$$@$@@$@$@$$#&&",
"$$$@$$@$$$@$@+@$$$$$$$@##@@&$$$$@$++++@@$@$@$@@#&@@@$$$$+@++@+++++++++$@$@+@@$$%*++++++*+++++++++*+++++++++$+###&#####++",
"+@$$$$@$@$$$@+@$$$$@$$$+**++*$&&&&@##&&&@@#@&@@@++@+$++++$$+++++++@$@$$$$@@@@$@$@@@@@@@$@#&@#&&#&#&@#@@@@@@@@@********+*",
"$#&&&&@&&&&&&#&&&&#&#&@@@@$@@@$*+++++%++++***+*#@**++%@+$$$$@$@$###&#$@@@@@$$$@##&@@@@&@#$$@$+$$++@$$+@$@@$@$@@+@@@$@$$@",
"$@*+*+++*+&###+@@$$+$++@$@$&#@#@#@#@&#&&&#&#@#&#*+@@@$@@@@@@@@@@@%%%+*++++++@$@$*++$$$$$$@$@$@@@@@$@@@@@@@@@@@@@@@@@@@@@",
"$+$@+@+$@+@**%*@$&&@#&#&#@@@@@@@@@&@@@*@+$$$@$$+$*&&#@@@@@@@@@@@&@@@@#####@&@@@@@@@@@@#@$$+$@$$+@$$$&+##@########&@&@#@#",
"@@+@@$$@@$&$@$@$@*+******++++++@+++*+$$++@+$$$@$@$@+*++$+$$$@$$$@@$$$$*@$+@&@###@@@@@$$$@@@@@$@@$@@@#$&@++*.**%*%*++++++",
"#@#&&&&&&&&$@$@$$@$$$@$@$@&&#@@@@@@@@@@@$@@@@@@@@@@$@@$@$$$$$+@$$+@$$$@$*@$++@+**+$$@&@&@@@@@@@@@@@@$$$+*+@+$$@@@@@@@@@@",
"########&$$@$@$@@@@@@@@@@@@*+*$+@@$$$$+++++$*+++*+$$$$@$@@$@$$$$@$$$@+@$$$*+**+**+$+$****++++@@&#@#@@@$@@#@+@$+$+@++++++",
"@++++++++@@@@$@@@@@@@$@@@@@@@@@@@@@@@@@$$$$@$@$$@$$@+@$$$$$$@@@@@@@@@@@@@@@@@@@@@#&&#####&#@#@@$+*$*$+$@@@++&$&&&@@@####",
"+++++++++++@$@$@$$@$+$+@++++++++++++++++$@$@$@$@$@$@@@@@@@@@@$$@@&&&#&#&#&&&&&&&$#*@&+@+++@@+@@@@@$@@@$$@@@$@+@+++@@@***",
"@@@@@@@@@@@@+@@$@$@@+@@+@$@@$@$$$@#&##$@$@$$@@$@$$@$$@$@$$@@$@@$$$+*******+*+*+*+$+@****$$$$$@+@+@$&&&$@$@+*@$@$$$@$$$$$",
"###@#&@@@@@&&@@&&#@@@@####&&&&&#&@$+++*@@@@@$@@@@&&&&@&@&@#&+@$@$$@@@@@##&##&#&#&&&###&@&$$$$@$@+@$$***++$+@$$$@$@$$####",
"+%**@*+@$@$@*@&@@*+*$*+*+.%+**&+++@@@@@@$@@$&&@@&@$$@@$$@@$@$@@$@@@$@@$@**+*++++++++++++$$@$$$$+@$$$$@$@$$@$@$@@$$$@$***",
"@@$@$@@$@$@$@@****++@$$+@$$@$@$%#$$$@$@+@$$@$++++++++++++++$++@@@@@@@@@@@@@@@@@@@@&&&#&#@&$@$@@@$@@@@$+$$$$$$$$$@$@@+@$$",
"#@@@@@@$$$$$$$+@+@@+$@@#@&@@&@&@@+@##&$$$$@@@@@@@@@@@#&#$$@&#@@@$@$@$@$@@####&#&@&@$$$$@$@+&&@@@@@@$@@@@@@@@@@@@@@@@@@@@",
"$%++++++$$@$@$$@@$$+@@@$$$$@$$@$$$$$***@@@$@$@$@@$@$@$*+$$@$+++$+@$$@$$$$@%%%%**+*+@@@$$$@$@@$@@$@@@@@@@@$@@@@@@@$+@+@+$",
"&&@###@@@$@+@@$$@+$@@$&@@&@@$@$@@@$@+@#&@@$$$@$@$@$@$@$@$@$$@@@$@$$@&$$$$@@@@$@@$@@$+*++++&++++++++@++@$@@@$$$+@+@$@+$##",
"@++*+*+$$@@@&@@$+@@@$$@+@+++$$$@&####@@$+@+@@$+$$$@$$$$@$@$$$@&@@@@@$+@@@$@@$$@$$@$@$@$@$$@*#@@@@@$#@&&&@@+$$@$#$$&@+@$*",
"&@&@$@$@$@@++$@$$@@@#@@@@@@@$@@$$*****+++$@@+@$$$$$+@$$$$$$$$+@*+++++$$$$$########&#&@&&&&&@#@@@@@$&$$+$++@$@@$++$$*@$$@",
"@$$$$$#$$@$@$$$@$@@@@+@@@@$@@@@@@$$$$$$$$$@$$$$@$@$$$$$$$&&#@@@@@@@@@$@@@$@*%*%*%****++*+*++$++$$$+$+++++$+$$$$$@*@$@@$@",
"*$+++$$*$$$$$$$$@@$&#@#@@@$$@$@+++$$$$$@$$@@@$@+@@@@@@@$@@***$$@@$@$$$$$$$@$@$@$@+$$$@$@$@$@$*+*+*+@+@$@$$$@$@$@@$@$$@$$",
"$$@@$@@$@@@$@$@$@$+$++*++@$@&@@@&$@@$@@@$@$+@@@@@@@@@@@@#&##&#@@@&@&@&@@@@@@@&@@@@#@@@@@&@@@####@@@@@@@@@@&@@@$$+&@@@@@@",
"++*++$@$$$$$$$$$$$$$$@@$@@$$$$@+@@@&@@@&@&###@##&&#&#####&&&$$@@@$$@@@$@$$$++++$++++$@+@###&#@@@@##&@@+@$@$*$+$@#&$&@&@#",
"$####&@&&@#&@@&@@@&@@@$@$@$@@$@@@@@@@@@@@@@%@@@%%++$#@@@@#&**@+$+$+$$+$$@$$@@&&@#&#@&@@&@%**+****@**+@$$@$@$@$$@++++@$$$",
"$$++**+$++$++$@$@$@$@$$$+$$+$$@$@+@@+$@$@+$@@$@@@*$&$*****%%@$$@@@$@$$@$$@$$@@*+++++++$@@#@@@@#@#&#@#$$$$@@@@@@@@@@@@$$$",
"+$++++@++$###&$$$$$$$@@$&@$#######&##&@@@@@@@$$+++@@+$$@$@$+@$@$$$@$$$@$@$$$@@@@@@@@@&&#@##@@@@@@$##&*@@@$+$$$$@$@$$$$@$",
"@$@@@@$@@$@%*%++@$@$$$$$$*$$+*%*%***+**$+@+@$$+@+$@$$$@$$$@@@@@@@@@@@@&&@&@&@&@@@@@@@#@$@@%%@$@$+$$*%++$@####&&@$@&&&&&&",
"@$$@$@$$@@@&@@@@@@@@@@++@$@$+@+$+@+@@@@@@@@@@@@@&@####&###@@@@@@@@@@@@@$@$@@+@$$@+$@@+*+++++++++@@$@*$$@@&*++++@@@$+++++",
"@$##&@@@@@@@++$@&@@@@@@$$$$$$$$$$$$$+++++*+*@$$$$++*******.+$@+$@$$$@$$$$@@+@$$$$@&@@@@@@@@@@$$@&***+@+++++++++++$$$@$@@",
"#$$***@$+$+$@+$++*+*+**+@@#################@@$$$$$$$@@$@+$+$$@$$$+@+$+$$++@@@@@&$$$*@+$$$$+$$@$@@*@@@@@@@@@@@@@@&#&@@@@@",
"@$####&&&#&@@@@@@@@@@@@$@@@**+*++*+*$@$$$$+*$#&#@#@&@&@&#@#&@&@&@&@&@&#&&&#@@@++$&&#$@$$$@@@$@$@$#@@+@@@@@&@@@@@@@@@@+@$",
"@+#+++*+++$+@@@$@@#&@$@@@&@@@@@@@@@@@++++++@@@*++$$$$@+$$$$$@@$@@@@@@$$$+$++@@$$@@++@$@@@@@$@@&@$$+@@@@+++++$+$++*+++$@@",
"++@@@@@@@@@$$$@##@@$+@@@@$$$@$+@+@$@$$@@@@@@@@@$@$@$@$@@@@&@@@@@@$$+@+###&@@@*$@&@$@@@@@@@@&&&@&$@@$$$$$@@@@$@$@@@@@@@@@",
"$@@@+*@+@$$$$@$+%*+++*+++$@+@$$@$$$$$@+++++$+@+$+$##@@@@$$$$$@$@&@$$$$$****$@$@++++$@*+*+++*******++$+@+$+@+@@@$@$@@$+@$",
"&**+++&@@@@@@@$@@&@&&##&#@@@@@@@@@@@@+#&@@@@@@@@@@#+@#&#&#@&&@@+@%+$$$$+@+@$$$$@$$$$$@@@@$$@$$+$$$@$$@$@$$$@@++++++++$&&",
"$+&$@+$**+*+**+$$@*+**+***++@@@@@@$@@@@##########&@*+*****++*+++@$@@@@@@@@@@@@@@@@@@$$@@@@@@@@@@@@@@@$@$@@@$@@@@@@@@@$@*",
"+@@$@@@$@@@@@@@@$@####@&&#&#&@$$@+@@@$$@****++++$*+@$$@$@@$$@$$$@@@$@$@$@$@$$$@$@$@$$@@+$@$@@@@@@@@@@@@@@$@@@@@@$@@$@@@@",
"+$+*+++@+@$@@@$$@@@**+*++++++++++$+$+$@$@@$@#@@@@+$$@@$@@$$$@@@@@@@@@@@@@@@$@++++++$+@$$@$$$$@$$@$@@@@@@$@@$@@@@@@@@@@@@",
"&#&#@$$@@@@@@@@@@@$@@@@@@@@$###&@@@@@@@@$@###++++*$$$$$+$$+@###&@@@@@@#@@@+@++@@##&&&&#####&&#&@@@@$$$@@@@@@@@@@@@$$@@$$",
"$@$@$@@$$$$$$@$$$@&@@@@@$@#@@*%+$@$@@$#@$@$**+@+$@&&&#+$+$+$+...%*@@@@$*+$+++@$@+*+*********+*%+++@$@$@+@@+@@&@+$$@+$$$@",
"$$$$$@@#&#&&&@&&&&#+++*++$+*++*++@&&@@@%#@@@@#&####$$@*@@@@@@$@@@@&*+$$@+@$@@@@@@@@@@@@@#########@@$##@@@@@@@+++@@@@@@$@",
"#@@&@&@$+++$@$@$$$@+@@@@##&##&#&&#$$@$$#@*@@+@+***%+++++@$@+@$@$$$@++****+*$@###########@##&&@$$$$@&@++$$$$$@@$$@$@$$$$@",
"+******+++@@@@@&&&#@+@+$$****+*+***@@@@@%+@+@++++++++$+@@@@@@@@@@@@@@@@@@@@#@@%*+*+*++*@%+%***$$+&&#&@#@$@$$$$+$$$$@@@@@",
"##&#&&&#&#&@$$$$++*+++@@@$@@@@@@@@@@**+***+**+$@$@@$@$@$@$@$@$@$@@@@@@&@@@@@@+@@@@@@@@@$##@&@&#&#&+$@+$**@$$@$$@$$@$@$@$",
"#+@@@$$+$$+$+$$@$$$$@+$@$$$$$@+@####@@&@#####&@@@&@@@@@@@#@&@&@#@@@@@@@@@@@@$$@++++++++$$**+*******++$@*@++$+$@++$$$++++",
"++&*$$@@@@@@@@$@$@@@$$#&&#&&&#&@@..*%$++@**%*++++++@$@+@+@@$@$$@+$@@##&&&&&@@&@@@@@@@@@@+@$@@@@@@@@@+$**@@@$@$$@$@@#####",
"@$&@&@&&&@+++@$@$@$$@@@$$$$$$$$+@$+@@@#&########&#@&&&&&@@$@$$$$@$@$+*.+****$+$@+##@@@@@@@$@+@+@$$&@&&+@$+@@$$@@$$@$*%**",
"%@*+@$$*$@@#@&@@@@@@$@$$@@@@@@@@@@@@@@&++++$$$@$@@+&@@@@@$&@$@@@@@@@@@@@@@##&#####@@&&@+$$$@$@$$$$@*+**@@@&&&&&&&&@&#&&&",
"++@#+@$++**++$++*++++$&@$@@@$$$$@@@@@@@@@@@@+@+@+@$@+@@++$@$@&@@##&###&##&#$@+$+++++@+++$@@@@@@@@@@@@@@@@+@+++++++++++++",
"@*+*****$$$$$$@@@@@$@$@*@+@$@$$#&#@@$@@@@$@@@@&#@&@&#@@$$@@@+++@+**$$@+$+$$$@$@@$@$@@@$$$+$$+$$+@$+@@@$@#&#&@#@#@#@&&@#&",
"@+$@@@$$@$@$##&&#@@#&##@@@&#@@@@+++$@$$$@$$@$@+++++++++++@@$@$$$@$@@**++$$@+@@@@$@@&@$&+$#$@$$@@$@@$$#&&&&$$@@@@&$$$$@$$",
"**@+@$$@$@$$$$@@@**$****+++%*$+@++$@$@+&@@@@@@@$$$$$@$$$$@$##&#&&&#@@@@@@$+++++*++++*++*@$*@@@$$&@@#@@++*+*@@@++++@@@$$$",
"+@$@$$$$$$$@$$****@@$@@@@@@@#&@@@@@@$@$@+@$$$$$$$$$$$+@$$$$#+@@@$+*@@@@@@@@$&$$@$@$$$$@@+@@++++$$+++++++@++@++$@$@$@$$$@",
"$$@@@@@@@@@@$@@+@@$@$$@$$@$$$%+++*++++++$*++++++*@$@@@@@@@@@%*@@@$@$$$+@@@@$@+@@@@@@@@@@@#@@@@$$$$$$@@@$+@++$+$+++$$$@$$",
"$$$$@$$$$$$#&@&#@@@@@@@@@$$$@@$####&@#@@@@@@@@@@@@@@$@$$$$@$@$$%*%+++++#@@$$@$@#&#&@@@$$@+@++$@@$@$@@$$$@&##&##&&@@@$$$@",
"#@@$$@@@@@$$+**+#&&#&&#@@@@@@$$$*%**++++++$++++$+@##@@@@#@@@$$@@@@@@@@@@***+$$@+**+*+**+++++@@@@@@@@@@@@@@+*++++@@&&&&&&",
"$+@@&@@@&@@@$@@@#$*+@@@$&@@@$@@@@@@@@$@@##@####&&@&*@@@@&*$$+@++++++++++++#@$+++$@++@+@#@@@@@@@@@@@@@@@@@@@@@@@@@$++++++",
"$+@@@@$@$$@$#@$$@%*++%*%@*$$@&@@@@@@@@@@@@$$+$$@$@@$$*******+++@@@@@@@@@@##*@@@@@@@@@@@@*@@@@@@@@@@$@@@@@@@@@@@@@@@@@@@&",
"%*+*$+$+$+@@+*@@@@@@@@@@@++++++++$+$+@+$+$+$+@$$$$$+$*@@@@@@@@@@@$@@@$@$@@**+$++$+@+$++@+$$+++$++++++$+++$$@@@$$$@$@@$@+",
"$##&&###&@@$+$@@@$@@@@@@@@@@@@@@@@@@$###&###&&$@@@@@+$$$$@$@$@$$$$$$$$@+$$$$$@@$$$$@@@$&###&#&@#@@##############&#&#&&#&",
"@&@#&$@+@+@$+@@$@$$@@@@$@+@$+$$@+@@+@@+*+++*+++@$$@$@@+$@@@@@@@@@@&@&&###@&@@@@@@@@$@@&#@@$@$@@@+@$*******%%*+*+*+*$@&@&",
"#@$**+$*+*$@$@$$$@+$+$$$$&&&&#@&&&@@@$@$@+@@$$$@@@@@@$@@@@&#@&@@@@@@@@+$+$$$@&&@&@&&@&@$@++$@$$@$@&&&&&&######&@@@@$$**+",
"&&@$$&@@@$$$$$$$$$@$#&@@$$+++++++++@$$$$$$$$$$$$++*+*++@@@$++++$@++++$+@+$+@+++++++++++$+++++++++@$@$@$$$*****%*$+*+$#$@",
"@$+@+@**+$@@$$#&&&&&&@$@$@$@$$$$$$$$@@@@@@@@@@@@@@&#&@&@@@@@@@@@@@#####@&@&@&@#&#&#&#@@$@++$++$+$++*@$@@$@@&#&#&@##@@@+@",
"+@$@$&+$@$@+$#&+@$@@$&++$@$&&&@#@#@#@@&@@@&@#@#@#@&$+$+&@@@@@@@@@@#*%*%*@+$+$+$+++++++$@@@@@@@@@@&&&#+++@+$@$$$$++#*&+++",
"@$+$$++@@@@@@@+*++*+*+*$$$$$+++++++++@*+*@**$+++++++$$$@*+@@@@$@+$$@$@@@+@@@@@@$@@@&&&@$@$@$@$$$@$++++++++++**++@#@+++#@",
"@$@@@+@$$$++$@@@@@@@@$@@@@@@@@@@@@@@@@####&#@$+$$@$$$@$$@@+++++++@++$+$+@$@$@$@$@$@$*+*@@@@@@@@@@@@@@@@@@@@@@@@@@++@+++$",
"+*$++$@@@@@@@@@@@@@@@@@$$$@+@+$$+$@+$@+*%%%+*$$@+@+@+@$$$$$$$$$@+####&@@@@@$@$@@@$@#&#@##@#$@@$$@$@$@@$@$@$$@@@$++++++++",
"%+++*$$$$$$#####@@@@@$@$@@@@@$@$$@$@$&&&&##@@@@@@@@@@@#&##########@+@+$&@@@@&@&@@@&@$+@$$*#@@@@@$$$$$$$$$$$###@#&#&#&#&#",
"+@####&&&&#&++++*@@@@@@@@@+&&#@&&&&@&@$+$+@@@@@@&#&#&&&$$$$$$++++++++*+++++++++++++++++++##**+++@@@$@@$@@$@$%****@@@@@@@",
"$**%%%%*%**++++++@$$@$@$@$@@$$$$@+*+@@##&@@@@@@@@$$++@$$&@@@+@$@$$@$$@$@$@@@@$@$@@$@$@@$##+*@#&&$+@@$@@$$@$@$$##&#@#####",
"$@$+$$$$$@#@@@@@$$$$$$$$$$$@$@$@@+@@$*+%+*+*+++*+*+++**@@++$+$+$$$@$$$@$$@$@@@$&$&@##&&&&+++@+@@@@@$$@####$&$@@**++%*%%%",
"@$$@@@@$@@#$@$$@$$@$@$@$@$@$@$@$$+@$@@@@+@$@$@@$@@@$@@@#$@$@+$$@@$$$@@$@$$@$@@+#*&@#+$@@@$@@$$&@@*$@$@#+@@*&+@@@@@@$@$$@"};
