/* XPM */
static const char *LiteWoodData[] = {
/* columns rows colors const chars-per-pixel */
"128 128 8 1",
"  c #b97d48",
". c #cb8d57",
"X c #db9b71",
"o c #d3986a",
"O c #dba56e",
"+ c #e4a57d",
"@ c #b38858",
"# c #dbae87",
/* pixels */
"XoXOoXO+OXXXXoXOXX.o+OXXOO+O+oXXO.X........o..oXOX+OXO.X.o.............o..o.ooo.X..oooooo.ooooooXooXXOXoX.X.ooooooo.XX.oXXoXOXXO",
"XoXOo+X+OXOOXXOOXXOoO+XOO+XO+OXXOoo..o....oooOoXXOO+OooXO.oX..... ....o.Oo..ooOooooOoOXoo.oOoXOooOoXXOOO.oooooo.Xo..XXXXo.XXXoOO",
"XXXO.O+O+XXOXOOOOXooO+oXXXOO+Oooo..oo.o.o..Oooooo++O.OoX.Xo..............o..o.ooo..oooXoooooooXoOooXOOXXX.Ooo.ooX.o.oO.OooOoXXOO",
"oXOoO+X+OXoOO+OX+oX.O+XoXoOX+ooX.Xoo..o ..o...ooOoOXOOoXX...o. ...@......ooXXX.oo.X.oXO.ooooXOooooXXXOXoXo.o.O.o.X@oO.ooOooo+XXO",
"oXX.XOXO+oXXX+XOXXoXOOOXoOooO+oooOo......o.o...Xoo+Oo+ooo...o.........O..XoooOo.o.XXOooXoOoOooooooOXOXOOX.O.oo.XOoooXXXoXXoOXXXX",
"oOOXO+OXXXXOX+OXXOoOXOXOXXooO+oOooX.oo...o....XXXOOOO+X.X....... .....X.oooooooX.o.XOooX.ooooOoOoo.XXXXoO.X.oooo.o.XooOoXO.OOoXO",
"XOXOO+XOXOXXOOXXOOo.OO+OXoO.OOo.Xo.X.. ....@.ooOXOOOOOo...X..........X.X...Oooo.o.o.X.XX.oooooooXooXOXXoooX.Oo..Xo.X.ooooooXXooo",
"X+XOO+XOOo+XXOOOoOoXXOO+ooOOOXX.X.XX....oo.....XXO+OOOX....o........o.....ooo.o.o..oOoXO.oo.ooooo.o.OoOoo.o.X.oo.ooo.XOoOoOXoXOo",
"OXO+OOO+ooOXOOOo+ooo.OOoXO+oO+XXXo.X..o....@..ooX.+OOOoo.............X.X...Oo.Xo.X..XooXoo.OoooooOooXOO.OoOooooooo.oooooXXooOXXo",
"XOXOOOOo+o+O+O+OO+oXOXXXo+OoXOXoooX..o........OooOX++.X.X.............X...X.oooo.oooOoXXO..XO.oOooo.+XOOoooo.oo.X.oOoOXoXXoOooXo",
"XXOXOXOX++XOXOoX+oO.XOOOX+O.OO.X.X........o.@.ooOoXOOOo...............Oo.oX.Xo.oo.ooo.OX..O.oOoooXooXOXX.ooo.oo.o.oXooXOooOXXXoo",
"XoXOXOXXOXXOO+ooOXXX.OXX++OXOOXOXoX.........X.oooO++OX.X....... ......XX...+.oX.ooo.o.oooo.ooooooXoOXOXoooo.o.oo.ooooooooooXoXoo",
"X.O+OoXo+OO+OooO+.X.XOOXO+OOOXXoo....... ...ooOoXoO+X.X......... ........XX.XooO..oXX.Ooo..XX.O.OXXoXXXOoo.oo.X.oOoooooOoooooXo.",
"ooo+XooOOoO+ooXoXXOXXO+.OO+O.OOX.....o........oOoO+XOO...X..X... ......X..OooXooo.oooXX.o.OooOoooXXoOoX.X.ooooo.o.XooOooXooXOXXX",
"oooXOo+O+o+ooOoO+XO.XOOO++O.XOX.OX.XXo.....X.Oo.OOOOOoO.X..............X.Ooo.O.X.X.XooO..XooXoo.OXO.OXXXoX.oXooXo.oXooooXo.XXXOo",
"Oo+XXOO+oO+oXOX.XXOXOXOX++OXOO+OXoX..o......ooX.OO++O.XX...o.............X.oX.o.oo.ooXX.Xo.OoOoXXXOXO.XXOOX.XOOXXXX.XooOooOoXX.o",
".oXXOoOOOo+O.O.OOX.OOX+O+OX.OOOX.............OoX.+O+OOX.........  .......+.Ooo..ooo.OXo.o.OoooOoOXOXoO.OoXX.OooXoO.XO.XXoO.OXOXO",
"oXoXO.O+XoXoOOXoXXX.OOO++XXO+O+OXXXX......o...oXOO+OXOX..... .. . .....O.O.XX.XX.ooOoXOO..ooO.ooo.XX.XoXo.XOXoOoo.ooX.XO.oOoXooo",
".XXXOOXXXXXoOX.XO+XOXX.O+XOOOOO+O.Xo.o. ...o..XXOO+XO.X...... ... ......OXOoooo.Oo.oooooX.ooo.Xooo.XO.Ooo@+OooOoO.o.O.Xo.Ooooooo",
"oXOXooXOXOXOXOX.OX.XO+OXXOO+OO+OO.X.........o.OOoXO+OOX....... .. ....O..o.O...oX...ooXo.o..OoOooXO.oooooX##XOooX..X.X.Oo.ooOooo",
"XOXXOoO+O.OO.XoO+XOXOOX+OO+OO+O.XX.XXo.....O...XO..OOOX......... ....X.OX..XX.Ooo..XO.Oo...Xo.ooooX.OXX.oX###Xo...oo..oOo...XOoo",
"XOXO.oXXOXXXO.O.XOXOOOX.OOO+O.OXX.Xo.....o...oOXO.O+OOX..............OX.X.X.X.o.....oooo..OooO.Ooo+.Xo.O.O+#+o.....XOoooo...OooX",
"XXOXOoX.OXXXOXXoXOXXOOX+XO+O.OO.Xo.oX........ooOXOOXOO.X..... .. . ....O...+.....X..O.X..XXoOoooo.oXXXXoOX.XX.oo.oXXo.XX. ..OOOo",
"XOOoXOOO+XOOXO.XX+.OX+OOXOOOXXXXX.XX.......o..ooXXOO.XX........   ...O.OX..XX..X....+X.X.oooooooXOXXXOoX.X.@.ooo.o.OXXoO..O..X.X",
"XX.XXOOX+O+X.XO.X+OOO+XO.O+O.X.OO.oo.X.. ..@.Oo.XOOOX...X....... ....X...XOoO.o....oXoX.oOooXo.OX.OOOOXXo...oo.OX.XX.OoX....OOXo",
"XOoOoX+++XXOO.XXXXO+OO+OO+OX.XOXooX......o ....O.XOOXX....... ........X.O.X.o..o.o.ooOXO..ooooXXOXX+OXOXoO..oooX.o.X.O.O....OXoo",
"XXooOO+XOXXOXOXOXXOOOXOOXOOOXX.O.Xo..... ..o.+.XXOO+OXX.X.... .  ........X.....o....Xo.X..ooO.oX+XOOXoXooo@OoOoo@oo.oooo....OoOo",
"XO.oXXXOOOO+.XoX+XOOX.O+OO+OO.OXX..XX... ...X..O.OXXOOX..... . ..  .O.....OXo.......OoOoX.ooXOXXOXoOXoo.O.Oooo.Xo@o.OoooX.OOXooo",
"XoOoOoXO+oO+OX.OoXOOXX+O++OOOO+oOo..X.........X..O.X+O.X.... ..  . ..X...X..X..X....oooooo.OoooXXXooOoo..Xoo..oooooXoooo..X.X.Xo",
"X.oXO.O+XOOXXXO.XOOXO.O+OOOO++OX.o.Xo... ......OX.XOOOX.... .. . .....OX...oo X..o..O.X..oX.O.oXXO.OoO.O..o.o.oooo.XO.ooXO.XXoOo",
"XoXX.OXXXOOOoO.OX.+.XXOOXOXOO++XO......X.  .X.X..XXOOO.X.... .. .......X...Oo o...XXoXXO..X.XOooXoOXXo.o.ooo.X.O..oXX.XX..O.O.X.",
".XXO.OXOX.+OO+O.XOOX.OO+..OX+OXOX........ .....XXXOOOOX... .. ..   ...XO...o.X..o.ooo.OoX..XX.O.oX.OXoO.oO.oooO.o.ooOoO.OXXXX.oo",
"oooX.OooOXOXoOXX.XXXO+OOOXXOOXOoX.X.X.X.....o.XoXXOOO.O.... .... ....X..O.XOo..X.....oo.oo.XX.oXO.oXoo.Oo.o.oo.oo..Xoo.oo..OXoOo",
".oOXOoXOX+XOXO.XOXX.XOOOX.OO.OOOXX.X....o  .X..OXOOOXXX......   ........XX.ooooo.X..X.XX.X.XO.oo.ooXOoooo.oo.oX.X.oXO.oOX.XO.ooo",
".o.XO.X.XOoO.XX.OXXOXOO.XXOXOXXoXo....... . ..XOO.OX.O... .. ...  .....O.oO.Xo.X.X..XOoO..XXX.OoOo.oXX.oooo.o.oX.X@oXoO.XXO.+ooo",
"OooXooOOOX.XO.XXX.XX.OOXX.OO.O+X.X.X...... ..XXOO.XXXOX. .. . ..   ...O..o.Xooo.X...X.X....Xoo.oo.ooXoX.oo.o@ooo..oooooOX.XX.Ooo",
"ooXXO.XOXXXO.+O.XX.XO.OXXO+O.OXOoo..X..... ...OX.OO.OO... ... ... ....OXX..ooo.Xo...X.+X...XOX.oooooXX.Xoo.o.ooo@o.oX.oooXoXX.Xo",
".oXXOXo+oXXXXXX.XXOXXXOXXOXOXXOooX......... ..X.OXOOOXX....... .   ..X.X...oo.ooo..oX.X..o.XX..ooXoXOO.oo.o.o.X.o.oooOX.X.X.OXoo",
"oOXXo.XXoOXOOXX.OOX.XOXOOOOX.OXXX.X..X ... ...OOO.OXO........   . .....OOXoOoo.X..oo.O.O..OXOo.O.Oo+oOXoo.Xoo@O.Xo.X.XoOoXXO.X.o",
"o.XO..oXXOOXXOO.O.OX.OXO+OXOX+XOXX..X... .. X.XXO.XOOO.. .. . .  . ....X.ooo..oooX..X.oXoo.OoO.oOXXXXX.o.Xoo..Xo.o.X.O.oo.XOoOoo",
".XXoXoOOXX.+XOXXXXXOOOXOOOO+.OOO.X.X.X... ....O.XXO+OOX..... .. . ....O.X.oX.X.Xo...+.Oo...XOX.O.OoXXO.Ooo..ooo.o..XXX..X.X.Xooo",
"oooooX.OOOXOX.X.X.X.XO+X+OXXXOO+O.X....... ..O.O.OXOXX..... .   . .....X..X.XXX..X.X.o.o...XoO.OXooXXX.o.X.o..oX.o..oX.XO.X.Oooo",
".oO.OoXoXOXOXOOXXOOXOXOOOXO.OX.OX.XX....... ..OX.O.XOO.. ..       . ....OXO.O.X.Oo..X.X...X.XX.oOoOXX.X.o.o...Xo.o@+.X..oOoo.ooo",
"oooX+oXOOXXOOX.X.X.X.OXOOOOO.OOOXXX.X...... ..O.O.OXXO....     . ......OX.oOX..X...X..X..X.XOO.ooooXoOooooo..o.o.X.o.X.XX.oX.oo.",
"oooooOX.OX.XXOX.OXOO.OXOXOXOX.OXO.......... .O..O.X.O.O. ...  .  . . .O....X.X.oX.X.O.X...OoXO.OXOoO.ooo.X.oX..X.o.ooo.oo.X.XXo.",
".ooX.X.OOXXOX.X..XO.XXXOOOXXXO.OXX.X...........XX.XXO..... ... . ......X.XX.ooXo.X.X.X..X..OX.XXoXoX..oo..oo..o.oo.ooo...OoXoo..",
"ooooXXXOOXXOOXX.XXX.O.XO.OOOXXXO.X..............X.XOX.O.. . .  .  ......O...Oo...o..o.O.X..XXXOoOoOo.Ooo..X..ooo..o.oooo..O.o.Xo",
".XoO.X.XXOXOX.X..XO.XXO+O.OXOX.+XX......... ...oO..OO.X...... .  . ......X....o.X.X..oX..X.XOoO.X.XO.ooo.ooo.ooo..o.o....XooXoo.",
"ooXoO.XXX+OXX.X..OX.XOOOOXXO.XOO.X....X.... ....O..OOX.... .  . . .....OX.OX.X..O.o..X.Xo...X.X.X.OXooo..X..o..o.o..o.o.Xo.Oo..X",
"ooooXXXOO.X.XX..XX.XO.OXXOOOOO.XXX.............X.XXOO.X...... . ..... X....o...o..ooX..o...XOO.X.oooo.o.oooo.oX...o..X.X..oo.XXo",
"ooOXXX.XXOOX.OX.XXO.X.OOOOXOXOOX..X..X.......X.O.XXX+O.X....   .. .......X..o...Xoo....X..O.O.OoO..Ooo..o.o..ooo@Xo.X..oXo...X.o",
"OX.OXXXOOOXXXXXX.O.XXX+OOXXOOXOX.X.X..........X.O.OXXO.O...  . .. ........X..Xo.o..oo...X..X.XX.oX.Xo...oX.ooo.o....XooX.X..Xooo",
"XoX.XO.XXX.XX.X.XXX.OOOOOXXOO.O.X....X.  .....o..O.X.OX..... .  ........O.OXo...o..Xo......XXoOoOoooo.XX.X....oo..o.oo.ooo...Oo.",
"oooXX.XOXXO.XO.XXXXO.X.OXXOOXXXX.XX.X. .........X.XOOO..O.  .  ... ...O.X.o.......X...X.X...o.XX.X.oo..o..ooX.X..X.Xoo.oX..X.X.o",
"oOoooX.XOXXXOXO.X.OXXXO+.OXX.XXX.O...........X..XOXOOOOO... . . ........OX..o.o.....X.X...XO.o.oX.X.o.X..Oooo..oooo.o.o..XXoXXo.",
"oooX.XOO.X.O.XXXXXX.X.XXOXXOX.XO..X..... .. ....+.OOO.O.O.. .  . .......Xo.X. ..X......X....o.X.O.O.oX.ooo....X..X.o.o.XX.o.ooo.",
"oooOoX.OXXO.XX.X.X.XXO.XOXOOOXO.X........ . ....O..OXOXO....   ..  ....O..X....o. ........o..o.oXo.X.o.o...o.o....o....o.Xo.X...",
"oXoo.XXXX.XXXOO.XXO.X.X.OOXXO..XX...X..... ...X.X.XXOXO.O... .  . ....OO.X...@.o...o..Xo........OoOoo.o..X.@oo...X.oXo..o.o.oXXo",
"oo.XO.XX.+XOX.XO.XXXXXOXO.OXOOX.OX..X....  ......+XOXO..O.... .. . ...O.X.Xo ........X....X...o.o..Xoo..X..o.o..@X.oo.oo.X..Xoo.",
"oOX.XO.OXO.XX...OXX...XO.OOXXOXOOXX.... ... .XO..XO.XOO.X.. .  . .....X.......... ...o....Ooo@o..XOoo..X...o@..o..oo@o...ooX.Xo.",
"oooX..XXXOXOX.XX.X.XX.O.OOXXOOX.XX... .... ..oo.O.OXOOOO.... ..    .......X... ..........oo.o...oooo..X.X.X..Xo.ooo..Xo.Xoo.XXo.",
".X..XX..X.O.X....OXO.XXOOXOOX.OXXX.X....  . ....XOXXOX.X.... .    ......X.X...... ..X...X..X.o.oX..Xo.oo.....o@oooooo..oX.oX.Xo.",
"o.oXo.X.OXOXX.XXX.XOX.OXX.OOXO.OX.X... .. ......X..OXOX.O... .    .....O....o.@......o....+o.o@OooX.ooooo@.o..oo..oo..Xooo.ooooo",
"ooX.XXXXXXO.oXX.OoO.XX.XOOOX.OO.OXX.... .. .....XX.XO.XOO.... . . ......Xo.o. o......X.o...o@ooooo.X.oo@.o.o...o..ooX..o...X.XOo",
".o.Xo...XXXXX.X.X.XX.XX.OXXOXOX.X..X........  .o.O.+XXO.o..... .   .....X....... ........XX..o@oo.XoooooX..o..X..o.o..oo..Xooooo",
"o.X.XXX.O.O.X.o.OX.XX.XO.XOXXXOOXOX...... .....ooXOOX.OX.... . .   ....O..X.. .....o.o.......o.o.oo.oooX@.o..ooo.Xoo.o.X.Xoo.ooo",
"oo.oo.X.XOXXo..XooOXXoX.OXX.OX.O.XX..X.... .o..XXOX.OOoX.... .   .  .OX......@.. . ...o...Oo@@Xoo.ooo.o@#.....oo@.oX.XoooX.ooXoo",
"ooo.XX.XX.XooXo.XoXXXO.OXXXOOOXXXX.X.. ........XOXXXX.XO....  ..    .X...X.. .@...@..o....X..o.o.ooo.oooo..o.o.o.X.ooooo.ooo.ooo",
"oooXXoXX.OO.X..XooXXXXOX.OXXXOOX.OX..... ......oXXOOX..o.......    . .......@..@....@o.....X.o@X.oooo@X@X@.X.oooooo.oo.ooo.oXooo",
"oooXooX.XoXooX.oXoXOXoXXOXXXXXXXXXoXX..........XXOoXXOo.X.. .. .   ...o..o.@.......o.o....Xo@o.+.oo.XXooX.XX@oX@oo.ooooo.oo.o#oo",
"oooooXXoXXXoXoooXoX+OXXXXXXO.O.O...Xo... ....o.oXXXXX.X.o..... . .  .......@ .@....o.@......o@o.X@Xoooo@#@oo.oooo.oo@XooooooooXo",
"ooooooXXXoooooooooXX++oXOXOXOOXXXXXooX.. @.@o@.XXOoO.o.o.. ...     ..X..........o@o@......o@o@o.Oooooo#@oX.oo@oo.XoXXooooXoooo#o",
"ooooXXOXXXXo.XooXXXOOoOOXXX.O.XXo...o .....ooo.ooooOoX.o.. . .      ..... ..@@.....o@o..@o.@oX@Xoo.oooo@#o@Xooo@Xoooooo#ooooooXo",
"ooooXoXXXXoXoXoX+XoX+O+XOoooOXXoooX..... .o.@oXXXXXoXoo........    . X......@.o.o@...oo.o.o.X@oX.oXX@ooXooooooXX.oooo#ooooooXXoo",
"ooXoOoXoXXXXXXoo#oXOO+oO+XooooXoXo.o.o. ...o.XoXOXOOooX.Oo....      .......o@..@o.o@.oo@..o@Xo@XX@oXX#oo#oo@Xoo@Xoooo@#o#oo@+Xoo",
"o#ooXXXXOoXXoOooO+X+#XOXOoooXXooooooo.@..@o@oooX+O#+oo.oo... .      .......@.@o..@.o@@oo.o.#@ooooooXo@#@ooooo@#X@o@#o#oooo#Xoo#o",
"oooooXXoXXXXoo#XOooo#XXOXXXXXXXo.Xoo.o@.oo..oo#X+O+XXo@O....@ .    . ....@.@o.@oo.@.oo@@oo@oo@oooo@#oXX@#oo@oooooo@Xooooo#oooooX",
"#oooXoXXXOOXoOoo##ooXO##OXXoXXoo.oo@.o..o@oo@XoXXOO.oo.oo.... .    .. ....@.@.@.@o..@oX@oooo@ooo@+@oXo#oXoX@ooooooooo#o#oooo#X#o",
"oXoooXXXoX+XXXoO#XXo#oXOXXXXo.Xoo.o@X@.@Xo@o@XXXoXOXX@oo..o@o. .  . ......@o.oo.o@o@oo@.@oo@ooooo@#Xooooo#o@XX#ooooo##@#o#oooo#o",
"#oooXoXXoXOoooXX#XXo+o#XOXXXoooXooX.X..@o.XX@XoXXO+oOX....o...  .  .  ...@.@@o.X@X...oo.ooooX@X@XXXoo#ooXo@oXooo#@ooo##ooXooXoX#",
"ooooXXXXXoXXXXO#XXooXoOXXXOXoo@XoXoXo@o.o@X.Xo#XOOXoXoo.o@o@... .  . ....@. .@o@X@X@.o@@o.o@@X@+XXoXoo#@#oXo@#@#oX@#o#oX##ooXOX+",
"oXo#ooX#o+OXoXOX#X.o#XXoXXOX@#XoooooX..o@X.@ooXOXOOooo.ooX@.O..     ...@@.@o@XX.o.oo@Xo@X@XX@ooXooo#o#@#XoooooooooooXooXoooXX##+",
"XXooXo#o#o##XXOO#XXX#oXOOXOXooooooooo.X@Xo.oXXOo+XOOo..o@X.o....   . ..o..@@X.@X@X@Xoo@ooXX@Xoo@#ooXooXoXo#oo@#o#o@#o#ooo#XoOXX#",
"#XXoXoXo#O+#XOXX#XXX#XO+##X#XoooXooooo@.o@X@oOXXOXOoXoo..@o@o. .    ....@o@@oX@ooX@X@Xo@@XoXXo#XoOoO#o#oooooo#oooooooooXoXoo#XO+",
"oXXo#oXX#o#oXoXOXOXOXoO#X#XXoo#ooXXX@o@X@X.XX##XOO+XXo.o.X..o@..   .. ...o@..X@Xo@@X.X@Xooo@#XooXo#oXoooo#ooo@oo#oo@##oo#oXoXO#X",
"oXXo#XXX#oOXoXOX#OX+#O#+O#XOoooXX#XXX.o@o.oo@XXoOO+OXX@oo..o.@.. .  ..X@o@@@X@oX@X.ooX@o@oooooooXoo#o#o#o@oooX@#oooooXoXo#o#XOoO",
"oXXOOoX#X##XXXOoOOO+#XX#X+OXoXXOXXXXoo.o@..ooo+XO#OXXoooo...... .  ...@..X..o@X@X@oooooo@@X.X@#@ooXo#o#@#o#o@Xo@#o@#o#oo#ooo#XO#",
"XXO#oXX#O#XOoXXXOXXO+OoO#XOXXXXX+Xoooo..X@X@ooOXO#XOX.oo@..@o@. .  ...Xo@o@.oXo@XX@ooX@oXoX@o#ooo#Xo##oooX@o#o#@o#@ooOoo#XoXo#X+",
"OoOo#XOO++oXXooXX#XO+#+O+XOXooXX@XXoo.@X.o@oXoXX+OOX.X.@X.oo..@.  ..Xo@X XX@o@X.oo@ooX@Xo@XXoooooXoO#oo#oXooX@oXXo@Xo#o#oOoXOX#+",
"X##oOX#XX#OXX.oXXXOO++++#OXXo+XOOoooo.Xo@o@@ooOOOoXXX.X.@o.o.o. .  ..o.oo@X@.oo@@X@X@XXo@Xooooooo#oO#oooooo#@#@oXo#ooooO#oXXOXO#",
"oXXXOXO+oOXOX.Xo+X+O++#+O#OOXOXOXoooo..o.@o.@XoXXOX.o.o.o..@.o .@  .@X.oo.X.@Xo@Xo@XoXo@XXo@XooooooX#oo#ooooX@X#oo@Xo#oXoX#XOOO#",
"oXOXOXOOXOX#XoXOO+OO++#OX+OXO+OXooXoo@oX..oXooXXooo.o..o...X.@.@.  ..ooooX@.@oX@XoX@ooXooooX@oo@oooO#o#ooo#oXX@oo#X#ooXoOoooOO+O",
"XOOXXo+XOXO#XoXXO+++#+#OO+XO#XXXooo@.X.o@oooo@XXoXXo.o..oXo X@ .@.@..o.oo.X@ ooX@XoXooooXo@o#oo#o#oO#o#oXXoXoooXoooooOXooOoXX#XO",
"O#X+XXOXOX+OXoXXOO+OO++#X+OOOOXXX@XX...@X@oo@oXXooOXX.o..X.o... .. @..X.@oX@@.oXX@X@XoX@XX@oXoooXXXo#oXoXo@#oo@o#ooooOXX#OXoXOXO",
"+OXXOX#OXOO+OoooX+OXX++OXO++OOOXoXXX.@oo..@XooXX.XX.X.o.ooo....@ @....X@Xoo@.Xoo@XX@#oo#@X+Xoo#ooOooOX#o#o@oX@#XooXo@#oXOoXX+OXO",
"XOXXOXOXOX#+OooO+XOX+O+O+OXO+XXX.XXoo..X@ooo.oXXOOOoXX.X.oo.o@ ... ..o@.X.oo.oooX@oXooooXoXooooXooXXX#ooXXX#oX@o#ooooOoXXOooXOXO",
"XOOXOX+OXO+XXooXX+O+OO#O+OXO+XXOoXXoo@X.X.@o@XoooXOOXXoooooo ..@  ....o.@oX.@XoXoo@Xoo#oo@XXo#oXXXXXO#oXoooooooXo@#XooXXXXXOOoXX",
"X#XXXXOXXX#+O.oXX#O+O+++OOXXOOXo.XXoX.Xooo.oo.oXXOOXOX..X...X  .. .@.X@XX@oX@ooX@XXXXooooXoooooooOoo#OoooooXo@ooXoooooOoo#ooXXOX",
"XOXXOXOOXO+O+XOXO+O++X+++#OXOOXooooo.Xo.ooo.XoXXO+OXXo.@ooo....@.. ...X@X.oX@X@XX@XooXX@ooX#oooooX#XOXO#ooooooooX@XXXXXXXOoo#OXO",
"OOXOXX+XXOOO+X.X#O+OOO+++OXXXOXoXo.ooo.ooo.XX.XXOO+..X.......o@. @.@..oo@ooXXXXXoX@o#ooooooooooXoXXXOXXoooXoXoooXoXO@OooOoXXoo#O",
"O#XXOOXXO++OXX.O+O++O+#O+OXXOooo.ooXo.X.o@oXo@XO+OXX.o.o..XoX.. . ...X@XX@XXXXXoooXooooo.XXXo#oX@+oOXOoXo#oXoXoooOOoOXXOoOooOXOO",
"X+OXX+OXXO#OOXXXOO+OX+++O+OX.XX.XX.ooooo.X@XX.X+OOXX.Xo.o.X.o.@  ..@ X.@X.XX@ooo@o@oXXX@oXooo@XooXXXOoXXooooo#oXooooXOXo+XXoXXXX",
"++OXOO+O+OO++XXX+O++OOO+++OXXXXXX..ooooo.o.Xo.oXOXoO.o.o...X... .. ..o...oXX@XoooX.#oXX@XooooXoX.XXXOOOXooo#ooXo#@Oo#XX+oOXoOXXO",
"#+OXOXO+O++O+OXO#O++OX+++OOO.XXoooo..oo..X.oo@XOXXo.Xo.......o@..@ .@o.o.ooX@ooo.X@XXoXo.oXo.XXXooXXOO#OooooXXOXoo#oOOXOOXXXOoOO",
"++OXOXO+OX+++OXX++OO+OOOO+OoXXO.ooooX.o ooo.XoXXOXOX.X.o......@... .@.Xo@XoooXo@ooXooooo.oOoooXXOOXOOOo#XoooXOoXoooXXOOoOOXXXO#X",
"++OXXOOX+O#OOXXO+O+O++OO++OoOoX.o.XX.X@.ooo.XooOOX.XXoX..X.@... .@.. oo..oX@o@oX@oooooX@oooooOooOOXOOOOOooooXoOoO@XoOXXXO#oOXOXO",
"O#XXOO+O+OOO+XOO+O+O++OX+O+O.OXX.XX.o...oo.XoOoXO+o.OX..X...oo ..  .@..X@Xo.ooo.ooo@Xo+.XooooXoOXXXOOo#XXoo@OoXoX.OXOOXoXoXOXXXO",
"O#OXOX+O+++XOXOXO+O+O+OO++OOX.XXO.X.. o..o.ooooXXOXXOX.o..X.@X .. o o.@oX.XX@oX@X.XoooooooXoooOXOXOo+OXOo#@XXoXOoooOOXXoXoXXOXO+",
"O++XO+++O#+OOOoo+OOO+OOO+#+O.+X.X.OoX.@.X..X.XoO++OOoo..Xo......@. ...oooo@X.Xoooo.XoXooo.XOX+XOXOOXOOOooooO@OXXo@#XOOoOXOoOOooX",
"XOXOXO++OOOO+XoO+O+OoOO+++OOXO.ooo.oX .oo..o..oOO+Oooo.X....... @. @X oo.X@XX@X@ooX.XXX.ooXOXOXXoXXo+OoXO@ooXooooooOO#oXOOOXXOXO",
"OOXXX+++OO+O+Xoo+O+OoO+X+#+OXOO.Oo..oo... ....XOXOOOoo.X..X.. .. @ .X..XXXoo..Xo@Xo.XXoX.OXXXOXoXOOXXOoXoXXoooooo.oXOXXXOXXXOXXO",
"OO+XoO+++OO++OooO+O+oO+XOOOXOXX.ooX.oo.oo.o..X.XXOOoooX...X...@ ..  . oXXooX.ooo.o.oXooOooXXoOXOooooXXOXoXo.oOoooo@XOoXXOOXXXOoO",
"X#+XXO+OOOOO+X..+XOO++X+OXOXO.OOoooooo.X.X.o.OXOoO+Oo.o..X.X... ...o.X..XoXoo@Xo.XoooO@O.XoXXXoo.O.oOXXooOOoooooooXooXOXXXOOo.XO",
"X++oOO#+OOO+Oo.oOOOX++OOOOooOoXoX.oo.....o.oXoXXXOOoX..OX..X..... . ..@.ooXX ooX@ooooOXoooooXOOXooX.OOXO@ooO@oXXo.oXXOXoXOOXXXXO",
"XO+oO#O+O++OOX.OOXO++OOOOXooXoooXooo.....X.o.oXOOO+oX.Xo...oX.@. .@.o..X.XXX..oo.XoooXoOo.OoooOoo.O.OXXoOoXoOXOoo.OoOXX.XXOXOoXO",
"OOOXXOO++O++OXOXO+oOO+X+OXoOO+OXoo..Xo...oooooXOO++O.O....X.X.. .@....X.oXXX.oo.o.oooOooo.ooOXoo.OoXXOXX.X.ooXXoooooXXXXOoO.XXOO",
"XO#XOXO+OO+OOOoXOXOO+XOOXoXXO+OXoOo..X..X.o.o.ooo++OX.OX.......  .o .oXoo@XX@Oo.oooo.ooOoo.Xooo.XoXoOOXoXoOoooo.o@OoOXX.XooXXo+O",
"XO+OXX+O+O+OOoXOXXO+O+oOXXooOOXooX..X..oX.o.X.XO.++OOOX....X.... @. ooo.X.XX.ooo.o.oOoooo..oO.oX..oXOXXoOXoX@O.XooooXXOXOO.OXXOO",
"OXOXXOXOO+OOX.XXOOo+OX+O+oOO+OO.X..X..oo..X.X ooXOOOX.X......X. . .. X..o.Xooooo.oo.ooooo.Xoooooo.XXOXoXoOoX.X@OooooXXooXOXOOoO+",
"#X+OOOOOO++OX.XXOOOO+O+O+OXXO+Ooo XoXX..ooo.o..XoOOOOoX.XX.X. @.. ....oX..ooo.oo.oX.o.oo.o.OX.ooo.XXOooXOoooooooooOoXXXOOX+XOXOO",
"OXO+++OO+XO+OoXOXO+o+oO+XO.O+++oX..Xo...X.O..@X.OXOOOO.Xo....... .. ..Xoo..XoOo.X.ooo.Xo..XX.OXX.XX.OXXoXoOo@Ooooo.oOXXXXOoXO+XX",
"OX+O+OX+X+++..X.O+XOOO+o+OX+XOX.X.....oo.X.oooo.XOX+OOX........ . . oX..oXooooo.X.o.X.X..X.XXXO.OXXoOOooO@oooo.ooooXXOoooOXXOXXO",
"XO#+O+OX++OOXoOoXXOOOOoO+OOo+OX..X..XX...Xo.o.oooXOOOO..........@.  o..X.ooOo.X.Xooo.XXoo.XooXXX.oOoOXXXo.O@Oo.oo.X.XXXXOoXoXOXO",
"XOXO+OXOOOOOooO.XOOoX+O++OXO+OoOXo.Xo....o.o..oooOOXXOXX....X...... ..XXooooooXOoX..ooXo.oXO.OXOoXXXOXOOOooo.oo.XXOXooXoOOoXXO.X",
"XO+OOOXO+O+XOooOoXoOOOOoXOXOOOXo.Xoo....o.X.o.o.XOO.OoO.X..X....  . .X.ooooXX.Ooo.X.OoXoo.XXoXOXXoooXOXXOoO.Oo.oX@X.OoooOXOoXXXX",
"XOOOX+OOO+OOOoO.O+oXO+XXOOO+OOXXoooX..X..Xo.o..XX++OXoX...X.... .......X.oooOO.ooooo.oXo.oXooXXooOoOOOXoXO.oo.o.oOoOooOOXXoooXXO",
"XX+OXOO+O+OOXXXoOoXoOO+OO+O+OX.Xo.X...X...Oo..oOXO+OOoX......X .. ...X..Xo.XXX.ooo..XoX.o.O.o.XoOoo.OXXXOXXooo.oooooX.oXXX.OXOXO",
"XXOOXO++OO+OXoXOX+XoO+XXO+XOOOXOoXXX....oo..o.oXXO+OOO..X.X.... . .....o..o.X.ooooo.oXXO.ooOoOXoO.X+OOO.oXo.+@O.OoooX.XoXOXXXXXO"
};
